<svg width="40" height="40" viewBox="0 0 40 40" fill="none" xmlns="http://www.w3.org/2000/svg">
<path d="M24.262 0.166677C23.2025 0.726173 9.9525 8.74956 9.76202 8.96383C9.52393 9.20192 9.52393 9.41619 9.52393 19.5466V29.8913L9.82154 30.177L10.1073 30.4746H14.762H19.4168L19.7025 30.177L20.0001 29.8913V23.0345V16.1896H24.762H29.5239V23.0345V29.8913L29.8215 30.177L30.1073 30.4746H34.762H39.4168L39.7025 30.177L40.0001 29.8913V19.5466C40.0001 9.85665 39.9882 9.17811 39.7977 8.95193C39.5001 8.61862 25.0715 2.09808e-05 24.7977 2.09808e-05C24.6787 2.09808e-05 24.4406 0.0714455 24.262 0.166677ZM31.5001 6.09494L38.0954 10.059V19.3085V28.5699H34.762H31.4287V21.7251V14.8683L31.1311 14.5826L30.8454 14.285H24.762H18.6787L18.393 14.5826L18.0954 14.8683V21.7251V28.5699H14.762H11.4287V19.3085V10.059L18.012 6.10684C21.6192 3.94029 24.6549 2.15467 24.7382 2.15467C24.8335 2.14277 27.8692 3.92838 31.5001 6.09494Z" fill="#52C306"/>
<path d="M1.25 8.86859C0.97619 9.13048 0.952381 9.24952 0.952381 10.2971C0.952381 11.2375 0.916667 11.428 0.773809 11.428C0.666667 11.428 0.452381 11.5589 0.297619 11.7256C0.0119048 11.9994 0 12.0827 0 13.3683C0 14.8564 0.178571 15.642 0.654762 16.3563C0.928571 16.761 0.952381 16.9039 0.952381 18.1062C0.952381 18.9395 1.0119 19.5466 1.11905 19.7966C1.32143 20.3085 1.92857 20.8084 2.44048 20.9037L2.85714 20.9751V29.2485C2.85714 35.4029 2.89286 37.6528 3 38.0218C3.19048 38.6765 4.17857 39.6646 4.83333 39.855C5.95238 40.1884 6.84524 39.9503 7.67857 39.1051C8.44048 38.3551 8.57143 37.9147 8.57143 36.2005C8.57143 34.9505 8.58333 34.8553 8.86905 34.5815C9.25 34.1887 9.79762 34.1887 10.1786 34.5815C10.4643 34.8553 10.4762 34.9505 10.4762 36.1886C10.4762 37.4266 10.4881 37.5218 10.7738 37.7956L11.0595 38.0932H22.7738H34.5L34.6429 38.4504C34.7262 38.6527 35.0238 39.0218 35.3095 39.2717C36.4643 40.2836 38.0238 40.2241 39.131 39.1408C40.2738 38.0218 40.2738 36.26 39.131 35.141C38.3333 34.3553 37.3333 34.1173 36.2619 34.4268C35.7262 34.5815 34.5238 35.6767 34.5238 35.9981C34.5238 36.1648 33.4167 36.1886 23.4524 36.1886H12.381V35.5219C12.381 34.5577 12.1667 33.9863 11.5833 33.3316C10.4524 32.0697 8.77381 32.0459 7.55952 33.2721C6.79762 34.022 6.66667 34.4625 6.66667 36.1767C6.66667 37.4266 6.65476 37.5218 6.36905 37.7956C6.19048 37.9861 5.94048 38.0932 5.71429 38.0932C5.48809 38.0932 5.23809 37.9861 5.05952 37.7956L4.7619 37.5099V29.2485V20.9751L5.17857 20.9037C5.69048 20.8084 6.29762 20.3085 6.5 19.7966C6.60714 19.5466 6.66667 18.9395 6.66667 18.1062C6.66667 16.9039 6.69048 16.761 6.96429 16.3563C7.44048 15.642 7.61905 14.8564 7.61905 13.3683C7.61905 12.0827 7.60714 11.9994 7.32143 11.7256C7.16667 11.5589 6.95238 11.428 6.84524 11.428C6.70238 11.428 6.66667 11.2375 6.66667 10.2971C6.66667 9.24952 6.64286 9.13048 6.36905 8.86859C6.19048 8.67812 5.94048 8.57098 5.71429 8.57098C5.48809 8.57098 5.23809 8.67812 5.05952 8.86859C4.78571 9.13048 4.7619 9.24952 4.7619 10.2971V11.428H3.80952H2.85714V10.2971C2.85714 9.24952 2.83333 9.13048 2.55952 8.86859C2.38095 8.67812 2.13095 8.57098 1.90476 8.57098C1.67857 8.57098 1.42857 8.67812 1.25 8.86859ZM5.69048 14.1659C5.61905 15.4754 5 16.1301 3.80952 16.1301C2.61905 16.1301 2 15.4754 1.92857 14.1659L1.88095 13.3326H3.80952H5.73809L5.69048 14.1659ZM4.7619 18.5347V19.0466H3.80952H2.85714V18.5347V18.0348H3.80952H4.7619V18.5347ZM37.7976 36.4862C38.3929 37.0695 37.9762 38.0932 37.1429 38.0932C36.6548 38.0932 36.1905 37.629 36.1905 37.1409C36.1905 36.6528 36.6548 36.1886 37.1429 36.1886C37.369 36.1886 37.619 36.2957 37.7976 36.4862Z" fill="#52C306"/>
</svg>
