<svg width="41" height="40" viewBox="0 0 41 40" fill="none" xmlns="http://www.w3.org/2000/svg">
<path d="M15.6093 0.0928802C12.1503 0.584774 9.23362 3.12488 8.28056 6.4633C7.99299 7.47934 7.91905 9.2937 8.11623 10.3501C8.6092 12.9224 10.2935 15.2045 12.6186 16.4544L13.0377 16.6802L12.6762 16.7689C8.42023 17.8333 4.6244 20.5992 2.33211 24.3085C1.3544 25.9052 0.541003 27.9695 0.187711 29.7597C-0.0587711 31.058 -0.0669872 31.5015 0.187711 31.7031C0.376681 31.8563 0.672461 31.8563 11.9367 31.8563L23.4885 31.8643L23.7761 32.2837C24.0144 32.6304 24.1787 32.7594 24.7374 33.0417L25.4029 33.3723L24.4662 35.3479C23.924 36.493 23.5296 37.4284 23.5296 37.5655C23.5296 37.7106 23.62 37.9122 23.7432 38.0574C23.9979 38.3638 24.2444 38.3718 25.4686 38.1541L26.3066 38.009L26.816 38.8879C27.3419 39.7911 27.5719 40.0007 27.9992 40.0007C28.4018 40.0007 28.6564 39.6137 29.5684 37.6784C30.1436 36.4607 30.5133 35.7672 30.6283 35.7027C30.8501 35.5818 31.7375 35.5818 31.9511 35.7027C32.0579 35.7592 32.4523 36.4849 33.011 37.6784C33.923 39.6217 34.1859 40.0007 34.5885 40.0007C35.0075 40.0007 35.2293 39.7911 35.7551 38.8879L36.2728 38.009L37.0697 38.1541C38.2446 38.3718 38.524 38.3557 38.8197 38.0735C38.9759 37.9122 39.058 37.7509 39.058 37.5896C39.058 37.4445 38.6636 36.5172 38.1132 35.356C37.5956 34.2593 37.1765 33.3561 37.193 33.3481C37.2012 33.34 37.4477 33.2271 37.7434 33.09C38.3925 32.7997 38.7705 32.4369 39.0416 31.8643C39.2388 31.445 39.247 31.3886 39.1813 30.4935C39.0827 29.0823 39.0744 29.1065 39.5592 28.1308C39.9618 27.3083 40.0029 27.1712 40.0029 26.6954C39.9946 25.8729 39.8714 25.6391 38.9348 24.6795L38.0967 23.8247L37.9078 23.0667C37.4641 21.1798 36.9054 20.6959 35.0239 20.5669C33.964 20.4943 33.964 20.4943 33.126 19.8654C32.4358 19.3493 31.8772 19.1154 31.3267 19.1154C30.6694 19.1154 30.275 19.2767 29.3877 19.9218C28.9604 20.2282 28.525 20.4863 28.4182 20.4863C28.3196 20.4863 27.9581 20.2605 27.5884 19.9702C25.7808 18.5348 23.3406 17.3172 21.1634 16.7769L20.8101 16.6882L21.566 16.2205C24.3677 14.4949 26.0027 11.4467 25.8055 8.30992C25.4768 3.14101 20.7854 -0.648991 15.6093 0.0928802ZM18.7807 1.52824C21.4592 2.21367 23.546 4.26188 24.2773 6.93906C24.5402 7.89866 24.5402 9.65657 24.2773 10.6081C23.5543 13.2369 21.5495 15.2287 18.8711 15.9867C18.3124 16.1479 18.0495 16.1721 16.8335 16.1721C15.5271 16.1641 15.3957 16.1479 14.7384 15.9383C12.5118 15.2125 10.9672 13.8981 10.0224 11.9306C9.44724 10.7371 9.36508 10.3339 9.35686 8.79375C9.35686 7.76964 9.38973 7.34226 9.49654 6.95519C10.3181 4.05222 12.6022 1.97175 15.5847 1.40728C16.398 1.25407 17.9591 1.31858 18.7807 1.52824ZM18.4603 17.6317C18.8547 17.6559 19.1751 17.7043 19.1751 17.7365C19.1751 17.7849 18.5342 18.2929 16.9814 19.4541C16.9157 19.5025 16.5213 19.2445 15.749 18.6639C15.1246 18.1881 14.5987 17.793 14.5823 17.7768C14.4837 17.6962 14.7138 17.6559 15.6504 17.5914C16.6445 17.5188 16.9896 17.5269 18.4603 17.6317ZM14.3358 19.2203C15.1656 19.8492 15.8476 20.4137 15.8476 20.4621C15.8476 20.5185 15.4121 21.0749 14.8699 21.6959L13.9004 22.8409L13.7607 22.6071C13.4813 22.1555 11.5341 18.7364 11.4848 18.6074C11.452 18.5106 11.5752 18.4381 12.0846 18.2768C12.4379 18.1639 12.7501 18.0752 12.7748 18.0671C12.7994 18.0671 13.506 18.5832 14.3358 19.2203ZM21.6974 18.2849L22.3794 18.4945L22.0179 19.1477C21.0319 20.9137 19.9474 22.7522 19.8899 22.7522C19.7831 22.7522 17.8441 20.4702 17.9016 20.4137C18.0084 20.3089 20.9415 18.0752 20.9826 18.0752C21.0073 18.0671 21.3277 18.1639 21.6974 18.2849ZM11.7067 21.6717C12.5365 23.1232 13.2759 24.373 13.3581 24.4537C13.5635 24.6553 14.0154 24.6392 14.2044 24.4376C14.2865 24.3489 14.3687 24.2924 14.3851 24.3085C14.4015 24.3247 14.229 25.2359 13.999 26.3326C13.7689 27.4292 13.5964 28.413 13.621 28.5098C13.6457 28.6066 14.0565 29.1065 14.533 29.6226L15.4039 30.5661H8.38737H1.36261L1.48585 29.9613C2.23352 26.0423 4.68191 22.4458 8.1491 20.1476C8.73244 19.7605 10.0306 19.0429 10.1538 19.0348C10.1785 19.0348 10.8768 20.2202 11.7067 21.6717ZM24.2526 19.3493C24.6059 19.5267 25.2386 19.8896 25.6576 20.1718L26.4299 20.6718L26.0602 20.8572C25.6411 21.0669 25.1482 21.5749 24.9756 21.97C24.9099 22.1152 24.7785 22.599 24.6716 23.0345L24.4909 23.8328L23.7104 24.5988C22.7737 25.5181 22.593 25.8568 22.5848 26.6551C22.5848 27.1793 22.6176 27.2922 23.0284 28.1227L23.4721 29.0259L23.431 29.7597C23.4064 30.1629 23.3653 30.5096 23.3489 30.5338C23.3242 30.5499 22.215 30.558 20.8758 30.5499L18.4356 30.5257L19.2983 29.5742C20.0706 28.7275 20.161 28.5985 20.161 28.3243C20.161 28.163 19.9803 27.1873 19.7584 26.1552L19.3641 24.2843L19.5695 24.4376C19.8159 24.6311 20.2185 24.6472 20.4157 24.4698C20.4979 24.3972 21.2373 23.1473 22.0671 21.6878C22.897 20.2363 23.5789 19.0429 23.5953 19.0348C23.6036 19.0348 23.8993 19.1799 24.2526 19.3493ZM32.3537 20.9137C32.6988 21.1717 33.1178 21.4459 33.2903 21.5346C33.6518 21.7201 34.3748 21.8571 34.9993 21.8571C36.0756 21.8571 36.3303 22.0749 36.5932 23.2038C36.8643 24.3569 37.0122 24.623 37.8749 25.4455C38.8773 26.4051 38.8937 26.4696 38.3268 27.6389C37.7763 28.792 37.7352 29.0178 37.842 30.1629C37.9817 31.5579 37.9324 31.6305 36.5521 32.2191C35.6566 32.6062 35.3279 32.8884 34.7528 33.7432C34.5063 34.1061 34.2352 34.4609 34.1448 34.5415C33.8572 34.7915 33.4136 34.7996 32.6413 34.5577C31.5567 34.219 31.187 34.2109 30.0943 34.5173C29.1001 34.7915 28.7304 34.7996 28.4346 34.5415C28.3442 34.4609 28.0649 34.09 27.802 33.7029C27.1858 32.8078 26.9311 32.6062 25.9451 32.1869C25.5015 31.9934 25.0414 31.7514 24.9263 31.6466C24.7209 31.4531 24.7209 31.437 24.7209 30.0177V28.5904L24.2773 27.6873C23.6857 26.4858 23.7021 26.4132 24.6799 25.4778C25.5179 24.6795 25.6658 24.4295 25.9534 23.3086C26.2902 22.0103 26.3642 21.9458 27.7445 21.8491C28.9194 21.7604 29.2151 21.6475 30.2668 20.8895C30.9323 20.4137 30.9816 20.3895 31.3513 20.4298C31.6635 20.454 31.8525 20.5508 32.3537 20.9137ZM17.5647 22.1797C17.5894 22.2442 17.8852 23.6231 18.222 25.2359L18.8382 28.163L17.8769 29.2113L16.9157 30.2516L16.3159 29.6226C15.979 29.2759 15.5436 28.8001 15.3382 28.5662L14.9602 28.1389L15.5107 25.502C15.8147 24.0505 16.1023 22.7038 16.1434 22.5022C16.1926 22.2603 16.3405 22.0023 16.5624 21.7442L16.8992 21.3572L17.2114 21.712C17.384 21.8975 17.5401 22.1152 17.5647 22.1797ZM36.815 35.6624C37.1026 36.2833 37.3244 36.8075 37.2998 36.8317C37.2751 36.8558 37.0204 36.8317 36.7329 36.7833C35.8044 36.622 35.6401 36.6542 35.3772 37.001C35.254 37.1784 35.0568 37.4848 34.95 37.6864C34.8349 37.8961 34.7199 38.0654 34.6953 38.0654C34.6624 38.0654 33.8901 36.5172 33.734 36.1301C33.7176 36.0978 33.8654 36.0333 34.0626 35.9849C34.6871 35.8237 35.1554 35.4689 35.6237 34.7673C36.1331 34.0174 35.9852 33.9045 36.815 35.6624ZM26.8243 34.6141C27.3747 35.4527 27.7609 35.7672 28.5579 36.0011L28.8619 36.0898L28.4018 37.0736C28.1388 37.6219 27.9088 38.0654 27.8841 38.0654C27.8595 38.0654 27.7362 37.8719 27.6048 37.638C27.4733 37.4122 27.2761 37.0978 27.1693 36.9526C26.9475 36.6542 26.7421 36.6301 25.8548 36.7833C25.5672 36.8317 25.3043 36.8558 25.2796 36.8317C25.2303 36.7752 26.4217 34.2028 26.4956 34.1948C26.5285 34.1948 26.6764 34.3883 26.8243 34.6141Z" fill="#52C306"/>
<path d="M30.2668 22.8733C28.6236 23.212 27.235 24.4135 26.6353 26.0182C26.4792 26.4133 26.4545 26.6633 26.4463 27.5422C26.4463 28.4292 26.4709 28.6712 26.6353 29.1308C27.2022 30.7274 28.6318 31.9531 30.3489 32.3079C32.6741 32.7918 35.1225 31.4048 35.9441 29.1389C36.1906 28.4776 36.2481 27.1552 36.0673 26.4536C35.4183 23.9135 32.8466 22.3249 30.2668 22.8733ZM32.0086 24.1232C33.1095 24.349 34.0462 25.0747 34.5309 26.0827C35.0567 27.1552 34.9582 28.4938 34.2927 29.5017C33.7504 30.3242 32.8631 30.8887 31.836 31.0661C30.3161 31.3242 28.7139 30.4775 28.0238 29.0582C27.7773 28.5421 27.7609 28.4615 27.7609 27.5825C27.7609 26.7117 27.7773 26.6229 28.0238 26.1149C28.755 24.607 30.3818 23.7925 32.0086 24.1232Z" fill="#52C306"/>
</svg>
