<svg width="40" height="40" viewBox="0 0 40 40" fill="none" xmlns="http://www.w3.org/2000/svg">
<path d="M13.3553 0.148926C13.2068 0.227051 12.9801 0.422359 12.8472 0.578609C12.6283 0.852043 12.6127 0.930168 12.5892 1.60985L12.558 2.34421H12.1749C11.8622 2.34421 11.745 2.38327 11.5964 2.53952C11.487 2.64108 11.401 2.82077 11.401 2.93014C11.401 3.03952 11.487 3.2192 11.5964 3.32076C11.7841 3.51607 11.8075 3.51607 13.1599 3.51607C14.5123 3.51607 14.5357 3.51607 14.7234 3.32076C14.8328 3.2192 14.9188 3.03952 14.9188 2.93014C14.9188 2.82077 14.8328 2.64108 14.7234 2.53952C14.5748 2.38327 14.4576 2.34421 14.1371 2.34421H13.7384L13.7618 1.77391L13.7853 1.21141L15.724 1.18798C16.7871 1.18016 17.6548 1.19579 17.6548 1.23485C17.6548 1.27391 17.2405 2.18797 16.7402 3.26608L15.8178 5.2348L13.9025 6.17229C12.7769 6.72697 11.9248 7.1879 11.8388 7.29728C11.6043 7.60196 11.7997 8.06289 12.2062 8.16445C12.3313 8.1957 12.8863 7.96914 14.0042 7.43009C14.9031 6.99259 15.6458 6.64103 15.6692 6.64103C15.6849 6.64103 15.7005 7.96133 15.7005 9.57069V12.5003H10.9242H6.14782L6.17909 12.0785C6.24945 11.2738 6.3667 11.1644 8.46173 10.1332C10.5099 9.12538 10.5958 9.04725 10.3535 8.53945C10.1034 8.02383 9.97828 8.05508 7.24224 9.43006C5.84295 10.1332 5.57716 10.3519 5.20975 11.0863C5.04559 11.4222 5.02995 11.555 5.0065 13.1331L4.98305 14.8284L4.54528 14.8597C4.20914 14.8909 4.06843 14.9378 3.95899 15.0784C3.77138 15.305 3.77919 15.555 3.98244 15.8128L4.13879 16.0159H5.57716H7.01554L7.17188 15.8128C7.37513 15.555 7.38295 15.305 7.19533 15.0784C7.08589 14.9378 6.94518 14.8909 6.60904 14.8597L6.16346 14.8284V14.2503V13.6722H10.932H15.7083L15.6849 14.3909L15.6614 15.1019L10.9867 17.3831C8.41483 18.6409 6.17909 19.7659 6.00711 19.8831C5.83513 20.0002 5.5928 20.2581 5.4599 20.4534C5.05341 21.0705 4.99087 21.4221 4.99087 23.1408V24.6877H4.57655C4.24041 24.6877 4.12315 24.7268 3.99026 24.8674C3.56813 25.3205 3.96681 25.8595 4.72508 25.8595H4.99087V26.4455V27.0314H4.57655C4.24041 27.0314 4.12315 27.0705 3.99026 27.2111C3.68539 27.5314 3.81046 27.9611 4.24041 28.1251C4.52183 28.2267 6.62467 28.2267 6.93736 28.1173C7.35168 27.9689 7.46894 27.5158 7.1797 27.2033C7.04681 27.0705 6.92955 27.0314 6.59341 27.0314H6.16346V26.4455V25.8595H6.42924C7.00772 25.8595 7.33604 25.6252 7.33604 25.2189C7.33604 24.8752 7.07026 24.6877 6.59341 24.6877H6.16346V24.1018V23.5236L8.39919 23.5002L10.6349 23.4768L10.8304 23.2502C11.0414 23.008 11.0258 22.7346 10.7991 22.4768C10.6818 22.3596 10.4629 22.344 8.41483 22.344H6.16346V21.9924C6.16346 21.5549 6.31198 21.1955 6.60122 20.9221C6.7263 20.8049 7.47676 20.3987 8.27412 20.0159C9.07148 19.6252 11.0571 18.6643 12.6909 17.8596L15.6614 16.4144L15.6849 19.2815C15.6927 20.8596 15.6849 22.1955 15.6614 22.2424C15.638 22.3205 15.2862 22.344 14.2543 22.344C12.9879 22.344 12.8707 22.3596 12.73 22.5002C12.558 22.6721 12.5267 22.969 12.6518 23.2033C12.7847 23.4455 13.1755 23.5158 14.4576 23.5158H15.7005V24.3127L15.6927 25.1174L12.9332 30.7423L10.1815 36.3672L5.52244 36.4063L0.863357 36.4454L0.566302 36.6797C0.0659973 37.0938 -0.0199925 37.336 0.00345928 38.2969C0.026911 39.0859 0.0347283 39.1406 0.261429 39.4219C0.394322 39.5781 0.621022 39.7734 0.76955 39.8516C1.03534 39.9922 1.68417 40 20 40C38.3158 40 38.9647 39.9922 39.2304 39.8516C39.379 39.7734 39.6057 39.5781 39.7386 39.4219C39.9653 39.1406 39.9731 39.0859 39.9965 38.2969C40.02 37.336 39.934 37.0938 39.4337 36.6797L39.1366 36.4454L34.4776 36.4063L29.8185 36.3672L27.0668 30.7423L24.3073 25.1174L24.2995 24.3127V23.5158H29.068H33.8365V24.1018V24.6877H33.4066C32.9297 24.6877 32.664 24.8752 32.664 25.2189C32.664 25.6252 32.9923 25.8595 33.5708 25.8595H33.8365V26.4455V27.0314H33.4066C32.9297 27.0314 32.664 27.2189 32.664 27.5627C32.664 28.0939 32.9688 28.2033 34.4306 28.2033C35.8456 28.2033 36.1739 28.0861 36.1817 27.5705C36.1817 27.2423 35.8847 27.0314 35.4156 27.0314H35.0091V26.4455V25.8595H35.2749C35.8221 25.8595 36.1739 25.6096 36.1817 25.2267C36.1817 24.8986 35.8847 24.6877 35.4156 24.6877H35.0091V23.1408C35.0091 21.4143 34.9466 21.0705 34.5323 20.4377C34.3916 20.2346 34.1414 19.969 33.9694 19.8596C33.7975 19.7424 31.5617 18.6253 28.9977 17.3753L24.3386 15.1019L24.3151 14.3909L24.2917 13.6722H26.1365H27.9814L28.169 13.4769C28.3879 13.266 28.4035 13.1488 28.2785 12.8675C28.1299 12.5316 27.9189 12.5003 26.0584 12.5003H24.2995V9.57069C24.2995 7.96133 24.3151 6.64103 24.3386 6.64103C24.4246 6.64103 33.1017 10.891 33.305 11.0316C33.5786 11.2191 33.8365 11.7738 33.8365 12.1722V12.5003H32.0777H30.311L30.1233 12.6956C29.8732 12.9378 29.8654 13.2738 30.1077 13.5003C30.2875 13.6644 30.35 13.6722 32.062 13.6722H33.8365V14.2503V14.8284L33.391 14.8597C33.0548 14.8909 32.9141 14.9378 32.8047 15.0784C32.617 15.305 32.6249 15.555 32.8281 15.8128L32.9845 16.0159H34.4228H35.8612L36.0176 15.8128C36.2208 15.555 36.2286 15.305 36.041 15.0784C35.9316 14.9378 35.7909 14.8909 35.4547 14.8597L35.0248 14.8284L34.9935 13.1331C34.97 11.5316 34.9544 11.4222 34.7746 11.055C34.3603 10.2035 34.3056 10.1722 29.0211 7.58633L24.1588 5.21918L23.252 3.25045C22.7517 2.17234 22.3452 1.2661 22.3452 1.22704C22.3452 1.19579 23.2129 1.18016 24.2839 1.18798L26.2147 1.21141L26.2382 1.77391L26.2616 2.34421H25.8629C25.5424 2.34421 25.4252 2.38327 25.2766 2.53952C25.0265 2.78171 25.0265 3.07858 25.2766 3.32076C25.4643 3.51607 25.4877 3.51607 26.8401 3.51607C28.1925 3.51607 28.2159 3.51607 28.4035 3.32076C28.513 3.2192 28.599 3.03952 28.599 2.93014C28.599 2.82077 28.513 2.64108 28.4035 2.53952C28.255 2.38327 28.1378 2.34421 27.8251 2.34421H27.442L27.4108 1.60985C27.3873 0.930168 27.3717 0.852043 27.1528 0.578609C26.6447 -0.0385704 27.1528 0.000492096 20 0.000492096C13.9416 0.000492096 13.6133 0.0083046 13.3553 0.148926ZM21.9074 3.12545L22.7908 5.03949L21.3915 5.06293C20.6254 5.07074 19.3746 5.07074 18.6085 5.06293L17.2092 5.03949L17.8581 3.63326C18.2177 2.85983 18.6163 1.98484 18.7571 1.69578L18.9994 1.16454L20.0078 1.18798L21.0241 1.21141L21.9074 3.12545ZM21.1491 7.39884L20 8.55507L18.8509 7.39884L17.6939 6.25042H20H22.3061L21.1491 7.39884ZM18.0222 10.5238L16.8731 11.68V9.37538V7.07072L18.0222 8.22695L19.1792 9.37538L18.0222 10.5238ZM23.1269 9.391V11.68L21.9778 10.5316L20.8208 9.37538L21.9543 8.24258C22.5797 7.61758 23.0956 7.10978 23.1034 7.10978C23.1191 7.10978 23.1269 8.14102 23.1269 9.391ZM21.1726 11.3675L22.3061 12.5003H20H17.6939L18.8274 11.3675C19.4528 10.7425 19.9765 10.2347 20 10.2347C20.0235 10.2347 20.5472 10.7425 21.1726 11.3675ZM23.1269 14.2581V14.8441H20H16.8731V14.2581V13.6722H20H23.1269V14.2581ZM21.1491 17.1643L20 18.3206L18.8509 17.1643L17.6939 16.0159H20H22.3061L21.1491 17.1643ZM28.7631 18.5628C31.1865 19.7502 33.2737 20.8127 33.3988 20.9221C33.688 21.1955 33.8365 21.5549 33.8365 21.9924V22.344L29.0915 22.3283L24.3386 22.3049L24.3151 19.3518C24.3073 17.7346 24.3073 16.4065 24.3229 16.4065C24.3386 16.4065 26.332 17.3753 28.7631 18.5628ZM18.0301 18.0706L19.1401 19.1799L18.0066 20.3127L16.8731 21.4455V19.1956C16.8731 17.9612 16.8809 16.9534 16.8965 16.9534C16.9044 16.9534 17.4125 17.4534 18.0301 18.0706ZM23.1269 19.1956V21.4455L21.9934 20.3127L20.8599 19.1799L21.9699 18.0706C22.5875 17.4534 23.0956 16.9534 23.1034 16.9534C23.1191 16.9534 23.1269 17.9612 23.1269 19.1956ZM21.1726 21.2112L22.3061 22.344H20H17.6939L18.8274 21.2112C19.4528 20.5862 19.9765 20.0784 20 20.0784C20.0235 20.0784 20.5472 20.5862 21.1726 21.2112ZM23.1269 24.1018V24.6877H20H16.8731V24.1018V23.5158H20H23.1269V24.1018ZM22.0638 26.1877C20.7426 27.672 20.0391 28.4376 20 28.4376C19.9609 28.4376 19.2574 27.672 17.9362 26.1877L17.6392 25.8595H20H22.3608L22.0638 26.1877ZM18.2802 28.3283L19.2105 29.3517L16.3493 32.5079C14.7781 34.2423 13.3397 35.836 13.1443 36.0391L12.7925 36.4141L12.1358 36.3907L11.4792 36.3672L13.0114 33.2423C13.8556 31.5235 14.9657 29.2579 15.4816 28.2033L16.4197 26.2892L16.8887 26.797C17.1467 27.0783 17.7721 27.7658 18.2802 28.3283ZM26.0896 31.4064L28.5208 36.3672L27.8642 36.3907L27.2075 36.4141L26.8245 36C26.6134 35.7735 26.0427 35.1563 25.5581 34.6329C24.8154 33.8204 24.6434 33.672 24.448 33.672C24.19 33.672 23.8305 33.9688 23.8305 34.1798C23.8305 34.3985 23.9946 34.6251 24.7842 35.5079L25.5581 36.3672L22.7829 36.3907C21.2508 36.3985 18.7492 36.3985 17.2171 36.3907L14.4341 36.3672L17.2014 33.3048C18.718 31.6251 19.9765 30.2423 20 30.2423C20.0235 30.2423 20.5316 30.7892 21.1257 31.461C21.7276 32.1251 22.2983 32.711 22.3921 32.7501C22.7829 32.9298 23.2989 32.4532 23.1504 32.0548C23.1191 31.9688 22.5875 31.336 21.9699 30.6564C21.3602 29.9689 20.8443 29.3908 20.8364 29.3673C20.8052 29.2736 23.5412 26.3205 23.6038 26.383C23.635 26.4142 24.7529 28.6798 26.0896 31.4064ZM38.8005 38.2031V38.7891H20H1.1995L1.17605 38.2891C1.16041 38.0156 1.16823 37.7422 1.19168 37.6875C1.23077 37.5938 4.25605 37.5782 20.0156 37.5938L38.8005 37.6172V38.2031Z" fill="#52C306"/>
</svg>
