<svg width="40" height="40" viewBox="0 0 40 40" fill="none" xmlns="http://www.w3.org/2000/svg">
<path d="M19.5625 0.140959C19.4297 0.226929 19.2813 0.406686 19.2266 0.547365C19.0938 0.93814 19.1094 4.1425 19.25 4.48638C19.3672 4.75992 19.711 4.99438 20 4.99438C20.2891 4.99438 20.6328 4.75992 20.75 4.48638C20.836 4.28317 20.8594 3.80643 20.8594 2.49342C20.8594 0.578627 20.8125 0.328531 20.3985 0.117512C20.086 -0.0466132 19.8594 -0.0387979 19.5625 0.140959Z" fill="#52C306"/>
<path d="M5.89067 5.88542C5.58598 6.19022 5.53911 6.54974 5.75004 6.87017C5.96098 7.19061 8.14848 9.37113 8.37504 9.49618C9.14848 9.90259 9.90629 9.14448 9.50004 8.37075C9.36723 8.12065 7.06254 5.83071 6.82036 5.70566C6.49223 5.54154 6.17192 5.60406 5.89067 5.88542Z" fill="#52C306"/>
<path d="M33.1251 5.74474C32.8048 5.95576 30.6251 8.1441 30.5001 8.37075C30.0939 9.14448 30.8517 9.90259 31.6251 9.49618C31.8517 9.37113 34.0392 7.19061 34.2501 6.87017C34.4611 6.54974 34.4142 6.19022 34.1095 5.88542C33.8048 5.58061 33.4454 5.53372 33.1251 5.74474Z" fill="#52C306"/>
<path d="M22.1485 6.76078C21.9844 6.83894 20.3281 8.99602 16.875 13.6072C14.1016 17.3039 11.7891 20.4379 11.7344 20.563C11.6094 20.8599 11.7266 21.2585 12.0078 21.4852C12.2031 21.6337 12.3203 21.6415 15.2188 21.6415H18.2266L18.1797 21.9307C18.1563 22.0948 17.8281 24.5567 17.4531 27.4093C16.961 31.153 16.7891 32.6457 16.8438 32.7942C17.0078 33.2475 17.6485 33.4585 18.0625 33.1928C18.2813 33.0443 28.2422 17.9526 28.3203 17.64C28.3985 17.343 28.1641 16.9131 27.8516 16.7646C27.6328 16.6552 27.1719 16.6396 24.711 16.6396H21.8203L22.5938 12.0206C23.336 7.58141 23.3594 7.39384 23.2344 7.14374C23.1172 6.89365 22.7266 6.63573 22.4844 6.63573C22.4297 6.63573 22.2813 6.69044 22.1485 6.76078ZM20.5391 14.2011C20.0391 17.2023 19.9844 17.5931 20.0781 17.8119C20.2891 18.3121 20.3047 18.3121 23.2422 18.359L25.9063 18.3981L22.5 23.5719C20.6328 26.4246 19.0625 28.7849 19.0156 28.8318C18.9766 28.8708 19.1797 27.1045 19.4688 24.9006C19.7656 22.7044 19.9844 20.7896 19.961 20.6567C19.9375 20.5239 19.8281 20.3285 19.7188 20.2269L19.5156 20.0393L16.8672 20.0159C15.4063 20.0081 14.2188 19.969 14.2344 19.9299C14.2735 19.8205 21.0547 10.7936 21.0781 10.817C21.086 10.8248 20.8438 12.3489 20.5391 14.2011Z" fill="#52C306"/>
<path d="M0.492188 19.2572C0.234375 19.3667 0 19.7185 0 19.9999C0 20.2892 0.234375 20.6332 0.507812 20.7504C0.710938 20.8364 1.1875 20.8599 2.5 20.8599C3.8125 20.8599 4.28906 20.8364 4.49219 20.7504C4.76562 20.6332 5 20.2892 5 19.9999C5 19.7107 4.76562 19.3667 4.49219 19.2494C4.11719 19.0931 0.859375 19.0931 0.492188 19.2572Z" fill="#52C306"/>
<path d="M35.4922 19.2572C35.2344 19.3667 35 19.7185 35 19.9999C35 20.2892 35.2344 20.6332 35.5078 20.7504C35.7109 20.8364 36.1875 20.8599 37.5 20.8599C38.8125 20.8599 39.2891 20.8364 39.4922 20.7504C39.7656 20.6332 40 20.2892 40 19.9999C40 19.7107 39.7656 19.3667 39.4922 19.2494C39.1172 19.0931 35.8594 19.0931 35.4922 19.2572Z" fill="#52C306"/>
<path d="M8.39837 30.4806C8.17962 30.6057 6.12493 32.6377 5.8515 33.005C5.53118 33.4349 5.54681 33.771 5.89056 34.1148C6.19525 34.4196 6.55462 34.4665 6.87493 34.2555C7.19525 34.0445 9.37493 31.8562 9.49993 31.6295C9.80462 31.059 9.45306 30.3947 8.8515 30.3947C8.68743 30.3947 8.48431 30.4416 8.39837 30.4806Z" fill="#52C306"/>
<path d="M30.6172 30.6213C30.3594 30.8792 30.3125 31.27 30.5 31.6295C30.625 31.8562 32.8047 34.0445 33.125 34.2555C33.4453 34.4665 33.8047 34.4196 34.1094 34.1148C34.4532 33.771 34.4688 33.4349 34.1485 33.005C33.8828 32.6533 31.9297 30.7151 31.6407 30.5197C31.3282 30.3165 30.8828 30.3556 30.6172 30.6213Z" fill="#52C306"/>
<path d="M19.5625 35.1544C19.1875 35.381 19.1406 35.6311 19.1406 37.5225C19.1406 39.4217 19.1875 39.6717 19.6016 39.8828C19.8984 40.0391 20.1016 40.0391 20.3984 39.8828C20.8125 39.6717 20.8594 39.4217 20.8594 37.5069C20.8594 35.5921 20.8125 35.342 20.3984 35.1309C20.0859 34.9668 19.8594 34.9746 19.5625 35.1544Z" fill="#52C306"/>
</svg>
