<svg width="30" height="30" viewBox="0 0 30 30" fill="none" xmlns="http://www.w3.org/2000/svg">
<path d="M14.672 0.105719C14.5724 0.170197 14.4611 0.305014 14.4201 0.410524C14.3205 0.703605 14.3322 3.10687 14.4376 3.36478C14.5255 3.56994 14.7834 3.74579 15.0001 3.74579C15.2169 3.74579 15.4748 3.56994 15.5626 3.36478C15.6271 3.21238 15.6447 2.85482 15.6447 1.87007C15.6447 0.43397 15.6095 0.246398 15.299 0.0881343C15.0646 -0.0349598 14.8947 -0.0290983 14.672 0.105719Z" fill="#52C306"/>
<path d="M4.41788 4.41397C4.18936 4.64258 4.15421 4.91221 4.31241 5.15254C4.47061 5.39286 6.11124 7.02826 6.28116 7.12204C6.86124 7.42685 7.4296 6.85827 7.12491 6.27797C7.0253 6.0904 5.29679 4.37294 5.11515 4.27916C4.86905 4.15606 4.62882 4.20295 4.41788 4.41397Z" fill="#52C306"/>
<path d="M24.8438 4.30846C24.6036 4.46673 22.9688 6.10798 22.8751 6.27797C22.5704 6.85827 23.1388 7.42685 23.7188 7.12204C23.8888 7.02826 25.5294 5.39286 25.6876 5.15254C25.8458 4.91221 25.8106 4.64258 25.5821 4.41397C25.3536 4.18537 25.0841 4.1502 24.8438 4.30846Z" fill="#52C306"/>
<path d="M16.6111 5.07051C16.488 5.12913 15.2459 6.74693 12.656 10.2053C10.5759 12.9778 8.84157 15.3284 8.80055 15.4221C8.7068 15.6449 8.79469 15.9438 9.00563 16.1138C9.15211 16.2252 9.24 16.231 11.4138 16.231H13.6697L13.6345 16.4479C13.617 16.571 13.3709 18.4174 13.0896 20.5569C12.7205 23.3646 12.5916 24.4842 12.6326 24.5956C12.7556 24.9356 13.2361 25.0938 13.5466 24.8945C13.7107 24.7832 21.1814 13.4644 21.24 13.2299C21.2986 13.0071 21.1228 12.6848 20.8884 12.5734C20.7244 12.4913 20.3787 12.4796 18.533 12.4796H16.365L16.9451 9.01538C17.5017 5.68598 17.5193 5.5453 17.4255 5.35773C17.3377 5.17016 17.0447 4.97672 16.863 4.97672C16.822 4.97672 16.7107 5.01775 16.6111 5.07051ZM15.4041 10.6508C15.0291 12.9016 14.988 13.1947 15.0584 13.3588C15.2166 13.734 15.2283 13.734 17.4314 13.7692L19.4295 13.7985L16.8748 17.6789C15.4744 19.8184 14.2966 21.5886 14.2615 21.6237C14.2322 21.653 14.3845 20.3283 14.6013 18.6753C14.824 17.0282 14.988 15.5921 14.9705 15.4925C14.9529 15.3928 14.8709 15.2463 14.7888 15.1701L14.6365 15.0294L12.6502 15.0118C11.5545 15.006 10.6638 14.9767 10.6755 14.9473C10.7048 14.8653 15.7908 8.09511 15.8084 8.11269C15.8142 8.11855 15.6326 9.26157 15.4041 10.6508Z" fill="#52C306"/>
<path d="M0.369141 14.4429C0.175781 14.525 0 14.7888 0 14.9999C0 15.2168 0.175781 15.4748 0.380859 15.5628C0.533203 15.6272 0.890625 15.6448 1.875 15.6448C2.85938 15.6448 3.2168 15.6272 3.36914 15.5628C3.57422 15.4748 3.75 15.2168 3.75 14.9999C3.75 14.7829 3.57422 14.525 3.36914 14.437C3.08789 14.3197 0.644531 14.3197 0.369141 14.4429Z" fill="#52C306"/>
<path d="M26.6191 14.4429C26.4258 14.525 26.25 14.7888 26.25 14.9999C26.25 15.2168 26.4258 15.4748 26.6309 15.5628C26.7832 15.6272 27.1406 15.6448 28.125 15.6448C29.1094 15.6448 29.4668 15.6272 29.6191 15.5628C29.8242 15.4748 30 15.2168 30 14.9999C30 14.7829 29.8242 14.525 29.6191 14.437C29.3379 14.3197 26.8945 14.3197 26.6191 14.4429Z" fill="#52C306"/>
<path d="M6.2989 22.8605C6.13484 22.9543 4.59382 24.4783 4.38874 24.7538C4.14851 25.0762 4.16023 25.3283 4.41804 25.5862C4.64656 25.8148 4.91609 25.8499 5.15632 25.6917C5.39656 25.5334 7.03132 23.8922 7.12507 23.7222C7.35359 23.2943 7.08992 22.796 6.63874 22.796C6.5157 22.796 6.36335 22.8312 6.2989 22.8605Z" fill="#52C306"/>
<path d="M22.963 22.966C22.7696 23.1594 22.7345 23.4525 22.8751 23.7222C22.9688 23.8922 24.6036 25.5334 24.8438 25.6917C25.0841 25.8499 25.3536 25.8148 25.5821 25.5862C25.8399 25.3283 25.8516 25.0762 25.6114 24.7538C25.4122 24.49 23.9474 23.0364 23.7306 22.8898C23.4962 22.7374 23.1622 22.7667 22.963 22.966Z" fill="#52C306"/>
<path d="M14.6719 26.3658C14.3906 26.5358 14.3555 26.7234 14.3555 28.1419C14.3555 29.5662 14.3906 29.7538 14.7012 29.9121C14.9238 30.0293 15.0762 30.0293 15.2988 29.9121C15.6094 29.7538 15.6445 29.5662 15.6445 28.1301C15.6445 26.694 15.6094 26.5065 15.2988 26.3482C15.0645 26.2251 14.8945 26.231 14.6719 26.3658Z" fill="#52C306"/>
</svg>
