<svg width="40" height="50" viewBox="0 0 40 50" fill="none" xmlns="http://www.w3.org/2000/svg">
<path d="M20.0485 0.167187C19.5557 0.4016 19.0725 0.94857 18.9372 1.42717C18.8793 1.63228 18.4444 3.94714 17.9709 6.58431C17.0722 11.6145 17.0625 11.761 17.4201 12.4545C17.6907 12.9917 18.541 13.5679 19.0435 13.5679C19.2175 13.5679 19.2271 13.6656 19.2271 14.9256V16.293L18.7246 16.4395C17.6327 16.7618 16.7243 17.5725 16.1542 18.7251C15.816 19.4283 15.7966 19.5065 15.7966 20.4441C15.7966 20.9911 15.8256 21.5869 15.874 21.7725L15.9416 22.1143L14.7627 22.7883C13.8253 23.3157 13.5547 23.4329 13.4291 23.345C12.4918 22.6711 11.0809 22.4953 10.2112 22.9543C9.78603 23.179 2.9347 27.1738 2.58682 27.3984C1.36923 28.1896 1.42721 30.0845 2.68345 30.8268C3.49517 31.3151 3.66911 31.2761 8.30753 29.5961C14.0476 27.5254 13.661 27.6817 14.0959 27.1836C14.5887 26.6171 14.724 26.0603 14.5887 25.2692C14.5307 24.9468 14.5114 24.6538 14.5404 24.6245C14.5694 24.5855 15.0622 24.2924 15.6324 23.9604L16.6567 23.3645L17.1205 23.765C17.4781 24.0776 17.5844 24.2338 17.5844 24.4585C17.594 24.6148 17.4491 27.6622 17.2751 31.2272C17.0529 35.896 16.9852 37.742 17.0625 37.869C17.1205 37.9569 17.2848 38.0936 17.4201 38.162C17.7486 38.3281 18.1545 38.1523 18.3188 37.7909C18.3864 37.6444 18.5314 35.349 18.686 32.1747C18.8309 29.2152 18.9759 26.3631 19.0049 25.8259L19.0629 24.8492H20.0099C20.8989 24.8492 20.9666 24.8589 20.9666 25.0445C20.9666 25.152 21.2275 30.4263 21.5464 36.7653C21.8652 43.1043 22.1262 48.3396 22.1262 48.4079C22.1262 48.5056 21.6623 48.5349 20.0002 48.5349H17.8743V48.3103C17.8743 48.193 17.9612 46.4545 18.0675 44.4424C18.1932 41.9615 18.2222 40.7406 18.1642 40.6136C17.9323 40.1936 17.3428 40.1057 17.0239 40.4573C16.821 40.682 16.8016 40.848 16.618 44.4424C16.5117 46.5033 16.4248 48.2712 16.4248 48.3591C16.4248 48.5251 16.1542 48.5349 12.0859 48.5349C7.85335 48.5349 7.74706 48.5349 7.49581 48.74C7.16725 49.0037 7.15759 49.4335 7.48615 49.7558L7.71807 50H20.0002H32.2824L32.5143 49.7558C32.8235 49.453 32.8235 49.0819 32.5143 48.7791L32.2824 48.5349H27.9242C24.3101 48.5349 23.5757 48.5154 23.5757 48.3982C23.5757 48.3298 23.3147 43.0652 22.9959 36.7165C22.677 30.3677 22.4161 24.9371 22.4161 24.6636C22.4161 24.1948 22.4354 24.1459 22.8799 23.765L23.3341 23.3645L24.5227 24.0483C25.7113 24.732 25.7209 24.7417 25.6629 25.0445C25.518 25.8064 25.9529 26.9785 26.61 27.6133C27.2091 28.1994 34.6402 32.497 35.1814 32.5751C35.8288 32.663 36.3796 32.4677 36.8531 31.9988C37.5586 31.2761 37.6649 30.3286 37.1237 29.4984C36.8048 29.0101 29.5766 22.798 29.0355 22.5441C28.2721 22.1925 27.383 22.378 26.6293 23.0422L26.2717 23.3645L25.8176 23.1008C25.5663 22.9641 25.0638 22.6808 24.7063 22.4757L24.0492 22.1143L24.1265 21.7725C24.1651 21.5869 24.2038 20.9911 24.2038 20.4539C24.2038 19.5651 24.1748 19.4186 23.8946 18.813C23.3534 17.6702 22.2711 16.6935 21.1888 16.4102L20.7733 16.293V14.8963V13.4898L21.2951 13.1968C21.8652 12.8647 22.3098 12.3568 22.6383 11.6438C22.8509 11.1749 22.8509 11.1359 22.8509 6.34013V1.50531L22.6093 1.06578C22.0972 0.157417 20.9376 -0.252808 20.0485 0.167187ZM21.2178 1.59321C21.3917 1.72995 21.4014 1.896 21.4014 6.31082C21.4014 11.4582 21.4111 11.3801 20.667 11.8782C19.9712 12.347 18.8599 12.2396 18.657 11.6828C18.541 11.3801 20.2418 1.87646 20.4641 1.62252C20.638 1.4174 20.9569 1.40763 21.2178 1.59321ZM21.2468 18.0121C21.7589 18.2758 22.2131 18.7446 22.532 19.3599C22.8509 19.946 22.8509 21.2548 22.532 21.8408C22.0005 22.8664 21.1502 23.3841 20.0002 23.3841C18.7923 23.3841 17.9226 22.8078 17.4104 21.6943C17.2075 21.2353 17.1785 21.0692 17.2172 20.4148C17.2655 19.5944 17.4104 19.233 17.9419 18.6372C18.773 17.6995 20.1452 17.4456 21.2468 18.0121ZM31.8862 26.7636C35.7612 30.0845 36.0414 30.3384 36.0414 30.5826C36.0414 30.8072 35.7032 31.1491 35.4809 31.1491C35.336 31.1491 28.8712 27.4375 27.8952 26.7929C27.3734 26.451 27.1511 26.031 27.1511 25.4059C27.1511 24.5366 27.6246 23.8236 28.2044 23.8236C28.4073 23.8236 29.2674 24.5073 31.8862 26.7636ZM12.1246 24.3022C13.1006 24.7613 13.5451 25.9822 12.8686 26.3533C12.3275 26.6464 3.6981 29.6742 3.55315 29.6254C3.45652 29.5961 3.31157 29.4691 3.2246 29.3421C2.9347 28.8928 3.09897 28.7659 6.93533 26.5389C8.93565 25.3766 10.733 24.351 10.9166 24.2729C11.3612 24.0776 11.6607 24.0873 12.1246 24.3022Z" fill="#52C306"/>
<path d="M19.575 20.0241C19.0725 20.4245 19.3527 21.2841 20.0001 21.2841C20.6476 21.2841 20.9278 20.4245 20.4253 20.0241C20.2804 19.9069 20.0968 19.819 20.0001 19.819C19.9035 19.819 19.7199 19.9069 19.575 20.0241Z" fill="#52C306"/>
<path d="M11.1581 2.08158C8.94519 3.17552 7.34107 4.3769 5.50503 6.31083C2.56736 9.38753 0.750646 13.187 0.141854 17.4944C-0.215691 20.0339 0.141853 24.8394 0.740983 25.5036C0.953577 25.7478 1.56237 25.738 1.78463 25.4841C1.97789 25.2692 1.95857 24.8785 1.67833 23.5306C1.59136 23.0911 1.51405 22.0069 1.4754 20.7957C1.41742 18.5981 1.53338 17.4065 1.98756 15.5995C3.09885 11.1456 5.87223 7.19966 9.71826 4.60155C10.5107 4.06435 12.6269 2.92157 12.8299 2.92157C13.0231 2.92157 13.3324 2.45274 13.3324 2.16949C13.3324 1.81787 12.9651 1.45648 12.6173 1.45648C12.511 1.45648 11.8539 1.73973 11.1581 2.08158Z" fill="#52C306"/>
<path d="M26.8804 1.68113C26.6001 1.98391 26.6001 2.43321 26.89 2.70669C27.0157 2.8239 27.1509 2.92157 27.1896 2.92157C27.3732 2.92157 29.4412 4.03505 30.2046 4.54295C34.6884 7.53174 37.626 12.2298 38.4184 17.6702C38.6117 19.0474 38.5537 22.3488 38.3218 23.5306C38.0416 24.8785 38.0222 25.2692 38.2155 25.4841C38.4378 25.738 39.0466 25.7478 39.2592 25.5036C39.8583 24.8394 40.2158 20.0339 39.8583 17.4846C39.4234 14.3982 38.3121 11.4582 36.6211 8.9187C35.1039 6.65269 32.8427 4.46481 30.5138 2.99971C29.4991 2.36484 27.6245 1.45648 27.3152 1.45648C27.1896 1.45648 26.9963 1.55415 26.8804 1.68113Z" fill="#52C306"/>
<path d="M13.6221 10.6475C12.4336 11.4191 10.9454 12.9233 10.182 14.1051C9.05137 15.873 8.42325 17.7679 8.33628 19.7799C8.2783 20.9422 8.28797 20.9618 8.51022 21.1181C8.80979 21.3329 9.19632 21.3232 9.4669 21.1083C9.6505 20.952 9.68916 20.7957 9.76646 19.819C9.89209 18.012 10.5105 16.2246 11.5059 14.7205C12.1147 13.8023 13.5352 12.4251 14.5112 11.8098C15.4292 11.2238 15.6321 10.9503 15.4679 10.5108C15.3616 10.2275 15.091 10.0517 14.7624 10.0517C14.6368 10.0517 14.1246 10.3252 13.6221 10.6475Z" fill="#52C306"/>
<path d="M24.8027 10.1591C24.5418 10.3154 24.4162 10.7256 24.5418 11.0187C24.6094 11.1749 25.0249 11.5168 25.6144 11.9075C27.5278 13.1479 29.0546 15.1405 29.7407 17.2795C30.0596 18.2465 30.1562 18.8032 30.2432 19.9167C30.3108 20.7957 30.3495 20.9618 30.5331 21.1083C30.8036 21.3232 31.1902 21.3329 31.4897 21.1181C31.712 20.9618 31.7217 20.9422 31.6637 19.7799C31.5767 17.7679 30.9486 15.873 29.818 14.1051C29.0546 12.9233 27.5664 11.4191 26.3778 10.6475C25.4695 10.0615 25.1506 9.95402 24.8027 10.1591Z" fill="#52C306"/>
<path d="M7.06082 34.8217C6.75159 35.2221 6.80957 35.437 7.34106 35.9449C8.54898 37.0877 11.3997 38.6993 13.4483 39.4025L14.5789 39.7932L14.8495 39.5881C15.1491 39.3635 15.2457 38.9142 15.0814 38.5918C15.0234 38.4746 14.6466 38.289 14.0861 38.0937C12.2597 37.4491 10.298 36.3942 8.70359 35.183C7.75658 34.47 7.39904 34.3919 7.06082 34.8217Z" fill="#52C306"/>
<path d="M31.2773 35.2026C29.7312 36.3844 27.7405 37.4491 25.9142 38.0937C25.3537 38.289 24.9768 38.4746 24.9188 38.5918C24.7546 38.9142 24.8512 39.3635 25.1508 39.5881L25.4213 39.7932L26.552 39.4025C29.0354 38.5625 32.7945 36.277 33.0844 35.4175C33.2197 35.0365 32.9008 34.6263 32.4563 34.5872C32.176 34.5677 31.9924 34.6556 31.2773 35.2026Z" fill="#52C306"/>
</svg>
