<svg width="50" height="50" viewBox="0 0 50 50" fill="none" xmlns="http://www.w3.org/2000/svg">
<path d="M24.453 0.176137C24.287 0.2836 24.1015 0.508296 24.0331 0.684145C23.8671 1.17261 23.8866 5.17806 24.0624 5.60791C24.2089 5.94984 24.6386 6.24292 24.9999 6.24292C25.3612 6.24292 25.7909 5.94984 25.9374 5.60791C26.0448 5.35391 26.0741 4.75797 26.0741 3.11672C26.0741 0.723222 26.0155 0.410602 25.498 0.146829C25.1073 -0.0583277 24.8241 -0.0485582 24.453 0.176137Z" fill="#52C306"/>
<path d="M7.36346 7.35659C6.9826 7.7376 6.92401 8.18699 7.18768 8.58753C7.45135 8.98808 10.1857 11.7137 10.4689 11.87C11.4357 12.3781 12.383 11.4304 11.8752 10.4633C11.7092 10.1506 8.8283 7.28821 8.52557 7.1319C8.11541 6.92674 7.71502 7.00489 7.36346 7.35659Z" fill="#52C306"/>
<path d="M41.4064 7.18074C41.006 7.44452 38.2814 10.1799 38.1251 10.4633C37.6173 11.4304 38.5646 12.3781 39.5314 11.87C39.8146 11.7137 42.549 8.98808 42.8126 8.58753C43.0763 8.18699 43.0177 7.7376 42.6369 7.35659C42.256 6.97558 41.8068 6.91697 41.4064 7.18074Z" fill="#52C306"/>
<path d="M27.6853 8.45086C27.4802 8.54855 25.4099 11.2449 21.0935 17.0088C17.6267 21.6297 14.7361 25.5473 14.6677 25.7036C14.5115 26.0748 14.658 26.573 15.0095 26.8564C15.2537 27.042 15.4002 27.0517 19.0232 27.0517H22.783L22.7244 27.4132C22.6951 27.6184 22.2849 30.6957 21.8162 34.2615C21.2009 38.9411 20.9861 40.807 21.0545 40.9926C21.2595 41.5593 22.0603 41.823 22.5779 41.4909C22.8513 41.3053 35.3025 22.4406 35.4002 22.0498C35.4978 21.6786 35.2049 21.1413 34.8142 20.9557C34.5408 20.8189 33.9646 20.7993 30.8884 20.7993H27.2752L28.242 15.0256C29.1697 9.47664 29.199 9.24217 29.0427 8.92955C28.8963 8.61693 28.408 8.29454 28.1052 8.29454C28.0369 8.29454 27.8513 8.36293 27.6853 8.45086ZM25.6736 17.7513C25.0486 21.5027 24.9802 21.9912 25.0974 22.2648C25.3611 22.89 25.3806 22.89 29.0525 22.9486L32.3826 22.9975L28.1248 29.4648C25.7908 33.0306 23.8279 35.981 23.7693 36.0396C23.7205 36.0884 23.9744 33.8805 24.3357 31.1256C24.7068 28.3804 24.9802 25.9869 24.9509 25.8208C24.9216 25.6547 24.7849 25.4105 24.6482 25.2835L24.3943 25.049L21.0838 25.0197C19.2576 25.0099 17.7732 24.9611 17.7927 24.9123C17.8416 24.7755 26.3181 13.4919 26.3474 13.5212C26.3572 13.5309 26.0545 15.436 25.6736 17.7513Z" fill="#52C306"/>
<path d="M0.615234 24.0714C0.292969 24.2082 0 24.648 0 24.9998C0 25.3613 0.292969 25.7913 0.634766 25.9379C0.888672 26.0454 1.48438 26.0747 3.125 26.0747C4.76562 26.0747 5.36133 26.0454 5.61523 25.9379C5.95703 25.7913 6.25 25.3613 6.25 24.9998C6.25 24.6382 5.95703 24.2082 5.61523 24.0617C5.14648 23.8662 1.07422 23.8662 0.615234 24.0714Z" fill="#52C306"/>
<path d="M44.3652 24.0714C44.043 24.2082 43.75 24.648 43.75 24.9998C43.75 25.3613 44.043 25.7913 44.3848 25.9379C44.6387 26.0454 45.2344 26.0747 46.875 26.0747C48.5156 26.0747 49.1113 26.0454 49.3652 25.9379C49.707 25.7913 50 25.3613 50 24.9998C50 24.6382 49.707 24.2082 49.3652 24.0617C48.8965 23.8662 44.8242 23.8662 44.3652 24.0714Z" fill="#52C306"/>
<path d="M10.4978 38.1009C10.2244 38.2572 7.65605 40.7972 7.31425 41.2564C6.91386 41.7937 6.93339 42.2138 7.36308 42.6436C7.74394 43.0246 8.19315 43.0832 8.59355 42.8195C8.99394 42.5557 11.7185 39.8203 11.8748 39.537C12.2557 38.8238 11.8162 37.9934 11.0642 37.9934C10.8592 37.9934 10.6053 38.052 10.4978 38.1009Z" fill="#52C306"/>
<path d="M38.2715 38.2767C37.9492 38.5991 37.8906 39.0876 38.125 39.537C38.2812 39.8203 41.0058 42.5557 41.4062 42.8195C41.8066 43.0832 42.2558 43.0246 42.6367 42.6436C43.0664 42.2138 43.0859 41.7937 42.6855 41.2564C42.3535 40.8167 39.9121 38.3939 39.5508 38.1497C39.1601 37.8957 38.6035 37.9445 38.2715 38.2767Z" fill="#52C306"/>
<path d="M24.4531 43.943C23.9844 44.2263 23.9258 44.5389 23.9258 46.9031C23.9258 49.2771 23.9844 49.5897 24.502 49.8535C24.873 50.0488 25.127 50.0488 25.498 49.8535C26.0156 49.5897 26.0742 49.2771 26.0742 46.8836C26.0742 44.4901 26.0156 44.1775 25.498 43.9137C25.1074 43.7085 24.8242 43.7183 24.4531 43.943Z" fill="#52C306"/>
</svg>
