<svg width="46" height="46" viewBox="0 0 46 46" fill="none" xmlns="http://www.w3.org/2000/svg">
<g clip-path="url(#clip0_439_128654)">
<path d="M23.8984 36.4766C23.8984 36.9728 23.4962 37.375 23 37.375C22.5038 37.375 22.1016 36.9728 22.1016 36.4766C22.1016 35.9803 22.5038 35.5781 23 35.5781C23.4962 35.5781 23.8984 35.9803 23.8984 36.4766Z" fill="#52C306"/>
<path d="M43.0352 28.3906C43.0352 25.4181 40.6171 23 37.6445 23C34.672 23 32.2539 25.4181 32.2539 28.3906C32.2539 31.3632 34.672 33.7812 37.6445 33.7812C40.6171 33.7812 43.0352 31.3632 43.0352 28.3906ZM37.6445 31.9844C35.6631 31.9844 34.0508 30.3721 34.0508 28.3906C34.0508 26.4091 35.6631 24.7969 37.6445 24.7969C39.626 24.7969 41.2383 26.4091 41.2383 28.3906C41.2383 30.3721 39.626 31.9844 37.6445 31.9844Z" fill="#52C306"/>
<path d="M37.6445 33.7812C35.3805 33.7812 33.1229 34.7211 31.585 36.2449C29.5607 33.5847 26.4393 31.9844 23 31.9844C19.7063 31.9844 16.5148 33.4872 14.4154 36.2449C12.8771 34.7215 10.6198 33.7812 8.35547 33.7812C3.82643 33.7812 0 37.4841 0 41.8672V43.6641C0 44.1603 0.402191 44.5625 0.898438 44.5625H45.1016C45.5978 44.5625 46 44.1603 46 43.6641V41.8672C46 37.4841 42.1736 33.7812 37.6445 33.7812ZM1.79688 41.8672C1.79688 38.458 4.80032 35.5781 8.35547 35.5781C10.3008 35.5781 12.23 36.4401 13.4243 37.8102C12.6346 39.3354 12.2188 41.0354 12.2188 42.7656H1.79688V41.8672ZM23 33.7812C27.9993 33.7812 31.9844 37.8376 31.9844 42.7656H14.0156C14.0156 37.7719 18.0821 33.7812 23 33.7812ZM44.2031 42.7656H33.7812C33.7812 41.0354 33.3654 39.3354 32.5757 37.8102C33.77 36.4401 35.6992 35.5781 37.6445 35.5781C41.1997 35.5781 44.2031 38.458 44.2031 41.8672V42.7656Z" fill="#52C306"/>
<path d="M13.7461 28.3906C13.7461 25.4181 11.328 23 8.35547 23C5.3829 23 2.96484 25.4181 2.96484 28.3906C2.96484 31.3632 5.3829 33.7812 8.35547 33.7812C11.328 33.7812 13.7461 31.3632 13.7461 28.3906ZM8.35547 31.9844C6.37399 31.9844 4.76172 30.3721 4.76172 28.3906C4.76172 26.4091 6.37399 24.7969 8.35547 24.7969C10.3369 24.7969 11.9492 26.4091 11.9492 28.3906C11.9492 30.3721 10.3369 31.9844 8.35547 31.9844Z" fill="#52C306"/>
<path d="M30.1875 24.7969C30.1875 20.8336 26.9633 17.6094 23 17.6094C19.0367 17.6094 15.8125 20.8336 15.8125 24.7969C15.8125 28.7602 19.0367 31.9844 23 31.9844C26.9633 31.9844 30.1875 28.7602 30.1875 24.7969ZM23 30.1875C20.0274 30.1875 17.6094 27.7694 17.6094 24.7969C17.6094 21.8243 20.0274 19.4062 23 19.4062C25.9726 19.4062 28.3906 21.8243 28.3906 24.7969C28.3906 27.7694 25.9726 30.1875 23 30.1875Z" fill="#52C306"/>
<path d="M30.1104 6.66283C30.0047 6.33749 29.7236 6.1006 29.385 6.05147L25.5098 5.48889L23.7746 1.94147C23.6241 1.63298 23.311 1.4375 22.9678 1.4375C22.6246 1.4375 22.3115 1.63298 22.1606 1.94112L20.4259 5.48889L16.5506 6.05112C16.212 6.10025 15.9309 6.33749 15.8252 6.66283C15.7196 6.98816 15.8077 7.34508 16.0526 7.58372L18.8589 10.3187L18.1966 14.1809C18.1387 14.5178 18.2773 14.8586 18.5542 15.0594C18.8294 15.2594 19.1958 15.2878 19.5004 15.1278L22.9678 13.3046L26.4366 15.1278C26.7391 15.2871 27.1059 15.2605 27.3828 15.0594C27.6593 14.8583 27.798 14.5178 27.7401 14.1806L27.0771 10.3187L29.883 7.58372C30.1279 7.34508 30.216 6.98816 30.1104 6.66283ZM25.4841 9.36165C25.2725 9.56801 25.1756 9.86562 25.2258 10.1569L25.6607 12.6904L23.3858 11.4944C23.124 11.3568 22.8113 11.3568 22.5495 11.4944L20.2753 12.6904L20.7098 10.1569C20.7596 9.86526 20.6628 9.56801 20.4511 9.36165L18.6107 7.56793L21.1534 7.19873C21.4475 7.15627 21.7012 6.97096 21.8314 6.70424L22.9678 4.38094L24.1038 6.70424C24.2344 6.97131 24.4881 7.15627 24.7819 7.19873L27.3249 7.56793L25.4841 9.36165Z" fill="#52C306"/>
<path d="M43.5393 13.3965C43.4336 13.0712 43.1525 12.8343 42.8139 12.7852L40.1884 12.4037L39.0144 10.0242C38.8632 9.71751 38.5512 9.52344 38.209 9.52344C38.209 9.52344 38.209 9.52344 38.2087 9.52344C37.8668 9.52344 37.5545 9.71751 37.4032 10.0242L36.2286 12.4037L33.6028 12.7852C33.2644 12.8343 32.9833 13.0712 32.8777 13.3965C32.7717 13.7219 32.8598 14.0788 33.1048 14.3174L35.0045 16.1701L34.5559 18.7847C34.4984 19.1216 34.6367 19.4621 34.9136 19.6631C35.1901 19.8642 35.5569 19.8909 35.8594 19.7319L38.2087 18.4976L40.5572 19.7319C40.8598 19.8909 41.2268 19.8642 41.5034 19.6631C41.7799 19.4624 41.9182 19.1216 41.8607 18.7847L41.4121 16.1701L43.3122 14.3174C43.5572 14.0788 43.6449 13.7219 43.5393 13.3965ZM39.8199 15.2134C39.6079 15.4198 39.5114 15.717 39.5616 16.0083L39.782 17.2942L38.627 16.6874C38.3652 16.5499 38.0525 16.5499 37.791 16.6874L36.635 17.2946L36.8557 16.0083C36.9056 15.717 36.8091 15.4198 36.5974 15.2134L35.6625 14.3017L36.9544 14.1142C37.247 14.0718 37.5001 13.8879 37.631 13.6229L38.2087 12.4525L38.786 13.6226C38.9169 13.8879 39.1699 14.0718 39.4626 14.1142L40.7545 14.3017L39.8199 15.2134Z" fill="#52C306"/>
<path d="M12.9924 13.3965C12.8868 13.0712 12.6056 12.8343 12.267 12.7852L9.6415 12.4037L8.46757 10.0242C8.31631 9.71751 8.00431 9.52344 7.66213 9.52344C7.31996 9.52344 7.00761 9.71751 6.85635 10.0242L5.68171 12.4037L3.05589 12.7852C2.71757 12.8343 2.43646 13.0712 2.33082 13.3965C2.22483 13.7219 2.31292 14.0788 2.55789 14.3174L4.45759 16.1701L4.00942 18.7847C3.95152 19.1216 4.09014 19.4621 4.36669 19.6631C4.64324 19.8642 5.00999 19.8909 5.31286 19.7319L7.66178 18.4976L10.0104 19.7319C10.315 19.892 10.6814 19.8632 10.9565 19.6631C11.2331 19.4624 11.3717 19.1216 11.3138 18.7847L10.8653 16.1701L12.7653 14.3174C13.0103 14.0788 13.098 13.7219 12.9924 13.3965ZM9.27265 15.2134C9.06103 15.4198 8.96452 15.717 9.01435 16.0083L9.2351 17.2942L8.07977 16.6874C7.81831 16.5499 7.50561 16.5499 7.24415 16.6874L6.08776 17.2946L6.30851 16.0083C6.3587 15.717 6.26184 15.4198 6.05021 15.2134L5.11527 14.3017L6.40748 14.1142C6.69982 14.0718 6.95286 13.8879 7.08377 13.6229L7.66143 12.4525L8.23875 13.6226C8.36965 13.8879 8.62269 14.0718 8.91538 14.1142L10.2072 14.3017L9.27265 15.2134Z" fill="#52C306"/>
<path d="M26.9368 36.7545C26.522 36.4818 25.965 36.5972 25.6927 37.0121C25.42 37.4265 25.5355 37.9835 25.9503 38.2562C26.781 38.8019 27.445 39.5628 27.8704 40.4563C28.083 40.9038 28.6186 41.095 29.0675 40.8813C29.5156 40.6683 29.7058 40.132 29.4928 39.6842C28.9264 38.4938 28.0423 37.4806 26.9368 36.7545Z" fill="#52C306"/>
</g>
<defs>
<clipPath id="clip0_439_128654">
<rect width="46" height="46" fill="white"/>
</clipPath>
</defs>
</svg>
