<svg width="46" height="46" viewBox="0 0 46 46" fill="none" xmlns="http://www.w3.org/2000/svg">
<g clip-path="url(#clip0_439_128679)">
<path d="M40.5279 6.3706C40.7578 6.3706 40.9878 6.28283 41.1632 6.10745L42.7372 4.53348C43.088 4.18264 43.088 3.61375 42.7372 3.26282C42.3863 2.91207 41.8174 2.91207 41.4665 3.26282L39.8925 4.83679C39.5417 5.18763 39.5417 5.75652 39.8925 6.10745C40.0681 6.28283 40.298 6.3706 40.5279 6.3706Z" fill="#52C306"/>
<path d="M28.5559 6.10761C28.7313 6.28298 28.9612 6.37076 29.1911 6.37076C29.421 6.37076 29.651 6.28298 29.8264 6.10761C30.1773 5.75677 30.1773 5.18788 29.8264 4.83695L28.2525 3.26306C27.9017 2.91231 27.3328 2.91231 26.9819 3.26306C26.631 3.6139 26.631 4.18279 26.9819 4.53372L28.5559 6.10761Z" fill="#52C306"/>
<path d="M34.8596 16.4617C37.7936 16.4617 40.1806 14.0747 40.1806 11.1407C40.1806 8.20664 37.7936 5.81958 34.8596 5.81958C31.9255 5.81958 29.5386 8.20655 29.5386 11.1407C29.5385 14.0747 31.9255 16.4617 34.8596 16.4617ZM34.8596 7.61654C36.8028 7.61654 38.3837 9.19752 38.3837 11.1408C38.3837 13.084 36.8028 14.6649 34.8596 14.6649C32.9163 14.6649 31.3354 13.084 31.3354 11.1408C31.3354 9.19752 32.9163 7.61654 34.8596 7.61654Z" fill="#52C306"/>
<path d="M41.1632 16.1737C40.8123 15.823 40.2435 15.823 39.8925 16.1737C39.5417 16.5245 39.5417 17.0934 39.8925 17.4444L41.4665 19.0183C41.642 19.1937 41.8719 19.2815 42.1018 19.2815C42.3317 19.2815 42.5617 19.1937 42.7371 19.0183C43.0879 18.6675 43.0879 18.0986 42.7371 17.7477L41.1632 16.1737Z" fill="#52C306"/>
<path d="M28.5559 16.1737L26.9819 17.7477C26.631 18.0985 26.631 18.6674 26.9819 19.0183C27.1573 19.1937 27.3873 19.2815 27.6172 19.2815C27.8471 19.2815 28.0771 19.1937 28.2525 19.0183L29.8264 17.4444C30.1773 17.0935 30.1773 16.5246 29.8264 16.1737C29.4756 15.823 28.9067 15.823 28.5559 16.1737Z" fill="#52C306"/>
<path d="M41.9771 11.1406C41.9771 11.6367 42.3793 12.0391 42.8755 12.0391H45.1014C45.5976 12.0391 45.9998 11.6367 45.9998 11.1406C45.9998 10.6445 45.5976 10.2422 45.1014 10.2422H42.8755C42.3793 10.2422 41.9771 10.6445 41.9771 11.1406Z" fill="#52C306"/>
<path d="M34.8594 4.02275C35.3556 4.02275 35.7578 3.62043 35.7578 3.12432V0.898438C35.7578 0.40232 35.3556 0 34.8594 0C34.3632 0 33.9609 0.40232 33.9609 0.898438V3.12423C33.9609 3.62043 34.3632 4.02275 34.8594 4.02275Z" fill="#52C306"/>
<path d="M33.9609 19.1567V21.3826C33.9609 21.8787 34.3632 22.2811 34.8594 22.2811C35.3556 22.2811 35.7578 21.8787 35.7578 21.3826V19.1567C35.7578 18.6606 35.3556 18.2583 34.8594 18.2583C34.3632 18.2583 33.9609 18.6605 33.9609 19.1567Z" fill="#52C306"/>
<path d="M24.6172 12.0391H26.8431C27.3393 12.0391 27.7415 11.6367 27.7415 11.1406C27.7415 10.6445 27.3393 10.2422 26.8431 10.2422H24.6172C24.121 10.2422 23.7188 10.6445 23.7188 11.1406C23.7188 11.6368 24.121 12.0391 24.6172 12.0391Z" fill="#52C306"/>
<path d="M45.1016 44.2031H32.7268V41.6875H43.1505C43.8277 41.6875 44.4519 41.379 44.8633 40.8412C45.2747 40.3033 45.4088 39.6199 45.2315 38.9665L41.8179 26.3884C41.5636 25.4514 40.7079 24.797 39.7369 24.797H18.9114C17.9405 24.797 17.0847 25.4514 16.8305 26.3884L15.1378 32.6255V18.9807L18.6818 21.0268C19.794 21.6689 21.063 21.9999 22.3364 21.9998C22.9793 21.9998 23.6234 21.9154 24.2488 21.7441C24.7253 21.6136 25.0058 21.1181 24.8782 20.6408C24.3754 18.7589 23.1694 17.1859 21.4824 16.2118L15.2276 12.6006V5.4219C15.2276 3.47383 14.4684 1.64292 13.0868 0.263376C12.7373 -0.0862043 12.1711 -0.087552 11.8198 0.259872C10.4456 1.61902 9.65741 3.50699 9.65741 5.43969V12.6152L3.42786 16.2119C1.74079 17.1859 0.53473 18.7588 0.0307991 20.6452C-0.0970478 21.1225 0.1847 21.6136 0.661409 21.7441C1.2869 21.9154 1.9308 21.9998 2.5739 21.9998C3.84707 21.9998 5.11628 21.6688 6.22845 21.0268L9.74734 18.9951V27.2676C9.74734 27.7637 10.1496 28.166 10.6458 28.166C11.142 28.166 11.5442 27.7637 11.5442 27.2676V17.9578L12.4552 17.4319L13.3411 17.9434V44.2032H11.5442V35.3536C11.5442 34.8575 11.142 34.4552 10.6458 34.4552C10.1496 34.4552 9.74734 34.8575 9.74734 35.3536V44.2032H0.898685C0.402481 44.2032 0.000252367 44.6055 0.000252367 45.1016C0.000252367 45.5977 0.402481 46 0.898685 46H45.1016C45.5978 46 46 45.5977 46 45.1016C46 44.6055 45.5978 44.2031 45.1016 44.2031ZM13.7373 14.2232C13.7373 14.9371 13.1564 15.5179 12.4425 15.5179C11.7285 15.5179 11.1476 14.9371 11.1476 14.2232C11.1476 13.5092 11.7285 12.9284 12.4425 12.9284C13.1564 12.9284 13.7373 13.5092 13.7373 14.2232ZM22.8065 20.1835C21.6916 20.2791 20.5559 20.034 19.5802 19.4707L14.4934 16.5339C14.9897 16.0929 15.3433 15.4952 15.4759 14.819L20.5839 17.768C21.5675 18.3359 22.3339 19.1738 22.8065 20.1835ZM12.4505 2.28889C13.0876 3.20161 13.4307 4.2853 13.4307 5.4219V11.2944C13.1201 11.1894 12.7881 11.1315 12.4425 11.1315C12.0968 11.1315 11.7648 11.1894 11.4542 11.2944V5.43969C11.4543 4.31288 11.8099 3.20628 12.4505 2.28889ZM5.32993 19.4707C4.35414 20.0341 3.21799 20.2799 2.10312 20.1834C2.57489 19.1752 3.34188 18.3362 4.3262 17.768L9.41133 14.8321C9.54681 15.5075 9.90331 16.1036 10.4016 16.5426L5.32993 19.4707ZM22.6028 39.8906L23.0417 36.6563H28.4178V39.8906H22.6028ZM15.4978 39.8906C15.3433 39.8906 15.2527 39.8023 15.2124 39.7496C15.1721 39.6969 15.1105 39.5863 15.1511 39.4371L15.9057 36.6563H21.2283L20.7894 39.8906H15.4978ZM17.2712 31.625H21.911L21.4722 34.8594H16.3934L17.2712 31.625ZM28.4178 26.5938V29.8282H23.9682L24.4071 26.5938H28.4178ZM34.2253 26.5938L34.6642 29.8282H30.2146V26.5938H34.2253ZM42.255 34.8594H37.1603L36.7214 31.625H41.3773L42.255 34.8594ZM35.3469 34.8594H30.2146V31.625H34.908L35.3469 34.8594ZM28.4178 31.625V34.8594H23.2855L23.7244 31.625H28.4178ZM30.2146 36.6563H35.5907L36.0296 39.8906H30.2146V36.6563ZM43.436 39.7496C43.3958 39.8023 43.305 39.8906 43.1506 39.8906H37.843L37.4041 36.6563H42.7427L43.4974 39.4371C43.5378 39.5863 43.4763 39.6969 43.436 39.7496ZM40.0837 26.859L40.8895 29.8282H36.4775L36.0386 26.5938H39.7369C39.8987 26.5938 40.0414 26.7029 40.0837 26.859ZM18.9114 26.5938H22.5938L22.1549 29.8282H17.7588L18.5646 26.859C18.6071 26.7029 18.7496 26.5938 18.9114 26.5938ZM15.1378 41.6576C15.2555 41.6771 15.3758 41.6875 15.4978 41.6875H25.8987V44.2031H15.1378V41.6576ZM27.6956 44.2031V41.6875H30.9299V44.2031H27.6956Z" fill="#52C306"/>
<path d="M10.6455 32.2087C10.8818 32.2087 11.1136 32.1134 11.2807 31.9454C11.4478 31.7784 11.5439 31.5466 11.5439 31.3103C11.5439 31.074 11.4478 30.8422 11.2807 30.6751C11.1136 30.508 10.8818 30.4119 10.6455 30.4119C10.4092 30.4119 10.1774 30.5079 10.0103 30.6751C9.8432 30.8423 9.74707 31.074 9.74707 31.3103C9.74707 31.5466 9.8432 31.7784 10.0103 31.9454C10.1774 32.1135 10.4092 32.2087 10.6455 32.2087Z" fill="#52C306"/>
</g>
<defs>
<clipPath id="clip0_439_128679">
<rect width="46" height="46" fill="white"/>
</clipPath>
</defs>
</svg>
