<svg width="46" height="46" viewBox="0 0 46 46" fill="none" xmlns="http://www.w3.org/2000/svg">
<g clip-path="url(#clip0_439_128668)">
<path d="M5.39082 23.7542H40.6097C41.0873 23.7543 41.5378 23.5317 41.8277 23.1522C42.1177 22.7727 42.2142 22.2795 42.0885 21.8187L37.2826 4.19466C37.0992 3.52877 36.4944 3.06692 35.8038 3.06519H10.1967C9.50612 3.06692 8.9013 3.52877 8.7179 4.19466L3.91188 21.8187C3.78626 22.2795 3.88266 22.7726 4.1727 23.1522C4.46274 23.5318 4.91318 23.7543 5.39082 23.7542ZM15.7422 9.96154H22.234V15.3254H15.0985L15.7422 9.96154ZM13.5546 15.3254H7.27118L8.73396 9.96154H14.1982L13.5546 15.3254ZM38.7293 15.3254H32.446L31.8023 9.96154H37.2665L38.7293 15.3254ZM30.902 15.3254H23.7665V9.96154H30.2583L30.902 15.3254ZM31.0858 16.8579L31.7294 22.2217H23.7664V16.8579H31.0858ZM23.7665 8.42901V4.59772H29.6146L30.0744 8.42901H23.7665ZM22.234 8.42901H15.9261L16.3859 4.59772H22.234V8.42901ZM22.234 16.8579V22.2217H14.271L14.9146 16.8579H22.234ZM33.2735 22.2217L32.6299 16.8579H39.1469L40.6097 22.2217H33.2735ZM36.8489 8.42901H31.6183L31.1586 4.59772H35.8037L36.8489 8.42901ZM10.1967 4.59772H14.8418L14.3821 8.42901H9.15154L10.1967 4.59772ZM5.39082 22.2217L6.85287 16.8579H13.3707L12.7271 22.2217H5.39082Z" fill="#52C306"/>
<path d="M39.8448 1.68965C39.5689 0.692639 38.6624 0.00173456 37.6279 0H8.37213C7.33705 0.00182586 6.43015 0.69346 6.15454 1.69111L0.094973 23.9073C0.0386453 24.1093 0.010801 24.3182 0.0122616 24.528V27.5931C0.0164611 28.8597 1.04442 29.8842 2.31102 29.8842H3.84355V31.4167C2.99717 31.4167 2.31102 32.1029 2.31102 32.9492V34.4818C2.31102 35.3281 2.99717 36.0143 3.84355 36.0143H9.20737C10.0537 36.0143 10.7399 35.3281 10.7399 34.4818V32.9492C10.7399 32.1029 10.0537 31.4167 9.20737 31.4167V29.8842H13.7237C11.1053 34.392 12.1067 40.1297 16.0973 43.4841C20.0879 46.8386 25.9123 46.8385 29.9029 43.4841C33.8935 40.1298 34.8949 34.392 32.2765 29.8842H36.7929V31.4167C35.9465 31.4167 35.2603 32.1029 35.2603 32.9492V34.4818C35.2603 35.3281 35.9465 36.0143 36.7929 36.0143H42.1567C43.0031 36.0143 43.6892 35.3281 43.6892 34.4818V32.9492C43.6892 32.1029 43.0031 31.4167 42.1567 31.4167V29.8842H43.6892C44.9558 29.8842 45.9838 28.8597 45.988 27.5931V24.528C45.9907 24.3211 45.9649 24.1148 45.9114 23.915L39.8448 1.68965ZM1.57154 24.3158L7.63193 2.09417C7.72404 1.76168 8.02704 1.53171 8.37213 1.53253H37.628C37.9728 1.53208 38.2754 1.76195 38.3675 2.09417L44.4309 24.3226C44.4481 24.3897 44.4564 24.4587 44.4554 24.5279C44.4512 24.9481 44.1094 25.2866 43.6892 25.2866H26.9585C24.4184 24.2649 21.5817 24.2649 19.0415 25.2866H2.31102C1.89079 25.2866 1.54899 24.9481 1.54479 24.5279C1.54379 24.4563 1.55283 24.385 1.57154 24.3158ZM9.20737 34.4818H3.84346V32.9492H9.20728L9.20737 34.4818ZM7.67484 31.4167H5.37608V29.8842H7.67484V31.4167ZM8.44106 28.3516H2.31102C1.89079 28.3516 1.54899 28.0132 1.54479 27.593V26.6781C1.79019 26.7688 2.04946 26.8165 2.31102 26.819H16.3857C15.8045 27.2741 15.2714 27.7876 14.7949 28.3515H8.44106V28.3516ZM23.0001 44.4432C17.9217 44.4432 13.805 40.3264 13.805 35.2481C13.805 30.1697 17.9217 26.053 23.0001 26.053C28.0784 26.053 32.1952 30.1697 32.1952 35.2481C32.1897 40.324 28.076 44.4377 23.0001 44.4432ZM42.1566 34.4818H36.7928V32.9492H42.1566V34.4818ZM40.6241 31.4167H38.3253V29.8842H40.6241V31.4167ZM43.689 28.3516H31.2052C30.7287 27.7877 30.1958 27.2742 29.6144 26.8191H43.6891C43.9508 26.8165 44.21 26.7689 44.4553 26.6781V27.5931C44.4512 28.0133 44.1093 28.3517 43.689 28.3516Z" fill="#52C306"/>
<path d="M26.4684 34.4817H25.2991L25.8186 29.6198C25.8732 29.133 25.6116 28.6654 25.1681 28.4574C24.7346 28.2516 24.2178 28.3491 23.8891 28.6988L18.723 34.0741C18.4018 34.4068 18.3112 34.8995 18.4931 35.3246C18.6692 35.7416 19.0773 36.0131 19.5298 36.0142H20.7015L20.1819 40.8777C20.1282 41.3639 20.3897 41.8305 20.8325 42.0386C20.9813 42.1089 21.1438 42.1455 21.3083 42.1458C21.6125 42.1447 21.9029 42.0187 22.1113 41.7972L27.2775 36.4219C27.5986 36.0892 27.6893 35.5965 27.5074 35.1713C27.3311 34.7536 26.9218 34.482 26.4684 34.4817ZM21.8294 39.8785L22.3144 35.3292C22.3374 35.1131 22.2677 34.8974 22.1224 34.7358C21.9772 34.5742 21.7701 34.4818 21.5528 34.4817H20.4578L24.1711 30.6175L23.6899 35.1668C23.6669 35.3822 23.7363 35.5973 23.8807 35.7588C24.0251 35.9203 24.2311 36.0131 24.4478 36.0142H25.5427L21.8294 39.8785Z" fill="#52C306"/>
</g>
<defs>
<clipPath id="clip0_439_128668">
<rect width="46" height="46" fill="white"/>
</clipPath>
</defs>
</svg>
