<svg width="80" height="80" viewBox="0 0 80 80" fill="none" xmlns="http://www.w3.org/2000/svg">
<g clip-path="url(#clip0_439_131845)">
<path d="M23.2318 0.192261H20.8881V11.8463H18.1366V4.80164H15.7928V11.8463H12.5562V77.6562H7.03125V80H40.0787V11.8463H23.2318V0.192261ZM37.735 77.6562H14.8999V14.1901H37.735V77.6562Z" fill="#52C306"/>
<path d="M51.8457 37.9486V75.4187H58.3282V37.9486H51.8457ZM55.9845 73.075H54.1895V40.2924H55.9845V73.075Z" fill="#52C306"/>
<path d="M43.311 37.9486V75.4187H49.7936V37.9486H43.311ZM47.4498 73.075H45.6548V40.2924H47.4498V73.075Z" fill="#52C306"/>
<path d="M35.6339 20.5457H17.0005V27.7979H35.6339V20.5457ZM33.2902 25.4541H19.3442V22.8894H33.2902V25.4541Z" fill="#52C306"/>
<path d="M35.6339 30.6714H17.0005V37.9242H35.6339V30.6714ZM33.2902 35.5804H19.3442V33.0151H33.2902V35.5804Z" fill="#52C306"/>
<path d="M35.6339 40.7977H17.0005V48.0499H35.6339V40.7977ZM33.2902 45.7062H19.3442V43.1415H33.2902V45.7062Z" fill="#52C306"/>
<path d="M35.6339 50.9235H17.0005V58.1757H35.6339V50.9235ZM33.2902 55.8319H19.3442V53.2672H33.2902V55.8319Z" fill="#52C306"/>
<path d="M35.6339 61.0498H17.0005V68.302H35.6339V61.0498ZM33.2902 65.9583H19.3442V63.3936H33.2902V65.9583Z" fill="#52C306"/>
<path d="M63.9045 34.624L47.9152 26.9116L53.5145 21.3123H62.5941V18.9685H55.8583L61.2513 13.576H66.7714V11.2323H63.5951L67.2932 7.53357L65.6361 5.87646L59.5088 12.0032V7.87292H57.165V14.3469L52.0704 19.4421V11.4539H49.7267V21.7859L45.6788 25.8337L42.541 24.3201L41.5229 26.4307L61.5608 36.0956V77.6562H42.032V80H69.4301V77.6562H63.9045V34.624Z" fill="#52C306"/>
<path d="M71.648 0.203247C70.7966 0.316773 50.7276 3.04688 45.6086 8.1665C41.6474 12.1271 40.4932 18.0237 42.6679 23.1885L44.828 22.2791C43.025 17.9968 43.982 13.1079 47.2657 9.82361C50.7447 6.3446 63.968 3.72681 70.4212 2.74658C69.441 9.20044 66.8238 22.4231 63.3442 25.9021C61.9648 27.2815 60.2454 28.2867 58.3717 28.8098L59.0015 31.0669C61.2629 30.4364 63.3375 29.223 65.0013 27.5598C70.1209 22.4402 72.851 2.37122 72.9652 1.51978L73.1678 0L71.648 0.203247Z" fill="#52C306"/>
<path d="M35.5815 18.1622H30.3862V15.8185H35.5815V18.1622ZM28.8237 18.1622H26.48V15.8185H28.8237V18.1622ZM24.9175 18.1622H22.5737V15.8185H24.9175V18.1622Z" fill="#52C306"/>
<path d="M55.9485 27.4994L55.7977 25.1605C56.4764 25.1172 57.1429 24.9829 57.7783 24.762L58.548 26.9757C57.713 27.2662 56.8384 27.4426 55.9485 27.4994ZM54.1815 27.4573C53.0652 27.3309 51.9904 27.0184 50.9863 26.5283L52.0148 24.422C52.7777 24.7949 53.595 25.0323 54.4446 25.1282L54.1815 27.4573ZM60.163 26.2433L59.0051 24.2053C59.5892 23.8733 60.13 23.4601 60.6128 22.9779L62.2699 24.635C61.6388 25.2661 60.9302 25.8069 60.163 26.2433Z" fill="#52C306"/>
</g>
<defs>
<clipPath id="clip0_439_131845">
<rect width="80" height="80" fill="white"/>
</clipPath>
</defs>
</svg>
