<svg width="50" height="50" viewBox="0 0 50 50" fill="none" xmlns="http://www.w3.org/2000/svg">
<g clip-path="url(#clip0_439_117366)">
<path d="M30.4639 49.0236V0.976463L48.0433 7.65254V49.0236H30.4639Z" fill="#C0CAFF"/>
<path d="M32.8109 12.498H10.8418V49.0156H32.8109V12.498Z" fill="#E9ECFF"/>
<path d="M23.8759 23.633H1.90674V49.0156H23.8759V23.633Z" fill="#FEECB3"/>
<path d="M10.549 37.8416H5.8623V42.5283H10.549V37.8416Z" fill="white"/>
<path d="M19.9196 37.8416H15.2329V42.5283H19.9196V37.8416Z" fill="white"/>
<path d="M10.549 28.4682H5.8623V33.1549H10.549V28.4682Z" fill="white"/>
<path d="M19.9196 28.4682H15.2329V33.1549H19.9196V28.4682Z" fill="white"/>
<path d="M43.747 13.4784C44.0038 13.4784 44.2557 13.3739 44.4373 13.1923C44.6189 13.0106 44.7234 12.7588 44.7234 12.5019C44.7234 12.2451 44.6189 11.9933 44.4373 11.8116C44.2557 11.63 44.0038 11.5255 43.747 11.5255C43.4901 11.5255 43.2383 11.63 43.0566 11.8116C42.875 11.9933 42.7705 12.2451 42.7705 12.5019C42.7705 12.7588 42.875 13.0106 43.0566 13.1923C43.2383 13.3739 43.4902 13.4784 43.747 13.4784Z" fill="black"/>
<path d="M10.5493 36.8655H5.8626C5.32334 36.8655 4.88623 37.3026 4.88623 37.8419V42.5286C4.88623 43.0679 5.32334 43.505 5.8626 43.505H10.5493C11.0886 43.505 11.5257 43.0679 11.5257 42.5286V37.8419C11.5257 37.3026 11.0886 36.8655 10.5493 36.8655ZM9.57285 41.5522H6.83896V38.8184H9.57295L9.57285 41.5522Z" fill="black"/>
<path d="M19.9204 36.8655H15.2337C14.6944 36.8655 14.2573 37.3026 14.2573 37.8419V42.5286C14.2573 43.0679 14.6944 43.505 15.2337 43.505H19.9204C20.4597 43.505 20.8968 43.0679 20.8968 42.5286V37.8419C20.8968 37.3026 20.4596 36.8655 19.9204 36.8655ZM18.9439 41.5522H16.2101V38.8184H18.944L18.9439 41.5522Z" fill="black"/>
<path d="M10.5493 27.492H5.8626C5.32334 27.492 4.88623 27.9291 4.88623 28.4684V33.1551C4.88623 33.6943 5.32334 34.1314 5.8626 34.1314H10.5493C11.0886 34.1314 11.5257 33.6943 11.5257 33.1551V28.4684C11.5257 27.9292 11.0886 27.492 10.5493 27.492ZM9.57285 32.1788H6.83896V29.4448H9.57295L9.57285 32.1788Z" fill="black"/>
<path d="M19.9204 27.492H15.2337C14.6944 27.492 14.2573 27.9291 14.2573 28.4684V33.1551C14.2573 33.6943 14.6944 34.1314 15.2337 34.1314H19.9204C20.4597 34.1314 20.8968 33.6943 20.8968 33.1551V28.4684C20.8968 27.9292 20.4596 27.492 19.9204 27.492ZM18.9439 32.1788H16.2101V29.4448H18.944L18.9439 32.1788Z" fill="black"/>
<path d="M49.0194 48.0433V7.65254C49.0194 7.24707 48.7687 6.88369 48.3896 6.73965L30.8104 0.063573C30.5103 -0.0503918 30.1734 -0.0095715 29.9092 0.172753C29.6449 0.355077 29.4873 0.655468 29.4873 0.976464V11.5217H10.8419C10.3026 11.5217 9.86553 11.9588 9.86553 12.498V22.6566H1.95664C1.41738 22.6566 0.980273 23.0937 0.980273 23.633V48.0432C0.441016 48.0432 0.00390625 48.4803 0.00390625 49.0195C0.00390625 49.5588 0.441016 49.9959 0.980273 49.9959H47.9638C47.99 49.998 48.0163 49.9999 48.0431 49.9999C48.0698 49.9999 48.0962 49.998 48.1224 49.9959H49.0195C49.5588 49.9959 49.9959 49.5588 49.9959 49.0195C49.9959 48.4803 49.5587 48.0433 49.0194 48.0433ZM31.44 2.3916L47.0666 8.32617V48.0433H44.7232V16.7982C44.7232 16.259 44.2861 15.8219 43.7469 15.8219C43.2076 15.8219 42.7705 16.259 42.7705 16.7982V48.0433H39.2555V12.502C39.2555 11.9628 38.8184 11.5257 38.2791 11.5257C37.7398 11.5257 37.3027 11.9628 37.3027 12.502V48.0433H33.7877V12.498C33.7877 11.9588 33.3506 11.5217 32.8113 11.5217H31.4402L31.44 2.3916ZM11.8184 13.4744H31.8347V17.1888H18.8484C18.3092 17.1888 17.8721 17.6259 17.8721 18.1651C17.8721 18.7044 18.3092 19.1415 18.8484 19.1415H31.8347V22.6565H27.0579C26.5187 22.6565 26.0815 23.0937 26.0815 23.6329C26.0815 24.1722 26.5187 24.6093 27.0579 24.6093H31.8347V28.1243H27.0579C26.5187 28.1243 26.0815 28.5614 26.0815 29.1007C26.0815 29.6399 26.5187 30.077 27.0579 30.077H31.8347V33.5921H27.0579C26.5187 33.5921 26.0815 34.0292 26.0815 34.5685C26.0815 35.1077 26.5187 35.5448 27.0579 35.5448H31.8347V39.0599H27.0579C26.5187 39.0599 26.0815 39.497 26.0815 40.0362C26.0815 40.5755 26.5187 41.0126 27.0579 41.0126H31.8347V48.0427H24.8021V23.6325C24.8021 23.0933 24.365 22.6562 23.8258 22.6562H11.8184V13.4744ZM2.93301 24.6095H22.8492V48.0433H2.93301V24.6095Z" fill="black"/>
<path d="M15.2328 17.1888C14.976 17.1888 14.7241 17.2933 14.5425 17.4749C14.3608 17.6565 14.2573 17.9084 14.2573 18.1652C14.2573 18.4221 14.3608 18.6739 14.5425 18.8556C14.7251 19.0372 14.976 19.1417 15.2328 19.1417C15.4906 19.1417 15.7415 19.0372 15.9241 18.8556C16.1058 18.6739 16.2093 18.4221 16.2093 18.1652C16.2093 17.9084 16.1058 17.6565 15.9241 17.4749C15.7425 17.2933 15.4906 17.1888 15.2328 17.1888Z" fill="black"/>
</g>
<defs>
<clipPath id="clip0_439_117366">
<rect width="50" height="50" fill="white"/>
</clipPath>
</defs>
</svg>
