<svg width="80" height="80" viewBox="0 0 80 80" fill="none" xmlns="http://www.w3.org/2000/svg">
<g clip-path="url(#clip0_439_131882)">
<path d="M59.8377 46.5442C64.8969 41.2748 67.6167 34.3469 67.4963 27.0367C67.2478 11.9541 54.7719 -0.169841 39.6738 0.00187813C24.62 0.177034 12.5 12.4175 12.5 27.5C12.5 34.6205 15.2117 41.3741 20.1359 46.5169C22.6895 49.1841 24.3783 52.6047 24.8936 56.7264C22.2283 58.0866 21.6736 61.652 23.8173 63.75C21.1666 66.3442 22.7556 70.8834 26.4648 71.2302C27.703 76.3859 32.3122 80 37.5887 80H42.4111C47.6925 80 52.298 76.3814 53.5352 71.2302C57.2422 70.8836 58.8353 66.3461 56.1827 63.75C58.33 61.6484 57.768 58.0847 55.1066 56.7264C55.6173 52.6431 57.2687 49.22 59.8377 46.5442ZM21.9416 44.7878C17.4652 40.1127 15 33.973 15 27.5C15 13.8744 26.0816 2.66016 39.7028 2.50172C53.4178 2.3461 64.7706 13.3669 64.9964 27.078C65.1059 33.7242 62.6334 40.0227 58.0342 44.8128C55.1653 47.8009 53.2061 51.7614 52.6466 56.2498H41.25V42.4998H45C52.5817 42.4998 58.75 36.3316 58.75 28.7498V24.9998C58.75 24.3095 58.1903 23.7498 57.5 23.7498H52.5C46.9602 23.7498 42.1756 27.0433 40 31.7748C37.8244 27.0434 33.0398 23.75 27.5 23.75H22.5C21.8097 23.75 21.25 24.3097 21.25 25V28.75C21.25 36.3317 27.4183 42.5 35 42.5H38.75V56.25H27.3534C26.7861 51.7197 24.7945 47.7675 21.9416 44.7878ZM50.9408 31.6769C50.4861 31.1572 49.6961 31.1048 49.177 31.5594L41.25 38.4953V37.5C41.25 31.2967 46.2967 26.25 52.5 26.25H56.25V28.75C56.25 34.9533 51.2033 40 45 40H43.3267L50.8231 33.4408C51.3427 32.9861 51.3953 32.1964 50.9408 31.6769ZM38.75 38.4953L30.8231 31.5592C30.3034 31.1044 29.5139 31.1572 29.0592 31.6767C28.6045 32.1963 28.6572 32.9859 29.1767 33.4406L36.6731 40H35C28.7967 40 23.75 34.9533 23.75 28.75V26.25H27.5C33.7033 26.25 38.75 31.2967 38.75 37.5V38.4953ZM42.4113 77.5H37.5889C33.6631 77.5 30.2228 74.8975 29.0636 71.25H50.9364C49.7772 74.8973 46.337 77.5 42.4113 77.5ZM55 66.875C55 67.9089 54.1589 68.75 53.125 68.75C51.6016 68.75 27.8853 68.75 26.875 68.75C25.8411 68.75 25 67.9089 25 66.875C25 65.8411 25.8411 65 26.875 65H53.125C54.1589 65 55 65.8411 55 66.875ZM26.875 62.5C25.8411 62.5 25 61.6589 25 60.625C25 59.5911 25.8411 58.75 26.875 58.75H53.125C54.1589 58.75 55 59.5911 55 60.625C55 61.6589 54.1589 62.5 53.125 62.5H26.875Z" fill="#52C306"/>
<path d="M8.75 27.5C8.75 26.8097 8.19031 26.25 7.5 26.25H1.25C0.559687 26.25 0 26.8097 0 27.5C0 28.1903 0.559687 28.75 1.25 28.75H7.5C8.19031 28.75 8.75 28.1903 8.75 27.5Z" fill="#52C306"/>
<path d="M11.2292 42.6674L5.81657 45.7924C5.21876 46.1375 5.01391 46.902 5.35907 47.4999C5.70485 48.0986 6.46938 48.302 7.06657 47.9574L12.4792 44.8324C13.077 44.4872 13.2819 43.7227 12.9367 43.1249C12.5914 42.527 11.827 42.3225 11.2292 42.6674Z" fill="#52C306"/>
<path d="M5.81667 9.2075C11.6106 12.5525 11.3795 12.5002 11.8532 12.5002C13.1301 12.5002 13.5821 10.8041 12.4793 10.1673L7.06667 7.04234C6.4687 6.69719 5.70449 6.90203 5.35917 7.49984C5.01386 8.09781 5.2187 8.86234 5.81667 9.2075Z" fill="#52C306"/>
<path d="M78.75 26.25H72.5C71.8097 26.25 71.25 26.8097 71.25 27.5C71.25 28.1903 71.8097 28.75 72.5 28.75H78.75C79.4403 28.75 80 28.1903 80 27.5C80 26.8097 79.4403 26.25 78.75 26.25Z" fill="#52C306"/>
<path d="M74.1836 45.7924L68.7708 42.6674C68.173 42.322 67.4084 42.5269 67.0631 43.1249C66.718 43.7227 66.923 44.4872 67.5208 44.8324L72.9336 47.9574C73.5288 48.3011 74.2944 48.1003 74.6413 47.4999C74.9864 46.902 74.7816 46.1375 74.1836 45.7924Z" fill="#52C306"/>
<path d="M68.1472 12.5002C68.6233 12.5002 68.3972 12.5483 74.1837 9.2075C74.7815 8.86235 74.9865 8.09781 74.6414 7.5C74.2962 6.90235 73.5319 6.69688 72.9337 7.0425L67.5209 10.1675C66.4161 10.8053 66.8722 12.5002 68.1472 12.5002Z" fill="#52C306"/>
</g>
<defs>
<clipPath id="clip0_439_131882">
<rect width="80" height="80" fill="white"/>
</clipPath>
</defs>
</svg>
