<svg width="80" height="80" viewBox="0 0 80 80" fill="none" xmlns="http://www.w3.org/2000/svg">
<g clip-path="url(#clip0_439_131862)">
<path d="M18.8735 52.9141C18.2262 52.9141 17.7017 53.4387 17.7017 54.0859V56.6372C17.7017 57.2844 18.2262 57.8091 18.8735 57.8091C19.5209 57.8091 20.0454 57.2844 20.0454 56.6372V54.0859C20.0454 53.4387 19.5209 52.9141 18.8735 52.9141Z" fill="#52C306"/>
<path d="M79.0485 43.0178C78.93 42.7423 78.7105 42.5228 78.435 42.4044C77.3149 41.9225 76.1535 41.6281 74.9891 41.5114V37.2837H77.1158C77.6085 37.2837 78.0486 36.9756 78.2171 36.5127C78.3855 36.0497 78.2464 35.5308 77.8691 35.2141L71.3513 29.7452H78.8167C79.3094 29.7452 79.7496 29.437 79.918 28.9741C80.0864 28.5111 79.9474 27.9922 79.57 27.6755L59.6519 10.9625C59.4407 10.7853 59.1741 10.6883 58.8986 10.6883H40.4575C39.8102 10.6883 39.2857 11.213 39.2857 11.8602C39.2857 12.5073 39.8102 13.032 40.4575 13.032H43.8558L51.3222 19.2969H37.2841L29.8177 13.032H34.9888C35.6361 13.032 36.1607 12.5073 36.1607 11.8602C36.1607 11.213 35.6361 10.6883 34.9888 10.6883H26.598C26.1053 10.6883 25.6652 10.9964 25.4967 11.4594C25.3283 11.9223 25.4674 12.4412 25.8447 12.758L29.8088 16.0841V17.3423H22.1333C21.8132 17.3423 21.5166 17.4741 21.301 17.6922L0.418625 35.2141C-0.0771564 35.6302 -0.141844 36.3694 0.27425 36.865C0.505969 37.1412 0.838 37.2836 1.17253 37.2836C1.20112 37.2836 1.22956 37.2784 1.25816 37.2762V49.7145C1.25816 50.3617 1.78269 50.8864 2.43003 50.8864C3.07737 50.8864 3.60191 50.3617 3.60191 49.7145V35.6025L22.1388 20.0486L40.6869 35.6119V66.9678H30.8638V44.3495C30.8638 43.4448 30.1278 42.7089 29.2232 42.7089H15.0658C14.1611 42.7089 13.4252 43.4448 13.4252 44.3495V66.968H3.60206V55.1834C3.60206 54.5362 3.07753 54.0116 2.43019 54.0116C1.78284 54.0116 1.25831 54.5362 1.25831 55.1834V67.3586C1.25831 68.4356 2.13441 69.3117 3.21144 69.3117H51.25C51.8974 69.3117 52.4219 68.787 52.4219 68.1398C52.4219 67.4927 51.8974 66.968 51.25 66.968H43.0307V37.2805C43.0557 37.282 43.0807 37.2837 43.1058 37.2837H72.6455V41.5172C70.0744 41.7872 67.615 42.9234 65.6903 44.848C64.7016 45.8367 63.9222 46.9673 63.3597 48.1811C62.7972 46.9673 62.018 45.8367 61.0291 44.848C57.6625 41.4816 52.66 40.5225 48.2844 42.4044C48.0089 42.5228 47.7896 42.7423 47.671 43.0178C45.7886 47.3934 46.7478 52.3961 50.1144 55.7625C52.3363 57.9844 55.2703 59.1575 58.2669 59.1575C59.5524 59.1575 60.8488 58.9381 62.1057 58.4964L62.1878 58.5786V66.968H56.7075C56.0602 66.968 55.5357 67.4927 55.5357 68.1398C55.5357 68.787 56.0602 69.3117 56.7075 69.3117H73.0361C74.1132 69.3117 74.9893 68.4356 74.9893 67.3586V57.1081C75.5589 56.7134 76.1011 56.2664 76.6052 55.7625C79.9716 52.3961 80.9307 47.3934 79.0485 43.0178ZM61.8705 54.9466L53.9643 47.0403C53.5064 46.5827 52.7646 46.5827 52.3069 47.0403C51.8493 47.498 51.8493 48.24 52.3069 48.6975L60.2132 56.6037C57.1913 57.2569 54.0228 56.3561 51.7719 54.1052C49.1996 51.533 48.3903 47.7622 49.6485 44.3817C53.0293 43.1237 56.7999 43.9328 59.3718 46.505C61.6227 48.7559 62.5235 51.9247 61.8705 54.9466ZM75.5972 27.4014H64.6275L57.7619 21.6406H68.7316L75.5972 27.4014ZM47.5024 13.032H58.4721L65.9385 19.2969H54.9688L47.5024 13.032ZM54.1153 21.6406L60.9808 27.4014H46.9427L40.0774 21.6406H54.1153ZM15.7689 66.968V45.0527H28.52V66.968H15.7689ZM43.5324 34.94L25.353 19.6861H34.1016L45.763 29.4709C45.9743 29.6481 46.2408 29.7452 46.5163 29.7452H49.1558V31.5497C49.1558 32.1969 49.6803 32.7216 50.3277 32.7216C50.975 32.7216 51.4996 32.1969 51.4996 31.5497V29.7452H67.6525V31.5497C67.6525 32.1969 68.1771 32.7216 68.8244 32.7216C69.4335 32.7216 69.9336 32.2569 69.9905 31.6628L73.8963 34.94H43.5324ZM72.6455 66.968H64.5316V58.5786L64.6138 58.4964C65.871 58.9381 67.1671 59.1575 68.4527 59.1575C69.8886 59.1575 71.3096 58.8852 72.6455 58.3598V66.968ZM74.9477 54.1052C72.6968 56.3561 69.5282 57.2567 66.5064 56.6037L74.4125 48.6977C74.8702 48.24 74.8702 47.498 74.4125 47.0405C73.9547 46.5828 73.2128 46.5828 72.7552 47.0405L64.8491 54.9466C64.1961 51.9247 65.0969 48.7561 67.3477 46.5053C69.9199 43.933 73.6903 43.1239 77.071 44.382C78.3291 47.7623 77.5199 51.5331 74.9477 54.1052Z" fill="#52C306"/>
</g>
<defs>
<clipPath id="clip0_439_131862">
<rect width="80" height="80" fill="white"/>
</clipPath>
</defs>
</svg>
