<svg width="80" height="80" viewBox="0 0 80 80" fill="none" xmlns="http://www.w3.org/2000/svg">
<g clip-path="url(#clip0_439_131839)">
<path d="M65.6343 60.5217C57.9835 49.5936 53.699 44.8225 46.1976 38.9745C46.2412 38.6219 46.2663 38.2634 46.2663 37.8992C46.2663 35.9281 45.6079 34.1084 44.5004 32.6467C48.0737 23.8302 49.3987 17.5564 50.5604 4.26594C50.727 2.36641 49.511 0.629531 47.6692 0.135937C45.8273 -0.357657 43.9057 0.538593 43.1002 2.26656C37.462 14.3555 35.4723 20.4512 34.1584 29.8703C32.0757 30.7536 30.4049 32.4244 29.5217 34.507C20.1024 35.8208 14.0065 37.8106 1.91821 43.4487C0.189775 44.2542 -0.706475 46.1758 -0.212882 48.0178C0.266806 49.808 2.06134 51.0711 3.91696 50.9092C17.0227 49.7636 23.3054 48.4592 31.9313 44.997L29.8673 72.3892H28.7595C27.1221 72.3892 25.7901 73.7213 25.7901 75.3586V78.75C25.7901 79.4403 26.3498 80 27.0401 80H46.9621C47.6524 80 48.2121 79.4403 48.2121 78.75V75.3586C48.2121 73.7213 46.8801 72.3892 45.2427 72.3892H44.1349L42.5424 51.2522C46.9685 56.1756 51.7352 60.0756 60.1727 65.9827C60.8543 66.4602 61.6406 66.6941 62.4224 66.6941C63.4323 66.6941 64.4351 66.3036 65.1951 65.5438C66.5435 64.1953 66.7281 62.0833 65.6343 60.5217ZM45.3662 3.32312C45.6627 2.68656 46.3437 2.36906 47.0221 2.55094C47.7004 2.73266 48.1313 3.34828 48.0701 4.04812C46.976 16.5647 45.7416 22.6997 42.5581 30.772C41.1401 29.7728 39.4134 29.1834 37.5507 29.1834C37.2902 29.1834 37.0331 29.197 36.7784 29.2195C38.0573 20.6386 40.056 14.7084 45.3662 3.32312ZM37.5506 31.6833C40.9781 31.6833 43.7665 34.4717 43.7665 37.8992C43.7665 41.3267 40.9781 44.1152 37.5506 44.1152C34.1231 44.1152 31.3346 41.3267 31.3346 37.8992C31.3346 34.4717 34.1232 31.6833 37.5506 31.6833ZM3.69915 48.4188C2.99977 48.4802 2.38399 48.0491 2.20227 47.3708C2.0204 46.6923 2.33806 46.0114 2.97493 45.7145C14.3598 40.4047 20.2901 38.4058 28.8709 37.1267C28.8484 37.3814 28.8348 37.6386 28.8348 37.8991C28.8348 39.7617 29.424 41.4884 30.4234 42.9064C22.3509 46.0903 16.2159 47.3245 3.69915 48.4188ZM45.7123 75.3586V77.5H28.2902V75.3586C28.2902 75.1042 28.5051 74.8892 28.7596 74.8892H45.2429C45.4973 74.8892 45.7123 75.1042 45.7123 75.3586ZM41.6281 72.3892H32.3746L34.3624 46.0086C35.3506 46.3984 36.4254 46.6152 37.5506 46.6152C37.9149 46.6152 38.2732 46.59 38.626 46.5464C39.0185 47.05 39.4065 47.5392 39.7915 48.0158L41.6281 72.3892ZM63.4273 63.7759C62.9307 64.2727 62.1823 64.3381 61.6068 63.9348C51.3154 56.7298 46.6195 52.5938 41.2212 45.8017C43.0812 44.9342 44.5856 43.4298 45.4531 41.5697C52.2449 46.968 56.3813 51.6642 63.5865 61.9556C63.9895 62.5308 63.924 63.2794 63.4273 63.7759ZM52.7898 17.6055C53.2315 17.0748 54.0196 17.0025 54.5501 17.4441C58.4031 20.65 61.2665 24.868 62.8309 29.642C64.4371 34.5434 64.5774 39.7786 63.2368 44.7819C63.0299 45.5536 62.781 46.3367 62.4968 47.1089C62.3109 47.6144 61.8326 47.9277 61.3235 47.9277C61.1802 47.9277 61.0345 47.9028 60.8921 47.8505C60.2443 47.6122 59.9123 46.8936 60.1506 46.2458C60.4087 45.5441 60.6346 44.8339 60.8218 44.1348C63.247 35.0847 60.1574 25.3622 52.9509 19.3659C52.4206 18.9242 52.3482 18.1361 52.7898 17.6055ZM11.3413 33.402C11.4815 32.5905 11.6573 31.7878 11.8641 31.0164C13.2048 26.0133 15.9438 21.5497 19.7856 18.1081C23.5274 14.7558 28.1163 12.5347 33.056 11.6847C33.7368 11.5678 34.3827 12.0242 34.4999 12.7047C34.617 13.385 34.1604 14.0314 33.4799 14.1486C24.2409 15.7384 16.704 22.6134 14.279 31.6636C14.0917 32.3623 13.9321 33.0903 13.8049 33.8275C13.6999 34.4358 13.1716 34.865 12.5746 34.865C12.504 34.865 12.4324 34.8589 12.3604 34.8466C11.6802 34.7291 11.2238 34.0823 11.3413 33.402ZM26.1182 61.7727C25.9291 61.7727 25.7371 61.7297 25.5566 61.6386C22.2885 59.9914 19.4426 57.7231 17.0977 54.897C16.657 54.3658 16.7302 53.5777 17.2615 53.1369C17.7929 52.6958 18.5809 52.7694 19.0217 53.3006C21.1456 55.8605 23.7227 57.9148 26.6818 59.4063C27.2984 59.7169 27.5462 60.4686 27.2354 61.085C27.0156 61.5209 26.5752 61.7727 26.1182 61.7727ZM32.1901 20.8477C32.4432 21.49 32.1277 22.2158 31.4856 22.4689C27.2045 24.1562 23.7913 27.5687 22.1213 31.8316C21.9282 32.3245 21.4565 32.6259 20.9571 32.6259C20.8054 32.6259 20.6512 32.5981 20.5015 32.5395C19.8587 32.2878 19.5417 31.5625 19.7935 30.9197C21.716 26.0122 25.6434 22.0842 30.5687 20.143C31.2109 19.8898 31.9368 20.2053 32.1901 20.8477ZM50.7187 25.8125C51.259 25.3827 52.0454 25.4727 52.4751 26.013C55.7699 30.1569 57.2071 35.5222 56.4182 40.7333C56.3245 41.3525 55.7915 41.7964 55.1838 41.7964C55.1216 41.7964 55.0587 41.7917 54.9952 41.7822C54.3126 41.6789 53.8431 41.0417 53.9465 40.3592C54.6316 35.8327 53.3823 31.1708 50.5184 27.5689C50.0885 27.0284 50.1784 26.242 50.7187 25.8125Z" fill="#52C306"/>
</g>
<defs>
<clipPath id="clip0_439_131839">
<rect width="80" height="80" fill="white"/>
</clipPath>
</defs>
</svg>
