<svg width="50" height="50" viewBox="0 0 50 50" fill="none" xmlns="http://www.w3.org/2000/svg">
<g clip-path="url(#clip0_439_117386)">
<path fill-rule="evenodd" clip-rule="evenodd" d="M21.0828 17.7152V14.2902C21.0828 14.0533 20.8873 13.861 20.6499 13.861H19.6668H13.416H12.4301C12.1927 13.861 12 14.0533 12 14.2902V17.7152C12 17.9522 12.1927 18.1472 12.4301 18.1472H20.6499C20.8873 18.1473 21.0828 17.9522 21.0828 17.7152Z" fill="#CECECE"/>
<path fill-rule="evenodd" clip-rule="evenodd" d="M45.6835 46.5978V40.1045C45.6835 39.4941 45.1835 38.9981 44.5719 38.9981H41.3152H36.3186H33.2909C32.682 38.9981 32.1821 39.4942 32.1821 40.1045V46.5977L45.6835 46.5978Z" fill="#FDB440"/>
<path fill-rule="evenodd" clip-rule="evenodd" d="M45.6838 45.6141H32.1823H30.6462C29.6379 45.6141 28.814 46.4361 28.814 47.4422V48.777C28.814 49.0474 29.0374 49.2676 29.3083 49.2676H48.5578C48.8287 49.2676 49.0494 49.0475 49.0494 48.777V47.4422C49.0494 46.4361 48.2255 45.6141 47.22 45.6141H45.6838Z" fill="#CECECE"/>
<path fill-rule="evenodd" clip-rule="evenodd" d="M20.6497 13.8611H19.6666H17.8428C18.0802 13.8611 18.2757 14.0534 18.2757 14.2903V17.7153C18.2757 17.9522 18.0802 18.1473 17.8428 18.1473H20.6498C20.8872 18.1473 21.0827 17.9521 21.0827 17.7153V14.2903C21.0826 14.0534 20.8871 13.8611 20.6497 13.8611Z" fill="#BAAFB9"/>
<path fill-rule="evenodd" clip-rule="evenodd" d="M43.4741 0.732422H34.1594C33.8969 0.732422 33.6846 0.944238 33.6846 1.20615V2.00596V6.9916V7.79141C33.6846 8.05059 33.8969 8.26514 34.1594 8.26514H36.3184H41.315H43.474C43.7365 8.26514 43.9488 8.05059 43.9488 7.79141V6.9916V2.00596V1.20615C43.9489 0.944238 43.7367 0.732422 43.4741 0.732422Z" fill="#FDB440"/>
<path fill-rule="evenodd" clip-rule="evenodd" d="M43.9489 2.00596V1.20615C43.9489 0.944238 43.7366 0.732422 43.4741 0.732422H40.0806C40.3403 0.732422 40.5554 0.944238 40.5554 1.20615V2.00596V6.9916V7.79141C40.5554 8.05059 40.3403 8.26514 40.0806 8.26514H41.315H43.474C43.7365 8.26514 43.9488 8.05059 43.9488 7.79141V6.9916V2.00596H43.9489Z" fill="#FE9737"/>
<path fill-rule="evenodd" clip-rule="evenodd" d="M45.6838 40.1045C45.6838 39.4941 45.1838 38.9981 44.5722 38.9981H41.3155H41.1787C41.7876 38.9981 42.2875 39.4942 42.2875 40.1045V45.6141H43.8236H45.6838V40.1045Z" fill="#FE9737"/>
<path fill-rule="evenodd" clip-rule="evenodd" d="M49.0494 47.4422C49.0494 46.4361 48.2255 45.6141 47.22 45.6141H45.6839H43.8237C44.832 45.6141 45.656 46.4361 45.656 47.4422V48.777C45.656 49.0474 45.4325 49.2676 45.1616 49.2676H48.5579C48.8288 49.2676 49.0495 49.0475 49.0495 48.777L49.0494 47.4422Z" fill="#BAAFB9"/>
<path fill-rule="evenodd" clip-rule="evenodd" d="M8.99443 31.3512V16.9434C8.99443 16.818 8.91621 16.7148 8.77383 16.7148H1.26328C1.07061 16.7148 0.916992 16.9211 0.916992 17.1747V48.8078C0.916992 49.0586 1.07061 49.2677 1.26328 49.2677H16.7255C16.9154 49.2677 17.0718 49.0587 17.0718 48.8078V31.5797C17.0718 31.4292 16.9153 31.3512 16.8204 31.3512H13.0331H8.99443Z" fill="#E8EAEA"/>
<path fill-rule="evenodd" clip-rule="evenodd" d="M8.99463 38.7167V35.0047H4.49785C4.29951 35.0047 4.13477 35.1691 4.13477 35.367V38.3545C4.13477 38.5552 4.29951 38.7168 4.49785 38.7168L8.99463 38.7167Z" fill="#6BD9E7"/>
<path fill-rule="evenodd" clip-rule="evenodd" d="M13.8517 38.3544V35.3669C13.8517 35.169 13.6896 35.0046 13.4914 35.0046H8.99463V38.7166H13.4914C13.6896 38.7167 13.8517 38.5551 13.8517 38.3544Z" fill="#6BD9E7"/>
<path fill-rule="evenodd" clip-rule="evenodd" d="M13.8517 42.7325C13.8517 42.5347 13.6896 42.3702 13.4914 42.3702H8.99463V46.0822H13.4914C13.6897 46.0822 13.8517 45.9206 13.8517 45.7199V42.7325Z" fill="#6BD9E7"/>
<path fill-rule="evenodd" clip-rule="evenodd" d="M8.99463 46.0822V42.3702H4.49785C4.29951 42.3702 4.13477 42.5347 4.13477 42.7325V45.72C4.13477 45.9207 4.29951 46.0823 4.49785 46.0823H8.99463V46.0822Z" fill="#6BD9E7"/>
<path fill-rule="evenodd" clip-rule="evenodd" d="M8.99463 35.0047H4.49785C4.29951 35.0047 4.13477 35.1691 4.13477 35.367V36.8607C4.13477 36.6629 4.29951 36.4984 4.49785 36.4984H8.99463V35.0047Z" fill="#00C7DD"/>
<path fill-rule="evenodd" clip-rule="evenodd" d="M13.4913 35.0047H8.99463V36.4984H13.4914C13.6897 36.4984 13.8517 36.6629 13.8517 36.8607V35.367C13.8517 35.169 13.6896 35.0047 13.4913 35.0047Z" fill="#00C7DD"/>
<path fill-rule="evenodd" clip-rule="evenodd" d="M13.4913 42.3702H8.99463V43.864H13.4914C13.6897 43.864 13.8517 44.0284 13.8517 44.2263V42.7325C13.8517 42.5347 13.6896 42.3702 13.4913 42.3702Z" fill="#00C7DD"/>
<path fill-rule="evenodd" clip-rule="evenodd" d="M8.99463 42.3702H4.49785C4.29951 42.3702 4.13477 42.5347 4.13477 42.7325V44.2263C4.13477 44.0284 4.29951 43.864 4.49785 43.864H8.99463V42.3702Z" fill="#00C7DD"/>
<path fill-rule="evenodd" clip-rule="evenodd" d="M17.0721 48.8077V31.5797C17.0721 31.4292 16.9156 31.3512 16.8207 31.3512H14.9298C15.0247 31.3512 15.1783 31.4292 15.1783 31.5797V48.8078C15.1783 49.0586 15.0219 49.2677 14.832 49.2677H16.7257C16.9157 49.2676 17.0721 49.0586 17.0721 48.8077Z" fill="#D4D6D8"/>
<path fill-rule="evenodd" clip-rule="evenodd" d="M7.10088 20.2735V31.3511H8.99453V26.1342V20.2735V16.9434C8.99453 16.818 8.91631 16.7148 8.77393 16.7148H6.87744C7.02266 16.7148 7.10088 16.818 7.10088 16.9434V20.2735Z" fill="#D4D6D8"/>
<path d="M17.0719 26.8666C17.4765 26.8666 17.8043 26.5388 17.8043 26.1342C17.8043 25.7296 17.4765 25.4018 17.0719 25.4018H13.7656V23.2053C13.7656 22.8007 13.4378 22.4729 13.0332 22.4729C12.6286 22.4729 12.3008 22.8007 12.3008 23.2053V25.4018H9.72686V16.9434C9.72686 16.4044 9.3082 15.9823 8.77373 15.9823H1.26338C0.658496 15.9823 0.18457 16.5061 0.18457 17.1746V48.8077C0.18457 49.4763 0.658496 50 1.26338 50H16.7255C17.3203 50 17.8043 49.4651 17.8043 48.8077V41.2137C17.8043 40.8091 17.4765 40.4813 17.0719 40.4813C16.6673 40.4813 16.3395 40.8091 16.3395 41.2137V48.5352H1.64951V17.4472H8.26211V19.2903H5.78809C5.3835 19.2903 5.05566 19.6182 5.05566 20.0228C5.05566 20.4274 5.3835 20.7552 5.78809 20.7552H8.26201V23.4148H6.04229C5.6377 23.4148 5.30986 23.7426 5.30986 24.1472C5.30986 24.5518 5.6377 24.8796 6.04229 24.8796H8.26201V31.3512C8.26201 31.7558 8.58984 32.0836 8.99443 32.0836H16.3395V37.8082C16.3395 38.2128 16.6673 38.5406 17.0719 38.5406C17.4765 38.5406 17.8043 38.2128 17.8043 37.8082V31.5797C17.8043 30.9861 17.2937 30.6188 16.8205 30.6188H13.7656V26.8666H17.0719ZM12.3008 30.6188H9.72686V26.8666H12.3007L12.3008 30.6188Z" fill="black"/>
<path d="M42.0477 33.8755V30.2588V23.6322C42.0477 23.6319 42.0477 23.6315 42.0477 23.6312V21.5193V13.388C42.0477 13.3877 42.0477 13.3873 42.0477 13.387V12.78V8.99766H43.4742C44.1398 8.99766 44.6813 8.45654 44.6813 7.79141V7.72402H48.4765C48.8009 7.72402 49.0985 7.61895 49.3304 7.44453C49.3724 7.41641 49.4121 7.38359 49.4488 7.3458C49.4571 7.3373 49.4643 7.32812 49.4721 7.31934C49.6845 7.10478 49.8149 6.82236 49.8149 6.5123V2.48535C49.8149 1.81709 49.2146 1.27354 48.4765 1.27354H44.6814V1.20625C44.6814 0.541113 44.1399 0 43.4743 0H34.1596C33.4939 0 32.9523 0.541113 32.9523 1.20625V1.27354H31.5676H23.4187C23.4179 1.27354 23.4171 1.27354 23.4162 1.27354H22.8086H12.3236C11.5841 1.27354 10.9824 1.81709 10.9824 2.48535V6.51221C10.9824 7.18037 11.5841 7.72393 12.3236 7.72393H15.8087V10.2488L13.0992 13.1286H12.4299C11.7889 13.1286 11.2674 13.6497 11.2674 14.2902V17.7152C11.2674 18.3572 11.7889 18.8796 12.4299 18.8796H20.6498C21.2924 18.8796 21.8151 18.3572 21.8151 17.7152V14.2902C21.8151 13.6497 21.2924 13.1286 20.6498 13.1286H19.9832L17.2736 10.2488V7.72402H22.8088H31.5677H32.9524V7.79141C32.9524 8.45654 33.494 8.99766 34.1597 8.99766H35.5861V12.7798V21.5192V30.2587V38.2656H33.2908C32.2756 38.2656 31.4496 39.0905 31.4496 40.1045V44.8815H30.646C29.2318 44.8815 28.0812 46.0303 28.0812 47.4422V48.7771C28.0812 49.4514 28.6316 49.9999 29.3081 49.9999H48.5576C49.2325 49.9999 49.7815 49.4514 49.7815 48.7771V47.4422C49.7815 46.0303 48.6322 44.8815 47.2197 44.8815H46.4161V40.1045C46.4161 39.0905 45.5888 38.2656 44.572 38.2656H42.0477V33.8765C42.0477 33.8762 42.0477 33.8759 42.0477 33.8755ZM48.3502 2.73867V5.2582L45.755 2.73857L48.3502 2.73867ZM44.6814 3.73789L47.2783 6.25918H44.6814V3.73789ZM12.4473 6.25879V2.73838H12.8533L16.4783 6.25889L12.4473 6.25879ZM20.3502 14.5936V17.4148H12.7321V14.5936H20.3502ZM17.9718 13.1287H15.1104L16.5411 11.6081L17.9718 13.1287ZM14.9559 2.73838H21.6121L18.284 5.97061L14.9559 2.73838ZM22.8087 6.25918L20.0896 6.25908L23.4176 3.02695L26.7457 6.25918H22.8087ZM25.2229 2.73838H31.5676H31.8793L28.5511 5.97061L25.2229 2.73838ZM31.5676 6.25918H30.3565L32.9523 3.73828V6.25918H31.5676ZM44.5719 39.7306C44.7811 39.7306 44.9512 39.8983 44.9512 40.1046V44.8816H40.6868C40.2822 44.8816 39.9544 45.2095 39.9544 45.6141C39.9544 46.0187 40.2822 46.3465 40.6868 46.3465H47.2196C47.8245 46.3465 48.3166 46.838 48.3166 47.4423V48.5352H29.5461V47.4423C29.5461 46.838 30.0395 46.3465 30.646 46.3465H37.1397C37.5443 46.3465 37.8722 46.0187 37.8722 45.6141C37.8722 45.2095 37.5443 44.8816 37.1397 44.8816H32.9145V40.1046C32.9145 39.9019 33.0869 39.7306 33.2908 39.7306H36.3185H41.3152H44.5719ZM40.2921 13.3874L37.051 16.7099V12.7798V10.0648L40.2921 13.3874ZM38.0562 8.99766H40.5828V11.5878L38.0562 8.99766ZM40.5828 15.187V21.5192V21.8319L37.3416 18.5094L40.5828 15.187ZM40.2921 23.6316L37.051 26.9542V21.5192V20.3091L40.2921 23.6316ZM40.5828 25.4313V30.2588V32.0764L37.3417 28.7538L40.5828 25.4313ZM40.2921 33.8761L37.051 37.1985V30.5535L40.2921 33.8761ZM40.5828 35.6757V38.2657H38.0562L40.5828 35.6757ZM41.3152 7.53281H36.3281C36.3276 7.53281 36.327 7.53281 36.3265 7.53281H36.3185H34.4171V1.46484H43.2165V7.53281H41.3152Z" fill="black"/>
<path d="M14.5841 35.3669C14.5841 34.7632 14.0938 34.2722 13.4914 34.2722H4.49785C3.89375 34.2722 3.40234 34.7632 3.40234 35.3669V38.3544C3.40234 38.9581 3.89375 39.4491 4.49785 39.4491H13.4914C14.0939 39.4491 14.5841 38.9581 14.5841 38.3544V35.3669ZM8.26211 37.9843H4.86719V35.737H8.26221V37.9843H8.26211ZM13.1192 37.9843H9.72695V35.737H13.1191V37.9843H13.1192Z" fill="black"/>
<path d="M13.4913 41.6378H4.49785C3.89375 41.6378 3.40234 42.1288 3.40234 42.7325V45.72C3.40234 46.3236 3.89375 46.8146 4.49785 46.8146H13.4914C14.0939 46.8146 14.5841 46.3236 14.5841 45.72V42.7325C14.5841 42.1288 14.0938 41.6378 13.4913 41.6378ZM8.26211 45.3498H4.86719V43.1026H8.26221V45.3498H8.26211ZM13.1192 45.3498H9.72695V43.1026H13.1191V45.3498H13.1192Z" fill="black"/>
</g>
<defs>
<clipPath id="clip0_439_117386">
<rect width="50" height="50" fill="white"/>
</clipPath>
</defs>
</svg>
