<svg width="80" height="80" viewBox="0 0 80 80" fill="none" xmlns="http://www.w3.org/2000/svg">
<path d="M40.0002 2.49847C35.9219 2.49847 31.9705 3.92379 28.8308 6.52679C28.7025 6.63099 28.5961 6.75968 28.5178 6.90526C28.4395 7.05084 28.3908 7.21048 28.3746 7.37499C28.3584 7.5395 28.375 7.70556 28.4235 7.86361C28.4719 8.02166 28.5512 8.16851 28.6568 8.29571C28.7624 8.42291 28.8921 8.52796 29.0385 8.60468C29.1849 8.6814 29.3451 8.72825 29.5098 8.74266C29.6745 8.75706 29.8404 8.73873 29.9979 8.68859C30.1554 8.63846 30.3014 8.55764 30.4275 8.4507C33.119 6.21927 36.504 4.99851 40.0002 4.99851C48.2993 4.99851 55.0002 11.6994 55.0002 19.9985C55.0002 28.2975 48.2993 34.9984 40.0002 34.9984C31.7012 34.9984 25.0002 28.2975 25.0002 19.9985C25.0002 17.1325 25.8211 14.3265 27.366 11.9125C27.4606 11.7744 27.5266 11.6187 27.5599 11.4546C27.5932 11.2905 27.5932 11.1213 27.5599 10.9572C27.5266 10.7931 27.4606 10.6375 27.366 10.4993C27.2713 10.3612 27.1499 10.2434 27.0089 10.1531C26.8679 10.0628 26.7102 10.0018 26.5451 9.97365C26.38 9.94547 26.211 9.95067 26.048 9.98907C25.885 10.0275 25.7314 10.0982 25.5963 10.1971C25.4612 10.296 25.3473 10.4212 25.2615 10.5649C23.4592 13.381 22.5002 16.6551 22.5002 19.9985C22.5002 29.6486 30.3501 37.4984 40.0002 37.4984C49.6504 37.4984 57.5002 29.6486 57.5002 19.9985C57.5002 10.3483 49.6504 2.49847 40.0002 2.49847ZM40.0002 7.4935C39.3751 7.4935 38.7502 7.90986 38.7502 8.74367V11.4389C36.6075 12.0032 35.0027 13.9494 35.0027 16.2607C35.0027 19.0073 37.2585 21.2607 40.0051 21.2607C41.4007 21.2607 42.4953 22.3652 42.4953 23.7608C42.4953 25.1563 41.4007 26.2631 40.0051 26.2631C38.6096 26.2631 37.5051 25.1563 37.5051 23.7608C37.5053 23.5963 37.473 23.4335 37.4102 23.2815C37.3474 23.1296 37.2553 22.9914 37.1391 22.8751C37.0229 22.7588 36.8849 22.6666 36.733 22.6036C36.5811 22.5406 36.4183 22.5083 36.2539 22.5083C36.0895 22.5083 35.9267 22.5406 35.7748 22.6036C35.6229 22.6666 35.4849 22.7588 35.3687 22.8751C35.2525 22.9914 35.1604 23.1296 35.0976 23.2815C35.0348 23.4335 35.0025 23.5963 35.0027 23.7608C35.0027 26.072 36.6075 28.0183 38.7502 28.5825V31.2534C38.7502 32.9204 41.2502 32.9204 41.2502 31.2534V28.5849C43.3955 28.024 44.9953 26.0753 44.9953 23.7608C44.9953 21.0141 42.7517 18.7607 40.0051 18.7607C38.6096 18.7607 37.5051 17.6562 37.5051 16.2607C37.5051 14.8651 38.6096 13.7582 40.0051 13.7582C41.4007 13.7582 42.4953 14.8651 42.4953 16.2607C42.4917 16.4271 42.5213 16.5928 42.5824 16.7477C42.6436 16.9026 42.7351 17.0436 42.8515 17.1626C42.9679 17.2817 43.107 17.3763 43.2605 17.4409C43.414 17.5055 43.5788 17.5388 43.7453 17.5388C43.9119 17.5388 44.0767 17.5055 44.2302 17.4409C44.3837 17.3763 44.5228 17.2817 44.6392 17.1626C44.7556 17.0436 44.8471 16.9026 44.9083 16.7477C44.9694 16.5928 44.999 16.4271 44.9953 16.2607C44.9953 13.9461 43.3955 11.9974 41.2502 11.4365V8.74367C41.2502 7.91009 40.6254 7.4935 40.0002 7.4935ZM71.6946 34C70.1776 34 68.6618 34.5766 67.51 35.7284L60.1809 43.0575C58.9543 44.2357 60.7703 46.0517 61.9485 44.8251L69.2776 37.496C70.6325 36.1411 72.7591 36.1411 74.114 37.496C74.7871 38.1691 75.0243 38.9007 74.9929 39.7616C74.9598 40.6225 74.606 41.6045 73.9773 42.4961C71.588 45.884 66.2359 53.6267 63.3718 57.7744C61.1761 60.9542 58.5126 62.5034 55.0027 62.5034H33.7527C31.4766 62.5034 29.9427 63.4864 28.7795 64.5127L12.1316 47.8647C11.6458 47.3789 10.8611 47.3723 10.3689 47.8647L2.86889 55.3671C2.37769 55.8558 2.37769 56.6509 2.86889 57.1396L22.8738 77.1347C23.3614 77.6194 24.1489 77.6194 24.6365 77.1347L32.1365 69.6323C32.6212 69.1447 32.6212 68.3572 32.1365 67.8696L30.53 66.2631C31.3696 65.4957 32.2001 65.0033 33.7527 65.0033H55.0027C59.2977 65.0033 62.8848 62.8775 65.4275 59.1953C68.2908 55.0487 73.6497 47.2951 76.0183 43.9365C76.8805 42.714 77.4398 41.3071 77.4929 39.852C77.5458 38.3968 77.0375 36.8845 75.8816 35.7284C74.7298 34.5766 73.2115 34 71.6946 34ZM26.2527 42.5034C21.5845 42.5034 18.6957 44.64 16.4285 46.8223C15.2125 47.9776 16.9605 49.7943 18.1619 48.6239C20.2861 46.5793 22.3027 45.0033 26.2527 45.0033H52.5027C54.6018 45.0033 56.2527 46.6543 56.2527 48.7534C56.2527 50.8525 54.6018 52.5033 52.5027 52.5033H38.7527C37.0622 52.4797 37.0622 55.0272 38.7527 55.0033H52.5027C55.9435 55.0033 58.7527 52.1943 58.7527 48.7534C58.7527 45.3125 55.9435 42.5034 52.5027 42.5034H26.2527ZM11.2551 50.5234L29.49 68.7558L23.76 74.4857L5.52514 56.2533L11.2551 50.5234Z" fill="#52C306"/>
</svg>
