<svg width="50" height="50" viewBox="0 0 50 50" fill="none" xmlns="http://www.w3.org/2000/svg">
<g clip-path="url(#clip0_439_117434)">
<path d="M42.7504 18.594L42.5346 16.4456L42.7504 16.1108L42.3907 12.2561L41.7655 11.8679H37.5419L37.0293 12.2561L36.6696 16.1107L36.8949 16.3601L36.6696 18.7039L36.4078 18.9156L35.4668 29.0001L35.9306 29.345H43.5478L43.9532 29.0001L43.0121 18.9156L42.7504 18.594Z" fill="#DBEDFF"/>
<path d="M39.3701 18.9156L39.6318 18.7039L39.8571 16.3601L39.6318 16.1107L39.9915 12.2561L40.5041 11.8679H37.5419L37.0293 12.2561L36.6696 16.1107L36.8949 16.3601L36.6696 18.7039L36.4078 18.9156L35.4668 29.0001L35.9306 29.345H38.8928L38.429 29.0001L39.3701 18.9156Z" fill="#B5DCFF"/>
<path d="M46.7588 29.0001H32.1164L31.3569 29.7389V46.601H47.0796L47.3034 46.4008V29.5447C47.3034 29.2439 47.0596 29.0001 46.7588 29.0001Z" fill="#8479C2"/>
<path d="M35.4667 29.5447C35.4667 29.2439 35.7105 29.0001 36.0113 29.0001H32.1164L31.3569 29.7389V46.601H35.6905L35.4667 46.4008V29.5447Z" fill="#6E60B8"/>
<path d="M42.6838 9.45114H36.7364C36.4551 9.45114 36.2271 9.67917 36.2271 9.96052V11.7467C36.2271 12.0281 36.4551 12.2561 36.7364 12.2561H42.6838C42.9651 12.2561 43.1932 12.0281 43.1932 11.7467V9.96052C43.1932 9.67917 42.9651 9.45114 42.6838 9.45114Z" fill="#B5DCFF"/>
<path d="M39.0916 11.7467V9.96052C39.0916 9.67917 39.3196 9.45114 39.601 9.45114H36.7364C36.4551 9.45114 36.2271 9.67917 36.2271 9.96052V11.7467C36.2271 12.0281 36.4551 12.2561 36.7364 12.2561H39.601C39.3196 12.2561 39.0916 12.0281 39.0916 11.7467Z" fill="#8BCAFF"/>
<path d="M38.836 2.53379C38.6405 2.57783 38.4438 2.47373 38.3541 2.29453C37.511 0.609665 35.25 0.202536 33.8714 1.47959C33.7067 1.63213 33.4496 1.63144 33.2846 1.47939C32.1977 0.47822 30.5107 0.477438 29.423 1.47871C29.2579 1.63076 29.0001 1.63193 28.8359 1.47871C27.0834 -0.156546 24.0459 1.03525 24.0459 3.58545C24.0459 6.13613 27.0838 7.32685 28.8359 5.69218C29.0001 5.53906 29.2579 5.54013 29.423 5.69218C30.5105 6.69306 32.198 6.69316 33.2853 5.69082C33.4501 5.53886 33.7065 5.53838 33.8715 5.69023C34.8516 6.59248 36.3352 6.69414 37.428 5.93652C37.594 5.82148 37.8175 5.82607 37.9688 5.95976C39.1866 7.03545 41.2428 6.21142 41.2428 4.46513C41.2428 3.16924 40.0335 2.26377 38.836 2.53379Z" fill="#DBEDFF"/>
<path d="M37.9689 3.73817C37.8176 3.60448 37.5941 3.59989 37.4281 3.71493C36.3353 4.47255 34.8517 4.37089 33.8716 3.46864C33.7067 3.31678 33.4502 3.31727 33.2854 3.46923C32.198 4.47157 30.5105 4.47147 29.4231 3.47059C29.258 3.31854 29.0002 3.31737 28.836 3.47059C27.3635 4.84442 24.9835 4.22216 24.2611 2.47479C24.1239 2.80663 24.0459 3.1786 24.0459 3.58563C24.0459 6.13632 27.0838 7.32704 28.8359 5.69237C29.0001 5.53925 29.2579 5.54032 29.423 5.69237C30.5105 6.69325 32.198 6.69335 33.2853 5.691C33.4501 5.53905 33.7065 5.53856 33.8715 5.69042C34.8516 6.59266 36.3352 6.69432 37.428 5.93671C37.594 5.82167 37.8175 5.82626 37.9688 5.95995C39.1866 7.03563 41.2428 6.21161 41.2428 4.46532C41.2428 4.04725 41.1165 3.6703 40.9059 3.35985C40.2721 4.28202 38.8839 4.54637 37.9689 3.73817Z" fill="#B5DCFF"/>
<path d="M36.4077 18.9157H43.0121L42.7503 16.1107H36.6695L36.4077 18.9157Z" fill="#F27182"/>
<path d="M36.6695 16.1107L36.4077 18.9157H39.3699L39.6317 16.1107H36.6695Z" fill="#ED5469"/>
<path d="M35.3359 43.592H44.0843V46.528H35.3359V43.592Z" fill="#00D2FC"/>
<path d="M35.3359 43.592H39.4511V46.528H35.3359V43.592Z" fill="#00C2FB"/>
<path d="M35.3359 38.2293H44.0843V41.1654H35.3359V38.2293Z" fill="#00D2FC"/>
<path d="M35.3359 38.2293H39.4511V41.1654H35.3359V38.2293Z" fill="#00C2FB"/>
<path d="M31.2536 24.1323L22.6402 28.4685C22.4395 28.5696 22.3127 28.7752 22.3127 29.0001L21.9819 29.3449V46.601H31.715L32.1165 46.4008V24.664C32.1164 24.2209 31.6495 23.9331 31.2536 24.1323Z" fill="#FFC365"/>
<path d="M35.3359 41.038H44.0843V43.7194H35.3359V41.038Z" fill="#62DDFC"/>
<path d="M35.3359 41.038H39.4511V43.7194H35.3359V41.038Z" fill="#00D2FC"/>
<path d="M43.9533 35.3999H35.4669C35.4214 35.3999 35.3779 35.3911 35.3359 35.3787V38.3568H44.0843V35.3787C44.0422 35.3911 43.9989 35.3999 43.9533 35.3999Z" fill="#62DDFC"/>
<path d="M39.3896 35.3999H35.3976C35.3762 35.3999 35.3558 35.3911 35.3359 35.3787V38.3568H39.4511V35.3787C39.4313 35.3911 39.411 35.3999 39.3896 35.3999Z" fill="#00D2FC"/>
<path d="M43.9533 32.8896H35.4669C35.1855 32.8896 34.9575 33.1176 34.9575 33.399V35.1852C34.9575 35.4666 35.1855 35.6946 35.4669 35.6946H43.9533C44.2347 35.6946 44.4627 35.4666 44.4627 35.1852V33.399C44.4627 33.1176 44.2347 32.8896 43.9533 32.8896Z" fill="#DBEDFF"/>
<path d="M38.9417 35.1851V33.3989C38.9417 33.1176 39.1697 32.8895 39.4511 32.8895H35.4669C35.1855 32.8895 34.9575 33.1176 34.9575 33.3989V35.1851C34.9575 35.4665 35.1855 35.6945 35.4669 35.6945H39.4511C39.1697 35.6945 38.9417 35.4665 38.9417 35.1851Z" fill="#B5DCFF"/>
<path d="M25.0569 29.9485C25.0569 29.7237 25.1837 29.5181 25.3845 29.4169L32.1167 26.0277V24.664C32.1167 24.2208 31.6498 23.9331 31.2539 24.1323L22.6405 28.4685C22.4397 28.5696 22.313 28.7752 22.313 29.0001V46.4008H25.0568V29.9485H25.0569Z" fill="#FFA90F"/>
<path d="M21.4503 24.1323L12.8369 28.4685C12.6361 28.5696 12.5094 28.7752 12.5094 29.0001L12.0864 29.3449V46.8613H21.5591L22.3131 46.4008V24.664C22.3131 24.2209 21.8462 23.9331 21.4503 24.1323Z" fill="#FFC365"/>
<path d="M15.2532 29.9485C15.2532 29.7237 15.38 29.5181 15.5808 29.4169L22.313 26.0277V24.664C22.313 24.2208 21.8461 23.9331 21.4502 24.1323L12.8368 28.4685C12.636 28.5696 12.5093 28.7752 12.5093 29.0001V46.4008H15.2531V29.9485H15.2532Z" fill="#FFA90F"/>
<path d="M11.6465 24.1323L3.03311 28.4685C2.83232 28.5696 2.70557 28.7752 2.70557 29.0001V46.4008H12.5093V24.664C12.5093 24.2208 12.0424 23.9331 11.6465 24.1323Z" fill="#FFC365"/>
<path d="M5.44951 29.9485C5.44951 29.7237 5.57627 29.5181 5.77705 29.4169L12.5093 26.0277V24.664C12.5093 24.2208 12.0424 23.9331 11.6465 24.1323L3.03311 28.4685C2.83232 28.5696 2.70557 28.7752 2.70557 29.0001V46.4008H5.44941L5.44951 29.9485Z" fill="#FFA90F"/>
<path d="M48.5642 46.303H1.44472C1.05381 46.303 0.736816 46.6199 0.736816 47.0109V48.5554C0.736816 48.9463 1.05371 49.2633 1.44472 49.2633H48.5642C48.9551 49.2633 49.2721 48.9464 49.2721 48.5554V47.0109C49.2721 46.6199 48.9552 46.303 48.5642 46.303Z" fill="#DBEDFF"/>
<path d="M48.5642 47.7831H1.44472C1.05381 47.7831 0.736816 47.4662 0.736816 47.0752V48.5553C0.736816 48.9462 1.05371 49.2632 1.44472 49.2632H48.5642C48.9551 49.2632 49.2721 48.9463 49.2721 48.5553V47.0752C49.2721 47.4662 48.9552 47.7831 48.5642 47.7831Z" fill="#B5DCFF"/>
<path d="M28.8655 31.1834H25.5638C25.2298 31.1834 24.959 31.4541 24.959 31.7882V35.4805C24.959 35.8145 25.2298 36.0853 25.5638 36.0853H28.8655C29.1995 36.0853 29.4703 35.8146 29.4703 35.4805V31.7882C29.4703 31.4541 29.1995 31.1834 28.8655 31.1834Z" fill="#00D2FC"/>
<path d="M19.0618 31.1834H15.7601C15.4261 31.1834 15.1553 31.4541 15.1553 31.7882V35.4805C15.1553 35.8145 15.4261 36.0853 15.7601 36.0853H19.0618C19.3958 36.0853 19.6666 35.8146 19.6666 35.4805V31.7882C19.6666 31.4541 19.3958 31.1834 19.0618 31.1834Z" fill="#00D2FC"/>
<path d="M9.25811 31.1834H5.95635C5.62236 31.1834 5.35156 31.4541 5.35156 31.7882V35.4805C5.35156 35.8145 5.62236 36.0853 5.95635 36.0853H9.25811C9.59209 36.0853 9.86289 35.8146 9.86289 35.4805V31.7882C9.86289 31.4541 9.59209 31.1834 9.25811 31.1834Z" fill="#00D2FC"/>
<path d="M27.2146 35.4804V31.7881C27.2146 31.4541 27.4855 31.1833 27.8194 31.1833H25.5638C25.2298 31.1833 24.959 31.454 24.959 31.7881V35.4804C24.959 35.8144 25.2298 36.0852 25.5638 36.0852H27.8194C27.4855 36.0852 27.2146 35.8144 27.2146 35.4804Z" fill="#00C2FB"/>
<path d="M17.4109 35.4804V31.7881C17.4109 31.4541 17.6817 31.1833 18.0157 31.1833H15.7601C15.4261 31.1833 15.1553 31.454 15.1553 31.7881V35.4804C15.1553 35.8144 15.4261 36.0852 15.7601 36.0852H18.0157C17.6817 36.0852 17.4109 35.8144 17.4109 35.4804Z" fill="#00C2FB"/>
<path d="M7.60723 35.4804V31.7881C7.60723 31.4541 7.87803 31.1833 8.21201 31.1833H5.95635C5.62236 31.1833 5.35156 31.454 5.35156 31.7881V35.4804C5.35156 35.8144 5.62236 36.0852 5.95635 36.0852H8.21201C7.87803 36.0852 7.60723 35.8144 7.60723 35.4804Z" fill="#00C2FB"/>
<path d="M5.95195 36.8217H9.25371C9.99102 36.8217 10.5908 36.2218 10.5908 35.4845V31.7922C10.5908 31.0549 9.99092 30.455 9.25371 30.455H5.95195C5.21455 30.455 4.61475 31.055 4.61475 31.7922V35.4845C4.61475 36.2218 5.21455 36.8217 5.95195 36.8217ZM6.07959 31.9199H9.12598V35.3569H6.07959V31.9199Z" fill="black"/>
<path d="M15.7557 36.8217H19.0574C19.7947 36.8217 20.3945 36.2218 20.3945 35.4845V31.7922C20.3945 31.0549 19.7946 30.455 19.0574 30.455H15.7557C15.0183 30.455 14.4185 31.055 14.4185 31.7922V35.4845C14.4185 36.2218 15.0183 36.8217 15.7557 36.8217ZM15.8833 31.9199H18.9297V35.3569H15.8833V31.9199Z" fill="black"/>
<path d="M25.5593 36.8217H28.861C29.5984 36.8217 30.1982 36.2218 30.1982 35.4845V31.7922C30.1982 31.0549 29.5983 30.455 28.861 30.455H25.5593C24.822 30.455 24.2222 31.055 24.2222 31.7922V35.4845C24.2221 36.2218 24.822 36.8217 25.5593 36.8217ZM25.6869 31.9199H28.7333V35.3569H25.6869V31.9199Z" fill="black"/>
<path d="M38.9028 1.78154C38.3794 0.874022 37.4935 0.251366 36.4419 0.0601546C35.4072 -0.127931 34.3768 0.130662 33.573 0.77119C32.2802 -0.250685 30.4195 -0.250978 29.1261 0.770409C28.1045 -0.0443376 26.6936 -0.229299 25.4566 0.308201C24.132 0.883983 23.3091 2.14131 23.3091 3.58965C23.3091 5.03789 24.1319 6.29521 25.4563 6.8709C26.6936 7.40859 28.1044 7.22363 29.1261 6.40889C30.42 7.43066 32.2816 7.42998 33.5746 6.40693C34.7401 7.32666 36.3895 7.43076 37.6611 6.65947C39.3915 7.93232 41.9709 6.73779 41.9709 4.46943C41.9708 2.80625 40.4952 1.56562 38.9028 1.78154ZM38.4494 5.41513C38.0473 5.05986 37.4539 5.02871 37.0065 5.33887C36.1985 5.89892 35.0869 5.82187 34.3634 5.15566C33.9207 4.74814 33.2271 4.74853 32.7847 5.15654C31.9804 5.89785 30.7197 5.89834 29.9148 5.15762C29.4689 4.74707 28.7735 4.74863 28.332 5.16084C27.5975 5.84629 26.6668 5.7998 26.0403 5.52744C25.2474 5.18281 24.7739 4.4583 24.7739 3.58965C24.7739 2.7209 25.2475 1.99639 26.0406 1.65166C26.7803 1.33017 27.6742 1.40469 28.3319 2.01846C28.7736 2.43066 29.4689 2.43213 29.9148 2.02178C30.7193 1.28105 31.9796 1.28125 32.7841 2.02226C33.2283 2.43144 33.9227 2.43096 34.3648 2.02109C34.8522 1.56972 35.5135 1.38027 36.18 1.50137C36.8455 1.62236 37.3977 2.03242 37.6949 2.62637C37.9379 3.1124 38.4716 3.36982 38.9928 3.25244C39.7318 3.08555 40.5062 3.64014 40.5062 4.46943C40.506 5.5793 39.199 6.07754 38.4494 5.41513Z" fill="black"/>
<path d="M48.5598 45.6725H48.0314V29.5489C48.0314 28.8447 47.4586 28.2719 46.7544 28.2719H44.616L44.3256 25.1599C44.2879 24.7571 43.9307 24.4609 43.5282 24.4986C43.1255 24.5362 42.8295 24.8933 42.867 25.296L43.1447 28.2719H36.2663L37.0707 19.6523H42.3403L42.548 21.878C42.5856 22.2808 42.9415 22.5766 43.3453 22.5393C43.7481 22.5017 44.0441 22.1446 44.0066 21.7419C43.9082 20.6878 43.2762 13.9146 43.1802 12.8862C43.6158 12.6931 43.921 12.2573 43.921 11.7509V9.96471C43.921 9.27995 43.3639 8.72292 42.6791 8.72292H36.7319C36.0471 8.72292 35.49 9.27995 35.49 9.96471V11.7509C35.49 12.2574 35.7952 12.6931 36.2308 12.8862C36.1682 13.5571 34.8576 27.6015 34.7951 28.2719H32.8444V24.6682C32.8444 23.6788 31.8022 23.0384 30.9199 23.4823L23.0407 27.4488V24.6681C23.0407 23.6787 21.9985 23.0383 21.1162 23.4822L13.2371 27.4487V24.6681C13.2371 23.6787 12.1949 23.0383 11.3126 23.4822L2.69921 27.8184C2.24862 28.0454 1.96874 28.4997 1.96874 29.0043V45.6725H1.44042C0.646091 45.6725 0 46.3186 0 47.1127V48.5596C0 49.3537 0.646091 49.9998 1.44033 49.9998H23.291C23.6956 49.9998 24.0234 49.6719 24.0234 49.2674C24.0234 48.8629 23.6956 48.535 23.291 48.535H1.46484V47.1372H48.5352V48.535H26.709C26.3044 48.535 25.9766 48.8629 25.9766 49.2674C25.9766 49.6719 26.3044 49.9998 26.709 49.9998H48.5598C49.3539 49.9998 50 49.3537 50 48.5595V47.1126C50 46.3186 49.3539 45.6725 48.5598 45.6725ZM37.2074 18.1873L37.3324 16.8473H42.0785L42.2036 18.1873H37.2074ZM37.4691 15.3825L37.6921 12.9926H41.7189L41.9419 15.3825H37.4691ZM36.9548 10.1878H42.4562V11.5278H42.3862H37.0249H36.9548V10.1878ZM11.7723 45.6725H3.43348V29.0888L11.7723 24.8908V45.6725ZM21.5759 45.6725H13.2371V29.0888L21.5759 24.8908V45.6725ZM31.3796 45.6725H23.0407V29.0889L31.3796 24.8909V45.6725ZM43.3472 45.6725H36.0638V44.456H43.3472V45.6725ZM43.3472 42.9911H36.0638V41.7746H43.3472V42.9911ZM43.3472 40.3098H36.0638V39.0933H43.3472V40.3098ZM43.3472 37.6285H36.0638V36.4311H43.3472V37.6285ZM43.7257 34.9663H35.6853V33.6262H43.7257V34.9663ZM46.5666 45.6725H44.812C44.812 44.6088 44.812 36.9761 44.812 36.08C45.045 35.8542 45.1905 35.5386 45.1905 35.1893V33.4032C45.1905 32.7184 44.6334 32.1614 43.9487 32.1614H35.4624C34.7776 32.1614 34.2205 32.7184 34.2205 33.4032V35.1894C34.2205 35.5387 34.366 35.8543 34.599 36.0801V45.6726H32.8444V29.7367H46.5666V45.6725Z" fill="black"/>
</g>
<defs>
<clipPath id="clip0_439_117434">
<rect width="50" height="50" fill="white"/>
</clipPath>
</defs>
</svg>
