<svg width="50" height="50" viewBox="0 0 50 50" fill="none" xmlns="http://www.w3.org/2000/svg">
<path d="M45.2761 43.7964C44.6828 43.7964 44.2018 44.2773 44.2018 44.8706C44.2018 46.5144 42.8645 47.8516 41.2209 47.8516C39.5771 47.8516 38.2399 46.5143 38.2399 44.8706V40.8154C38.2399 37.9871 35.9389 35.686 33.1105 35.686C32.5173 35.686 32.0363 36.167 32.0363 36.7603C32.0363 37.3535 32.5173 37.8345 33.1105 37.8345C34.7542 37.8345 36.0915 39.1718 36.0915 40.8154V44.8706C36.0915 47.6989 38.3926 50 41.2209 50C44.0492 50 46.3503 47.6989 46.3503 44.8706C46.3503 44.2772 45.8693 43.7964 45.2761 43.7964Z" fill="#0E121D"/>
<path d="M16.8896 35.686C14.0613 35.686 11.7602 37.9871 11.7602 40.8154V44.8706C11.7602 46.5144 10.4229 47.8516 8.77924 47.8516C7.13549 47.8516 5.79828 46.5143 5.79828 44.8706C5.79828 44.2773 5.31732 43.7964 4.72406 43.7964C4.1308 43.7964 3.64984 44.2773 3.64984 44.8706C3.64984 47.6989 5.95092 50 8.77924 50C11.6076 50 13.9086 47.6989 13.9086 44.8706V40.8154C13.9086 39.1718 15.2459 37.8345 16.8896 37.8345C17.4829 37.8345 17.9638 37.3535 17.9638 36.7603C17.9638 36.167 17.4829 35.686 16.8896 35.686Z" fill="#0E121D"/>
<path d="M45.2761 27.5754H30.1294V24.5943C30.1294 22.1344 28.3885 20.0742 26.0742 19.579V13.2398C26.0742 12.6466 25.5933 12.9248 25 12.9248C24.4068 12.9248 23.9258 12.6466 23.9258 13.2398V19.579C21.6115 20.0742 19.8706 22.1345 19.8706 24.5943V27.5754H4.72394C4.13068 27.5754 3.64972 28.0563 3.64972 28.6496C3.64972 29.2429 4.13068 29.7238 4.72394 29.7238H7.7049V32.7048C7.7049 35.5331 10.006 37.8342 12.8343 37.8342H37.1655C39.9939 37.8342 42.2949 35.5331 42.2949 32.7048V29.7238H45.2759C45.8692 29.7238 46.3501 29.2429 46.3501 28.6496C46.3503 28.0563 45.8694 27.5754 45.2761 27.5754ZM22.0191 24.5943C22.0191 22.9506 23.3564 21.6134 25 21.6134C26.6437 21.6134 27.981 22.9507 27.981 24.5943V27.5754H22.019V24.5943H22.0191ZM40.1467 32.7048C40.1467 34.3485 38.8094 35.6857 37.1657 35.6857H12.8344C11.1906 35.6857 9.85343 34.3484 9.85343 32.7048V29.7238H40.1467V32.7048Z" fill="#FF5E14"/>
<path d="M37.4208 14.3141H12.8344C12.4382 14.3141 12.0742 14.096 11.8873 13.7467C11.7003 13.3974 11.7208 12.9735 11.9406 12.6439L20.051 0.47832C20.2502 0.179492 20.5856 0 20.9447 0H29.3102C29.6694 0 30.0048 0.179492 30.204 0.47832L38.3144 12.6439C38.5343 12.9736 38.5548 13.3974 38.3678 13.7467C38.1809 14.096 37.8169 14.3141 37.4208 14.3141ZM14.8415 12.1656H35.4135L28.7353 2.14844H21.5196L14.8415 12.1656Z" fill="#0E121D"/>
</svg>
