<svg width="50" height="50" viewBox="0 0 50 50" fill="none" xmlns="http://www.w3.org/2000/svg">
<g clip-path="url(#clip0_23_205)">
<path d="M41.3814 49.9999H35.4248C34.8315 49.9999 34.3506 49.5189 34.3506 48.9257V39.9907C34.3506 39.3975 34.8315 38.9165 35.4248 38.9165H41.3814C41.9747 38.9165 42.4557 39.3975 42.4557 39.9907V48.9257C42.4557 49.5189 41.9747 49.9999 41.3814 49.9999ZM36.499 47.8515H40.3072V41.0649H36.499V47.8515Z" fill="#0E121D"/>
<path d="M38.4031 20.2168C37.8099 20.2168 37.3289 19.7358 37.3289 19.1426V12.9878C37.3289 12.3945 37.8099 11.9136 38.4031 11.9136C38.9964 11.9136 39.4774 12.3945 39.4774 12.9878V19.1426C39.4774 19.7359 38.9964 20.2168 38.4031 20.2168Z" fill="#FF5E14"/>
<path d="M48.8272 29.1518H27.9789C26.9904 29.1507 26.5249 27.9115 27.2798 27.262L37.7039 18.3269C38.1063 17.9822 38.6998 17.9821 39.1021 18.3269L49.5262 27.2619C50.2763 27.9074 49.823 29.1494 48.8272 29.1518ZM30.8828 27.0034H45.9232L38.403 20.5575L30.8828 27.0034Z" fill="#0E121D"/>
<path d="M7.13087 49.2784C6.1879 49.2839 5.69386 48.1183 6.3713 47.4447L14.2488 39.5671L6.47052 31.7889C6.05275 31.371 6.05079 30.6942 6.46622 30.274L14.4846 22.1648L6.37111 13.9578C5.95402 13.536 5.95792 12.8558 6.3798 12.4387C6.80167 12.0216 7.48185 12.0255 7.89894 12.4474L16.7591 21.4096C17.1729 21.8282 17.1728 22.5017 16.759 22.9201L8.74493 31.025L16.5275 38.8075C16.9469 39.2271 16.9469 39.9073 16.5275 40.3268L7.89044 48.9639C7.68068 49.1737 7.40577 49.2784 7.13087 49.2784Z" fill="#FF5E14"/>
<path d="M39.1627 12.2278L33.2061 6.27119C33.0046 6.06973 32.7314 5.95654 32.4465 5.95654H17.14V1.07422C17.14 0.480957 16.6591 0 16.0658 0H7.13086C6.5376 0 6.05665 0.480957 6.05665 1.07422V5.95664H1.17422C0.580963 5.95664 0.100006 6.4376 0.100006 7.03086V12.9875C0.100006 13.5808 0.580963 14.0617 1.17422 14.0617H6.05665V47.8515H1.5713C0.978033 47.8515 0.497076 48.3324 0.497076 48.9257C0.497076 49.5189 0.978033 49.9999 1.5713 49.9999C4.89776 49.9999 12.6662 49.9999 16.0658 49.9999H21.6254C22.2187 49.9999 22.6996 49.5189 22.6996 48.9257C22.6996 48.3324 22.2187 47.8515 21.6254 47.8515H17.14V14.0616H38.4031C39.3515 14.0654 39.8371 12.897 39.1627 12.2278ZM8.20508 2.14844H14.9916V5.95664H8.20508V2.14844ZM14.9916 8.10508V11.9133H8.20508V8.10508H14.9916ZM2.24844 11.9132V8.10508H6.05665V11.9133L2.24844 11.9132ZM14.9916 47.8515H8.20508V14.0616H14.9916V47.8515ZM17.14 11.9132V8.10508H32.0015L35.8098 11.9133L17.14 11.9132Z" fill="#FF5E14"/>
<path d="M47.3381 50H29.4681C28.8748 50 28.3939 49.519 28.3939 48.9258V34.0342C28.3939 33.4409 28.8748 32.96 29.4681 32.96H47.338C47.9313 32.96 48.4122 33.4409 48.4122 34.0342V48.9258C48.4123 49.519 47.9314 50 47.3381 50ZM30.5423 47.8516H46.2638V35.1084H30.5423V47.8516Z" fill="#0E121D"/>
</g>
<defs>
<clipPath id="clip0_23_205">
<rect width="50" height="50" fill="white"/>
</clipPath>
</defs>
</svg>
