<svg width="50" height="50" viewBox="0 0 50 50" fill="none" xmlns="http://www.w3.org/2000/svg">
<g clip-path="url(#clip0_23_405)">
<path d="M45.9475 0H42.9691C42.3759 0 41.8949 0.480957 41.8949 1.07422V5.95664H4.05254C1.81797 5.95664 0 7.77461 0 10.0091V45.9475C0 48.182 1.81797 50 4.05254 50H7.03086C7.62412 50 8.10508 49.519 8.10508 48.9258V47.0217H45.9475C48.182 47.0217 50 45.2037 50 42.9691V4.05254C50 1.81797 48.182 0 45.9475 0ZM44.0434 2.14844H45.9475C46.9974 2.14844 47.8516 3.00264 47.8516 4.05254C47.8516 5.10244 46.9974 5.95664 45.9475 5.95664H44.0434V2.14844ZM5.95664 47.8516H4.05254C3.00264 47.8516 2.14844 46.9974 2.14844 45.9475V13.5858C2.71641 13.8895 3.36475 14.0617 4.05254 14.0617H5.95664V47.8516ZM45.9475 44.8732H8.10508V12.9875C8.10508 12.3942 7.62412 11.9133 7.03086 11.9133H4.05254C3.00264 11.9133 2.14844 11.0591 2.14844 10.0092C2.14844 8.95928 3.00264 8.10518 4.05254 8.10518H42.9691H45.9475C46.6354 8.10518 47.2835 7.93232 47.8516 7.62871V42.9692C47.8516 44.019 46.9974 44.8732 45.9475 44.8732Z" fill="#FF5E14"/>
<path d="M42.9691 11.9133H12.9875C12.3942 11.9133 11.9133 12.3943 11.9133 12.9875V39.991C11.9133 40.5842 12.3942 41.0652 12.9875 41.0652H18.9441C19.5374 41.0652 20.0184 40.5842 20.0184 39.991C20.0184 39.3977 19.5374 38.9167 18.9441 38.9167H14.0617V26.0743H15.9658C16.5591 26.0743 17.04 25.5933 17.04 25C17.04 24.4068 16.5591 23.9258 15.9658 23.9258H14.0617V14.0618H23.9258L23.9259 23.9258H21.9224C21.3291 23.9258 20.8481 24.4068 20.8481 25C20.8481 25.5933 21.3291 26.0743 21.9224 26.0743H29.8824V27.9784C29.8824 28.5716 30.3634 29.0526 30.9566 29.0526C31.5499 29.0526 32.0309 28.5716 32.0309 27.9784V25C32.0309 24.4068 31.5499 23.9258 30.9566 23.9258H26.0743L26.0742 14.0618H41.8949V23.9258H36.9133C36.32 23.9258 35.8391 24.4068 35.8391 25C35.8391 25.5933 36.32 26.0743 36.9133 26.0743H41.8949V38.9167H32.0309V33.9349C32.0309 33.3417 31.5499 32.8607 30.9566 32.8607C30.3634 32.8607 29.8824 33.3417 29.8824 33.9349V38.9167H25C24.4067 38.9167 23.9258 39.3976 23.9258 39.9909C23.9258 40.5841 24.4067 41.0651 25 41.0651H42.9691C43.5624 41.0651 44.0434 40.5841 44.0434 39.9909V12.9875C44.0434 12.3942 43.5624 11.9133 42.9691 11.9133Z" fill="#0E121D"/>
</g>
<defs>
<clipPath id="clip0_23_405">
<rect width="50" height="50" fill="white"/>
</clipPath>
</defs>
</svg>
