<svg width="70" height="70" viewBox="0 0 70 70" fill="none" xmlns="http://www.w3.org/2000/svg">
<path fill-rule="evenodd" clip-rule="evenodd" d="M6.00586 23.9111L12.0786 28.1709L24.1558 7.31812L20.8716 5.0144L6.00586 23.9111Z" fill="#E4E8EB"/>
<path fill-rule="evenodd" clip-rule="evenodd" d="M5.9082 30.9444V24.78C5.9082 22.5699 7.71644 20.7618 9.92637 20.7618C12.1364 20.7618 13.9445 22.5699 13.9445 24.78V30.9444H5.9082Z" fill="#CAD0D7"/>
<path fill-rule="evenodd" clip-rule="evenodd" d="M3.82479 33.0127H16.0284C16.4405 33.0127 16.7766 32.6766 16.7766 32.2646V29.795C16.7766 29.3829 16.4405 29.0469 16.0284 29.0469H3.82479C3.41271 29.0469 3.07666 29.3829 3.07666 29.795V32.2646C3.07666 32.6766 3.41285 33.0127 3.82479 33.0127Z" fill="#A9B0BB"/>
<path fill-rule="evenodd" clip-rule="evenodd" d="M24.5068 8.54229V3.8728L42.5924 4.94495V7.47015L24.5068 8.54229Z" fill="#E4E8EB"/>
<path d="M22.5972 10.2277C24.8175 10.2277 26.6173 8.4278 26.6173 6.20758C26.6173 3.98735 24.8175 2.1875 22.5972 2.1875C20.377 2.1875 18.5771 3.98735 18.5771 6.20758C18.5771 8.4278 20.377 10.2277 22.5972 10.2277Z" fill="#CAD0D7"/>
<path d="M42.4234 9.01615C43.9745 9.01615 45.232 7.75869 45.232 6.20754C45.232 4.65638 43.9745 3.39893 42.4234 3.39893C40.8722 3.39893 39.6147 4.65638 39.6147 6.20754C39.6147 7.75869 40.8722 9.01615 42.4234 9.01615Z" fill="#CAD0D7"/>
<path fill-rule="evenodd" clip-rule="evenodd" d="M34.007 38.6599H38.8018V34.8952C38.8018 33.5765 37.723 32.4977 36.4043 32.4977C35.0857 32.4977 34.0068 33.5765 34.0068 34.8952L34.007 38.6599Z" fill="#F76C82"/>
<path fill-rule="evenodd" clip-rule="evenodd" d="M64.9194 42.3493C58.9091 42.3493 55.8937 49.6306 60.1433 53.8801C60.9262 54.663 60.9262 55.9327 60.1433 56.7155L55.8272 61.0318C55.0444 61.8146 53.7747 61.8146 52.9918 61.0318C48.7422 56.7821 41.461 59.7977 41.461 65.8079C41.461 66.9155 40.5631 67.8126 39.4562 67.8126H33.3524C32.2454 67.8126 31.3476 66.9155 31.3476 65.8079C31.3476 59.7902 24.0717 56.7767 19.8167 61.0318C19.0339 61.8146 17.7642 61.8146 16.9815 61.0318L12.6653 56.7155C11.8825 55.9328 11.8825 54.6631 12.6653 53.8801C16.9149 49.6305 13.8993 42.3493 7.88912 42.3493C6.78143 42.3493 5.88428 41.4514 5.88428 40.3446V38.0108C5.88428 37.6348 6.19025 37.3281 6.56623 37.3272L20.8197 37.2942C21.1864 37.2934 21.4881 37.582 21.5038 37.9483C21.847 45.8811 28.3868 52.2072 36.4043 52.2072C44.4221 52.2072 50.9624 45.8805 51.3047 37.9468C51.3204 37.5811 51.6213 37.2926 51.9873 37.2926H66.2405C66.6171 37.2926 66.9241 37.5997 66.9241 37.9762V40.3446C66.9241 41.4514 66.027 42.3493 64.9194 42.3493ZM44.9817 38.0343C44.9987 37.8366 44.9383 37.6601 44.8041 37.5138C44.6699 37.3677 44.4991 37.2926 44.3006 37.2926H28.5077C28.3092 37.2926 28.1384 37.3677 28.0041 37.5138C27.8699 37.66 27.8096 37.8366 27.8265 38.0343C28.2025 42.4417 31.8994 45.9016 36.4041 45.9016C40.909 45.9018 44.6058 42.4418 44.9817 38.0343Z" fill="#FDCD56"/>
<path fill-rule="evenodd" clip-rule="evenodd" d="M21.9093 6.895C21.5303 6.51479 21.5303 5.89982 21.9093 5.52084C22.2895 5.14062 22.9045 5.14062 23.2848 5.52084C23.6637 5.89969 23.6637 6.51479 23.2848 6.895C22.9045 7.27521 22.2895 7.27521 21.9093 6.895ZM10.898 24.7804C10.898 25.315 10.4605 25.7525 9.92592 25.7525C9.39135 25.7525 8.95385 25.315 8.95385 24.7804C8.95385 24.2458 9.39135 23.8083 9.92592 23.8083C10.4605 23.8083 10.898 24.2457 10.898 24.7804ZM42.9077 27.0159C41.17 25.2782 38.8611 24.3209 36.4042 24.3209C33.9474 24.3209 31.6364 25.2782 29.8989 27.0159C29.5258 27.389 28.9204 27.389 28.5452 27.0147C28.1721 26.6416 28.1721 26.0355 28.5452 25.661C30.6456 23.5625 33.4358 22.4071 36.4042 22.4071C39.3725 22.4071 42.1627 23.5625 44.2613 25.6624C44.6363 26.0355 44.6363 26.6416 44.2613 27.016C44.0754 27.202 43.8309 27.2959 43.5846 27.2959C43.34 27.2958 43.0948 27.2018 42.9077 27.0159ZM36.4042 27.0854C34.686 27.0854 33.0698 27.7557 31.8559 28.971C31.4809 29.3441 31.4809 29.9495 31.8559 30.3245C32.229 30.6976 32.8344 30.6976 33.2075 30.3245C34.0618 29.4695 35.1966 28.9998 36.4042 28.9998C37.6117 28.9998 38.746 29.4695 39.6003 30.3245C39.7862 30.5104 40.0314 30.6044 40.2758 30.6044C40.5222 30.6044 40.7667 30.5104 40.9526 30.3245C41.3276 29.9495 41.3276 29.3441 40.9526 28.971C39.7387 27.7558 38.1225 27.0854 36.4042 27.0854ZM46.2163 23.7073C46.4034 23.8945 46.6486 23.9879 46.893 23.9879C47.1382 23.9879 47.3826 23.8946 47.5698 23.7073C47.9443 23.3342 47.9443 22.7269 47.5698 22.3537C44.5879 19.3706 40.6219 17.7275 36.4041 17.7275C32.1865 17.7275 28.2203 19.3706 25.2372 22.3524C24.8634 22.7269 24.8634 23.3328 25.2372 23.7061C25.6117 24.0804 26.217 24.0804 26.5907 23.7061C29.2116 21.0852 32.696 19.6416 36.4041 19.6416C40.1104 19.6414 43.5961 21.085 46.2163 23.7073ZM43.9962 38.2498C43.5247 42.019 40.2996 44.9449 36.4042 44.9449C32.5088 44.9449 29.2838 42.019 28.811 38.2498H43.9962ZM34.9631 34.8949C34.9631 34.1004 35.6096 33.4551 36.4041 33.4551C37.1986 33.4551 37.8439 34.1003 37.8439 34.8949V36.3359H34.9631V34.8949ZM26.8379 37.2932C26.8379 42.5679 31.1295 46.8588 36.4042 46.8588C41.679 46.8588 45.9706 42.5678 45.9706 37.2932C45.9706 36.7637 45.5409 36.3359 45.0133 36.3359H39.7579V34.8949C39.7579 33.0453 38.2539 31.5412 36.4042 31.5412C34.5547 31.5412 33.0493 33.0452 33.0493 34.8949V36.3359H27.7952C27.2657 36.3359 26.8379 36.7637 26.8379 37.2932ZM65.9667 40.3445V38.2498H52.2469C51.7497 46.5571 44.8344 53.1649 36.4042 53.1649C27.974 53.1649 21.0588 46.5585 20.5609 38.2512L6.84182 38.2847V40.3446C6.84182 40.9229 7.31076 41.392 7.88853 41.392C11.0634 41.392 13.7911 43.2171 15.0076 46.1553C16.2241 49.0921 15.5859 52.312 13.3407 54.5565C12.9335 54.965 12.9335 55.6315 13.3407 56.0388L17.6575 60.3549C18.066 60.7634 18.7306 60.7634 19.1391 60.3549C20.6336 58.8604 22.5591 58.0774 24.5437 58.0774C25.5448 58.0774 26.5587 58.2755 27.5436 58.6841C30.4798 59.8994 32.3043 62.6296 32.3043 65.8083C32.3043 66.3854 32.7746 66.8557 33.3529 66.8557H39.4557C40.034 66.8557 40.5031 66.3854 40.5031 65.8083C40.5031 62.6341 42.3281 59.9051 45.2663 58.6886C48.2032 57.4714 51.4231 58.1096 53.6676 60.3549C54.0768 60.7634 54.7426 60.7634 55.1499 60.3549L59.466 56.0388C59.6641 55.842 59.7734 55.5782 59.7734 55.2977C59.7734 55.0185 59.6641 54.7553 59.466 54.5565C57.2214 52.312 56.5826 49.092 57.7998 46.1553C59.0163 43.2172 61.7441 41.392 64.9202 41.392C65.4963 41.3919 65.9667 40.9228 65.9667 40.3445ZM66.924 36.3359H51.3186C50.7898 36.3359 50.362 36.7637 50.362 37.2932C50.362 44.9888 44.0999 51.2509 36.4042 51.2509C28.7081 51.2509 22.4465 44.9887 22.4465 37.2932C22.4465 37.039 22.3454 36.7953 22.1647 36.6152C21.9859 36.4357 21.7427 36.336 21.4892 36.336C21.4879 36.336 21.4879 36.336 21.4866 36.336L5.88191 36.3721C5.35377 36.3728 4.92721 36.8013 4.92721 37.3287V40.3447C4.92721 41.9788 6.25502 43.3059 7.88853 43.3059C10.2747 43.3059 12.3249 44.6789 13.2397 46.888C14.1545 49.0958 13.6746 51.5162 11.9872 53.2042C10.8337 54.3584 10.8337 56.2382 11.9872 57.3923L16.304 61.7084C17.4594 62.8638 19.3374 62.8638 20.4928 61.7084C22.1828 60.0184 24.6043 59.5372 26.811 60.452C29.019 61.3662 30.3898 63.4184 30.3898 65.8083C30.3898 67.4412 31.719 68.7695 33.3531 68.7695H39.4558C41.0899 68.7695 42.4171 67.441 42.4171 65.8083C42.4171 63.4229 43.7899 61.372 45.9979 60.457C48.2072 59.5409 50.6274 60.0209 52.3142 61.7083C53.4696 62.8637 55.3481 62.8637 56.5035 61.7083L60.8196 57.3922C61.3786 56.8332 61.6875 56.0889 61.6875 55.2975C61.6875 54.5076 61.3786 53.7631 60.8196 53.2029C59.1328 51.516 58.6529 49.0958 59.5689 46.8866C60.4831 44.6787 62.5341 43.3058 64.9202 43.3058C66.5524 43.3058 67.8815 41.9787 67.8815 40.3446V37.2933C67.8811 36.7637 67.4514 36.3359 66.924 36.3359ZM15.8201 32.0552H4.03293V30.005H15.8201V32.0552ZM6.86492 24.7804V28.0904H12.9869V24.7804C12.9869 23.0923 11.6141 21.7194 9.92592 21.7194C8.23908 21.7194 6.86492 23.0922 6.86492 24.7804ZM19.078 9.72768C19.619 10.2694 20.2643 10.6695 20.9688 10.9121L14.3039 22.418C13.5383 21.0041 12.107 20.0011 10.433 19.8312L18.7075 9.31205C18.8219 9.45547 18.9455 9.59506 19.078 9.72768ZM20.4308 4.04182C19.8531 4.61959 19.5341 5.38959 19.5341 6.2073C19.5341 7.02625 19.8532 7.79639 20.4308 8.37402C21.0098 8.95234 21.7793 9.27145 22.5969 9.27145C23.4146 9.27145 24.184 8.95234 24.7624 8.37402C25.3407 7.79434 25.6591 7.02625 25.6591 6.2073C25.6591 5.38959 25.3407 4.61959 24.7624 4.04182C24.184 3.4635 23.4146 3.14439 22.5969 3.14439C21.7793 3.14439 21.0098 3.4635 20.4308 4.04182ZM38.697 5.67273C38.6461 6.02793 38.6461 6.3875 38.697 6.74324L27.4284 7.41043C27.5242 7.02187 27.5732 6.61842 27.5732 6.20744C27.5732 5.7977 27.5244 5.39424 27.4284 5.00568L38.697 5.67273ZM41.1141 4.89877C41.8358 4.17689 43.0106 4.17689 43.7324 4.89877C44.4542 5.62064 44.4542 6.79533 43.7324 7.51721C43.3824 7.86721 42.9172 8.05943 42.4225 8.05943C41.929 8.05943 41.4626 7.86707 41.1139 7.51721C40.3922 6.79533 40.3922 5.62064 41.1141 4.89877ZM17.7341 32.2648V29.7951C17.7341 28.8546 16.9684 28.0902 16.0279 28.0902H14.9008V25.2055L23.0331 11.1649C24.1983 11.0645 25.279 10.5633 26.116 9.72768C26.2254 9.6183 26.3277 9.5051 26.4249 9.38738L39.5244 8.61082C39.5979 8.69955 39.6769 8.78705 39.7605 8.87072C40.4677 9.57906 41.3889 9.94383 42.3172 9.96953L42.8653 12.9147C42.9161 13.1894 43.086 13.4287 43.3278 13.5684L47.597 16.033C47.7475 16.1205 47.9116 16.1617 48.0744 16.1617C48.4057 16.1617 48.7267 15.9893 48.9043 15.683C49.1687 15.2255 49.0111 14.6401 48.5543 14.3764L44.666 12.1312L44.1848 9.53668C44.5089 9.36551 44.8139 9.14293 45.086 8.87086C45.8844 8.07188 46.2466 7.00205 46.1772 5.95588L48.7595 5.04232L52.6466 7.28629C52.7965 7.37379 52.9625 7.41494 53.1252 7.41494C53.4546 7.41494 53.7769 7.24391 53.9539 6.93561C54.219 6.47951 54.0613 5.89285 53.6032 5.62898L49.3352 3.16367C49.0913 3.02477 48.8007 2.99701 48.5368 3.09039L45.5697 4.14025C45.4314 3.92916 45.2706 3.72982 45.0859 3.54512C44.3749 2.83418 43.4287 2.4418 42.4225 2.4418C41.4176 2.4418 40.4712 2.83418 39.7604 3.54512C39.6767 3.62879 39.5977 3.71492 39.5243 3.80502L26.4247 3.02846C26.3277 2.91074 26.2253 2.79754 26.1159 2.68816C25.1768 1.74904 23.9262 1.23047 22.597 1.23047C21.268 1.23047 20.0173 1.74904 19.078 2.6883C18.1368 3.62879 17.6202 4.87812 17.6202 6.2073C17.6202 6.62033 17.6698 7.02365 17.7669 7.41289L7.53471 20.4192C5.99648 21.2659 4.95113 22.9031 4.95113 24.7804V28.0904H3.82402C2.88477 28.0904 2.11914 28.8546 2.11914 29.7953V32.2649C2.11914 33.2056 2.88477 33.9698 3.82402 33.9698H16.0281C16.9684 33.9697 17.7341 33.2054 17.7341 32.2648Z" fill="black"/>
</svg>
