<svg width="50" height="51" viewBox="0 0 50 51" fill="none" xmlns="http://www.w3.org/2000/svg">
<g clip-path="url(#clip0_439_131690)">
<path d="M13.1348 20.5981C13.1348 21.0026 13.4626 21.3306 13.8672 21.3306C14.2718 21.3306 14.5996 21.0026 14.5996 20.5981C14.5996 16.7598 16.7025 13.2464 20.0877 11.429C20.444 11.2377 20.5779 10.7937 20.3866 10.4373C20.1952 10.081 19.7513 9.94707 19.3948 10.1384C15.5334 12.2114 13.1348 16.2193 13.1348 20.5981ZM6.75752 24.8273C6.38838 23.3459 6.20117 21.8119 6.20117 20.2681C6.20117 16.4701 7.32793 12.8111 9.45977 9.68662C11.5418 6.63496 14.4412 4.28086 17.8443 2.87891C18.2184 2.7248 18.3967 2.29678 18.2426 1.92266C18.0886 1.54873 17.6606 1.37021 17.2864 1.52441C13.6182 3.03564 10.4934 5.57266 8.2498 8.86104C5.95117 12.2298 4.73633 16.1743 4.73633 20.2681C4.73633 21.9312 4.93809 23.5843 5.33623 25.1814C5.43486 25.5773 5.83984 25.8107 6.22402 25.715C6.6165 25.6173 6.85537 25.2198 6.75752 24.8273ZM29.9123 11.429C33.2975 13.2464 35.4004 16.7598 35.4004 20.5981C35.4004 21.0026 35.7282 21.3306 36.1328 21.3306C36.5374 21.3306 36.8652 21.0026 36.8652 20.5981C36.8652 16.2193 34.4666 12.2114 30.6052 10.1384C30.2487 9.94707 29.8048 10.0809 29.6134 10.4373C29.4221 10.7937 29.5559 11.2376 29.9123 11.429ZM20.1338 39.2031C20.249 38.8153 20.028 38.4076 19.6401 38.2925C17.1794 37.5616 14.9282 36.3518 12.9494 34.6965C12.6391 34.437 12.1772 34.4781 11.9177 34.7884C11.6582 35.0986 11.6993 35.5605 12.0095 35.8201C14.1426 37.6044 16.5695 38.9086 19.2231 39.6967C19.601 39.8089 20.0173 39.5952 20.1338 39.2031ZM41.9408 29.0372L34.6774 22.8629C33.6014 21.9389 32.1571 22.3729 31.3697 23.4068L29.0626 22.0747C29.9935 19.566 28.3913 16.7563 25.7324 16.3043V13.4964C25.9668 13.4154 26.1942 13.3079 26.4096 13.1711C27.3378 12.5811 27.8919 11.5723 27.8919 10.4725V2.03799C27.8918 0.916699 26.9796 0.00439453 25.8582 0.00439453C24.8759 0.00439453 24.0347 0.705762 23.8578 1.67207L22.1425 11.0494C21.9681 12.0029 22.4593 12.9563 23.3369 13.3678C23.6367 13.5083 23.9504 13.5986 24.2676 13.6419V16.3061C23.0073 16.5231 21.9178 17.2728 21.2681 18.3748C20.582 19.5386 20.5042 20.8952 20.938 22.0738L18.504 23.4796C18.3166 23.3169 18.1093 23.1736 17.8829 23.0556C16.9081 22.5468 15.7572 22.5714 14.8047 23.1212L7.50039 27.3384C6.53604 27.8872 6.20146 29.1557 6.75605 30.1163C7.25117 30.974 8.29062 31.3409 9.20039 31.0148L18.1791 27.8117C19.0922 27.486 19.6722 26.584 19.5896 25.6181C19.5613 25.2885 19.4831 24.9718 19.3621 24.6756L21.6686 23.3435C21.9329 23.6622 22.2467 23.9474 22.6073 24.1859L21.9341 37.4802C21.9122 37.8974 22.2476 38.2496 22.6661 38.2496C23.0536 38.2496 23.3771 37.9456 23.397 37.5542L24.043 24.7976C24.3573 24.8685 24.6755 24.9055 24.9924 24.9055C25.3179 24.9055 25.6411 24.8667 25.9567 24.795L27.1593 48.5396H22.8407L23.2229 40.9956C23.2434 40.5916 22.9324 40.2476 22.5284 40.2271C22.1246 40.205 21.7804 40.5176 21.76 40.9215L21.374 48.5396H12.8273C12.4228 48.5396 12.0949 48.8675 12.0949 49.272C12.0949 49.6765 12.4228 50.0044 12.8273 50.0044H37.1719C37.5765 50.0044 37.9043 49.6765 37.9043 49.272C37.9043 48.8675 37.5765 48.5396 37.1719 48.5396H28.626L27.3926 24.1838C27.7393 23.9548 28.0553 23.6729 28.3294 23.3428L30.7632 24.748C30.5027 26.0729 31.1133 27.4488 32.3025 28.1306L39.6069 32.3479C40.5672 32.9034 41.8181 32.5853 42.3849 31.6034C42.876 30.7527 42.6893 29.6735 41.9408 29.0372ZM17.6869 26.4321L8.7082 29.6353C8.44932 29.7278 8.16201 29.6219 8.02461 29.3839C7.86992 29.116 7.96406 28.7604 8.23281 28.6069L15.5372 24.3897C16.0617 24.0869 16.6697 24.0747 17.2053 24.3542C17.7415 24.6341 18.0786 25.1401 18.1302 25.7429C18.1561 26.0462 17.9738 26.3298 17.6869 26.4321ZM23.9587 12.0414C23.6829 11.9121 23.5286 11.6126 23.5834 11.3131L25.2987 1.93574C25.3481 1.66543 25.5834 1.46934 25.8582 1.46934C26.1719 1.46934 26.427 1.72451 26.427 2.03809V10.4725C26.427 11.0773 26.1342 11.6104 25.6236 11.9349C25.1134 12.2593 24.5064 12.2983 23.9587 12.0414ZM27.4694 22.0307C26.6667 23.3925 24.9058 23.8474 23.5437 23.0444C22.1819 22.2416 21.7271 20.4806 22.53 19.1187C23.0503 18.236 23.9815 17.7074 25 17.7074C25.0045 17.7074 25.0088 17.7068 25.0132 17.7067C27.1278 17.6699 28.587 20.1348 27.4694 22.0307ZM41.1162 30.871C40.9594 31.1427 40.611 31.2359 40.3393 31.0792L33.0349 26.8619C31.9408 26.2427 31.8845 24.6422 32.9103 23.9398C33.1612 23.768 33.4966 23.7816 33.7287 23.979L40.992 30.1532C41.2013 30.3312 41.2536 30.6331 41.1162 30.871ZM24.9997 19.8423C24.5952 19.8423 24.2673 20.1702 24.2673 20.5747C24.2673 20.9792 24.5952 21.3071 24.9997 21.3071C25.4042 21.3071 25.7321 20.9792 25.7321 20.5747C25.7321 20.1702 25.4042 19.8423 24.9997 19.8423ZM37.0507 34.6964C35.0703 36.3522 32.8191 37.5621 30.3598 38.2925C29.9719 38.4076 29.751 38.8153 29.8661 39.2031C29.9825 39.5948 30.3975 39.8094 30.7767 39.6967C33.4286 38.9091 35.8557 37.6049 37.9901 35.8202C38.3005 35.5607 38.3418 35.0988 38.0822 34.7886C37.823 34.4781 37.361 34.437 37.0507 34.6964ZM41.7502 8.86104C39.5065 5.57266 36.3817 3.03564 32.7135 1.52451C32.3396 1.37031 31.9113 1.54873 31.7573 1.92275C31.6032 2.29678 31.7815 2.7249 32.1556 2.879C35.5588 4.28096 38.4581 6.63506 40.5401 9.68672C42.672 12.8112 43.7987 16.4702 43.7987 20.2682C43.7987 21.812 43.6115 23.3459 43.2424 24.8274C43.1445 25.2199 43.3834 25.6174 43.776 25.7152C44.1584 25.8105 44.5648 25.5784 44.6638 25.1816C45.0618 23.5845 45.2637 21.9313 45.2637 20.2683C45.2637 16.1743 44.0488 12.2298 41.7502 8.86104Z" fill="#52C306"/>
</g>
<defs>
<clipPath id="clip0_439_131690">
<rect width="50" height="50" fill="white" transform="translate(0 0.00439453)"/>
</clipPath>
</defs>
</svg>
