<svg width="50" height="50" viewBox="0 0 50 50" fill="none" xmlns="http://www.w3.org/2000/svg">
<g clip-path="url(#clip0_18_1905)">
<path d="M1.6129 40.4121V33.0645C1.6129 32.0145 2.28952 31.1274 3.22581 30.7935V29.8387C3.22581 28.5048 4.31129 27.4194 5.64516 27.4194H14.6645C14.9984 26.4831 15.8855 25.8065 16.9355 25.8065V15.7153C16.9355 13.6911 18.0274 11.8121 19.7863 10.8105L35.2452 2.00323C35.9468 0.81129 37.229 0 38.7097 0C40.9234 0 42.7242 1.79516 42.7395 4.00565H42.7419L43.525 27.4984C45.3742 27.8645 46.7742 29.4968 46.7742 31.4516C46.7742 32.3186 46.4935 33.1169 46.0258 33.7758L48.3202 36.4516C49.4032 37.7153 50 39.3274 50 40.9919C50 42.8565 49.2742 44.6081 47.9565 45.9258L45.5363 48.346C44.4702 49.4121 43.0524 50 41.5444 50H35.4839H34.6774H33.0645V48.3871H34.6774V43.9677L37.4476 41.7516C38.2887 41.079 38.8169 40.1194 38.9363 39.0484L39.5145 33.8444C39.0153 33.1726 38.7097 32.35 38.7097 31.4516C38.7097 30.2016 39.2935 29.0968 40.1895 28.3565L36.4403 7.36129C36.2984 7.26371 36.1718 7.14758 36.0427 7.03306L27.7685 15.3073C28.0524 15.7871 28.2258 16.3387 28.2258 16.9355C28.2258 18.4339 27.1935 19.6863 25.8065 20.0468V25.8065H26.0968C27.246 25.8065 28.2444 26.6242 28.4694 27.7508L30.629 38.5516L30.6403 40.4073C31.6395 41.4258 32.2581 42.8186 32.2581 44.3548C32.2581 47.4669 29.7258 50 26.6129 50H5.64516C2.53226 50 0 47.4669 0 44.3548C0 42.821 0.616936 41.4298 1.6129 40.4121ZM42.7419 29.0323C41.4081 29.0323 40.3226 30.1177 40.3226 31.4516C40.3226 32.7855 41.4081 33.871 42.7419 33.871C44.0758 33.871 45.1613 32.7855 45.1613 31.4516C45.1613 30.1177 44.0758 29.0323 42.7419 29.0323ZM38.4548 43.0113L36.2903 44.7419V45.1613H37.9032V46.7742H36.2903V48.3871H41.5444C42.6218 48.3871 43.6347 47.9669 44.396 47.2056L46.8161 44.7855C47.829 43.7726 48.3871 42.425 48.3871 40.9919C48.3871 39.7121 47.9282 38.4726 47.0952 37.5008L44.8444 34.8758C44.2306 35.254 43.5145 35.4839 42.7419 35.4839C42.1153 35.4839 41.5298 35.3282 41 35.0718L40.5387 39.2258C40.3726 40.725 39.6323 42.0694 38.4548 43.0113ZM41.6879 27.5766C41.7637 27.5556 41.8339 27.5234 41.9105 27.5073L41.2323 7.15161C40.5395 7.71371 39.6694 8.06452 38.7097 8.06452C38.5331 8.06452 38.3653 8.03468 38.1944 8.0121L41.6879 27.5766ZM38.7097 6.45161C40.0435 6.45161 41.129 5.36613 41.129 4.03226C41.129 2.69839 40.0435 1.6129 38.7097 1.6129C37.3758 1.6129 36.2903 2.69839 36.2903 4.03226C36.2903 5.36613 37.3758 6.45161 38.7097 6.45161ZM14.5161 32.2581H12.9032V30.6452H14.5161V29.0323H5.64516C5.20081 29.0323 4.83871 29.3935 4.83871 29.8387V30.6452H11.2903V32.2581H4.03226C3.5879 32.2581 3.22581 32.6194 3.22581 33.0645V39.2621C3.96048 38.9121 4.77822 38.7097 5.64516 38.7097H14.5161V32.2581ZM35.0653 5.72984C34.8427 5.25323 34.7121 4.72984 34.6919 4.175L20.5847 12.2121C19.3282 12.9274 18.5484 14.2702 18.5484 15.7153V25.8065H24.1935V20.0468C22.8065 19.6863 21.7742 18.4339 21.7742 16.9355C21.7742 15.1565 23.221 13.7097 25 13.7097C25.5968 13.7097 26.1484 13.8831 26.6282 14.1669L35.0653 5.72984ZM26.6129 16.9355C26.6129 16.046 25.8895 15.3226 25 15.3226C24.1105 15.3226 23.3871 16.046 23.3871 16.9355C23.3871 17.825 24.1105 18.5484 25 18.5484C25.8895 18.5484 26.6129 17.825 26.6129 16.9355ZM29.0323 38.7895L26.8879 28.0677C26.8129 27.6919 26.4798 27.4194 26.0968 27.4194H16.9355C16.4911 27.4194 16.129 27.7806 16.129 28.2258V38.7097H26.6129C27.4798 38.7097 28.2976 38.9121 29.0323 39.2621V38.7895ZM5.64516 48.3871H26.6129C28.8363 48.3871 30.6452 46.5782 30.6452 44.3548C30.6452 42.1315 28.8363 40.3226 26.6129 40.3226H5.64516C3.42177 40.3226 1.6129 42.1315 1.6129 44.3548C1.6129 46.5782 3.42177 48.3871 5.64516 48.3871Z" fill="#FF5E14"/>
<path d="M6.45161 41.129C7.41935 41.129 8.27903 41.5661 8.87097 42.2435C9.4629 41.5661 10.3226 41.129 11.2903 41.129C12.2581 41.129 13.1177 41.5661 13.7097 42.2435C14.3016 41.5661 15.1613 41.129 16.129 41.129C17.0968 41.129 17.9565 41.5661 18.5484 42.2435C19.1403 41.5661 20 41.129 20.9677 41.129C21.9355 41.129 22.7952 41.5661 23.3871 42.2435C23.979 41.5661 24.8387 41.129 25.8065 41.129C27.5855 41.129 29.0323 42.5758 29.0323 44.3548C29.0323 46.1339 27.5855 47.5806 25.8065 47.5806C24.8387 47.5806 23.979 47.1435 23.3871 46.4661C22.7952 47.1435 21.9355 47.5806 20.9677 47.5806C20 47.5806 19.1403 47.1435 18.5484 46.4661C17.9565 47.1435 17.0968 47.5806 16.129 47.5806C15.1613 47.5806 14.3016 47.1435 13.7097 46.4661C13.1177 47.1435 12.2581 47.5806 11.2903 47.5806C10.3226 47.5806 9.4629 47.1435 8.87097 46.4661C8.27903 47.1435 7.41935 47.5806 6.45161 47.5806C4.67258 47.5806 3.22581 46.1339 3.22581 44.3548C3.22581 42.5758 4.67258 41.129 6.45161 41.129ZM25.8065 45.9677C26.696 45.9677 27.4194 45.2444 27.4194 44.3548C27.4194 43.4653 26.696 42.7419 25.8065 42.7419C24.9169 42.7419 24.1935 43.4653 24.1935 44.3548C24.1935 45.2444 24.9169 45.9677 25.8065 45.9677ZM20.9677 45.9677C21.8573 45.9677 22.5806 45.2444 22.5806 44.3548C22.5806 43.4653 21.8573 42.7419 20.9677 42.7419C20.0782 42.7419 19.3548 43.4653 19.3548 44.3548C19.3548 45.2444 20.0782 45.9677 20.9677 45.9677ZM16.129 45.9677C17.0185 45.9677 17.7419 45.2444 17.7419 44.3548C17.7419 43.4653 17.0185 42.7419 16.129 42.7419C15.2395 42.7419 14.5161 43.4653 14.5161 44.3548C14.5161 45.2444 15.2395 45.9677 16.129 45.9677ZM11.2903 45.9677C12.1798 45.9677 12.9032 45.2444 12.9032 44.3548C12.9032 43.4653 12.1798 42.7419 11.2903 42.7419C10.4008 42.7419 9.67742 43.4653 9.67742 44.3548C9.67742 45.2444 10.4008 45.9677 11.2903 45.9677ZM6.45161 45.9677C7.34113 45.9677 8.06451 45.2444 8.06451 44.3548C8.06451 43.4653 7.34113 42.7419 6.45161 42.7419C5.5621 42.7419 4.83871 43.4653 4.83871 44.3548C4.83871 45.2444 5.5621 45.9677 6.45161 45.9677Z" fill="#0E121D"/>
<path d="M16.9355 29.0323H25.6613L26.5976 33.7129L26.6129 35.4839H16.9355V29.0323ZM18.5484 33.871H24.9839L24.3387 30.6452H18.5484V33.871Z" fill="#FF5E14"/>
<path d="M4.83871 33.871H8.06451V35.4839H4.83871V33.871Z" fill="#FF5E14"/>
<path d="M9.67742 33.871H12.9032V35.4839H9.67742V33.871Z" fill="#FF5E14"/>
</g>
<defs>
<clipPath id="clip0_18_1905">
<rect width="50" height="50" fill="white" transform="matrix(-1 0 0 1 50 0)"/>
</clipPath>
</defs>
</svg>
