<svg width="50" height="50" viewBox="0 0 50 50" fill="none" xmlns="http://www.w3.org/2000/svg">
<g clip-path="url(#clip0_16_354)">
<path d="M48.2285 39.2924C47.6882 36.0526 45.4165 33.3942 42.3006 32.3553L35.3812 30.0491V29.0206H33.7729V30.427L28.1441 40.9819L22.5153 30.4278V29.0206H20.907V30.8299L27.34 42.8916V44.2989H17.6906V45.9071H27.34V48.3194H15.3852L16.0269 43.1852C17.0634 42.5033 17.6906 41.3526 17.6906 40.0885V39.4742H16.0823V40.0885C16.0823 40.891 15.6361 41.6131 14.9188 41.9717L14.5336 42.1639L13.7641 48.3194H8.18591L9.1018 42.8225L7.51528 42.5587L6.28739 49.9277H50L48.2285 39.2924ZM28.9482 48.3194V45.9071H38.5976V44.2989H28.9482V42.8916L34.967 31.6067L38.5976 32.8161V40.0877C38.5976 41.3518 39.2248 42.5025 40.2613 43.1852L40.903 48.3194H28.9482ZM42.5241 48.3194L41.7546 42.1639L41.3694 41.9717C40.6521 41.6123 40.2059 40.891 40.2059 40.0885V33.3524L41.7916 33.8807C44.3414 34.7315 46.1997 36.9066 46.642 39.557L48.1015 48.3194H42.5241Z" fill="#FF5E14"/>
<path d="M14.4741 17.763C14.4741 19.8263 16.0421 21.5118 18.046 21.7385C18.4561 23.1497 19.2136 24.4436 20.2814 25.5114L23.4167 28.6467C24.1758 29.4058 25.1858 29.8247 26.2601 29.8247H30.0281C31.1024 29.8247 32.1124 29.4058 32.8715 28.6467L36.0068 25.5114C37.0746 24.4436 37.8313 23.1497 38.2422 21.7385C40.2461 21.5118 41.8141 19.8263 41.8141 17.763C41.8141 16.8543 41.4997 16.0245 40.9891 15.3506H42.6182V10.5259H40.0909C39.4516 5.77921 35.9867 1.80767 31.3606 0.52591V0.0723877H24.9276V0.52591C20.3023 1.80767 16.8374 5.77921 16.1973 10.5259H13.67V15.3506H15.2991C14.7885 16.0245 14.4741 16.8543 14.4741 17.763ZM16.0823 17.763C16.0823 16.716 16.757 15.8315 17.6906 15.4986V19.2562C17.6906 19.5192 17.7059 19.7797 17.7284 20.0386C16.7755 19.717 16.0823 18.8236 16.0823 17.763ZM36.9894 19.2562C36.9894 21.1901 36.2359 23.0066 34.8697 24.3744L31.7345 27.5097C31.2785 27.9656 30.673 28.2165 30.0281 28.2165H26.2601C25.6152 28.2165 25.0088 27.9656 24.5537 27.5097L21.4185 24.3744C20.0523 23.0074 19.2988 21.1901 19.2988 19.257V15.3506H36.9894V19.2562ZM38.5598 20.0386C38.5823 19.7797 38.5976 19.52 38.5976 19.2562V15.4986C39.5312 15.8315 40.2059 16.716 40.2059 17.763C40.2059 18.8236 39.5127 19.717 38.5598 20.0386ZM24.9276 2.20008V8.91768H26.5359V1.68062H29.7523V8.91768H31.3606V2.20008C35.0868 3.40867 37.8691 6.65409 38.4738 10.5259H17.8144C18.4199 6.65328 21.2014 3.40867 24.9276 2.20008ZM15.2782 13.7424V12.1341H41.01V13.7424H15.2782Z" fill="#FF5E14"/>
<path d="M34.577 7.30945H32.9688V8.91768H34.577V7.30945Z" fill="#FF5E14"/>
<path d="M23.3194 7.30945H21.7112V8.91768H23.3194V7.30945Z" fill="#FF5E14"/>
<path d="M7.3826 41.0824H11.917L12.3327 39.0093C12.5989 38.9161 12.8594 38.8083 13.1127 38.6885L14.8713 39.8601L18.0774 36.6541L16.9058 34.8955C17.0256 34.643 17.1333 34.3816 17.2266 34.1155L19.2988 33.6998V29.1653L17.2258 28.7496C17.0754 28.3242 16.8921 27.9141 16.6758 27.5266L15.2702 28.309C15.5058 28.7311 15.694 29.1887 15.8299 29.6663L15.9649 30.1375L17.6906 30.4833V32.3818L15.9649 32.7276L15.8299 33.1988C15.694 33.6772 15.5058 34.134 15.2702 34.5561L15.0314 34.9847L16.006 36.4466L14.6639 37.7887L13.202 36.8141L12.7734 37.0529C12.3512 37.2885 11.8937 37.4767 11.416 37.6126L10.9448 37.7469L10.5991 39.4741H8.70055L8.35478 37.7485L7.88356 37.6142C7.40511 37.4783 6.94838 37.2901 6.52621 37.0545L6.09762 36.8157L4.63574 37.7903L2.82728 35.9826L1.69025 37.1197L4.42988 39.8601L6.18849 38.6885C6.44098 38.8083 6.70232 38.9161 6.96848 39.0093L7.3826 41.0824Z" fill="#0E121D"/>
<path d="M2.62303 35.3386L4.02863 34.5562C3.79302 34.134 3.60486 33.6765 3.46896 33.1988L3.33387 32.7276L1.60823 32.3826V30.4841L3.33387 30.1383L3.46896 29.6671C3.60486 29.1887 3.79302 28.7319 4.02863 28.3098L4.26745 27.8812L3.29286 26.4193L4.63493 25.0772L6.09682 26.0518L6.52541 25.813C6.94757 25.5774 7.40511 25.3892 7.88276 25.2533L8.35397 25.119L8.69974 23.3918H10.5983L10.944 25.1174L11.4152 25.2517C11.8937 25.3876 12.3504 25.5758 12.7726 25.8114L13.2012 26.0502L14.6631 25.0756L16.4715 26.8833L17.6086 25.7463L14.8689 23.0058L13.1103 24.1774C12.8578 24.0576 12.5965 23.9499 12.3303 23.8566L11.9162 21.7836H7.38179L6.96607 23.8566C6.6999 23.9499 6.43937 24.0576 6.18607 24.1774L4.42747 23.0058L1.22145 26.2118L2.39305 27.9704C2.27324 28.2229 2.16549 28.4843 2.07221 28.7504L0 29.1662V33.7006L2.07301 34.1163C2.22338 34.5409 2.40672 34.951 2.62303 35.3386Z" fill="#0E121D"/>
<path d="M9.6494 27.4124C7.43245 27.4124 5.62882 29.216 5.62882 31.4329C5.62882 33.6499 7.43245 35.4535 9.6494 35.4535C11.8664 35.4535 13.67 33.6499 13.67 31.4329C13.67 29.216 11.8664 27.4124 9.6494 27.4124ZM9.6494 33.8453C8.31939 33.8453 7.23705 32.7629 7.23705 31.4329C7.23705 30.1029 8.31939 29.0206 9.6494 29.0206C10.9794 29.0206 12.0618 30.1029 12.0618 31.4329C12.0618 32.7629 10.9794 33.8453 9.6494 33.8453Z" fill="#0E121D"/>
</g>
<defs>
<clipPath id="clip0_16_354">
<rect width="50" height="50" fill="white"/>
</clipPath>
</defs>
</svg>
