<svg width="60" height="60" viewBox="0 0 60 60" fill="none" xmlns="http://www.w3.org/2000/svg">
<g clip-path="url(#clip0_439_103312)">
<path d="M58.9998 1.99997C59.5523 1.99997 60 1.55228 60 1.00022C60 0.447694 59.5523 1.70397e-06 58.9998 1.70397e-06H33.1544C32.1638 -0.000913823 31.208 0.367128 30.4738 1.0318L1.64932 27.0662C0.600128 28.0147 0.000915527 29.3628 0 30.7773V33.9999C0 34.5525 0.447693 35.0001 1.00021 35.0001C1.55228 35.0001 1.99997 34.5525 1.99997 33.9999V30.7773C2.00089 29.9286 2.36023 29.1202 2.9892 28.5507L7.00012 24.928V48.0002H1.00021C0.447693 48.0002 0 48.4479 0 48.9999C0 49.5525 0.447693 50.0001 1.00021 50.0001H1.99997V58C2.00134 59.1042 2.89581 59.9986 3.99994 60H58C59.1042 59.9986 59.9986 59.1042 60 58V20.0002C59.9986 18.896 59.1042 18.0011 58 18.0002H52.0001V1.99997H58.9998ZM33.1544 1.99997H39.9998V18.0002H33.9999C33.4479 18.0002 33.0002 18.4479 33.0002 18.9999C33.0002 19.5525 33.4479 20.0002 33.9999 20.0002H35.0001V26.9998C34.9997 27.5519 34.552 27.9996 33.9999 28H31.0002V3.25104L31.8146 2.51541C32.1817 2.18308 32.6591 1.99951 33.1544 1.99997ZM24.9998 28H22.9999C22.4478 28 22.0001 28.4477 22.0001 28.9998C22.0001 29.5523 22.4478 30 22.9999 30H24.0001V37.0001C23.9996 37.5522 23.5519 37.9994 22.9999 37.9999H20.0002V13.1863L28.9998 5.05783V28H24.9998ZM9.00009 23.1216L18.0002 14.9931V37.9999H11.9998C11.4478 37.9999 11.0001 38.4476 11.0001 39.0001C11.0001 39.5522 11.4478 39.9998 11.9998 39.9998H13V47C12.9996 47.552 12.5519 47.9997 11.9998 48.0002H9.00009V23.1216ZM39.9998 58C38.8962 57.9987 38.0012 57.1042 37.9999 56.0001V50.0001H48.0002V56.0001C47.9988 57.1042 47.1039 57.9987 46.0002 58H39.9998ZM40.9744 43.6523C38.8481 42.9716 36.9479 41.7229 35.4799 40.0401C34.1423 38.2521 33.317 36.1336 33.0931 33.9116C35.2203 34.5914 37.1205 35.8406 38.5886 37.5233C39.9257 39.3118 40.7506 41.4304 40.9744 43.6523ZM41.38 38.1651C41.3393 37.6085 41.3452 37.0491 41.3965 36.4934C41.7256 34.0247 42.7332 31.6956 44.3065 29.7652C45.4843 31.9583 46.0336 34.4339 45.8936 36.9196C45.8597 37.2766 45.8015 37.6309 45.7196 37.9802C45.1085 39.1127 44.6521 40.3217 44.3637 41.5755C44.3582 41.5883 44.3591 41.602 44.3541 41.6153C44.1714 42.4004 44.0451 43.1973 43.9774 43.9998H43.0229C42.8618 41.9664 42.3038 39.9838 41.38 38.1651ZM48.4122 37.5238C49.883 35.8433 51.7836 34.5955 53.9104 33.9139C53.687 36.1359 52.8607 38.2544 51.5204 40.0401C50.0491 41.7206 48.1485 42.9684 46.0222 43.6505C46.2456 41.4285 47.0718 39.31 48.4122 37.5238ZM50.0001 46.0002L50.0011 48.0002H35.9999V46.0002H50.0001ZM58 58H49.4435C49.8038 57.3949 49.996 56.7041 50.0001 56.0001V50.0001C51.1038 49.9988 51.9987 49.1038 52.0001 48.0002V46.0002C51.9987 44.8961 51.1038 44.0012 50.0001 43.9998H49.9612C51.1427 43.2797 52.1951 42.3665 53.0754 41.299C54.9504 38.7639 55.9744 35.7005 56.0001 32.5475C55.995 32.2517 55.8595 31.973 55.6297 31.7866C55.3995 31.6008 55.0992 31.5257 54.8085 31.5825C52.2432 32.1652 49.8683 33.3911 47.9077 35.1448C47.6724 32.4165 46.7752 29.7867 45.2939 27.4837C45.1268 27.2397 44.8599 27.0822 44.5656 27.0538C44.2712 27.0268 43.9801 27.1303 43.7686 27.3367C41.5869 29.6068 40.1065 32.4591 39.5059 35.5499C37.4817 33.5765 34.9493 32.2032 32.1913 31.5829C31.9011 31.5262 31.6003 31.6008 31.3705 31.7871C31.1407 31.9734 31.0052 32.2517 31.0002 32.5475C31.0254 35.7005 32.0494 38.7639 33.9249 41.299C34.8047 42.3665 35.8571 43.2797 37.0386 43.9998H35.9999C34.8958 44.0012 34.0013 44.8961 33.9999 46.0002V48.0002C34.0013 49.1038 34.8958 49.9988 35.9999 50.0001V56.0001C36.004 56.7041 36.1963 57.3949 36.5561 58H3.99994V50.0001H11.9998C13.656 49.9983 14.9982 48.6562 15 47V39.9998H22.9999C24.6561 39.998 25.9982 38.6563 26.0001 37.0001V30H33.9999C35.6561 29.9982 36.9983 28.656 37.0001 26.9998V20.0002H41.0014L50.9953 19.9992L50.9999 20.0002L51.0049 19.9988H58V58ZM50.0001 18.0002H41.9998V1.99997H50.0001V18.0002Z" fill="#F0A538"/>
<path d="M44.9999 54.9999H41C40.4474 54.9999 39.9998 55.4476 39.9998 56.0001C39.9998 56.5522 40.4474 56.9998 41 56.9998H44.9999C45.552 56.9998 46.0001 56.5522 46.0001 56.0001C46.0001 55.4476 45.552 54.9999 44.9999 54.9999Z" fill="#F0A538"/>
</g>
<defs>
<clipPath id="clip0_439_103312">
<rect width="60" height="60" fill="white"/>
</clipPath>
</defs>
</svg>
