<svg width="60" height="60" viewBox="0 0 60 60" fill="none" xmlns="http://www.w3.org/2000/svg">
<g clip-path="url(#clip0_439_103332)">
<path d="M59.9997 5.958C60.0034 5.14315 59.6791 4.36109 59.0997 3.78801L56.2118 0.900038C55.6414 0.32341 54.8639 -0.000689942 54.0528 1.10282e-06H54.0428C53.2367 0.000494707 52.4646 0.324792 51.8998 0.900038L38.8 13.9999H13.0002V3.00003C13.0002 1.3431 11.657 1.10282e-06 10.0002 1.10282e-06H8.00018C3.584 0.00493714 0.00518018 3.58376 0.000244141 7.99994V52.2506C0.250501 56.6331 3.9008 60.0451 8.29022 59.9995H56.9998C58.6567 59.9995 59.9997 58.6564 59.9997 56.9996V16.9999C59.9997 15.3431 58.6567 13.9999 56.9998 13.9999H53.1999L59.0998 8.09994C59.6739 7.53486 59.998 6.76356 59.9997 5.958ZM35.78 24.9998C35.5683 25.0287 35.3556 24.9542 35.208 24.7998C35.0591 24.652 34.9856 24.4444 35.008 24.2358L35.387 20.8359C35.4029 20.7648 35.4229 20.6946 35.447 20.6259L39.386 24.5649C39.321 24.5789 39.262 24.6109 39.194 24.6189L35.78 24.9998ZM41.0189 23.3668L36.6429 18.9898L47.5429 8.08997L51.9168 12.4629L41.0189 23.3668ZM48.9529 6.6749L50.4359 5.19291L54.8078 9.56584L53.3258 11.0488L48.9529 6.6749ZM2.00023 7.99994C2.00358 4.68766 4.6879 2.00324 8.00018 1.99998H10.0002C10.5524 1.99998 11.0002 2.44768 11.0002 2.99993V42.9996C11.0002 43.5518 10.5525 43.9995 10.0002 43.9995H8.00018C5.70285 43.9988 3.51658 44.9877 2.00023 46.7135V7.99994ZM56.9998 15.9999C57.5521 15.9999 57.9999 16.4476 57.9999 16.9999V56.9996C57.9999 57.5518 57.5522 57.9996 56.9998 57.9996H8.29022C4.989 58.0551 2.22344 55.5137 2.00023 52.2196V51.9996C2.00358 48.6873 4.6879 46.003 8.00018 45.9996H10.0002C11.657 45.9996 13.0001 44.6565 13.0001 42.9997V15.9999H36.7999L34.5289 18.2708C33.8949 18.8955 33.4961 19.72 33.3999 20.6048L33.021 24.0117C32.9898 24.344 33.0213 24.6791 33.1139 24.9997H16.0001C15.4479 24.9997 15.0001 25.4474 15.0001 25.9998C15.0001 26.552 15.4478 26.9997 16.0001 26.9997H19.0001V53.9996C19.0001 54.5518 19.4478 54.9996 20.0002 54.9996C20.5525 54.9996 21.0002 54.5519 21.0002 53.9996V39.9997H32.0001V47.9996H25.0001C24.4478 47.9996 24.0001 48.4473 24.0001 48.9995C24.0001 49.5518 24.4478 49.9996 25.0001 49.9996H44.9999C46.1045 49.9996 46.9999 49.1042 46.9999 47.9996V32.9998C46.9999 32.4475 46.5522 31.9997 46 31.9997C45.4477 31.9997 44.9999 32.4474 44.9999 32.9998V37.9997H21.0001V26.9998H35.708C35.8056 27 35.9031 26.9947 36 26.9838L39.417 26.5949C40.2842 26.4964 41.0937 26.111 41.717 25.4999L51.2049 16L56.9998 15.9999ZM44.9999 39.9997V47.9996H34V39.9997H44.9999ZM57.6898 6.68191L56.2218 8.15088L51.8499 3.77893L53.3188 2.30997C53.511 2.11272 53.7744 2.00097 54.0499 1.99998C54.3302 2.00068 54.5985 2.11381 54.7948 2.31402L57.6868 5.20002C57.8879 5.39805 58.0008 5.66874 57.9999 5.95099C57.999 6.22642 57.8872 6.4899 57.6898 6.68191Z" fill="#F0A538"/>
</g>
<defs>
<clipPath id="clip0_439_103332">
<rect width="60" height="60" fill="white"/>
</clipPath>
</defs>
</svg>
