<svg width="70" height="70" viewBox="0 0 70 70" fill="none" xmlns="http://www.w3.org/2000/svg">
<g clip-path="url(#clip0_439_116873)">
<path fill-rule="evenodd" clip-rule="evenodd" d="M29.5157 24.8013V20.0063C29.5157 19.6746 29.242 19.4054 28.9097 19.4054H27.5333H18.7822H17.4019C17.0696 19.4054 16.7998 19.6746 16.7998 20.0063V24.8013C16.7998 25.133 17.0696 25.406 17.4019 25.406H28.9097C29.242 25.4061 29.5157 25.133 29.5157 24.8013Z" fill="#CECECE"/>
<path fill-rule="evenodd" clip-rule="evenodd" d="M63.9571 65.237V56.1463C63.9571 55.2918 63.2571 54.5974 62.4008 54.5974H57.8415H50.8462H46.6075C45.755 54.5974 45.0552 55.2919 45.0552 56.1463V65.2369L63.9571 65.237Z" fill="#FDB440"/>
<path fill-rule="evenodd" clip-rule="evenodd" d="M63.9571 63.8597H45.0551H42.9045C41.4929 63.8597 40.3394 65.0106 40.3394 66.4191V68.2879C40.3394 68.6664 40.6522 68.9747 41.0314 68.9747H67.9807C68.36 68.9747 68.669 68.6665 68.669 68.2879V66.4191C68.669 65.0106 67.5155 63.8597 66.1078 63.8597H63.9571Z" fill="#CECECE"/>
<path fill-rule="evenodd" clip-rule="evenodd" d="M28.9097 19.4056H27.5333H24.98C25.3123 19.4056 25.5861 19.6748 25.5861 20.0065V24.8015C25.5861 25.1332 25.3123 25.4062 24.98 25.4062H28.9098C29.2422 25.4062 29.5159 25.1331 29.5159 24.8015V20.0065C29.5158 19.6748 29.2421 19.4056 28.9097 19.4056Z" fill="#BAAFB9"/>
<path fill-rule="evenodd" clip-rule="evenodd" d="M60.8641 1.02539H47.8234C47.4559 1.02539 47.1587 1.32193 47.1587 1.68861V2.80834V9.78824V10.908C47.1587 11.2708 47.4559 11.5712 47.8234 11.5712H50.846H57.8413H60.8639C61.2314 11.5712 61.5287 11.2708 61.5287 10.908V9.78824V2.80834V1.68861C61.5288 1.32193 61.2317 1.02539 60.8641 1.02539Z" fill="#FDB440"/>
<path fill-rule="evenodd" clip-rule="evenodd" d="M61.5285 2.80834V1.68861C61.5285 1.32193 61.2313 1.02539 60.8638 1.02539H56.1128C56.4765 1.02539 56.7775 1.32193 56.7775 1.68861V2.80834V9.78824V10.908C56.7775 11.2708 56.4765 11.5712 56.1128 11.5712H57.8411H60.8636C61.2311 11.5712 61.5284 11.2708 61.5284 10.908V9.78824V2.80834H61.5285Z" fill="#FE9737"/>
<path fill-rule="evenodd" clip-rule="evenodd" d="M63.957 56.1463C63.957 55.2918 63.257 54.5974 62.4007 54.5974H57.8414H57.6499C58.5023 54.5974 59.2022 55.2919 59.2022 56.1463V63.8597H61.3528H63.957V56.1463Z" fill="#FE9737"/>
<path fill-rule="evenodd" clip-rule="evenodd" d="M68.669 66.4191C68.669 65.0106 67.5155 63.8597 66.1078 63.8597H63.9572H61.353C62.7646 63.8597 63.9181 65.0106 63.9181 66.4191V68.2879C63.9181 68.6664 63.6053 68.9747 63.2261 68.9747H67.9809C68.3601 68.9747 68.6691 68.6665 68.6691 68.2879L68.669 66.4191Z" fill="#BAAFB9"/>
<path fill-rule="evenodd" clip-rule="evenodd" d="M12.5921 43.8916V23.7207C12.5921 23.5451 12.4826 23.4008 12.2833 23.4008H1.7685C1.49875 23.4008 1.28369 23.6895 1.28369 24.0446V68.3309C1.28369 68.682 1.49875 68.9747 1.7685 68.9747H23.4156C23.6815 68.9747 23.9004 68.6821 23.9004 68.3309V44.2115C23.9004 44.0009 23.6814 43.8916 23.5485 43.8916H18.2463H12.5921Z" fill="#E8EAEA"/>
<path fill-rule="evenodd" clip-rule="evenodd" d="M12.5924 54.2034V49.0066H6.29689C6.01922 49.0066 5.78857 49.2368 5.78857 49.5138V53.6963C5.78857 53.9773 6.01922 54.2035 6.29689 54.2035L12.5924 54.2034Z" fill="#6BD9E7"/>
<path fill-rule="evenodd" clip-rule="evenodd" d="M19.3921 53.6962V49.5137C19.3921 49.2367 19.1653 49.0065 18.8878 49.0065H12.5923V54.2033H18.8878C19.1653 54.2034 19.3921 53.9772 19.3921 53.6962Z" fill="#6BD9E7"/>
<path fill-rule="evenodd" clip-rule="evenodd" d="M19.3921 59.8256C19.3921 59.5486 19.1653 59.3184 18.8878 59.3184H12.5923V64.5152H18.8878C19.1654 64.5152 19.3921 64.2889 19.3921 64.0079V59.8256Z" fill="#6BD9E7"/>
<path fill-rule="evenodd" clip-rule="evenodd" d="M12.5924 64.5152V59.3184H6.29689C6.01922 59.3184 5.78857 59.5486 5.78857 59.8256V64.0081C5.78857 64.289 6.01922 64.5153 6.29689 64.5153H12.5924V64.5152Z" fill="#6BD9E7"/>
<path fill-rule="evenodd" clip-rule="evenodd" d="M12.5924 49.0066H6.29689C6.01922 49.0066 5.78857 49.2368 5.78857 49.5138V51.6051C5.78857 51.3281 6.01922 51.0978 6.29689 51.0978H12.5924V49.0066Z" fill="#00C7DD"/>
<path fill-rule="evenodd" clip-rule="evenodd" d="M18.8876 49.0066H12.5923V51.0978H18.8878C19.1654 51.0978 19.3921 51.3281 19.3921 51.6051V49.5138C19.3921 49.2367 19.1653 49.0066 18.8876 49.0066Z" fill="#00C7DD"/>
<path fill-rule="evenodd" clip-rule="evenodd" d="M18.8876 59.3184H12.5923V61.4096H18.8878C19.1654 61.4096 19.3921 61.6398 19.3921 61.9168V59.8256C19.3921 59.5486 19.1653 59.3184 18.8876 59.3184Z" fill="#00C7DD"/>
<path fill-rule="evenodd" clip-rule="evenodd" d="M12.5924 59.3184H6.29689C6.01922 59.3184 5.78857 59.5486 5.78857 59.8256V61.9168C5.78857 61.6398 6.01922 61.4096 6.29689 61.4096H12.5924V59.3184Z" fill="#00C7DD"/>
<path fill-rule="evenodd" clip-rule="evenodd" d="M23.9007 68.3308V44.2115C23.9007 44.0008 23.6817 43.8916 23.5488 43.8916H20.9015C21.0344 43.8916 21.2495 44.0008 21.2495 44.2115V68.3309C21.2495 68.682 21.0304 68.9747 20.7646 68.9747H23.4158C23.6818 68.9746 23.9007 68.682 23.9007 68.3308Z" fill="#D4D6D8"/>
<path fill-rule="evenodd" clip-rule="evenodd" d="M9.94123 28.3829V43.8915H12.5923V36.5878V28.3829V23.7207C12.5923 23.5451 12.4828 23.4008 12.2835 23.4008H9.62842C9.83172 23.4008 9.94123 23.5451 9.94123 23.7207V28.3829Z" fill="#D4D6D8"/>
<path d="M23.9005 37.6132C24.467 37.6132 24.9259 37.1543 24.9259 36.5878C24.9259 36.0214 24.467 35.5625 23.9005 35.5625H19.2718V32.4874C19.2718 31.9209 18.8128 31.462 18.2464 31.462C17.68 31.462 17.221 31.9209 17.221 32.4874V35.5625H13.6175V23.7207C13.6175 22.9661 13.0314 22.3752 12.2831 22.3752H1.76863C0.921797 22.3752 0.258301 23.1085 0.258301 24.0444V68.3308C0.258301 69.2668 0.921797 70 1.76863 70H23.4156C24.2483 70 24.9259 69.2512 24.9259 68.3308V57.6991C24.9259 57.1327 24.467 56.6737 23.9005 56.6737C23.3341 56.6737 22.8751 57.1327 22.8751 57.6991V67.9492H2.30922V24.426H11.5669V27.0065H8.10322C7.5368 27.0065 7.07783 27.4654 7.07783 28.0318C7.07783 28.5983 7.5368 29.0572 8.10322 29.0572H11.5667V32.7806H8.4591C7.89268 32.7806 7.43371 33.2396 7.43371 33.806C7.43371 34.3725 7.89268 34.8314 8.4591 34.8314H11.5667V43.8916C11.5667 44.4581 12.0257 44.917 12.5921 44.917H22.8751V52.9315C22.8751 53.4979 23.3341 53.9569 23.9005 53.9569C24.467 53.9569 24.9259 53.4979 24.9259 52.9315V44.2116C24.9259 43.3806 24.211 42.8662 23.5486 42.8662H19.2718V37.6132H23.9005ZM17.221 42.8662H13.6175V37.6132H17.2209L17.221 42.8662Z" fill="black"/>
<path d="M58.8668 47.4257V42.3623V33.0851C58.8668 33.0847 58.8668 33.0842 58.8668 33.0837V30.1271V18.7432C58.8668 18.7428 58.8668 18.7422 58.8668 18.7418V17.892V12.5967H60.864C61.7959 12.5967 62.554 11.8392 62.554 10.908V10.8136H67.8671C68.3213 10.8136 68.738 10.6665 69.0626 10.4223C69.1214 10.383 69.1771 10.337 69.2285 10.2841C69.2401 10.2722 69.2501 10.2594 69.261 10.2471C69.5584 9.9467 69.741 9.55131 69.741 9.11723V3.47949C69.741 2.54393 68.9005 1.78295 67.8671 1.78295H62.5541V1.68875C62.5541 0.757559 61.796 0 60.8641 0H47.8235C46.8916 0 46.1334 0.757559 46.1334 1.68875V1.78295H44.1947H32.7863C32.7851 1.78295 32.784 1.78295 32.7828 1.78295H31.9321H17.2532C16.2178 1.78295 15.3755 2.54393 15.3755 3.47949V9.11709C15.3755 10.0525 16.2178 10.8135 17.2532 10.8135H22.1323V14.3484L18.339 18.3801H17.4019C16.5045 18.3801 15.7744 19.1096 15.7744 20.0063V24.8013C15.7744 25.7001 16.5045 26.4314 17.4019 26.4314H28.9098C29.8094 26.4314 30.5413 25.7001 30.5413 24.8013V20.0063C30.5413 19.1096 29.8094 18.3801 28.9098 18.3801H27.9766L24.1832 14.3484V10.8136H31.9324H44.1948H46.1335V10.908C46.1335 11.8392 46.8918 12.5967 47.8236 12.5967H49.8207V17.8917V30.1269V42.3622V53.5719H46.6072C45.1859 53.5719 44.0295 54.7267 44.0295 56.1463V62.8342H42.9045C40.9247 62.8342 39.3138 64.4424 39.3138 66.4191V68.2879C39.3138 69.2319 40.0844 69.9999 41.0314 69.9999H67.9808C68.9256 69.9999 69.6943 69.2319 69.6943 68.2879V66.4191C69.6943 64.4424 68.0852 62.8342 66.1077 62.8342H64.9827V56.1463C64.9827 54.7267 63.8244 53.5719 62.4009 53.5719H58.8668V47.427C58.8668 47.4266 58.8668 47.4262 58.8668 47.4257ZM67.6904 3.83414V7.36148L64.0571 3.834L67.6904 3.83414ZM62.5541 5.23305L66.1897 8.76285H62.5541V5.23305ZM17.4263 8.7623V3.83373H17.9947L23.0697 8.76244L17.4263 8.7623ZM28.4904 20.431V24.3808H17.8251V20.431H28.4904ZM25.1606 18.3802H21.1547L23.1577 16.2513L25.1606 18.3802ZM20.9383 3.83373H30.2571L25.5977 8.35885L20.9383 3.83373ZM31.9323 8.76285L28.1255 8.76272L32.7847 4.23773L37.4441 8.76285H31.9323ZM35.3122 3.83373H44.1947H44.6311L39.9716 8.35885L35.3122 3.83373ZM44.1947 8.76285H42.4993L46.1334 5.23359V8.76285H44.1947ZM62.4007 55.6228C62.6936 55.6228 62.9317 55.8577 62.9317 56.1464V62.8343H56.9616C56.3952 62.8343 55.9362 63.2933 55.9362 63.8597C55.9362 64.4261 56.3952 64.8851 56.9616 64.8851H66.1076C66.9544 64.8851 67.6433 65.5732 67.6433 66.4192V67.9492H41.3646V66.4192C41.3646 65.5732 42.0555 64.8851 42.9045 64.8851H51.9957C52.5622 64.8851 53.0211 64.4261 53.0211 63.8597C53.0211 63.2933 52.5622 62.8343 51.9957 62.8343H46.0803V56.1464C46.0803 55.8626 46.3218 55.6228 46.6072 55.6228H50.8459H57.8414H62.4007ZM56.409 18.7424L51.8715 23.3938V17.8917V14.0908L56.409 18.7424ZM53.2787 12.5967H56.816V16.2229L53.2787 12.5967ZM56.816 21.2618V30.1269V30.5647L52.2783 25.9131L56.816 21.2618ZM56.409 33.0843L51.8715 37.7359V30.1269V28.4327L56.409 33.0843ZM56.816 35.6039V42.3623V44.9069L52.2785 40.2553L56.816 35.6039ZM56.409 47.4265L51.8715 52.0779V42.7749L56.409 47.4265ZM56.816 49.946V53.572H53.2787L56.816 49.946ZM57.8414 10.5459H50.8595C50.8588 10.5459 50.858 10.5459 50.8571 10.5459H50.8459H48.184V2.05078H60.5032V10.5459H57.8414Z" fill="black"/>
<path d="M20.4176 49.5137C20.4176 48.6685 19.7313 47.9811 18.8879 47.9811H6.29689C5.45115 47.9811 4.76318 48.6685 4.76318 49.5137V53.6962C4.76318 54.5414 5.45115 55.2288 6.29689 55.2288H18.8879C19.7314 55.2288 20.4176 54.5414 20.4176 53.6962V49.5137ZM11.5669 53.178H6.81396V50.0319H11.567V53.178H11.5669ZM18.3668 53.178H13.6176V50.0319H18.3667V53.178H18.3668Z" fill="black"/>
<path d="M18.8877 58.293H6.29689C5.45115 58.293 4.76318 58.9804 4.76318 59.8256V64.0081C4.76318 64.8531 5.45115 65.5406 6.29689 65.5406H18.8879C19.7314 65.5406 20.4176 64.8531 20.4176 64.0081V59.8256C20.4176 58.9804 19.7313 58.293 18.8877 58.293ZM11.5669 63.4898H6.81396V60.3438H11.567V63.4898H11.5669ZM18.3668 63.4898H13.6176V60.3438H18.3667V63.4898H18.3668Z" fill="black"/>
</g>
<defs>
<clipPath id="clip0_439_116873">
<rect width="70" height="70" fill="white"/>
</clipPath>
</defs>
</svg>
