<svg width="50" height="50" viewBox="0 0 50 50" fill="none" xmlns="http://www.w3.org/2000/svg">
<g clip-path="url(#clip0_18_1920)">
<path d="M17.9233 10.2921C16.9197 12.0453 16.0988 14.441 15.5327 17.2829C15.4537 17.6796 15.7112 18.0653 16.1083 18.1443C16.1564 18.1538 16.2044 18.1584 16.2521 18.1584C16.5943 18.1584 16.9002 17.9173 16.9696 17.569C17.5762 14.5226 18.4738 12.0503 19.5655 10.4191C19.6834 10.2429 19.7193 10.0239 19.6636 9.81907C19.6079 9.6146 19.4664 9.44409 19.2749 9.35177C19.075 9.25564 18.8755 9.15035 18.6824 9.03897C17.485 8.34889 16.9937 7.7145 16.7926 7.30328C16.5809 6.87069 16.5813 6.46443 16.7934 6.09631C17.2958 5.22465 18.6016 5.28416 20.2865 6.25462C21.0025 6.66737 21.6423 7.16442 22.1366 7.69162C22.3377 7.906 22.6471 7.97962 22.9232 7.87854C27.7568 6.10585 36.8976 6.10585 41.732 7.87854C42.0078 7.97962 42.3175 7.90638 42.5186 7.69162C43.0129 7.16442 43.6527 6.66737 44.3687 6.25462C45.5661 5.56492 46.3619 5.45887 46.8173 5.49016C47.298 5.52411 47.6493 5.72781 47.8618 6.09631C48.3638 6.96797 47.6577 8.06774 45.9728 9.03858C45.779 9.15035 45.5795 9.25602 45.38 9.35177C45.1888 9.44409 45.0473 9.6146 44.9912 9.81907C44.9355 10.0239 44.9714 10.2429 45.0893 10.4191C45.9529 11.7093 46.6834 13.488 47.2602 15.7059C47.3621 16.0973 47.7615 16.3315 48.1532 16.2304C48.5446 16.1286 48.7796 15.7288 48.6778 15.3374C48.1536 13.3225 47.5005 11.6295 46.7323 10.2917C49.6253 8.61286 49.8699 6.64715 49.1306 5.36503C48.6736 4.57158 47.8885 4.09703 46.92 4.02913C45.9598 3.96237 44.8558 4.28357 43.6374 4.98585C42.9515 5.38105 42.321 5.84683 41.7907 6.34808C36.6764 4.65359 27.9785 4.65359 22.8645 6.34808C22.3339 5.84683 21.7037 5.38105 21.0174 4.98585C18.0977 3.30319 16.2655 4.07834 15.5243 5.36503C15.0669 6.15849 15.0501 7.07554 15.477 7.94758C15.897 8.80512 16.7198 9.59362 17.9233 10.2921Z" fill="#FF5E14"/>
<path d="M49.3209 18.359C49.2526 17.9604 48.8746 17.6926 48.4756 17.7601C48.077 17.8284 47.8088 18.2068 47.8771 18.6054C49.3747 27.3823 48.2559 37.5694 45.33 41.7976C45.2098 41.9708 45.1705 42.1871 45.2217 42.3916C45.2728 42.5961 45.4093 42.7685 45.5963 42.8654C45.726 42.9321 45.8526 43.0012 45.9728 43.0702C47.6577 44.0414 48.3638 45.1412 47.8618 46.0129C47.6493 46.3814 47.298 46.5851 46.8173 46.619C46.3611 46.6511 45.5661 46.5443 44.3687 45.8542C43.6782 45.4563 43.0561 44.978 42.5693 44.471C42.3717 44.2654 42.073 44.1929 41.8033 44.2852C41.3211 44.4504 40.7875 44.6037 40.2175 44.7407C39.8239 44.8353 39.5816 45.2305 39.6762 45.6238C39.7705 46.0171 40.1657 46.2589 40.559 46.1651C41.0099 46.0567 41.4405 45.9389 41.8453 45.8126C42.3645 46.2944 42.9763 46.7426 43.6374 47.1233C44.7505 47.765 45.7683 48.0892 46.6674 48.0888C46.7525 48.0888 46.8368 48.0862 46.92 48.0801C47.8885 48.0122 48.6736 47.5376 49.131 46.7442C49.8496 45.4971 49.6383 43.6039 46.9646 41.9567C48.701 39.008 49.4373 34.845 49.7489 31.7639C50.1949 27.3525 50.043 22.5918 49.3209 18.359Z" fill="#FF5E14"/>
<path d="M41.8785 23.1594V18.8717C41.8785 17.0116 40.3652 15.4984 38.5048 15.4984H26.1501C24.2901 15.4984 22.7768 17.0116 22.7768 18.8717V23.1594C22.7768 25.0194 24.2901 26.5327 26.1501 26.5327H38.5052C40.3652 26.5327 41.8785 25.0194 41.8785 23.1594ZM40.4137 23.1594C40.4137 24.2119 39.5573 25.0679 38.5048 25.0679H26.1501C25.0977 25.0679 24.2416 24.2119 24.2416 23.1594V18.8717C24.2416 17.8196 25.0977 16.9632 26.1501 16.9632H38.5052C39.5573 16.9632 40.4137 17.8196 40.4137 18.8717V23.1594Z" fill="#FF5E14"/>
<path d="M34.6412 41.616H33.4442C33.1382 38.1332 30.6717 35.176 27.2899 34.2628C27.0645 31.8992 26.0055 29.7146 24.2714 28.0616C22.4331 26.3088 20.0321 25.3441 17.4949 25.3345L11.5257 8.93553C12.9757 7.45124 13.665 5.32416 13.3358 3.26537C13.2564 2.77099 12.9631 2.34145 12.5309 2.0874C12.0983 1.83296 11.5799 1.78527 11.1084 1.95693L1.9947 5.27419C1.52321 5.44585 1.15662 5.8155 0.988769 6.28852C0.820922 6.76078 0.87242 7.27843 1.12953 7.70835C2.2007 9.49668 4.09546 10.683 6.15997 10.8883L12.0144 26.9745C10.857 27.7431 9.85412 28.7616 9.08393 29.9862C8.8684 30.3287 8.9714 30.7808 9.31396 30.9963C9.65613 31.2114 10.1082 31.1084 10.3237 30.7663C13.1939 26.2031 19.4317 25.4715 23.2609 29.1217C24.8539 30.6408 25.7782 32.6858 25.864 34.8808C25.877 35.2195 26.1207 35.5049 26.4534 35.5709C29.6737 36.2094 32.0114 39.0602 32.0118 42.3488C32.0118 42.7532 32.3394 43.0812 32.7442 43.0812H34.6412C35.7799 43.0812 36.7061 44.0074 36.7061 45.1458V46.6239H1.46484V45.1458C1.46484 44.0074 2.39105 43.0812 3.52935 43.0812H4.91905C5.32341 43.0812 5.65147 42.7532 5.65147 42.3488C5.65147 40.4281 6.94465 38.7325 8.7963 38.2255C9.18273 38.1198 9.41238 37.7231 9.31167 37.3355C9.09766 36.5112 9.01031 35.6571 9.05189 34.7969C9.07706 34.2765 9.15183 33.7566 9.27352 33.2519C9.36851 32.859 9.12627 32.4634 8.73336 32.3684C8.34007 32.2738 7.94448 32.5153 7.8495 32.9086C7.70644 33.5025 7.61871 34.114 7.58895 34.7259C7.55119 35.5053 7.60383 36.2804 7.74574 37.0391C5.84411 37.8208 4.49714 39.5778 4.23393 41.6164H3.52974C1.58348 41.616 0 43.1995 0 45.1458V47.0329C0 47.615 0.473785 48.0884 1.05591 48.0884H37.1151C37.6972 48.0884 38.171 47.615 38.171 47.0329V45.1458C38.171 43.1995 36.5875 41.616 34.6412 41.616ZM2.38647 6.95571C2.3426 6.88247 2.35672 6.81304 2.36892 6.77832C2.38151 6.74323 2.41432 6.6799 2.49557 6.65053L11.6093 3.33327C11.7332 3.28788 11.8683 3.36722 11.8893 3.49692C12.2761 5.91506 10.8959 8.2939 8.56322 9.14267C7.9605 9.36202 7.33299 9.46539 6.69937 9.45433C4.94041 9.41886 3.28788 8.46137 2.38647 6.95571ZM7.70797 10.8574C8.1684 10.7933 8.62197 10.6804 9.06448 10.5194C9.50736 10.3584 9.92736 10.1532 10.3207 9.90675L15.9763 25.4455C15.0463 25.5859 14.1495 25.8583 13.3091 26.2489L7.70797 10.8574Z" fill="#0E121D"/>
<path d="M23.2773 39.6061C23.5805 39.4012 23.9353 39.2929 24.3034 39.2929C25.3162 39.2929 26.1402 40.1169 26.1402 41.1297C26.1402 41.534 26.4683 41.8621 26.8726 41.8621C27.2774 41.8621 27.605 41.534 27.605 41.1297C27.605 39.3089 26.1242 37.8281 24.3034 37.8281C23.6419 37.8281 23.0034 38.023 22.4571 38.3923C22.1222 38.6188 22.0341 39.0739 22.2603 39.4093C22.4869 39.7442 22.942 39.8323 23.2773 39.6061Z" fill="#0E121D"/>
<path d="M10.107 41.1602C9.86252 41.4825 9.92585 41.9418 10.2486 42.1859C10.3806 42.2863 10.5358 42.3347 10.6899 42.3347C10.9116 42.3347 11.1305 42.2348 11.2743 42.0444C11.5902 41.6278 12.0705 41.389 12.5927 41.389C12.9963 41.389 13.385 41.5359 13.6871 41.8029C13.99 42.0711 14.4527 42.0425 14.7205 41.7396C14.9887 41.4367 14.9605 40.974 14.6572 40.7058C14.0873 40.2019 13.3541 39.9242 12.5927 39.9242C11.6081 39.9242 10.7021 40.3747 10.107 41.1602Z" fill="#0E121D"/>
<path d="M14.9258 33.725C15.2042 33.725 15.4701 33.5651 15.593 33.2954C15.6757 33.1127 15.7936 32.9502 15.9428 32.8129C16.5516 32.2517 17.5034 32.291 18.0645 32.8999C18.3384 33.197 18.8019 33.2161 19.0994 32.9422C19.397 32.6679 19.416 32.2048 19.1418 31.9073C18.0336 30.7045 16.1533 30.6274 14.9502 31.7356C14.6561 32.0068 14.4234 32.3277 14.2593 32.6897C14.0919 33.0582 14.2551 33.4923 14.6233 33.6594C14.7217 33.704 14.8243 33.725 14.9258 33.725Z" fill="#0E121D"/>
</g>
<defs>
<clipPath id="clip0_18_1920">
<rect width="50" height="50" fill="white"/>
</clipPath>
</defs>
</svg>
