<svg width="70" height="70" viewBox="0 0 70 70" fill="none" xmlns="http://www.w3.org/2000/svg">
<path d="M19.6875 50.3125H4.375C3.16641 50.3125 2.1875 51.2914 2.1875 52.5C2.1875 53.7086 3.16641 54.6875 4.375 54.6875H10.9375C12.1461 54.6875 13.125 55.6664 13.125 56.875C13.125 58.0836 12.1461 59.0625 10.9375 59.0625H8.75C7.54141 59.0625 6.5625 60.0414 6.5625 61.25C6.5625 62.4586 7.54141 63.4375 8.75 63.4375H22.9688C24.1773 63.4375 25.1562 64.4164 25.1562 65.625C25.1562 66.8336 26.1352 67.8125 27.3438 67.8125H41.5625C42.7711 67.8125 43.75 66.8336 43.75 65.625C43.75 64.4164 42.7711 63.4375 41.5625 63.4375H38.2812C37.0727 63.4375 36.0938 62.4586 36.0938 61.25C36.0938 60.0414 37.0727 59.0625 38.2812 59.0625H51.4062C52.6148 59.0625 53.5938 58.0836 53.5938 56.875C53.5938 55.6664 54.5727 54.6875 55.7812 54.6875H61.25C62.4586 54.6875 63.4375 53.7086 63.4375 52.5C63.4375 51.2914 62.4586 50.3125 61.25 50.3125H50.3125" fill="#9D8980"/>
<path d="M10.9375 59.0625H8.75C8.01062 59.0625 7.35875 59.4322 6.96281 59.9944C10.8369 60.7906 15.3781 61.25 20.2344 61.25C34.4302 61.25 45.9375 57.3322 45.9375 52.5C45.9375 51.7442 45.6564 51.0114 45.1281 50.3125H19.6875H4.375C3.16641 50.3125 2.1875 51.2914 2.1875 52.5C2.1875 53.7086 3.16641 54.6875 4.375 54.6875H10.9375C12.1461 54.6875 13.125 55.6664 13.125 56.875C13.125 58.0836 12.1461 59.0625 10.9375 59.0625Z" fill="#B9ABA5"/>
<path d="M28.4375 2.1875H4.375V39.375H28.4375V2.1875Z" fill="#657B88"/>
<path d="M4.375 33.087C5.59125 33.6109 6.87313 33.9062 8.20312 33.9062C15.7544 33.9062 21.875 24.8467 21.875 13.6719C21.875 9.40406 20.977 5.45125 19.4534 2.1875H4.375V33.087Z" fill="#7B909B"/>
<path d="M65.625 2.1875H41.5625V39.375H65.625V2.1875Z" fill="#657B88"/>
<path d="M41.5625 33.087C42.7787 33.6109 44.0606 33.9062 45.3906 33.9062C52.9419 33.9062 59.0625 24.8467 59.0625 13.6719C59.0625 9.40406 58.1645 5.45125 56.6409 2.1875H41.5625V33.087Z" fill="#7B909B"/>
<path d="M47.0312 13.125H22.9688V50.3125H47.0312V13.125Z" fill="#657B88"/>
<path d="M22.9688 44.0245C24.185 44.5484 25.4669 44.8438 26.7969 44.8438C34.3481 44.8438 40.4688 35.7842 40.4688 24.6094C40.4688 20.3416 39.5708 16.3888 38.0472 13.125H22.9688V44.0245Z" fill="#7B909B"/>
<path d="M39.375 32.8125C39.375 35.5173 36.9206 37.6491 34.1173 37.1011C32.0403 36.6953 30.625 34.7408 30.625 32.6244C30.625 31.3206 31.0111 30.0464 31.7341 28.9614L35 24.0625L38.2659 28.9614C38.9889 30.0464 39.375 31.3206 39.375 32.6244V32.8125Z" fill="#F7CA6A"/>
<path d="M20.7812 21.875C20.7812 24.5798 18.3269 26.7116 15.5236 26.1636C13.4466 25.7578 12.0312 23.8033 12.0312 21.6869C12.0312 20.3831 12.4173 19.1089 13.1403 18.0239L16.4062 13.125L19.6722 18.0239C20.3952 19.1089 20.7812 20.3831 20.7812 21.6869V21.875Z" fill="#F7CA6A"/>
<path d="M57.9688 21.875C57.9688 24.5798 55.5144 26.7116 52.7111 26.1636C50.6341 25.7578 49.2188 23.8033 49.2188 21.6869C49.2188 20.3831 49.6048 19.1089 50.3278 18.0239L53.5938 13.125L56.8597 18.0239C57.5827 19.1089 57.9688 20.3831 57.9688 21.6869V21.875Z" fill="#F7CA6A"/>
<path d="M22.9688 40.4688H4.375C3.77016 40.4688 3.28125 39.9787 3.28125 39.375V2.1875C3.28125 1.58375 3.77016 1.09375 4.375 1.09375H28.4375C29.0423 1.09375 29.5312 1.58375 29.5312 2.1875V13.125H27.3438V3.28125H5.46875V38.2812H22.9688V40.4688Z" fill="black"/>
<path d="M47.0312 51.4062H22.9688C22.3639 51.4062 21.875 50.9162 21.875 50.3125V13.125C21.875 12.5213 22.3639 12.0312 22.9688 12.0312H47.0312C47.6361 12.0312 48.125 12.5213 48.125 13.125V50.3125C48.125 50.9162 47.6361 51.4062 47.0312 51.4062ZM24.0625 49.2188H45.9375V14.2188H24.0625V49.2188Z" fill="black"/>
<path d="M65.625 40.4688H47.0312V38.2812H64.5312V3.28125H42.6562V13.125H40.4688V2.1875C40.4688 1.58375 40.9577 1.09375 41.5625 1.09375H65.625C66.2298 1.09375 66.7188 1.58375 66.7188 2.1875V39.375C66.7188 39.9787 66.2298 40.4688 65.625 40.4688Z" fill="black"/>
<path d="M47.0312 18.5938H22.9688V20.7812H47.0312V18.5938Z" fill="black"/>
<path d="M50.3125 42.6562H19.6875V44.8438H50.3125V42.6562Z" fill="black"/>
<path d="M68.9062 29.5312H47.0312V31.7188H68.9062V29.5312Z" fill="black"/>
<path d="M22.9688 29.5312H1.09375V31.7188H22.9688V29.5312Z" fill="black"/>
<path d="M31.7188 5.46875H1.09375V7.65625H31.7188V5.46875Z" fill="black"/>
<path d="M68.9062 5.46875H38.2812V7.65625H68.9062V5.46875Z" fill="black"/>
<path d="M34.9913 38.2801C34.6325 38.2801 34.2694 38.2451 33.9084 38.1751C31.372 37.6797 29.5312 35.3456 29.5312 32.6244C29.5312 31.0986 29.9775 29.6231 30.8241 28.3544L34.09 23.4554C34.4958 22.8462 35.5042 22.8462 35.91 23.4554L39.1759 28.3544C40.0225 29.6231 40.4688 31.0997 40.4688 32.6244V32.8125C40.4688 34.4531 39.7425 35.992 38.4748 37.0354C37.4872 37.8481 36.2589 38.2801 34.9913 38.2801ZM35 26.0345L32.6441 29.5684C32.0381 30.4762 31.7188 31.5328 31.7188 32.6244C31.7188 34.2737 32.8398 35.7372 34.3273 36.027C35.3347 36.2217 36.3125 35.9811 37.0847 35.3456C37.8459 34.72 38.2812 33.7958 38.2812 32.8125V32.6244C38.2812 31.5328 37.9619 30.4762 37.3559 29.5684L35 26.0345Z" fill="black"/>
<path d="M16.3975 27.3426C16.0387 27.3426 15.6756 27.3076 15.3147 27.2376C12.7783 26.7422 10.9375 24.4081 10.9375 21.6869C10.9375 20.1611 11.3838 18.6856 12.2303 17.4169L15.4963 12.5179C15.902 11.9087 16.9105 11.9087 17.3162 12.5179L20.5822 17.4169C21.4288 18.6856 21.875 20.1622 21.875 21.6869V21.875C21.875 23.5156 21.1488 25.0545 19.8811 26.0979C18.8934 26.9106 17.6652 27.3426 16.3975 27.3426ZM16.4062 15.097L14.0503 18.6309C13.4444 19.5387 13.125 20.5953 13.125 21.6869C13.125 23.3362 14.2461 24.7997 15.7336 25.0895C16.7409 25.2853 17.7188 25.0436 18.4909 24.4081C19.2522 23.7825 19.6875 22.8583 19.6875 21.875V21.6869C19.6875 20.5953 19.3681 19.5387 18.7622 18.6309L16.4062 15.097Z" fill="black"/>
<path d="M53.585 27.3426C53.2263 27.3426 52.8631 27.3076 52.5022 27.2376C49.9658 26.7422 48.125 24.4081 48.125 21.6869C48.125 20.1611 48.5712 18.6856 49.4178 17.4169L52.6837 12.5179C53.0895 11.9087 54.098 11.9087 54.5038 12.5179L57.7697 17.4169C58.6163 18.6856 59.0625 20.1622 59.0625 21.6869V21.875C59.0625 23.5156 58.3362 25.0545 57.0686 26.0979C56.0809 26.9106 54.8527 27.3426 53.585 27.3426ZM53.5938 15.097L51.2378 18.6309C50.6319 19.5387 50.3125 20.5953 50.3125 21.6869C50.3125 23.3362 51.4336 24.7997 52.9211 25.0895C53.9295 25.2853 54.9062 25.0436 55.6784 24.4081C56.4397 23.7825 56.875 22.8583 56.875 21.875V21.6869C56.875 20.5953 56.5556 19.5387 55.9497 18.6309L53.5938 15.097Z" fill="black"/>
<path d="M41.5625 68.9062H27.3438C25.5347 68.9062 24.0625 67.4341 24.0625 65.625C24.0625 65.0223 23.5725 64.5312 22.9688 64.5312H8.75C6.94094 64.5312 5.46875 63.0591 5.46875 61.25C5.46875 59.4409 6.94094 57.9688 8.75 57.9688H10.9375C11.5413 57.9688 12.0312 57.4777 12.0312 56.875C12.0312 56.2723 11.5413 55.7812 10.9375 55.7812H4.375C2.56594 55.7812 1.09375 54.3091 1.09375 52.5C1.09375 50.6909 2.56594 49.2188 4.375 49.2188H19.6875V51.4062H4.375C3.77125 51.4062 3.28125 51.8973 3.28125 52.5C3.28125 53.1027 3.77125 53.5938 4.375 53.5938H10.9375C12.7466 53.5938 14.2188 55.0659 14.2188 56.875C14.2188 58.6841 12.7466 60.1562 10.9375 60.1562H8.75C8.14625 60.1562 7.65625 60.6473 7.65625 61.25C7.65625 61.8527 8.14625 62.3438 8.75 62.3438H22.9688C24.7778 62.3438 26.25 63.8159 26.25 65.625C26.25 66.2277 26.74 66.7188 27.3438 66.7188H41.5625C42.1662 66.7188 42.6562 66.2277 42.6562 65.625C42.6562 65.0223 42.1662 64.5312 41.5625 64.5312H38.2812C36.4722 64.5312 35 63.0591 35 61.25C35 59.4409 36.4722 57.9688 38.2812 57.9688H51.4062C52.01 57.9688 52.5 57.4777 52.5 56.875C52.5 55.0659 53.9722 53.5938 55.7812 53.5938H61.25C61.8537 53.5938 62.3438 53.1027 62.3438 52.5C62.3438 51.8973 61.8537 51.4062 61.25 51.4062H50.3125V49.2188H61.25C63.0591 49.2188 64.5312 50.6909 64.5312 52.5C64.5312 54.3091 63.0591 55.7812 61.25 55.7812H55.7812C55.1775 55.7812 54.6875 56.2723 54.6875 56.875C54.6875 58.6841 53.2153 60.1562 51.4062 60.1562H38.2812C37.6775 60.1562 37.1875 60.6473 37.1875 61.25C37.1875 61.8527 37.6775 62.3438 38.2812 62.3438H41.5625C43.3716 62.3438 44.8438 63.8159 44.8438 65.625C44.8438 67.4341 43.3716 68.9062 41.5625 68.9062Z" fill="black"/>
</svg>
