<svg width="60" height="60" viewBox="0 0 60 60" fill="none" xmlns="http://www.w3.org/2000/svg">
<path d="M55.9627 32.3228V29.076C55.9627 26.6793 54.0128 24.7295 51.6161 24.7295H41.9309V18.069L42.2898 18.2768C42.7338 18.5343 43.2269 18.6657 43.7268 18.6657C43.9753 18.6657 44.2253 18.6333 44.4718 18.5677C45.2143 18.3698 45.8351 17.8949 46.2196 17.2302L46.9813 15.9141C47.7748 14.5429 47.3048 12.7805 45.9333 11.9851L26.0752 0.489207C24.9512 -0.163069 23.5546 -0.162952 22.4315 0.488855L2.57087 11.9854C1.19905 12.7808 0.729821 14.5436 1.52448 15.9141L2.28621 17.2301C2.67071 17.8948 3.29123 18.3698 4.03327 18.5675C4.77543 18.7655 5.55017 18.6623 6.21428 18.277L6.57476 18.0683V38.86C6.57476 39.3454 6.96816 39.739 7.45368 39.739H29.1228C29.9171 40.7868 31.1747 41.4652 32.5879 41.4652H46.4502C46.9357 41.4652 47.3291 41.0716 47.3291 40.5862C47.3291 40.1008 46.9357 39.7073 46.4502 39.7073H32.5879C31.1604 39.7073 29.9991 38.546 29.9991 37.1186V29.0759C29.9991 27.6484 31.1604 26.4872 32.5879 26.4872H51.6159C53.0434 26.4872 54.2046 27.6485 54.2046 29.0759V37.1186C54.2046 38.546 53.0434 39.7073 51.6159 39.7073H49.9659C49.4803 39.7073 49.0869 40.1008 49.0869 40.5862C49.0869 41.0716 49.4803 41.4652 49.9659 41.4652H51.6159C54.0125 41.4652 55.9624 39.5152 55.9624 37.1186V34.1801C56.6369 34.5077 57.1041 35.1976 57.1041 35.9965V40.5189C57.1041 41.6329 56.1978 42.5392 55.0838 42.5392H44.8101C42.8322 42.5392 41.2231 44.1483 41.2231 46.1263V47.5847H40.6928C39.0663 47.5847 37.743 48.908 37.743 50.5343V57.0502C37.743 58.6766 39.0663 59.9998 40.6928 59.9998H43.5114C45.1379 59.9998 46.4612 58.6765 46.4612 57.0502V50.5343C46.4612 48.9079 45.1379 47.5847 43.5114 47.5847H42.981V46.1263C42.981 45.1176 43.8016 44.297 44.8102 44.297H55.0839C57.1671 44.297 58.8621 42.6021 58.8621 40.5189V35.9965C58.8622 34.2159 57.6235 32.7199 55.9627 32.3228ZM8.33271 37.9812V17.0509L14.9437 13.2239C15.3637 12.9808 15.5073 12.443 15.264 12.023C15.0208 11.6027 14.4833 11.4593 14.0629 11.7027L5.33325 16.7561C5.0752 16.9058 4.77449 16.946 4.48609 16.8691C4.19804 16.7924 3.9571 16.6079 3.80768 16.3496L3.0456 15.033C2.73669 14.5004 2.91939 13.8154 3.45225 13.5064L23.313 2.00962C23.893 1.67329 24.6134 1.67329 25.1938 2.01009L45.0521 13.506C45.5856 13.8154 45.7685 14.5006 45.4601 15.0336L44.6983 16.3497C44.549 16.6078 44.3078 16.7922 44.0194 16.8691C43.7307 16.9461 43.4299 16.9058 43.1712 16.7559L24.6928 6.05886C24.4205 5.90113 24.0845 5.90113 23.812 6.05886L17.1006 9.94486C16.6805 10.1881 16.537 10.7258 16.7804 11.1459C17.0237 11.5661 17.5615 11.7093 17.9814 11.4662L24.2524 7.83522L40.1731 17.0516V24.7296H33.0526V18.9311C33.0526 17.0765 31.5438 15.5677 29.6893 15.5677H18.8165C16.9619 15.5677 15.4531 17.0765 15.4531 18.9311V29.3597C15.4531 31.2143 16.9619 32.7231 18.8165 32.7231H28.2415V37.1188C28.2415 37.4142 28.2714 37.7024 28.3278 37.9814H8.33271V37.9812ZM20.4083 27.7675V25.024H23.374V27.7675H20.4083ZM28.0975 20.5227V23.2662H25.1318V20.5227H28.0975ZM23.374 23.2662H20.4083V20.5227H23.374V23.2662ZM25.1318 25.0241H28.0975V27.7676H25.1318V25.0241ZM29.8554 25.6993V19.6438C29.8554 19.1584 29.4619 18.7649 28.9764 18.7649H19.5294C19.0439 18.7649 18.6505 19.1584 18.6505 19.6438V28.6464C18.6505 29.1318 19.0439 29.5253 19.5294 29.5253H28.2417V30.9651H18.8166C17.9312 30.9651 17.2111 30.2449 17.2111 29.3596V18.9309C17.2111 18.0457 17.9313 17.3254 18.8166 17.3254H29.6894C30.5748 17.3254 31.2949 18.0457 31.2949 18.9309V24.9259C30.7643 25.0916 30.2775 25.357 29.8554 25.6993ZM44.7035 50.5344V57.0503C44.7035 57.7075 44.1689 58.2421 43.5115 58.2421H40.6929C40.0357 58.2421 39.501 57.7075 39.501 57.0503V50.5344C39.501 49.8772 40.0356 49.3426 40.6929 49.3426H43.5115C44.1687 49.3426 44.7035 49.8772 44.7035 50.5344Z" fill="#F0A538"/>
</svg>
