<svg width="60" height="60" viewBox="0 0 60 60" fill="none" xmlns="http://www.w3.org/2000/svg">
<path d="M56.4131 10.0658H18.9176V12.1154H56.4131C57.2608 12.1154 57.9504 12.805 57.9504 13.6527V52.2899C57.9504 53.1375 57.2608 53.8271 56.4131 53.8271H7.47787C4.51114 53.8271 2.09755 51.4135 2.09755 48.4468V47.5553C3.9863 45.6166 6.33686 45.0489 9.09184 45.8696C11.3978 46.5568 13.1407 47.9798 13.1581 47.9941C13.8133 48.5354 14.8362 48.0529 14.8362 47.2044V11.545C14.8362 7.45262 11.5084 4.12323 7.41817 4.12323C3.32798 4.12323 0 7.45262 0 11.545L0.0479104 48.4468C0.0479104 52.5436 3.38102 55.8767 7.47787 55.8767H56.4131C58.3909 55.8767 60 54.2676 60 52.2899V13.6527C60 11.6749 58.3909 10.0658 56.4131 10.0658ZM2.04964 11.545C2.04964 8.58287 4.45798 6.17287 7.41805 6.17287C10.3781 6.17287 12.7864 8.58287 12.7864 11.545V45.275C9.49113 43.3497 5.35828 42.6221 2.04964 44.9138V11.545Z" fill="#FF5E14"/>
<path d="M52.7823 46.1077L51.7683 39.3361C51.7414 39.1565 51.6672 38.9873 51.5533 38.8457C51.5533 38.8457 33.2975 16.1466 33.2929 16.1411C31.7413 14.254 28.8624 13.743 26.9211 15.3563C25.0361 16.923 24.8269 19.8463 26.4547 21.8726L44.6586 44.5329C44.7736 44.6762 44.9253 44.7859 45.0975 44.8504L51.4088 47.219C52.1273 47.4889 52.8957 46.8646 52.7823 46.1077ZM28.0526 20.5889C27.1209 19.4291 27.201 17.7888 28.2312 16.9325C29.2988 16.0452 30.8697 16.4213 31.7043 17.4359C31.714 17.448 31.8787 17.6527 32.1671 18.0114L28.4839 21.1258L28.0526 20.5889ZM44.6527 41.2529L29.7679 22.7241L30.7959 21.8548L42.979 36.894L44.5716 35.6038L32.3615 20.5313L33.4521 19.6091C37.2123 24.2843 45.9233 35.1156 48.3259 38.103L44.6527 41.2529ZM46.0805 43.0301L45.937 42.8515L49.611 39.7009L49.7824 39.914L50.4972 44.6877L46.0805 43.0301Z" fill="#0E121D"/>
<path d="M35.3563 47.2844H25.9915C25.4255 47.2844 24.9667 46.8255 24.9667 46.2595V35.5571C24.9667 34.6336 26.1524 34.185 26.7628 34.8822L36.1276 45.5847C36.6963 46.2344 36.2173 47.2844 35.3563 47.2844ZM27.0163 45.2347H33.0979L27.0163 38.2846V45.2347Z" fill="#0E121D"/>
<path d="M46.3942 49.7944L21.508 21.3536C20.898 20.6567 19.7119 21.1046 19.7119 22.0284V50.4691C19.7119 51.0351 20.1708 51.494 20.7367 51.494H45.6229C46.4837 51.4941 46.9631 50.4444 46.3942 49.7944ZM21.7617 49.4444V46.1267H23.5305V44.0771H21.7617V41.0013H23.5305V38.9517H21.7617V35.8759H23.5305V33.8263H21.7617V30.7505H23.5305V28.7009H21.7617V24.7561L43.3645 49.4446H21.7617V49.4444Z" fill="#0E121D"/>
</svg>
