<svg width="60" height="60" viewBox="0 0 60 60" fill="none" xmlns="http://www.w3.org/2000/svg">
<g clip-path="url(#clip0_439_103322)">
<path d="M1.00022 60.116H49.0001C49.5526 60.116 50.0003 59.6683 50.0003 59.1162V50.1161H57C57.5525 50.1161 58.0002 49.6684 58.0002 49.1163V39.116C58.0002 38.5639 57.5525 38.1162 57 38.1162H50.0003V29.1161C50.0003 28.5636 49.5526 28.1159 49.0001 28.1159H47.1649C47.3059 27.4622 47.1567 26.7792 46.7561 26.2436L42.2375 20.2204L44.324 18.6553C45.251 17.9613 45.7687 16.8489 45.7033 15.6926L45.603 13.8918C45.5756 13.4033 45.7944 12.9337 46.1858 12.6402L48.2718 11.0756L49.1498 12.2456C49.3086 12.4576 49.5453 12.5981 49.8081 12.6356C49.8548 12.6421 49.9019 12.6457 49.9495 12.6453C50.166 12.6457 50.3766 12.5752 50.5496 12.4452L58.8004 6.25577C60.1252 5.26197 60.3939 3.38192 59.4001 2.05669L58.8443 1.31511C57.8492 -0.00828446 55.97 -0.276077 54.6444 0.716358L46.3945 6.90534C45.9528 7.23677 45.863 7.8639 46.1945 8.30565L47.072 9.4757L44.986 11.0408C44.059 11.7348 43.5408 12.8467 43.6067 14.003L43.7065 15.8038C43.7344 16.2923 43.5156 16.7624 43.1242 17.0554L41.0382 18.6205L36.5191 12.5972C36.0463 11.9568 35.2781 11.6038 34.4839 11.662C33.7263 11.7169 33.0493 12.1564 32.6899 12.8261L24.473 28.1159H1.00022C0.447694 28.1159 0 28.5636 0 29.1161V39.116C0 39.6685 0.447694 40.1162 1.00022 40.1162H7.99991V48.1161H1.00022C0.447694 48.1161 0 48.5638 0 49.1163V59.1162C0 59.6683 0.447694 60.116 1.00022 60.116ZM55.8446 2.31579C56.2859 1.98437 56.9126 2.07363 57.2445 2.51538L57.8002 3.25695C58.1311 3.6987 58.0414 4.32492 57.6001 4.65634L50.1491 10.2461L48.3936 7.9051L55.8446 2.31579ZM18.0002 50.1161H32.0001V58.116H18.0002V50.1161ZM26.0002 40.1162H40V48.1161H26.0002V40.1162ZM48.0003 58.116H34.0001V50.1161H48.0003V58.116ZM56.0003 48.1161H42V40.1162H56.0003V48.1161ZM48.0003 38.1162H34.0001V32.293L44.2357 30.1159H48.0003V38.1162ZM34.4523 13.7737C34.4862 13.7036 34.5567 13.6588 34.6345 13.6565L34.6542 13.6556C34.7604 13.6574 34.8588 13.71 34.9192 13.797L39.4374 19.8203L35.312 22.9152C34.8703 23.2466 34.7805 23.8733 35.112 24.3155C35.4434 24.7573 36.0701 24.8465 36.5123 24.5156L40.6377 21.4206L45.1563 27.4439C45.2281 27.5318 45.2492 27.6503 45.2112 27.757C45.1874 27.8312 45.1247 27.8856 45.0478 27.8994L25.2087 32.1181C25.0855 32.1374 24.9619 32.0847 24.891 31.9822C24.8113 31.8861 24.7953 31.7524 24.8498 31.6398L34.4523 13.7737ZM23.2916 33.1824C23.8244 33.9153 24.739 34.2646 25.6248 34.0742L32.0001 32.7183V38.1162H18.0002V30.1159H23.3978L23.0878 30.6927C22.6594 31.4905 22.7395 32.4651 23.2916 33.1824ZM1.99998 34.1163H3.99995C4.55248 34.1163 5.00017 33.6686 5.00017 33.1161C5.00017 32.564 4.55248 32.1163 3.99995 32.1163H1.99998V30.1159H16.0003V38.1162H1.99998V34.1163ZM9.99988 40.1162H24.0002V48.1161H9.99988V40.1162ZM1.99998 50.1161H16.0003V58.116H1.99998V50.1161Z" fill="#F0A538"/>
<path d="M13.0002 33.116C13.0002 32.5639 12.5525 32.1162 12 32.1162H8C7.44794 32.1162 7.00024 32.5639 7.00024 33.116C7.00024 33.6685 7.44794 34.1162 8 34.1162H12C12.5525 34.1162 13.0002 33.6685 13.0002 33.116Z" fill="#F0A538"/>
</g>
<defs>
<clipPath id="clip0_439_103322">
<rect width="60" height="60" fill="white"/>
</clipPath>
</defs>
</svg>
