<svg width="50" height="51" viewBox="0 0 50 51" fill="none" xmlns="http://www.w3.org/2000/svg">
<g clip-path="url(#clip0_439_131651)">
<path fill-rule="evenodd" clip-rule="evenodd" d="M12.8281 38.7915C12.5049 38.7915 12.2422 38.5288 12.2422 38.2056V14.8042H10.0977V37.5464C10.0977 37.8706 9.83594 38.1323 9.51172 38.1323C9.18848 38.1323 8.92578 37.8706 8.92578 37.5464V14.2183C8.92578 13.895 9.18848 13.6323 9.51172 13.6323H12.8281C13.1523 13.6323 13.4141 13.895 13.4141 14.2183V38.2056C13.4141 38.5288 13.1523 38.7915 12.8281 38.7915Z" fill="#52C306"/>
<path fill-rule="evenodd" clip-rule="evenodd" d="M40.4873 36.98C40.1641 36.98 39.9014 36.7173 39.9014 36.394V14.8042H37.7578V35.7349C37.7578 36.0591 37.4951 36.3218 37.1719 36.3218C36.8477 36.3218 36.5859 36.0591 36.5859 35.7349V14.2183C36.5859 13.895 36.8477 13.6323 37.1719 13.6323H40.4873C40.8115 13.6323 41.0732 13.895 41.0732 14.2183V36.394C41.0732 36.7173 40.8115 36.98 40.4873 36.98Z" fill="#52C306"/>
<path fill-rule="evenodd" clip-rule="evenodd" d="M37.1719 23.9839H29.3457C29.0508 23.9839 28.8018 23.7642 28.7646 23.4712C28.5264 21.5815 26.9082 20.1567 25 20.1567C23.0918 20.1567 21.4736 21.5815 21.2354 23.4712C21.1982 23.7642 20.9492 23.9839 20.6543 23.9839H12.8281C12.5049 23.9839 12.2422 23.7222 12.2422 23.3979V16.7661C12.2422 16.4419 12.5049 16.1802 12.8281 16.1802H21.9727C22.0537 16.1802 22.1348 16.1968 22.21 16.23C23.0908 16.6206 24.0293 16.8188 25 16.8188C25.9707 16.8188 26.9092 16.6206 27.79 16.23C27.8652 16.1968 27.9453 16.1802 28.0273 16.1802H37.1719C37.4951 16.1802 37.7578 16.4419 37.7578 16.7661V23.3979C37.7578 23.7222 37.4951 23.9839 37.1719 23.9839ZM29.835 22.812H36.5859V17.3521H28.1494C27.1514 17.7759 26.0928 17.9907 25 17.9907C23.9072 17.9907 22.8477 17.7759 21.8506 17.3521H13.4141V22.812H20.1641C20.6846 20.5972 22.6787 18.9849 25 18.9849C27.3213 18.9849 29.3154 20.5972 29.835 22.812Z" fill="#52C306"/>
<path fill-rule="evenodd" clip-rule="evenodd" d="M28.9873 26.354H21.0127C20.7832 26.354 20.5752 26.2202 20.4795 26.0112C20.1836 25.3618 20.0332 24.6694 20.0332 23.9507C20.0332 21.2124 22.2617 18.9849 25 18.9849C27.7383 18.9849 29.9668 21.2124 29.9668 23.9507C29.9668 24.6694 29.8164 25.3618 29.5205 26.0112C29.4248 26.2202 29.2168 26.354 28.9873 26.354ZM21.4092 25.1821H28.5908C28.7256 24.7876 28.7939 24.3755 28.7939 23.9507C28.7939 21.8589 27.0918 20.1567 25 20.1567C22.9072 20.1567 21.2051 21.8589 21.2051 23.9507C21.2051 24.3755 21.2734 24.7876 21.4092 25.1821Z" fill="#52C306"/>
<path fill-rule="evenodd" clip-rule="evenodd" d="M20.2073 36.3482C20.1604 36.3482 20.1126 36.3423 20.0647 36.3296C19.7512 36.2515 19.5598 35.9331 19.6389 35.6197L22.1399 25.6255C22.219 25.312 22.5374 25.1206 22.8509 25.1997C23.1653 25.2779 23.3557 25.5962 23.2776 25.9107L20.7757 35.9038C20.7092 36.1704 20.47 36.3482 20.2073 36.3482Z" fill="#52C306"/>
<path fill-rule="evenodd" clip-rule="evenodd" d="M30.3818 38.7036C30.1191 38.7036 29.8798 38.5259 29.8134 38.2593L26.7226 25.9107C26.6445 25.5962 26.8349 25.2779 27.1494 25.1997C27.4628 25.1206 27.7812 25.312 27.8603 25.6255L30.9511 37.9751C31.0292 38.2886 30.8388 38.607 30.5244 38.6861C30.4765 38.6978 30.4286 38.7036 30.3818 38.7036Z" fill="#52C306"/>
<path fill-rule="evenodd" clip-rule="evenodd" d="M45.3488 38.7915C43.3507 38.7915 41.6681 38.2593 40.8478 37.3667H40.8468C40.2628 36.7319 38.8351 36.3218 37.2091 36.3208C35.5841 36.3208 34.1564 36.7319 33.5714 37.3667H33.5705C32.7501 38.2593 31.0675 38.7915 29.0695 38.7915C27.0724 38.7915 25.3898 38.2593 24.5685 37.3667C23.9835 36.7319 22.5558 36.3208 20.9308 36.3208C19.3048 36.3208 17.8771 36.7319 17.2921 37.3667C16.4718 38.2593 14.7882 38.7915 12.7912 38.7915C10.7931 38.7915 9.11049 38.2593 8.29018 37.3667C8.29018 37.3667 8.29018 37.3667 8.28921 37.3667C7.70522 36.7319 6.27749 36.3218 4.65151 36.3208C3.02553 36.3208 1.5978 36.7319 1.01284 37.3667C0.794089 37.605 0.422995 37.6206 0.184714 37.4019C-0.0525909 37.1821 -0.0682159 36.812 0.150534 36.5737C0.970847 35.6821 2.65346 35.1489 4.65151 35.1489C6.64858 35.1489 8.3312 35.6812 9.15151 36.5728L9.15249 36.5737C9.73745 37.2095 11.1652 37.6196 12.7912 37.6196C14.4171 37.6196 15.8449 37.2095 16.4298 36.5737C16.4298 36.5737 16.4298 36.5737 16.4298 36.5728C17.2501 35.6812 18.9328 35.1489 20.9298 35.1489C22.9279 35.1489 24.6095 35.6812 25.4308 36.5728V36.5737C26.0158 37.2095 27.4435 37.6196 29.0695 37.6196C30.6955 37.6196 32.1232 37.2095 32.7082 36.5737C32.7082 36.5728 32.7091 36.5728 32.7091 36.5718C33.5304 35.6812 35.213 35.1489 37.2091 35.1489C39.2062 35.1489 40.8878 35.6812 41.7091 36.5728C41.7091 36.5728 41.7101 36.5728 41.7101 36.5737C42.2951 37.2085 43.7228 37.6196 45.3488 37.6196C46.9748 37.6196 48.4025 37.2085 48.9865 36.5737C49.2062 36.3354 49.5763 36.3198 49.8146 36.5386C50.0529 36.7583 50.0685 37.1284 49.8498 37.3667C49.0285 38.2593 47.3468 38.7915 45.3488 38.7915Z" fill="#52C306"/>
<path fill-rule="evenodd" clip-rule="evenodd" d="M45.3488 43.4673C43.3507 43.4673 41.6681 42.9341 40.8478 42.0425C40.8478 42.0425 40.8468 42.0425 40.8468 42.0415C40.2628 41.4067 38.8351 40.9966 37.2091 40.9966C35.5841 40.9966 34.1564 41.4067 33.5714 42.0415L33.5705 42.0425C32.7501 42.9341 31.0675 43.4673 29.0695 43.4673C27.0724 43.4673 25.3898 42.9341 24.5685 42.0425C23.9835 41.4067 22.5558 40.9966 20.9308 40.9966C19.3048 40.9966 17.8771 41.4067 17.2921 42.0425C16.4718 42.9341 14.7882 43.4673 12.7912 43.4673C10.7931 43.4673 9.11049 42.9341 8.29018 42.0425C8.29018 42.0425 8.29018 42.0425 8.28921 42.0425C7.70522 41.4067 6.27749 40.9966 4.65151 40.9966C3.02553 40.9966 1.5978 41.4067 1.01284 42.0425C0.794089 42.2808 0.422995 42.2964 0.184714 42.0767C-0.0525909 41.8579 -0.0682159 41.4868 0.150534 41.2485C0.970847 40.3569 2.65346 39.8247 4.65151 39.8247C6.64858 39.8247 8.3312 40.3569 9.15151 41.2476C9.15151 41.2485 9.15249 41.2485 9.15249 41.2485C9.73745 41.8843 11.1652 42.2944 12.7912 42.2944C14.4171 42.2944 15.8449 41.8843 16.4298 41.2485C17.2501 40.3569 18.9328 39.8247 20.9298 39.8247C22.9279 39.8247 24.6095 40.3569 25.4308 41.2476V41.2485C26.0158 41.8843 27.4435 42.2944 29.0695 42.2944C30.6955 42.2944 32.1232 41.8843 32.7082 41.2485L32.7091 41.2476C33.5304 40.356 35.213 39.8247 37.2091 39.8247C39.2062 39.8247 40.8878 40.3569 41.7091 41.2476C41.7091 41.2485 41.7101 41.2485 41.7101 41.2485C42.2951 41.8843 43.7228 42.2944 45.3488 42.2944C46.9748 42.2944 48.4025 41.8843 48.9865 41.2485C49.2062 41.0103 49.5763 40.9946 49.8146 41.2144C50.0529 41.4331 50.0685 41.8042 49.8498 42.0425C49.0285 42.9341 47.3468 43.4673 45.3488 43.4673Z" fill="#52C306"/>
<path fill-rule="evenodd" clip-rule="evenodd" d="M45.3487 48.1421C43.3516 48.1421 41.669 47.6099 40.8487 46.7192C40.8487 46.7183 40.8477 46.7183 40.8477 46.7183C40.2627 46.0825 38.835 45.6714 37.209 45.6714C35.583 45.6714 34.1553 46.0825 33.5704 46.7183C32.7491 47.6099 31.0674 48.1421 29.0694 48.1421C27.0733 48.1421 25.3907 47.6108 24.5704 46.7192C24.5694 46.7192 24.5694 46.7183 24.5684 46.7183C23.9844 46.0825 22.5557 45.6724 20.9307 45.6724C19.3047 45.6724 17.876 46.0825 17.292 46.7183C17.292 46.7183 17.2911 46.7192 17.2901 46.7192C16.4698 47.6108 14.7872 48.1421 12.7911 48.1421C10.794 48.1421 9.11234 47.6099 8.29106 46.7192L8.29008 46.7183C7.70512 46.0825 6.27738 45.6724 4.65141 45.6724C3.02641 45.6724 1.5977 46.0825 1.01371 46.7183C0.793986 46.9556 0.422892 46.9712 0.185587 46.7524C-0.0526939 46.5337 -0.0683189 46.1626 0.150431 45.9243C0.970744 45.0327 2.65336 44.4995 4.65141 44.4995C6.64945 44.4995 8.33207 45.0327 9.15238 45.9243C9.15336 45.9243 9.15336 45.9243 9.15336 45.9253C9.73832 46.5601 11.1661 46.9702 12.7911 46.9702C14.417 46.9702 15.8448 46.5601 16.4297 45.9243C16.4297 45.9233 16.4307 45.9233 16.4307 45.9224C17.252 45.0317 18.9336 44.4995 20.9307 44.4995C22.9288 44.4995 24.6114 45.0317 25.4317 45.9243V45.9253C26.0166 46.5601 27.4444 46.9702 29.0704 46.9702C30.6954 46.9702 32.1231 46.5601 32.708 45.9243C33.5284 45.0327 35.212 44.4995 37.209 44.4995C39.2071 44.4995 40.8897 45.0327 41.71 45.9243H41.711C42.2959 46.5601 43.7237 46.9702 45.3487 46.9702C46.9746 46.9702 48.4024 46.5601 48.9873 45.9243C49.2061 45.686 49.5772 45.6704 49.8155 45.8901C50.0537 46.1089 50.0694 46.48 49.8496 46.7183C49.0284 47.6099 47.3467 48.1421 45.3487 48.1421Z" fill="#52C306"/>
<path fill-rule="evenodd" clip-rule="evenodd" d="M25 17.9907C20.5547 17.9907 16.9375 14.3745 16.9375 9.92822C16.9375 5.48291 20.5547 1.8667 25 1.8667C29.4453 1.8667 33.0615 5.48291 33.0615 9.92822C33.0615 14.3745 29.4453 17.9907 25 17.9907ZM25 3.03857C21.2002 3.03857 18.1094 6.12939 18.1094 9.92822C18.1094 13.728 21.2012 16.8188 25 16.8188C28.7988 16.8188 31.8896 13.728 31.8896 9.92822C31.8896 6.12939 28.7988 3.03857 25 3.03857Z" fill="#52C306"/>
<path fill-rule="evenodd" clip-rule="evenodd" d="M24.6438 15.6411C24.594 15.6411 24.5442 15.6343 24.4944 15.6216C24.2366 15.5532 24.0579 15.3208 24.0579 15.0552V11.4126H21.9407C21.7298 11.4126 21.5345 11.2993 21.4309 11.1167C21.3265 10.9331 21.3294 10.7075 21.4378 10.5269L25.0345 4.50147C25.1702 4.27589 25.4397 4.16749 25.6936 4.23682C25.9476 4.30714 26.1243 4.53858 26.1243 4.80225V8.46046H28.0599C28.2688 8.46046 28.4612 8.57179 28.5667 8.75245C28.6712 8.93214 28.6722 9.15479 28.5696 9.33643L25.1536 15.3442C25.0472 15.5308 24.8509 15.6411 24.6438 15.6411ZM22.9729 10.2407H24.6438C24.9671 10.2407 25.2298 10.5034 25.2298 10.8267V12.8384L27.052 9.63331H25.5374C25.2142 9.63331 24.9515 9.37061 24.9515 9.04737V6.92725L22.9729 10.2407Z" fill="#52C306"/>
</g>
<defs>
<clipPath id="clip0_439_131651">
<rect width="50" height="50" fill="white" transform="translate(0 0.00439453)"/>
</clipPath>
</defs>
</svg>
