<svg width="50" height="51" viewBox="0 0 50 51" fill="none" xmlns="http://www.w3.org/2000/svg">
<g clip-path="url(#clip0_439_131706)">
<path d="M49.9688 32.6133C49.9652 32.6008 49.9617 32.5891 49.9574 32.5766C49.9364 32.5168 49.9071 32.4603 49.8703 32.4086C49.8684 32.4055 49.8676 32.402 49.8652 32.3989L42.0465 21.8672C41.9829 21.7816 41.9001 21.712 41.8048 21.664C41.7095 21.6161 41.6043 21.5911 41.4977 21.5911H8.50234C8.39566 21.5911 8.29045 21.6161 8.19515 21.664C8.09985 21.712 8.0171 21.7816 7.95352 21.8672L0.134766 32.3993C0.132422 32.4024 0.132031 32.4059 0.129687 32.409C0.0929397 32.4607 0.0636176 32.5172 0.0425781 32.577C0.0382813 32.5891 0.0347656 32.6012 0.03125 32.6137C0.0114985 32.6763 0.000971286 32.7415 0 32.8071V35.5215C0.00072361 36.117 0.237597 36.6879 0.658665 37.109C1.07973 37.53 1.65061 37.7669 2.24609 37.7676H20.9961V41.9942H18.5309C18.3687 41.9943 18.2118 42.052 18.0883 42.1571L14.1789 45.4774C14.1034 45.5415 14.0427 45.6213 14.0011 45.7112C13.9595 45.8011 13.9379 45.899 13.9379 45.9981V49.3184C13.9379 49.4997 14.0099 49.6736 14.1381 49.8018C14.2663 49.93 14.4402 50.002 14.6215 50.002H35.3781C35.5594 50.002 35.7333 49.93 35.8615 49.8018C35.9897 49.6736 36.0617 49.4997 36.0617 49.3184V45.9981C36.0617 45.899 36.0401 45.8011 35.9985 45.7112C35.9569 45.6213 35.8962 45.5415 35.8207 45.4774L31.9113 42.1571C31.7878 42.052 31.6309 41.9943 31.4688 41.9942H29.0039V37.7668H47.7539C48.3494 37.7661 48.9203 37.5292 49.3413 37.1082C49.7624 36.6871 49.9993 36.1162 50 35.5208V32.8067C49.999 32.7411 49.9885 32.6759 49.9688 32.6133ZM13.8996 32.1231L15.7656 27.6497H24.2281V32.1231H13.8996ZM2.04258 32.1231L5.36289 27.65H14.284L12.418 32.1231H2.04258ZM24.2301 22.9586V26.2829H16.3359L17.7227 22.9586H24.2301ZM32.1027 22.9586L33.4895 26.2829H25.5988V22.9586H32.1027ZM25.5953 27.6497H34.0582L35.9242 32.1227H25.5953V27.6497ZM37.4055 32.1231L35.5395 27.6497H44.6367L47.957 32.1227L37.4055 32.1231ZM43.6215 26.2829H34.9691L33.5824 22.9586H41.1535L43.6215 26.2829ZM8.84609 22.9586H16.241L14.8543 26.2829H6.37773L8.84609 22.9586ZM34.6945 46.3153V48.6372H15.3055V46.3153L18.782 43.361H31.2176L34.6945 46.3153ZM27.6367 41.9934H22.3633V37.7668H27.6367V41.9934ZM47.7539 36.3997H2.24609C2.01306 36.3994 1.78962 36.3068 1.62484 36.142C1.46006 35.9772 1.36739 35.7538 1.36719 35.5208V33.4895H48.6328V35.5208C48.6326 35.7538 48.5399 35.9772 48.3752 36.142C48.2104 36.3068 47.9869 36.3994 47.7539 36.3997Z" fill="#52C306"/>
<path d="M24.9998 14.2778C25.8842 14.2778 26.7487 14.0156 27.484 13.5242C28.2194 13.0329 28.7925 12.3345 29.1309 11.5175C29.4694 10.7004 29.5579 9.80136 29.3854 8.93398C29.2128 8.0666 28.787 7.26986 28.1616 6.64451C27.5363 6.01916 26.7395 5.59329 25.8721 5.42076C25.0048 5.24823 24.1057 5.33678 23.2886 5.67521C22.4716 6.01365 21.7732 6.58677 21.2819 7.3221C20.7906 8.05743 20.5283 8.92195 20.5283 9.80633C20.5296 10.9919 21.0011 12.1285 21.8394 12.9668C22.6777 13.8051 23.8143 14.2766 24.9998 14.2778ZM24.9998 6.70203C25.6138 6.70203 26.214 6.88409 26.7245 7.2252C27.235 7.5663 27.6328 8.05113 27.8678 8.61836C28.1028 9.1856 28.1642 9.80977 28.0445 10.4119C27.9247 11.0141 27.629 11.5673 27.1949 12.0014C26.7607 12.4355 26.2076 12.7312 25.6054 12.851C25.0032 12.9708 24.3791 12.9093 23.8118 12.6743C23.2446 12.4394 22.7598 12.0415 22.4187 11.531C22.0776 11.0205 21.8955 10.4203 21.8955 9.80633C21.8964 8.9833 22.2238 8.19425 22.8058 7.61228C23.3877 7.03032 24.1768 6.70296 24.9998 6.70203Z" fill="#52C306"/>
<path d="M24.9116 3.76416C25.0929 3.76416 25.2668 3.69214 25.395 3.56394C25.5232 3.43574 25.5952 3.26187 25.5952 3.08057V0.687988C25.5952 0.506688 25.5232 0.332813 25.395 0.204614C25.2668 0.0764158 25.0929 0.00439453 24.9116 0.00439453C24.7303 0.00439453 24.5564 0.0764158 24.4282 0.204614C24.3 0.332813 24.228 0.506688 24.228 0.687988V3.08057C24.228 3.26187 24.3 3.43574 24.4282 3.56394C24.5564 3.69214 24.7303 3.76416 24.9116 3.76416Z" fill="#52C306"/>
<path d="M24.228 16.5325V18.925C24.228 19.1063 24.3 19.2802 24.4282 19.4084C24.5564 19.5366 24.7303 19.6086 24.9116 19.6086C25.0929 19.6086 25.2668 19.5366 25.395 19.4084C25.5232 19.2802 25.5952 19.1063 25.5952 18.925V16.5325C25.5952 16.3512 25.5232 16.1773 25.395 16.0491C25.2668 15.9209 25.0929 15.8489 24.9116 15.8489C24.7303 15.8489 24.5564 15.9209 24.4282 16.0491C24.3 16.1773 24.228 16.3512 24.228 16.5325Z" fill="#52C306"/>
<path d="M29.6676 5.73413C29.7574 5.73421 29.8463 5.71655 29.9292 5.68216C30.0122 5.64777 30.0875 5.59733 30.1508 5.53374L31.8426 3.84194C31.9652 3.71266 32.0325 3.54064 32.0301 3.3625C32.0277 3.18436 31.9559 3.01418 31.83 2.88821C31.704 2.76223 31.5338 2.69042 31.3557 2.68805C31.1775 2.68568 31.0055 2.75295 30.8762 2.87554L29.1844 4.56733C29.0889 4.66293 29.0238 4.78471 28.9975 4.91727C28.9711 5.04983 28.9847 5.18722 29.0364 5.31209C29.0881 5.43696 29.1757 5.5437 29.288 5.61881C29.4004 5.69393 29.5325 5.73406 29.6676 5.73413Z" fill="#52C306"/>
<path d="M19.6728 14.079L17.981 15.7708C17.8528 15.899 17.7808 16.0729 17.7808 16.2542C17.7808 16.4355 17.8528 16.6094 17.981 16.7376C18.1092 16.8658 18.2831 16.9378 18.4644 16.9378C18.6457 16.9378 18.8196 16.8658 18.9478 16.7376L20.6396 15.0458C20.7678 14.9176 20.8398 14.7437 20.8398 14.5624C20.8398 14.3811 20.7678 14.2072 20.6396 14.079C20.5114 13.9508 20.3375 13.8788 20.1562 13.8788C19.9749 13.8788 19.801 13.9508 19.6728 14.079Z" fill="#52C306"/>
<path d="M30.9541 9.8064C30.9541 9.9877 31.0261 10.1616 31.1543 10.2898C31.2825 10.418 31.4564 10.49 31.6377 10.49H34.0303C34.2116 10.49 34.3855 10.418 34.5136 10.2898C34.6418 10.1616 34.7139 9.9877 34.7139 9.8064C34.7139 9.6251 34.6418 9.45122 34.5136 9.32302C34.3855 9.19482 34.2116 9.1228 34.0303 9.1228H31.6377C31.4564 9.1228 31.2825 9.19482 31.1543 9.32302C31.0261 9.45122 30.9541 9.6251 30.9541 9.8064Z" fill="#52C306"/>
<path d="M15.7935 10.49H18.186C18.3673 10.49 18.5412 10.418 18.6694 10.2898C18.7976 10.1616 18.8696 9.9877 18.8696 9.8064C18.8696 9.6251 18.7976 9.45122 18.6694 9.32302C18.5412 9.19482 18.3673 9.1228 18.186 9.1228H15.7935C15.6122 9.1228 15.4383 9.19482 15.3101 9.32302C15.1819 9.45122 15.1099 9.6251 15.1099 9.8064C15.1099 9.9877 15.1819 10.1616 15.3101 10.2898C15.4383 10.418 15.6122 10.49 15.7935 10.49Z" fill="#52C306"/>
<path d="M29.1843 14.0789C29.1208 14.1424 29.0704 14.2178 29.036 14.3007C29.0016 14.3836 28.9839 14.4726 28.9839 14.5623C28.9839 14.6521 29.0016 14.741 29.036 14.824C29.0704 14.9069 29.1208 14.9823 29.1843 15.0457L30.8761 16.7375C31.0043 16.8657 31.1782 16.9378 31.3595 16.9378C31.5408 16.9378 31.7147 16.8657 31.8429 16.7375C31.9711 16.6093 32.0431 16.4355 32.0431 16.2541C32.0431 16.0728 31.9711 15.8989 31.8429 15.7707L30.1511 14.0789C30.0876 14.0154 30.0123 13.965 29.9293 13.9306C29.8464 13.8962 29.7575 13.8785 29.6677 13.8785C29.5779 13.8785 29.489 13.8962 29.406 13.9306C29.3231 13.965 29.2477 14.0154 29.1843 14.0789Z" fill="#52C306"/>
<path d="M19.6727 5.53373C19.8009 5.66193 19.9748 5.73396 20.1561 5.73396C20.3374 5.73396 20.5113 5.66193 20.6395 5.53373C20.7677 5.40552 20.8397 5.23164 20.8397 5.05033C20.8397 4.86902 20.7677 4.69513 20.6395 4.56693L18.9473 2.87552C18.8191 2.74732 18.6452 2.67529 18.4639 2.67529C18.2826 2.67529 18.1087 2.74732 17.9805 2.87552C17.8523 3.00373 17.7803 3.17761 17.7803 3.35892C17.7803 3.54023 17.8523 3.71411 17.9805 3.84232L19.6727 5.53373Z" fill="#52C306"/>
</g>
<defs>
<clipPath id="clip0_439_131706">
<rect width="50" height="50" fill="white" transform="translate(0 0.00439453)"/>
</clipPath>
</defs>
</svg>
