<svg width="60" height="60" viewBox="0 0 60 60" fill="none" xmlns="http://www.w3.org/2000/svg">
<path d="M13.9998 21.9992C18.4179 21.9992 21.9995 18.4176 21.9995 13.9994C21.9995 9.58127 18.4178 5.99979 13.9998 5.99979C9.58172 5.99979 6 9.58139 6 13.9996C6.00492 18.4156 9.58359 21.9943 13.9998 21.9992ZM13.9998 7.99976C17.3134 7.99976 19.9996 10.686 19.9996 13.9996C19.9996 17.3132 17.3134 19.9994 13.9998 19.9994C10.6862 19.9994 7.99997 17.3132 7.99997 13.9996C8.00325 10.6872 10.6875 8.00304 13.9998 7.99976Z" fill="#0E121D"/>
<path d="M13.0002 0.999928V2.9999C13.0002 3.55219 13.448 3.99983 14.0002 3.99983C14.5525 3.99983 15.0001 3.55207 15.0001 2.9999V0.999928C15.0001 0.447641 14.5523 0 14.0002 0C13.448 0 13.0002 0.447759 13.0002 0.999928Z" fill="#0E121D"/>
<path d="M13.0002 24.9991V26.9991C13.0002 27.5514 13.448 27.999 14.0002 27.999C14.5525 27.999 15.0001 27.5513 15.0001 26.9991V24.9991C15.0001 24.4468 14.5523 23.9992 14.0002 23.9992C13.448 23.9992 13.0002 24.447 13.0002 24.9991Z" fill="#0E121D"/>
<path d="M27.9992 13.9996C27.9992 13.4473 27.5515 12.9996 26.9993 12.9996H24.9993C24.447 12.9996 23.9994 13.4474 23.9994 13.9996C23.9994 14.5518 24.447 14.9995 24.9993 14.9995H26.9993C27.5516 14.9995 27.9992 14.5517 27.9992 13.9996Z" fill="#0E121D"/>
<path d="M1.00017 14.9995H3.00014C3.55243 14.9995 4.00007 14.5517 4.00007 13.9996C4.00007 13.4473 3.55231 12.9996 3.00014 12.9996H1.00017C0.447886 12.9996 0.000244141 13.4474 0.000244141 13.9996C0.000244141 14.5517 0.447886 14.9995 1.00017 14.9995Z" fill="#0E121D"/>
<path d="M3.97403 18.6334L2.24112 19.6333C1.92918 19.8106 1.73617 20.1415 1.73535 20.5003C1.73453 20.8591 1.92613 21.1909 2.23725 21.3696C2.54837 21.5483 2.93145 21.5467 3.24105 21.3651L4.97396 20.3652C5.2859 20.1879 5.4789 19.857 5.47972 19.4982C5.48054 19.1394 5.28895 18.8076 4.97782 18.6289C4.6667 18.4502 4.28363 18.4518 3.97403 18.6334Z" fill="#0E121D"/>
<path d="M23.5265 9.49972C23.702 9.50007 23.8746 9.4539 24.0265 9.36578L25.7594 8.36585C26.0713 8.18855 26.2643 7.85762 26.2652 7.49881C26.266 7.13999 26.0744 6.80825 25.7633 6.62954C25.4521 6.45084 25.0691 6.45248 24.7595 6.63399L23.0265 7.63392C22.6346 7.8602 22.4436 8.32155 22.5606 8.75865C22.6777 9.19563 23.0739 9.4996 23.5265 9.49972Z" fill="#0E121D"/>
<path d="M7.63358 4.97387C7.91154 5.44811 8.5202 5.609 8.9962 5.33409C9.4722 5.0593 9.63719 4.4517 9.36544 3.97382L8.36551 2.24185C8.18821 1.92991 7.85729 1.73691 7.49847 1.73609C7.13966 1.73527 6.80791 1.92686 6.6292 2.23798C6.4505 2.54911 6.45214 2.93218 6.63366 3.24178L7.63358 4.97387Z" fill="#0E121D"/>
<path d="M18.9995 22.6592C18.5213 22.9353 18.3574 23.5469 18.6336 24.0252L19.6335 25.7572C19.8108 26.0691 20.1417 26.2621 20.5005 26.2629C20.8593 26.2638 21.1911 26.0722 21.3698 25.761C21.5485 25.4499 21.5469 25.0669 21.3653 24.7573L20.3654 23.0253C20.0893 22.5469 19.4779 22.3831 18.9995 22.6592Z" fill="#0E121D"/>
<path d="M23.025 20.3653L24.7579 21.3652C25.0675 21.5468 25.4506 21.5484 25.7617 21.3697C26.0728 21.191 26.2644 20.8592 26.2636 20.5004C26.2628 20.1416 26.0698 19.8107 25.7578 19.6334L24.0249 18.6335C23.547 18.3618 22.9396 18.5267 22.6646 19.0027C22.3897 19.4787 22.5509 20.0873 23.025 20.3653Z" fill="#0E121D"/>
<path d="M2.24112 8.36572L3.97403 9.36565C4.28363 9.54717 4.6667 9.54881 4.97782 9.3701C5.28895 9.1914 5.48054 8.85965 5.47972 8.50084C5.4789 8.14202 5.2859 7.81109 4.97396 7.63379L3.24105 6.63375C2.93145 6.45223 2.54837 6.45059 2.23725 6.6293C1.92613 6.808 1.73453 7.13975 1.73535 7.49856C1.73617 7.8575 1.92918 8.18831 2.24112 8.36572Z" fill="#0E121D"/>
<path d="M19.6336 2.24194L18.6337 3.97392C18.4521 4.28352 18.4505 4.66659 18.6292 4.97771C18.8079 5.28883 19.1397 5.48043 19.4985 5.47961C19.8573 5.47879 20.1882 5.28579 20.3655 4.97384L21.3654 3.24187C21.547 2.93227 21.5486 2.5492 21.3699 2.23808C21.1912 1.92695 20.8594 1.73536 20.5006 1.73618C20.1419 1.737 19.811 1.93 19.6336 2.24194Z" fill="#0E121D"/>
<path d="M7.63358 23.0253L6.63366 24.7572C6.45214 25.0668 6.4505 25.4499 6.6292 25.761C6.80791 26.0722 7.13966 26.2638 7.49847 26.2629C7.85729 26.2621 8.18821 26.0691 8.36551 25.7572L9.36544 24.0252C9.63707 23.5473 9.4722 22.9398 8.9962 22.6649C8.5202 22.3901 7.91166 22.551 7.63358 23.0253Z" fill="#0E121D"/>
<path d="M57.9983 52.9983H55.9983V51.9983C55.9915 50.18 54.759 48.5951 52.9984 48.1404V37.8717L59.2762 32.685C59.6835 32.3495 59.9406 31.8657 59.9907 31.3404C60.0409 30.8151 59.8798 30.2914 59.5432 29.885L58.2853 28.363C57.9499 27.9555 57.4659 27.6984 56.9406 27.6485C56.4151 27.5986 55.8916 27.76 55.4854 28.097L38.7129 41.9576C38.3056 42.2931 38.0485 42.7768 37.9983 43.3021C37.9483 43.8275 38.1093 44.3512 38.4458 44.7574L39.6988 46.2764C40.3988 47.1223 41.6519 47.2414 42.4986 46.5424L46.9985 42.8276V48.1404C45.2378 48.595 44.0054 50.18 43.9986 51.9983V52.9983H39.0069V51.9983C39.0001 50.18 37.7676 48.5951 36.007 48.1404V37.8717L42.2848 32.685C42.6921 32.3495 42.9492 31.8657 42.9994 31.3404C43.0494 30.8151 42.8884 30.2914 42.5518 29.885L41.2989 28.366C40.9635 27.9586 40.4796 27.7015 39.9542 27.6516C39.4288 27.6017 38.9052 27.763 38.499 28.1L21.7215 41.9576C21.3142 42.2931 21.0571 42.7768 21.0069 43.3021C20.9568 43.8275 21.1179 44.3512 21.4545 44.7574L22.7114 46.2794C23.4114 47.1254 24.6645 47.2444 25.5112 46.5454L30.0111 42.8295V48.1424C28.2504 48.597 27.018 50.182 27.0112 52.0003V53.0003H22.0113V51.9983C22.0045 50.18 20.7721 48.5951 19.0114 48.1404V37.8717L25.2892 32.685C25.6965 32.3495 25.9536 31.8657 26.0038 31.3404C26.0539 30.8151 25.8928 30.2914 25.5562 29.885L24.2993 28.366C23.9639 27.9586 23.48 27.7015 22.9546 27.6516C22.4292 27.6017 21.9056 27.763 21.4995 28.1L4.72204 41.9576C4.31471 42.2931 4.05761 42.7768 4.00746 43.3021C3.95742 43.8275 4.11843 44.3512 4.45498 44.7574L5.71189 46.2794C6.41195 47.1254 7.66499 47.2444 8.51176 46.5454L13.0116 42.8295V48.1424C11.2509 48.597 10.0185 50.182 10.0117 52.0003V53.0003H2.00022C0.895644 53.0003 0.000244141 53.8957 0.000244141 55.0002V58.0001C0.000244141 59.1047 0.895644 60.0001 2.00022 60.0001H57.9984C59.103 60.0001 59.9984 59.1047 59.9984 58.0001V54.9982C59.9982 53.8937 59.1029 52.9983 57.9983 52.9983ZM41.2368 44.9985L39.9859 43.4985L56.7434 29.639L58.0033 31.139L41.2368 44.9985ZM50.9986 39.5237V47.9984H48.9986V41.1756L50.9986 39.5237ZM45.9987 51.9982C45.9987 50.8937 46.8941 49.9982 47.9986 49.9982H51.9985C53.1031 49.9982 53.9985 50.8937 53.9985 51.9982V52.9981H45.9987V51.9982ZM24.2454 44.9985L22.9994 43.4985L39.7569 29.639L41.0168 31.139L24.2454 44.9985ZM34.007 39.5287V47.9984H32.0071V41.1756L34.007 39.5287ZM29.0073 51.9982C29.0073 50.8937 29.9027 49.9982 31.0073 49.9982H35.0071C36.1117 49.9982 37.0071 50.8937 37.0071 51.9982V52.9981H29.0073V51.9982ZM7.24594 44.9985L5.99993 43.4985L22.7574 29.639L24.0174 31.139L7.24594 44.9985ZM17.0077 39.5287V47.9984H15.0077V41.1756L17.0077 39.5287ZM12.0078 51.9982C12.0078 50.8937 12.9032 49.9982 14.0078 49.9982H18.0076C19.1122 49.9982 20.0076 50.8937 20.0076 51.9982V52.9981H12.0078V51.9982ZM57.9983 57.998H2.00022V54.9981H57.9984V57.998H57.9983Z" fill="#FF5E14"/>
</svg>
