<svg width="50" height="50" viewBox="0 0 50 50" fill="none" xmlns="http://www.w3.org/2000/svg">
<g clip-path="url(#clip0_439_131730)">
<path d="M24.9998 41.6668C15.8098 41.6668 8.33301 34.19 8.33301 25C8.33301 15.8101 15.8098 8.33325 24.9998 8.33325C34.1898 8.33325 41.6666 15.8101 41.6666 25C41.6666 34.19 34.1898 41.6668 24.9998 41.6668ZM24.9998 9.99989C16.7292 9.99989 9.99965 16.7294 9.99965 25C9.99965 33.2707 16.7292 40.0002 24.9998 40.0002C33.2704 40.0002 40 33.2707 40 25C40 16.7294 33.2704 9.99989 24.9998 9.99989Z" fill="#52C306"/>
<path d="M25 49.9999C24.54 49.9999 24.1665 49.6265 24.1665 49.1664V44.1665C24.1665 43.7065 24.54 43.3334 25 43.3334C25.4601 43.3334 25.8335 43.7065 25.8335 44.1665V49.1664C25.8335 49.6265 25.4601 49.9999 25 49.9999Z" fill="#52C306"/>
<path d="M25 6.66656C24.54 6.66656 24.1665 6.29349 24.1665 5.83344V0.833511C24.1665 0.373459 24.54 0 25 0C25.4601 0 25.8335 0.373459 25.8335 0.833511V5.83344C25.8335 6.29349 25.4601 6.66656 25 6.66656Z" fill="#52C306"/>
<path d="M5.83344 25.8335H0.833511C0.373459 25.8335 0 25.4601 0 25C0 24.54 0.373459 24.1665 0.833511 24.1665H5.83344C6.29349 24.1665 6.66656 24.54 6.66656 25C6.66656 25.4601 6.29349 25.8335 5.83344 25.8335Z" fill="#52C306"/>
<path d="M49.1665 25.8335H44.1666C43.7066 25.8335 43.3335 25.4601 43.3335 25C43.3335 24.54 43.7066 24.1665 44.1666 24.1665H49.1665C49.6266 24.1665 50.0001 24.54 50.0001 25C50.0001 25.4601 49.6266 25.8335 49.1665 25.8335Z" fill="#52C306"/>
<path d="M20.8332 37.5C20.705 37.5 20.5757 37.471 20.4559 37.41C20.1149 37.2368 19.936 36.8526 20.0218 36.4792L22.2858 26.6666H18.3334C18.0065 26.6666 17.7109 26.4759 17.5751 26.1799C17.4393 25.8835 17.4892 25.5348 17.7032 25.2884L28.5366 12.7884C28.7876 12.4985 29.2034 12.4176 29.5441 12.5908C29.8859 12.764 30.0651 13.1485 29.9782 13.5216L27.7141 23.3333H31.6666C31.9935 23.3333 32.2891 23.5241 32.4249 23.8201C32.5607 24.1165 32.5107 24.4652 32.2967 24.7116L21.4634 37.2116C21.3009 37.4 21.0693 37.5 20.8332 37.5ZM20.1584 25H23.3333C23.5874 25 23.8274 25.116 23.9849 25.3143C24.1432 25.5123 24.2016 25.7725 24.1451 26.0208L22.3991 33.5876L29.8416 25H26.6666C26.4126 25 26.1726 24.884 26.0143 24.6857C25.8568 24.4877 25.7976 24.2275 25.8541 23.9792L27.6009 16.4123L20.1584 25Z" fill="#52C306"/>
<path d="M42.0881 42.9219C41.8749 42.9219 41.6616 42.8399 41.4991 42.6777L37.9641 39.1427C37.6383 38.8169 37.6383 38.2901 37.9641 37.9643C38.2898 37.6385 38.8166 37.6385 39.1424 37.9643L42.6775 41.4994C43.0033 41.8252 43.0033 42.3516 42.6775 42.6777C42.515 42.8399 42.3014 42.9219 42.0881 42.9219Z" fill="#52C306"/>
<path d="M11.4477 12.2799C11.2344 12.2799 11.0208 12.1983 10.8583 12.0358L7.32246 8.50069C6.99668 8.17492 6.99668 7.64849 7.32246 7.32233C7.64747 6.99656 8.17504 6.99656 8.50082 7.32233L12.0367 10.8574C12.3628 11.1832 12.3628 11.71 12.0367 12.0358C11.8742 12.199 11.6601 12.2799 11.4477 12.2799Z" fill="#52C306"/>
<path d="M7.91183 42.9219C7.69859 42.9219 7.48496 42.8399 7.32246 42.6777C6.99668 42.3516 6.99668 41.8252 7.32246 41.4994L10.8583 37.9643C11.1845 37.6385 11.7116 37.6385 12.0367 37.9643C12.3628 38.2901 12.3628 38.8169 12.0367 39.1427L8.50082 42.6777C8.33831 42.8399 8.12507 42.9219 7.91183 42.9219Z" fill="#52C306"/>
<path d="M38.553 12.2799C38.3398 12.2799 38.1266 12.1983 37.9641 12.0358C37.6383 11.71 37.6383 11.1832 37.9641 10.8574L41.4991 7.32233C41.8249 6.99656 42.3513 6.99656 42.6775 7.32233C43.0033 7.64849 43.0033 8.17492 42.6775 8.50069L39.1424 12.0358C38.9791 12.199 38.7663 12.2799 38.553 12.2799Z" fill="#52C306"/>
</g>
<defs>
<clipPath id="clip0_439_131730">
<rect width="50" height="50" fill="white"/>
</clipPath>
</defs>
</svg>
