<svg width="60" height="60" viewBox="0 0 60 60" fill="none" xmlns="http://www.w3.org/2000/svg">
<g clip-path="url(#clip0_439_80521)">
<path d="M8.55469 50.625C7.90758 50.625 7.38281 51.1498 7.38281 51.7969C7.38281 52.444 7.90758 52.9688 8.55469 52.9688H12.0703C12.7174 52.9688 13.2422 52.444 13.2422 51.7969C13.2422 51.1498 12.7174 50.625 12.0703 50.625H8.55469Z" fill="#0E121D"/>
<path d="M22.6172 50.625H19.1016C18.4545 50.625 17.9297 51.1498 17.9297 51.7969C17.9297 52.444 18.4545 52.9688 19.1016 52.9688H22.6172C23.2643 52.9688 23.7891 52.444 23.7891 51.7969C23.7891 51.1498 23.2643 50.625 22.6172 50.625Z" fill="#0E121D"/>
<path d="M33.1641 52.9688C33.8112 52.9688 34.3359 52.444 34.3359 51.7969C34.3359 51.1498 33.8112 50.625 33.1641 50.625H29.6484C29.0013 50.625 28.4766 51.1498 28.4766 51.7969C28.4766 52.444 29.0013 52.9688 29.6484 52.9688H33.1641Z" fill="#0E121D"/>
<path d="M21.4453 60C22.0925 60 22.6172 59.4753 22.6172 58.8281C22.6172 58.1809 22.0925 57.6562 21.4453 57.6562C20.7981 57.6562 20.2734 58.1809 20.2734 58.8281C20.2734 59.4753 20.7981 60 21.4453 60Z" fill="#0E121D"/>
<path d="M59.4507 29.7103C59.109 29.496 58.6812 29.4725 58.3178 29.6482L52.6172 32.4066V27.1875C52.6172 26.7825 52.4081 26.4063 52.0642 26.1925C51.7204 25.9785 51.2906 25.9574 50.9272 26.1363L30.0117 36.4463L27.6591 18.6942C27.6891 17.4278 28.7264 16.4062 30 16.4062H38.7891C42.343 16.4062 45.2344 13.5149 45.2344 9.96094C45.2344 4.28227 40.9521 0 35.2734 0C32.1066 0 29.1318 1.52168 27.2661 4.03547C26.4688 3.69328 25.6078 3.51562 24.7266 3.51562C22.2862 3.51562 20.0735 4.89867 18.984 7.03125H11.7188C7.19555 7.03125 3.51562 10.7112 3.51562 15.2344V18.671L0.0105469 44.6087C0.0065625 44.6381 0 44.7441 0 44.7656V58.8281C0 59.4752 0.524766 60 1.17188 60H16.1719C16.819 60 17.3438 59.4752 17.3438 58.8281C17.3438 58.181 16.819 57.6562 16.1719 57.6562H2.34375V45.9375H37.0312C37.6784 45.9375 38.2031 45.4127 38.2031 44.7656V41.9849L57.6562 32.572V57.6562H52.6172V48.2812C52.6172 47.6341 52.0924 47.1094 51.4453 47.1094H44.4141C43.767 47.1094 43.2422 47.6341 43.2422 48.2812V57.6562H26.7188C26.0716 57.6562 25.5469 58.181 25.5469 58.8281C25.5469 59.4752 26.0716 60 26.7188 60H58.8281C59.4752 60 60 59.4752 60 58.8281V30.7031C60 30.2998 59.7925 29.9245 59.4507 29.7103ZM5.85938 15.2344C5.85938 12.0035 8.48789 9.375 11.7188 9.375H19.7531C20.2496 9.375 20.6925 9.06199 20.858 8.59383C21.4362 6.95824 22.9908 5.85938 24.7266 5.85938C25.5416 5.85938 26.3291 6.09773 27.0039 6.54891C27.2734 6.72914 27.6057 6.78984 27.9212 6.7159C28.2369 6.6423 28.5081 6.44121 28.6702 6.16043C30.0285 3.80613 32.5588 2.34375 35.2734 2.34375C39.6871 2.34375 42.8906 5.54731 42.8906 9.96094C42.8906 12.2225 41.0507 14.0625 38.7891 14.0625H30C27.8198 14.0625 25.9825 15.5586 25.4609 17.5781H20.1252C19.6036 15.5586 17.7662 14.0625 15.5861 14.0625C13.4059 14.0625 11.5686 15.5586 11.0469 17.5781H5.85938V15.2344ZM2.51273 43.5938L5.7116 19.9219H11.0461L14.245 43.5938H2.51273ZM13.2451 18.6926C13.2761 17.4268 14.3129 16.4062 15.5859 16.4062C16.8589 16.4062 17.8958 17.4268 17.9268 18.6926L15.5859 36.0149L13.2451 18.6926ZM25.3125 39.4922V43.5938H16.9268L20.1257 19.9219H25.4575L27.7924 37.5403L25.9659 38.4411C25.5659 38.6386 25.3125 39.0459 25.3125 39.4922ZM50.2734 33.5406L36.5209 40.1951C36.1162 40.3909 35.8594 40.8007 35.8594 41.25V43.5938H27.6562V40.2209L50.2734 29.0716V33.5406ZM50.2734 57.6562H45.5859V49.4531H50.2734V57.6562Z" fill="#FF5E14"/>
</g>
<defs>
<clipPath id="clip0_439_80521">
<rect width="60" height="60" fill="white"/>
</clipPath>
</defs>
</svg>
