<svg width="70" height="70" viewBox="0 0 70 70" fill="none" xmlns="http://www.w3.org/2000/svg">
<path fill-rule="evenodd" clip-rule="evenodd" d="M16.2251 39.6456C17.2587 39.8915 18.2459 40.3014 19.1506 40.8584L21.0517 40.014L23.2922 42.2546L22.4481 44.1551C23.0054 45.0599 23.4153 46.0476 23.6612 47.0814L25.6007 47.8279V50.9965L23.6608 51.7431C23.4149 52.7767 23.0051 53.764 22.448 54.6686L23.2924 56.5697L21.0518 58.8103L19.1514 57.9662C18.2466 58.5234 17.259 58.9332 16.2251 59.1791L15.4786 61.1186H12.3099L11.5631 59.1787C10.5295 58.9328 9.54242 58.5229 8.63762 57.9659L6.73668 58.8103L4.49613 56.5697L5.34023 54.6692C4.78297 53.7644 4.37322 52.7767 4.12713 51.7429L2.1875 50.9965V47.8279L4.12727 47.0813C4.37322 46.0477 4.78297 45.0603 5.34023 44.1555L4.496 42.2547L6.73654 40.0142L8.63748 40.8585C9.54215 40.3016 10.5294 39.8917 11.563 39.6457L12.3097 37.7058H15.4782L16.2251 39.6456Z" fill="#FFE177"/>
<path fill-rule="evenodd" clip-rule="evenodd" d="M8.63764 57.9659L6.7367 58.8103L6.44398 58.5176L8.22639 57.726C8.3616 57.8092 8.49873 57.8892 8.63764 57.9659ZM16.2251 39.6456C17.2587 39.8916 18.246 40.3014 19.1506 40.8584L18.6103 41.0984C17.7056 40.5412 16.307 39.8916 15.2734 39.6456L14.5267 37.7057H15.4785L16.2251 39.6456ZM19.1512 57.9662C18.2464 58.5234 17.2587 58.9332 16.2248 59.1791L15.4784 61.1186H14.5265L15.273 59.1791C16.3069 58.9332 17.7058 58.2834 18.6107 57.7261L19.1512 57.9662ZM6.44385 40.3068L6.73656 40.014L8.6375 40.8584C8.49859 40.9351 8.36146 41.0151 8.22611 41.0984L6.44385 40.3068ZM20.3926 40.3068L21.0517 40.014L23.2922 42.2546L22.4481 44.1551C23.0054 45.0599 23.4153 46.0476 23.6612 47.0815L25.6007 47.8279V50.9965L23.6608 51.7432C23.4149 52.7767 23.0051 53.764 22.448 54.6687L23.2924 56.5697L21.0518 58.8103L20.3929 58.5176L22.3407 56.5697L21.4964 54.6687C22.0534 53.764 22.4633 52.7767 22.7093 51.7432L24.6492 50.9965V47.8279L22.7097 47.0815C22.4637 46.0476 22.054 45.0601 21.4967 44.1551L22.3407 42.2546L20.3926 40.3068Z" fill="#FFD064"/>
<path fill-rule="evenodd" clip-rule="evenodd" d="M13.8943 43.8865C10.8423 43.8865 8.36865 46.3601 8.36865 49.4121C8.36865 52.4641 10.8423 54.9377 13.8943 54.9377C16.9462 54.9377 19.4199 52.4641 19.4199 49.4121C19.4199 46.3601 16.9462 43.8865 13.8943 43.8865Z" fill="#ECEFF1"/>
<path fill-rule="evenodd" clip-rule="evenodd" d="M13.8943 43.8865C10.8423 43.8865 8.36865 46.3601 8.36865 49.4121C8.36865 52.4641 10.8423 54.9377 13.8943 54.9377C14.0422 54.9377 14.1888 54.9317 14.3338 54.9204C11.4875 54.6964 9.24775 52.3161 9.24775 49.4121C9.24775 46.5081 11.4875 44.1278 14.3338 43.9038C14.1888 43.8925 14.0422 43.8865 13.8943 43.8865Z" fill="#D1D1D6"/>
<path fill-rule="evenodd" clip-rule="evenodd" d="M13.8942 47.916C13.0677 47.916 12.3979 48.5858 12.3979 49.4123C12.3979 50.2387 13.0677 50.9085 13.8942 50.9085C14.7207 50.9085 15.3904 50.2387 15.3904 49.4123C15.3904 48.5858 14.7207 47.916 13.8942 47.916Z" fill="#FFE177"/>
<path fill-rule="evenodd" clip-rule="evenodd" d="M13.8942 47.916C13.0677 47.916 12.3979 48.5858 12.3979 49.4123C12.3979 50.2387 13.0677 50.9085 13.8942 50.9085C14.004 50.9085 14.111 50.8966 14.2141 50.8742C13.5415 50.7276 13.0378 50.1289 13.0378 49.4124C13.0378 48.6957 13.5415 48.097 14.2141 47.9506C14.111 47.9279 14.0041 47.916 13.8942 47.916Z" fill="#FFD064"/>
<path fill-rule="evenodd" clip-rule="evenodd" d="M44.0853 52.4778L40.9213 55.6418L17.6615 32.3821L14.214 31.1062L10.584 25.3044L13.7479 22.1405L19.5499 25.7705L20.8256 29.2182L44.0853 52.4778Z" fill="#D8ECFE"/>
<path fill-rule="evenodd" clip-rule="evenodd" d="M44.0854 52.4778L42.8559 53.7074L19.5962 30.4477L18.3205 27L12.5186 23.37L13.7481 22.1405L19.55 25.7705L20.8257 29.2182L44.0854 52.4778Z" fill="#C4E2FF"/>
<path fill-rule="evenodd" clip-rule="evenodd" d="M51.0847 57.4051L45.8485 62.6413C45.5779 62.9118 45.1354 62.9118 44.8649 62.6413L32.3239 50.1001C31.7924 49.5687 31.7924 48.6992 32.3239 48.1679L36.6112 43.8805C37.1427 43.3491 38.0122 43.3491 38.5435 43.8805L51.0847 56.4217C51.3552 56.6921 51.3552 57.1347 51.0847 57.4051Z" fill="#F1BA84"/>
<path fill-rule="evenodd" clip-rule="evenodd" d="M51.0849 57.4051L45.8489 62.6412C45.5783 62.9118 45.1357 62.9118 44.8653 62.6412L44.1276 61.9035L48.6259 57.4051C48.8963 57.1346 48.8963 56.692 48.6259 56.4216L36.3481 44.1438L36.6115 43.8805C37.1429 43.3491 38.0124 43.3491 38.5439 43.8805L51.0849 56.4216C51.3555 56.692 51.3555 57.1347 51.0849 57.4051Z" fill="#E3A76F"/>
<path fill-rule="evenodd" clip-rule="evenodd" d="M54.3977 31.5016C53.3693 28.983 53.8772 25.9841 55.9214 23.9396C57.8412 22.0199 60.6028 21.4552 63.0179 22.2451L58.0658 27.1974L59.0059 30.7063L62.5148 31.6464L67.4672 26.6942C68.257 29.1093 67.6923 31.8709 65.7727 33.7907C63.7283 35.835 60.7294 36.3428 58.2106 35.3144L40.0421 53.483C41.0705 56.0017 40.5627 59.0005 38.5183 61.0448C36.5985 62.9647 33.8371 63.5292 31.4219 62.7394L36.3742 57.7872L35.434 54.2783L31.9251 53.3381L26.9728 58.2903C26.183 55.8751 26.7477 53.1137 28.6675 51.1939C30.7117 49.1494 33.7106 48.6416 36.2294 49.67L54.3977 31.5016Z" fill="#9FACBA"/>
<path fill-rule="evenodd" clip-rule="evenodd" d="M53.9739 29.9977C53.9687 29.9658 53.9635 29.9338 53.9587 29.9016C53.9693 29.9282 53.9796 29.9548 53.9904 29.9812L53.9739 29.9977ZM61.4126 21.9227C61.956 21.9668 62.4952 22.0741 63.0181 22.2451L58.0659 27.1975L58.5987 29.1859H58.5986L57.6585 25.677L61.4126 21.9227ZM67.3822 26.7793C67.5415 28.7454 66.8694 30.7661 65.3653 32.2703C63.321 34.3146 60.322 34.8226 57.8034 33.794L39.6187 51.9787C39.8175 52.4656 39.9587 52.9703 40.0427 53.4826L58.2108 35.3145C60.7296 36.3429 63.7284 35.835 65.7727 33.7907C67.6924 31.8709 68.2571 29.1093 67.4672 26.6942L67.3822 26.7793ZM40.0738 53.5625C41.0595 56.0647 40.5412 59.0219 38.5184 61.0447C36.5986 62.9646 33.8371 63.5291 31.4219 62.7392L32.6198 61.5412C34.586 61.7005 36.6068 61.0284 38.111 59.5242C39.7355 57.8999 40.3897 55.6727 40.0738 53.5625ZM35.434 54.2782L35.0266 52.7577L31.5177 51.8176L26.6504 56.6848C26.6944 57.2282 26.8019 57.7674 26.9729 58.2903L31.9251 53.3381L35.434 54.2782Z" fill="#8D9CA8"/>
<path fill-rule="evenodd" clip-rule="evenodd" d="M40.5679 9.25525C41.8146 9.55193 43.0054 10.0462 44.0967 10.7183L46.3899 9.69973L49.0926 12.4024L48.0744 14.6947C48.7467 15.7862 49.2409 16.9775 49.5377 18.2246L51.8772 19.1251V22.9472L49.5372 23.8479C49.2404 25.0948 48.7461 26.2855 48.0741 27.3768L49.0926 29.67L46.3899 32.3726L44.0975 31.3545C43.0061 32.0267 41.8147 32.521 40.5677 32.8176L39.6673 35.1572H35.8452L34.9445 32.8171C33.6976 32.5204 32.5069 32.026 31.4156 31.3541L29.1225 32.3725L26.4198 29.6698L27.4379 27.3775C26.7657 26.286 26.2715 25.0947 25.9748 23.8477L23.6353 22.9472V19.1251L25.9751 18.2244C26.2717 16.9775 26.7661 15.7866 27.4381 14.6953L26.4198 12.4024L29.1225 9.69959L31.4156 10.7181C32.5069 10.0462 33.6978 9.55193 34.9445 9.25512L35.8453 6.91504H39.6673L40.5679 9.25525Z" fill="#FFE177"/>
<path fill-rule="evenodd" clip-rule="evenodd" d="M31.4157 31.354L29.1225 32.3725L28.7695 32.0193L30.9194 31.0645C31.0827 31.1651 31.2482 31.2616 31.4157 31.354ZM40.5681 9.25524C41.8148 9.55192 43.0056 10.0462 44.0969 10.7183L43.4451 11.0077C42.3538 10.3357 40.6667 9.55206 39.4199 9.25524L38.5194 6.91516H39.6674L40.5681 9.25524ZM44.0978 31.3543C43.0063 32.0266 41.815 32.5208 40.5679 32.8175L39.6675 35.157H38.5195L39.4201 32.8175C40.6671 32.5208 42.3546 31.737 43.446 31.0647L44.0978 31.3543ZM28.7695 10.0529L29.1225 9.69971L31.4157 10.7183C31.2481 10.8107 31.0827 10.9072 30.9194 11.0077L28.7695 10.0529ZM45.5951 10.0529L46.3901 9.69971L49.0928 12.4024L48.0746 14.6947C48.7469 15.7862 49.2411 16.9775 49.5379 18.2245L51.8775 19.1251V22.9472L49.5374 23.8479C49.2406 25.0948 48.7463 26.2855 48.0744 27.3768L49.0928 29.6699L46.3901 32.3726L45.5951 32.0195L47.9446 29.6698L46.9262 27.3766C47.5982 26.2853 48.0924 25.0945 48.3892 23.8478L50.7293 22.9471V19.125L48.3898 18.2244C48.0929 16.9772 47.5987 15.786 46.9265 14.6946L47.9446 12.4022L45.5951 10.0529Z" fill="#FFD064"/>
<path d="M42.4623 25.7503C45.0649 23.1478 45.0649 18.9282 42.4623 16.3256C39.8598 13.723 35.6401 13.723 33.0376 16.3256C30.435 18.9282 30.435 23.1478 33.0376 25.7503C35.6401 28.3529 39.8598 28.3529 42.4623 25.7503Z" fill="#ECEFF1"/>
<path fill-rule="evenodd" clip-rule="evenodd" d="M37.756 14.3708C34.0746 14.3708 31.0908 17.3547 31.0908 21.0362C31.0908 24.7176 34.0747 27.7013 37.756 27.7013C37.9344 27.7013 38.1112 27.6942 38.2862 27.6804C34.8526 27.4103 32.1511 24.539 32.1511 21.0362C32.1511 17.5332 34.8528 14.6619 38.2862 14.3918C38.1113 14.378 37.9344 14.3708 37.756 14.3708Z" fill="#D1D1D6"/>
<path d="M38.1669 22.7777C39.1367 22.5485 39.7371 21.5764 39.5079 20.6065C39.2786 19.6367 38.3065 19.0363 37.3367 19.2656C36.3668 19.4948 35.7664 20.4669 35.9957 21.4368C36.2249 22.4066 37.197 23.007 38.1669 22.7777Z" fill="#FFE177"/>
<path fill-rule="evenodd" clip-rule="evenodd" d="M37.756 19.2313C36.7592 19.2313 35.9512 20.0393 35.9512 21.0361C35.9512 22.033 36.7592 22.841 37.756 22.841C37.8885 22.841 38.0175 22.8266 38.142 22.7995C37.3305 22.6228 36.7229 21.9006 36.7229 21.0361C36.7229 20.1718 37.3305 19.4495 38.142 19.2727C38.0175 19.2457 37.8885 19.2313 37.756 19.2313Z" fill="#FFD064"/>
<path fill-rule="evenodd" clip-rule="evenodd" d="M13.8911 49.8118C13.6697 49.8118 13.4888 49.6316 13.4888 49.4096C13.4888 49.1882 13.6697 49.008 13.8911 49.008C14.1138 49.008 14.2945 49.1882 14.2945 49.4096C14.2945 49.6316 14.1138 49.8118 13.8911 49.8118ZM13.8911 46.8208C12.4637 46.8208 11.3016 47.9817 11.3016 49.4097C11.3016 50.839 12.4638 51.9992 13.8911 51.9992C15.3196 51.9992 16.4819 50.8388 16.4819 49.4097C16.4819 47.9817 15.3196 46.8208 13.8911 46.8208ZM13.8911 53.8423C16.3352 53.8423 18.3229 51.8544 18.3229 49.4097C18.3229 46.9656 16.335 44.9778 13.8911 44.9778C11.4476 44.9778 9.45973 46.9657 9.45973 49.4097C9.45973 51.8544 11.4476 53.8423 13.8911 53.8423ZM13.8911 42.7898C10.2416 42.7898 7.2725 45.7596 7.2725 49.4097C7.2725 53.0604 10.2418 56.0302 13.8911 56.0302C17.541 56.0302 20.511 53.0604 20.511 49.4097C20.511 45.7596 17.541 42.7898 13.8911 42.7898ZM24.5047 50.2423V48.5756L23.2659 48.1001C22.9293 47.9701 22.6777 47.6831 22.5947 47.3317C22.376 46.4115 22.0117 45.5337 21.5142 44.7261C21.3257 44.4197 21.2998 44.0382 21.446 43.7088L21.9847 42.4945L20.8064 41.3162L19.5921 41.8568C19.2626 42.0023 18.881 41.9764 18.5748 41.7879C17.7672 41.2905 16.8894 40.9269 15.9692 40.7081C15.619 40.6244 15.3321 40.3729 15.2021 40.0363L14.7252 38.7975H13.0583L12.5807 40.0363C12.4514 40.3729 12.1637 40.6244 11.8143 40.7081C10.8928 40.9269 10.0163 41.2905 9.20803 41.7879C8.90178 41.9764 8.52074 42.0023 8.19125 41.8568L6.97555 41.3162L5.79854 42.4945L6.33721 43.7088C6.48336 44.0383 6.45752 44.4199 6.26844 44.7275C5.77092 45.5358 5.40738 46.4116 5.18863 47.3319C5.10564 47.6832 4.85395 47.9702 4.51748 48.1002L3.27867 48.5757V50.2425L4.51748 50.72C4.85408 50.85 5.10564 51.137 5.18863 51.4884C5.40738 52.4086 5.77105 53.2857 6.26844 54.094C6.45766 54.4002 6.48336 54.7819 6.33721 55.1114L5.79854 56.3258L6.97678 57.504L8.19111 56.9641C8.52061 56.8174 8.90164 56.8438 9.20789 57.0323C10.0162 57.5297 10.8939 57.8934 11.8142 58.1121C12.1636 58.1958 12.4513 58.4474 12.5806 58.7833L13.0582 60.0233H14.7249L15.2018 58.7845C15.3304 58.4474 15.6188 58.197 15.9689 58.1134C16.8904 57.8932 17.7669 57.5309 18.5745 57.0322C18.8827 56.8437 19.2623 56.8185 19.5932 56.9652L20.8062 57.5039L21.9844 56.3256L21.4457 55.1101C21.2997 54.7806 21.3242 54.4002 21.5139 54.0927C22.0113 53.2851 22.3755 52.4086 22.5944 51.4884C22.6774 51.137 22.9278 50.85 23.2656 50.72L24.5047 50.2423ZM25.9905 52.0146C26.4133 51.8518 26.6919 51.4471 26.6919 50.9947V47.8254C26.6919 47.373 26.4133 46.967 25.9905 46.8054L24.5715 46.259C24.3502 45.5054 24.0478 44.7777 23.6719 44.0878L24.2896 42.6959C24.4731 42.2827 24.3823 41.7987 24.0631 41.4789L21.8217 39.2388C21.5019 38.9183 21.0192 38.8282 20.6054 39.0122L19.2135 39.6299C18.5229 39.2534 17.7964 38.9524 17.0437 38.7303L16.4966 37.3101C16.3338 36.8879 15.9284 36.6093 15.4754 36.6093H12.3073C11.8549 36.6093 11.4488 36.8879 11.2867 37.3101L10.7397 38.7303C9.98609 38.9524 9.26025 39.2536 8.56969 39.6299L7.17775 39.0122C6.76391 38.8282 6.28143 38.9183 5.95959 39.2388L3.72014 41.4789C3.40021 41.7987 3.31012 42.2827 3.49359 42.6959L4.11129 44.0878C3.73545 44.7777 3.43303 45.5054 3.21168 46.259L1.79268 46.8054C1.36994 46.967 1.09131 47.3729 1.09131 47.8254V50.9947C1.09131 51.4471 1.36994 51.8531 1.79268 52.0146L3.21168 52.5616C3.43303 53.3145 3.73545 54.0417 4.11129 54.7328L3.49359 56.1229C3.31012 56.5373 3.40021 57.0212 3.72014 57.341L5.96082 59.5817C6.28129 59.9016 6.76527 59.9923 7.17762 59.8076L8.56955 59.1892C9.26012 59.567 9.98596 59.8675 10.7396 60.0888L11.2866 61.5097C11.4487 61.9319 11.8548 62.2112 12.3072 62.2112H15.4752C15.9283 62.2112 16.3337 61.9319 16.4965 61.5097L17.0435 60.0902C17.7964 59.8675 18.5229 59.567 19.2147 59.1892L20.6054 59.8076C21.0179 59.9923 21.5019 59.9015 21.8217 59.5817L24.0631 57.341C24.3823 57.0212 24.4731 56.5373 24.2896 56.1241L23.6719 54.7328C24.0478 54.0411 24.3502 53.3145 24.5715 52.5616L25.9905 52.0146ZM37.7541 20.3227C38.1459 20.3227 38.4646 20.6419 38.4646 21.0337C38.4646 21.4262 38.1461 21.7455 37.7541 21.7455C37.3616 21.7455 37.043 21.4262 37.043 21.0337C37.043 20.6418 37.3614 20.3227 37.7541 20.3227ZM37.7541 23.9327C39.3519 23.9327 40.6525 22.6321 40.6525 21.0336C40.6525 19.4358 39.3519 18.1352 37.7541 18.1352C36.1556 18.1352 34.8556 19.4356 34.8556 21.0336C34.8556 22.6321 36.1556 23.9327 37.7541 23.9327ZM37.7541 15.462C34.682 15.462 32.1812 17.9614 32.1812 21.0343C32.1812 24.1065 34.6819 26.6058 37.7541 26.6058C40.8256 26.6058 43.3251 24.1065 43.3251 21.0343C43.325 17.9615 40.8256 15.462 37.7541 15.462ZM37.7541 28.7932C42.0316 28.7932 45.513 25.3123 45.513 21.0343C45.513 16.7555 42.0316 13.2741 37.7541 13.2741C33.4746 13.2741 29.9939 16.7555 29.9939 21.0343C29.9938 25.3125 33.4746 28.7932 37.7541 28.7932ZM24.726 19.8741V22.1939L26.3651 22.8246C26.7017 22.9539 26.9533 23.2416 27.0363 23.5923C27.3059 24.7268 27.7545 25.8066 28.3664 26.8015C28.5556 27.1091 28.5813 27.49 28.4352 27.8195L27.7215 29.4251L29.3619 31.0662L30.968 30.3525C31.2982 30.2065 31.6791 30.2315 31.9855 30.4207C32.9823 31.034 34.0609 31.4812 35.1947 31.7508C35.5454 31.8345 35.833 32.0854 35.9624 32.422L36.5931 34.061H38.9129L39.5448 32.4225C39.6729 32.0859 39.9606 31.8351 40.312 31.7514C41.4464 31.4811 42.5262 31.0339 43.5218 30.4212C43.8282 30.2315 44.2098 30.2063 44.5392 30.3523L46.1453 31.066L47.7857 29.425L47.072 27.8181C46.926 27.4886 46.9503 27.1083 47.1409 26.8013C47.7536 25.8052 48.2001 24.726 48.4711 23.5921C48.5547 23.2415 48.8044 22.9544 49.141 22.8245L50.7801 22.1938V19.8739L49.1423 19.2427C48.8064 19.1134 48.5547 18.8263 48.4712 18.4756C48.2021 17.3411 47.7537 16.2612 47.1411 15.2657C46.9506 14.9588 46.9261 14.5777 47.0721 14.2484L47.7858 12.6422L46.1455 11.0019L44.5379 11.7155C44.2084 11.8615 43.8281 11.8365 43.5206 11.6473C42.525 11.034 41.4464 10.5868 40.312 10.3172C39.962 10.2335 39.6748 9.98248 39.5448 9.64602L38.9129 8.00635H36.5931L35.9624 9.64602C35.833 9.98262 35.5454 10.2335 35.1947 10.3172C34.0608 10.5868 32.9823 11.034 31.9855 11.6473C31.6791 11.8365 31.2982 11.8615 30.968 11.7155L29.3619 11.0019L27.7215 12.6422L28.4352 14.2491C28.5813 14.5786 28.5556 14.9595 28.3664 15.2664C27.7545 16.2613 27.3059 17.3411 27.0363 18.4756C26.9533 18.8263 26.7016 19.1132 26.3651 19.2427L24.726 19.8741ZM23.2395 23.9655L25.0567 24.6651C25.3328 25.6329 25.7183 26.5635 26.208 27.4438L25.4178 29.2237C25.2345 29.6376 25.3232 30.1214 25.6431 30.4413L28.3466 33.1441C28.6664 33.4639 29.1504 33.554 29.5648 33.37L31.3447 32.5791C32.225 33.0688 33.1562 33.4549 34.1228 33.7309L34.823 35.5482C34.9839 35.9704 35.3899 36.2483 35.843 36.2483H39.6655C40.118 36.2483 40.5228 35.9704 40.6856 35.5475L41.3857 33.7315C42.3523 33.4548 43.2829 33.0694 44.1639 32.5796L45.9438 33.3699C46.3582 33.5539 46.8415 33.4638 47.162 33.144L49.8635 30.4412C50.1833 30.1214 50.2734 29.6374 50.0906 29.2236L49.2985 27.443C49.7894 26.5626 50.175 25.6314 50.451 24.6648L52.2683 23.9653C52.6912 23.8031 52.9684 23.3971 52.9684 22.9446V19.1228C52.9684 18.6697 52.6912 18.2644 52.2683 18.1015L50.451 17.4026C50.175 16.4348 49.7894 15.5043 49.2997 14.6239L50.0906 12.844C50.2734 12.4303 50.1833 11.9463 49.8635 11.6265L47.162 8.92373C46.8415 8.60395 46.3582 8.51385 45.9438 8.69787L44.1639 9.48879C43.2829 8.99906 42.3523 8.61297 41.3857 8.33693L40.6856 6.51967C40.5228 6.09748 40.118 5.81885 39.6655 5.81885H35.843C35.3899 5.81885 34.9839 6.09748 34.823 6.51967L34.1228 8.33693C33.1562 8.61297 32.225 8.99906 31.3447 9.48879L29.5648 8.69787C29.1504 8.51385 28.6664 8.60395 28.3466 8.92373L25.6431 11.6265C25.3233 11.9463 25.2345 12.4303 25.4178 12.844L26.208 14.6239C25.7183 15.505 25.3329 16.4348 25.0567 17.4026L23.2395 18.1021C22.8173 18.2642 22.5381 18.6696 22.5381 19.1227V22.9445C22.538 23.3973 22.8173 23.8034 23.2395 23.9655ZM64.9968 33.0154C63.3204 34.6923 60.8172 35.1963 58.6215 34.2998C58.214 34.1338 57.7462 34.2278 57.4342 34.5392L39.2676 52.7064C38.9554 53.0179 38.8615 53.4857 39.0282 53.8944C39.9233 56.0901 39.42 58.592 37.743 60.2697C36.6478 61.3644 35.2024 61.9634 33.7127 61.9904L37.1451 58.558C37.4219 58.2819 37.5293 57.8783 37.4283 57.5006L36.4875 53.9928C36.3865 53.6157 36.0924 53.3203 35.7153 53.2192L32.2056 52.2797C32.1129 52.254 32.0171 52.2411 31.9232 52.2411C31.6374 52.2411 31.3569 52.355 31.1489 52.5629L27.7158 55.9954C27.7448 54.5038 28.3439 53.0604 29.4384 51.9639C31.1149 50.2876 33.6181 49.7836 35.8138 50.6801C36.2211 50.8468 36.6889 50.7528 37.0005 50.4407L55.1677 32.2735C55.4798 31.9621 55.5737 31.4942 55.4071 31.0862C54.5113 28.8905 55.0145 26.3879 56.6922 24.7109C57.7875 23.6157 59.2322 23.0178 60.7226 22.9888L57.2894 26.422C57.0134 26.698 56.9059 27.1009 57.007 27.4787L57.9472 30.9878C58.0482 31.3649 58.3423 31.6596 58.72 31.7614L62.2292 32.7016C62.607 32.8019 63.0099 32.6945 63.2864 32.4184L66.7195 28.9843C66.6905 30.4754 66.0914 31.9201 64.9968 33.0154ZM49.7383 56.6652L44.0702 50.9971L41.3018 53.7656C41.6969 55.0577 41.7542 56.4014 41.4987 57.6853L45.1094 61.2948L49.7383 56.6652ZM17.9884 31.2818L14.9149 30.1447L11.9702 25.4373L13.8815 23.5273L18.5875 26.472L19.7246 29.5454C19.7793 29.6934 19.8655 29.8279 19.9775 29.9392L34.3209 44.2832L32.7257 45.8772L18.3821 31.534C18.2715 31.4226 18.1358 31.3364 17.9884 31.2818ZM37.5706 44.4977C37.4696 44.3979 37.2984 44.3979 37.1986 44.4977L33.6425 48.0551C34.4121 48.0608 35.1864 48.1742 35.9424 48.4052L38.7096 45.638L37.5706 44.4977ZM68.5046 26.3524C68.3855 25.9907 68.0888 25.7166 67.7182 25.6284C67.3495 25.5397 66.9594 25.6503 66.6905 25.9187L62.1852 30.4247L59.8968 29.8113L59.2829 27.5223L63.7889 23.0164C64.0573 22.7475 64.168 22.3588 64.0791 21.9887C63.9904 21.6187 63.7168 21.3214 63.3558 21.2037C60.4504 20.2532 57.3047 21.0049 55.1458 23.1645C53.0197 25.2894 52.2666 28.3809 53.1336 31.2142L40.2574 44.0904L39.117 42.9514C38.2353 42.0697 36.8435 42.0041 35.8821 42.7505L21.6937 28.5616L20.5096 25.3633C20.4259 25.1362 20.269 24.9438 20.0636 24.8156L14.3035 21.2113C13.8718 20.941 13.31 21.0047 12.9489 21.3651L9.80863 24.5068C9.44756 24.8665 9.3833 25.4283 9.65414 25.86L13.2591 31.6208C13.3866 31.8255 13.5796 31.9824 13.8062 32.0668L17.0051 33.2502L31.1927 47.4385C30.9288 47.7777 30.7621 48.174 30.7029 48.5898C29.6695 48.9875 28.7086 49.6002 27.8908 50.4175C25.7317 52.5778 24.9814 55.722 25.9306 58.6274C26.049 58.9885 26.3457 59.2633 26.7164 59.352C27.0858 59.4395 27.475 59.3302 27.7434 59.0612L32.2494 54.5559L34.5383 55.1686L35.1522 57.4577L30.6457 61.9635C30.378 62.2331 30.2672 62.6211 30.3561 62.9919C30.445 63.3606 30.7184 63.6592 31.0795 63.7764C31.9109 64.0486 32.7622 64.1812 33.6047 64.1812C35.7045 64.1812 37.7483 63.3568 39.2896 61.8162C39.8501 61.2571 40.3135 60.629 40.6782 59.9578L44.3353 63.6156C44.5489 63.8286 44.8289 63.9355 45.1094 63.9355C45.3893 63.9355 45.6686 63.8288 45.883 63.6156L52.0588 57.4397C52.264 57.2344 52.3786 56.9558 52.3786 56.6655C52.3786 56.3759 52.264 56.0985 52.0588 55.8933L45.6165 49.451L58.4927 36.5741C61.3267 37.4404 64.4182 36.6873 66.5424 34.5625C68.7028 32.4027 69.4531 29.2565 68.5046 26.3524Z" fill="black"/>
</svg>
