<svg width="30" height="30" viewBox="0 0 30 30" fill="none" xmlns="http://www.w3.org/2000/svg">
<path d="M15.0001 26.0001C14.7239 26.0001 14.5 26.224 14.5 26.4999V29.4999C14.5 29.7759 14.7239 30 15.0001 30C15.2762 30 15.5001 29.7759 15.5001 29.4999V26.4999C15.5001 26.224 15.2762 26.0001 15.0001 26.0001Z" fill="#52C306"/>
<path d="M15.0001 3.99994C15.2762 3.99994 15.5001 3.776 15.5001 3.50006V0.500061C15.5001 0.224121 15.2762 0 15.0001 0C14.7239 0 14.5 0.224121 14.5 0.500061V3.50006C14.5 3.776 14.7239 3.99994 15.0001 3.99994Z" fill="#52C306"/>
<path d="M3.50006 14.4999H0.500061C0.224121 14.4999 0 14.7239 0 15C0 15.2761 0.224121 15.5001 0.500061 15.5001H3.50006C3.776 15.5001 3.99994 15.2761 3.99994 15C3.99994 14.7239 3.776 14.4999 3.50006 14.4999Z" fill="#52C306"/>
<path d="M29.4999 14.4999H26.4999C26.2239 14.4999 26 14.7239 26 15C26 15.2761 26.2239 15.5001 26.4999 15.5001H29.4999C29.7758 15.5001 29.9999 15.2761 29.9999 15C29.9999 14.7239 29.7758 14.4999 29.4999 14.4999Z" fill="#52C306"/>
<path d="M15.6083 14.8114C15.5139 14.6926 15.4783 14.5366 15.5122 14.3875L16.5601 9.84741L12.0947 15H13.9998C14.1521 15 14.2962 15.0696 14.3911 15.1886C14.4861 15.3074 14.5211 15.4634 14.4872 15.6125L13.4393 20.1526L17.9047 15H15.9996C15.8473 15 15.7032 14.9304 15.6083 14.8114Z" fill="#52C306"/>
<path d="M15.0001 4.99988C9.48608 4.99988 5 9.48596 5 15C5 20.514 9.48608 25.0001 15.0001 25.0001C20.5142 25.0001 25.0002 20.514 25.0002 15C25.0002 9.48596 20.5142 4.99988 15.0001 4.99988ZM19.3782 14.8275L12.8781 22.3275C12.7807 22.4399 12.6417 22.5 12.5 22.5C12.4236 22.5 12.3455 22.4826 12.2737 22.446C12.0686 22.3422 11.9609 22.1116 12.0133 21.8875L13.3716 15.9999H11.0002C10.8041 15.9999 10.6266 15.8855 10.5452 15.7079C10.4637 15.5301 10.4937 15.3208 10.6221 15.173L17.1221 7.67303C17.2726 7.49908 17.5222 7.45056 17.7266 7.55457C17.9316 7.65839 18.0393 7.8891 17.9869 8.11304L16.6281 14.0004H18.9995C19.1954 14.0004 19.373 14.1149 19.4547 14.2925C19.536 14.4706 19.5062 14.6796 19.3782 14.8275Z" fill="#52C306"/>
<path d="M23.4851 22.7785C23.2894 22.5831 22.9735 22.5831 22.7782 22.7785C22.5824 22.974 22.5824 23.2901 22.7782 23.4855L24.8989 25.6066C24.9965 25.704 25.1246 25.753 25.2525 25.753C25.3804 25.753 25.5084 25.704 25.6058 25.6066C25.8014 25.411 25.8014 25.095 25.6058 24.8996L23.4851 22.7785Z" fill="#52C306"/>
<path d="M6.5152 7.2215C6.61261 7.31891 6.74078 7.36798 6.86877 7.36798C6.99676 7.36798 7.12476 7.31891 7.22217 7.2215C7.41791 7.02594 7.41791 6.7099 7.22217 6.51453L5.10071 4.39343C4.90533 4.19788 4.58875 4.19788 4.39374 4.39343C4.19818 4.58899 4.19818 4.90503 4.39374 5.1004L6.5152 7.2215Z" fill="#52C306"/>
<path d="M6.5152 22.7785L4.39374 24.8996C4.19818 25.095 4.19818 25.411 4.39374 25.6066C4.49115 25.704 4.61932 25.753 4.74731 25.753C4.87531 25.753 5.00311 25.704 5.10071 25.6066L7.22217 23.4855C7.41791 23.2901 7.41791 22.974 7.22217 22.7785C7.02679 22.5831 6.7102 22.5831 6.5152 22.7785Z" fill="#52C306"/>
<path d="M24.8995 4.39343L22.7784 6.51453C22.583 6.7099 22.583 7.02594 22.7784 7.2215C22.876 7.31891 23.0038 7.36798 23.1318 7.36798C23.2598 7.36798 23.3879 7.31891 23.4853 7.2215L25.6064 5.1004C25.802 4.90503 25.802 4.58899 25.6064 4.39343C25.4109 4.19788 25.0945 4.19788 24.8995 4.39343Z" fill="#52C306"/>
</svg>
