<svg width="234" height="144" viewBox="0 0 234 144" fill="none" xmlns="http://www.w3.org/2000/svg">
<g opacity="0.2">
<path d="M176.196 34.9611L176.065 35.6006L176.717 35.5605C208.197 33.6251 233.5 58.8679 233.5 89.4463C233.5 119.306 209.539 143.5 180 143.5C150.456 143.5 126.5 119.301 126.5 89.4463C126.5 53.3868 153.808 21.5492 183.997 1.13072L183.997 1.13033C187.112 -0.982529 190.917 2.71036 188.841 5.96591L188.841 5.96605C183.687 14.053 178.357 24.4096 176.196 34.9611Z" stroke="url(#paint0_linear_439_105034)"/>
<path d="M48.7878 34.9638L48.6608 35.6015L49.3097 35.5604C79.8928 33.6265 104.5 58.8533 104.5 89.4463C104.5 119.319 81.1976 143.5 52.5 143.5C23.7974 143.5 0.499992 119.314 0.499992 89.4463C0.499992 53.3803 27.0525 21.5425 56.3987 1.127L56.3993 1.1266C57.9179 0.066925 59.567 0.453949 60.6181 1.52997C61.6729 2.60971 62.0857 4.34906 61.08 5.9713L61.0799 5.97142C56.0699 14.0585 50.8879 24.4142 48.7878 34.9638Z" stroke="url(#paint1_linear_439_105034)"/>
</g>
<defs>
<linearGradient id="paint0_linear_439_105034" x1="180" y1="144" x2="180" y2="0" gradientUnits="userSpaceOnUse">
<stop stop-color="white" stop-opacity="0"/>
<stop offset="0.390625" stop-color="white"/>
</linearGradient>
<linearGradient id="paint1_linear_439_105034" x1="52.5" y1="144" x2="52.5" y2="0" gradientUnits="userSpaceOnUse">
<stop stop-color="white" stop-opacity="0"/>
<stop offset="0.390625" stop-color="white"/>
</linearGradient>
</defs>
</svg>
