<svg width="52" height="60" viewBox="0 0 52 60" fill="none" xmlns="http://www.w3.org/2000/svg">
<path d="M1.16607 60H9.58483H31.2382H39.6569C40.3109 60 40.846 59.46 40.846 58.8V47.484C40.846 41.244 35.8162 36.156 29.621 36.156H26.1607C29.514 33.336 31.7614 28.488 31.7614 24.216V21.228H34.2703C34.9243 21.228 35.4594 20.688 35.4594 20.028V15.948C35.4594 15.288 34.9243 14.748 34.2703 14.748H33.105C32.677 10.164 29.835 6.108 25.7089 4.14L26.1607 1.392C26.2202 1.044 26.1251 0.684 25.8991 0.42C25.6732 0.156 25.3403 0 24.9954 0H15.3757C15.0309 0 14.6979 0.156 14.472 0.42C14.2461 0.684 14.1509 1.044 14.2104 1.392L14.6622 4.14C10.5361 6.12 7.69418 10.176 7.278 14.748H6.11269C5.45869 14.748 4.9236 15.288 4.9236 15.948V20.028C4.9236 20.688 5.45869 21.228 6.11269 21.228H8.63356V24.216C8.63356 28.488 10.8809 33.336 14.2342 36.156H11.2258C5.04251 36.156 0.000763286 41.232 0.000763286 47.484V58.8C-0.0230185 59.46 0.512071 60 1.16607 60ZM10.7739 57.6V49.8H30.0491V57.6H10.7739ZM38.4678 47.484V57.6H32.4273V48.6C32.4273 47.94 31.8922 47.4 31.2382 47.4H29.3118V38.556H29.621C34.5082 38.568 38.4678 42.564 38.4678 47.484ZM7.28989 17.148H8.40763C9.06163 17.148 9.59672 16.608 9.59672 15.948C9.59672 12.048 11.749 8.46 15.0784 6.6L15.6254 9.888C15.7324 10.536 16.3508 10.98 16.9929 10.872C17.635 10.764 18.0749 10.14 17.9679 9.492L16.7788 2.4H23.5923L22.4151 9.492C22.3081 10.14 22.7481 10.764 23.3902 10.872C23.4615 10.884 23.521 10.884 23.5923 10.884C24.1631 10.884 24.6625 10.464 24.7695 9.888L25.3165 6.6C28.6341 8.46 30.7982 12.048 30.7982 15.948C30.7982 16.608 31.3333 17.148 31.9873 17.148H33.0931V18.828H7.28989V17.148ZM10.988 24.228V21.24H29.3713V24.228C29.3713 29.496 25.043 36.168 20.1796 36.168C15.3162 36.168 10.988 29.484 10.988 24.228ZM26.9337 38.568V47.412H13.8893V38.568H26.9337ZM2.35516 47.484C2.35516 42.564 6.32672 38.556 11.202 38.556H11.5112V47.4H9.58483C8.93083 47.4 8.39574 47.94 8.39574 48.6V57.6H2.35516V47.484Z" fill="white"/>
<path d="M46.7324 12.636C46.7324 12.096 46.3638 11.616 45.8525 11.472C45.3293 11.328 44.7823 11.568 44.5088 12.036L37.0414 25.248C36.8273 25.62 36.8392 26.076 37.0414 26.448C37.2554 26.82 37.6478 27.048 38.064 27.048H41.7977L41.655 35.688C41.6431 36.24 42.0117 36.72 42.5349 36.864C42.642 36.888 42.749 36.912 42.8441 36.912C43.2603 36.912 43.6646 36.684 43.8786 36.3L51.8455 22.08C52.0596 21.708 52.0477 21.252 51.8336 20.88C51.6196 20.508 51.2272 20.28 50.811 20.28H46.7205V12.636H46.7324ZM48.7777 22.68L44.1164 30.996L44.1997 25.86C44.1997 25.536 44.0808 25.224 43.8548 24.996C43.6289 24.768 43.3316 24.636 43.0106 24.636H40.1211L44.3424 17.16V21.48C44.3424 22.14 44.8775 22.68 45.5315 22.68H48.7777Z" fill="white"/>
</svg>
