<svg width="206" height="80" viewBox="0 0 206 80" fill="none" xmlns="http://www.w3.org/2000/svg">
<path d="M52.5782 71.1998C48.2412 71.1998 43.8196 70.9445 39.8626 69.1397C30.0213 64.6511 24.1019 55.4328 24.1019 45.051C24.1019 32.6443 33.9303 22.5889 46.0539 22.5889C53.3543 22.5889 59.8198 26.2378 63.8101 31.8471H70.9409C66.2727 22.6507 56.8807 16.3693 46.0539 16.3693C30.5737 16.3693 18.0239 29.2108 18.0239 45.051C18.0239 59.2529 25.3321 71.0444 40.4926 75.9885C44.1254 77.1731 47.9742 77.4194 51.7894 77.4194H78.4941V71.1998H52.5782Z" fill="white"/>
<path d="M45.1044 46.6675H37.0444V38.4216H45.1044V46.6675Z" fill="white"/>
<path d="M55.0636 46.6675H47.0034V38.4216H55.0636V46.6675Z" fill="white"/>
<path d="M45.1044 56.8596H37.0444V48.6125H45.1044V56.8596Z" fill="white"/>
<path d="M55.0636 56.8596H47.0034V48.6125H55.0636V56.8596Z" fill="white"/>
<path d="M0 44.8586L42.2273 0V9.43405L8.75836 44.8586H0Z" fill="white"/>
<path d="M73.0764 31.847L42.2271 0V9.43404L64.318 31.847H73.0764Z" fill="white"/>
<path d="M37.3917 8.60217H45.854L50.6897 15.361V22.1198H31.3472V15.361L37.3917 8.60217Z" fill="white"/>
<path d="M65.4355 65.2033V34.2323H71.9893V47.0392H76.3289L83.0598 34.2323H90.0563L81.5542 49.8015L90.322 65.2033H83.3254L76.3289 52.6475H71.9893V65.2033H65.4355ZM105.993 65.4545C103.749 65.4545 101.786 65.2591 100.103 64.8685C98.4204 64.45 97.0034 63.6966 95.8521 62.6085C94.7303 61.4924 93.8889 59.902 93.328 57.8373C92.7671 55.7725 92.4866 53.08 92.4866 49.7597C92.4866 46.4394 92.7671 43.7468 93.328 41.6821C93.9184 39.5895 94.7745 37.9851 95.8964 36.869C97.0182 35.753 98.4204 34.9857 100.103 34.5671C101.786 34.1486 103.749 33.9393 105.993 33.9393C108.236 33.9393 110.199 34.1486 111.882 34.5671C113.565 34.9857 114.967 35.753 116.089 36.869C117.211 37.9851 118.052 39.5895 118.613 41.6821C119.174 43.7468 119.454 46.4394 119.454 49.7597C119.454 53.08 119.174 55.7725 118.613 57.8373C118.052 59.902 117.211 61.4924 116.089 62.6085C114.967 63.6966 113.565 64.45 111.882 64.8685C110.199 65.2591 108.236 65.4545 105.993 65.4545ZM105.993 59.888C107.321 59.888 108.428 59.7485 109.314 59.4695C110.199 59.1905 110.893 58.7022 111.395 58.0047C111.926 57.2792 112.31 56.2608 112.546 54.9494C112.783 53.6101 112.901 51.8802 112.901 49.7597C112.901 47.5275 112.783 45.7418 112.546 44.4025C112.31 43.0632 111.926 42.0448 111.395 41.3473C110.893 40.6218 110.199 40.1335 109.314 39.8824C108.428 39.6313 107.321 39.5057 105.993 39.5057C104.723 39.5057 103.646 39.6313 102.76 39.8824C101.874 40.1335 101.151 40.6218 100.59 41.3473C100.059 42.0448 99.6603 43.0632 99.3946 44.4025C99.1585 45.7418 99.0404 47.5275 99.0404 49.7597C99.0404 51.8802 99.1437 53.6101 99.3503 54.9494C99.5865 56.2608 99.9703 57.2792 100.502 58.0047C101.033 58.7022 101.742 59.1905 102.627 59.4695C103.542 59.7485 104.664 59.888 105.993 59.888ZM124.512 65.2033V34.2323H129.782L143.509 54.6564V34.2323H150.063V65.2033H144.793L131.11 44.7792V65.2033H124.512ZM162.334 65.2033V39.7987H153.344V34.2323H177.921V39.7987H168.887V65.2033H162.334ZM177.173 65.2033L187.446 34.2323H195.727L206 65.2033H199.181L197.1 58.7162H185.941L183.904 65.2033H177.173ZM187.49 53.1497H195.55L191.52 39.5476L187.49 53.1497Z" fill="white"/>
<path d="M85.3489 77.5054C84.5511 77.5054 83.862 77.3128 83.2817 76.9278C82.7095 76.5345 82.2743 76.0021 81.9761 75.3302C81.6779 74.6584 81.5288 73.9047 81.5288 73.0691C81.5288 72.2335 81.6779 71.4798 81.9761 70.808C82.2823 70.1362 82.7216 69.6077 83.2938 69.2227C83.8741 68.8295 84.5592 68.6329 85.3489 68.6329C86.3161 68.6329 87.11 68.9115 87.7305 69.4685C88.351 70.0256 88.7621 70.7671 88.9636 71.6928H87.7426C87.5975 71.1193 87.3114 70.6565 86.8843 70.3041C86.4651 69.9518 85.9574 69.7757 85.361 69.7757C84.5471 69.7757 83.9224 70.0747 83.4872 70.6728C83.052 71.2709 82.8344 72.0697 82.8344 73.0691C82.8344 74.0686 83.052 74.8673 83.4872 75.4654C83.9224 76.0635 84.5471 76.3625 85.361 76.3625C85.9332 76.3625 86.4209 76.2028 86.8238 75.8832C87.2267 75.5637 87.5129 75.15 87.6821 74.6421H88.9031C88.6855 75.5023 88.2705 76.1945 87.658 76.7189C87.0454 77.2432 86.2758 77.5054 85.3489 77.5054ZM93.0498 77.5054C92.397 77.5054 91.8449 77.3497 91.3936 77.0384C90.9422 76.7271 90.6037 76.3174 90.3781 75.8095C90.1605 75.2934 90.0517 74.7404 90.0517 74.1505C90.0517 73.5524 90.1605 72.9994 90.3781 72.4915C90.6037 71.9754 90.9422 71.5616 91.3936 71.2504C91.8449 70.9309 92.397 70.7711 93.0498 70.7711C93.7026 70.7711 94.2546 70.9309 94.706 71.2504C95.1573 71.5616 95.4958 71.9754 95.7215 72.4915C95.9471 72.9994 96.06 73.5484 96.06 74.1382C96.06 74.7281 95.9471 75.2811 95.7215 75.7972C95.4958 76.3051 95.1573 76.7189 94.706 77.0384C94.2546 77.3497 93.7026 77.5054 93.0498 77.5054ZM93.0498 76.4485C93.6059 76.4485 94.037 76.2273 94.3433 75.7849C94.6576 75.3425 94.8148 74.7895 94.8148 74.1259C94.8148 73.4624 94.6576 72.9134 94.3433 72.4793C94.037 72.0451 93.6059 71.8279 93.0498 71.8279C92.5017 71.8279 92.0706 72.0491 91.7563 72.4915C91.442 72.9257 91.2848 73.4706 91.2848 74.1259C91.2848 74.7895 91.4378 75.3425 91.7442 75.7849C92.0585 76.2273 92.4937 76.4485 93.0498 76.4485ZM97.4598 70.9432H98.717V72.0491H98.8137C98.9669 71.6887 99.2168 71.3856 99.5633 71.1398C99.9099 70.894 100.337 70.7711 100.845 70.7711C101.393 70.7711 101.844 70.9063 102.199 71.1766C102.553 71.4388 102.811 71.7788 102.972 72.1966C103.134 72.6062 103.214 73.0445 103.214 73.5115V77.4193H101.969V73.6958C101.969 73.106 101.82 72.6553 101.522 72.3441C101.232 72.0328 100.845 71.8771 100.361 71.8771C99.8534 71.8771 99.4505 72.0451 99.1522 72.3809C98.8621 72.7168 98.717 73.1551 98.717 73.6958V77.4193H97.4598V70.9432ZM107.051 77.5054C106.527 77.5054 106.076 77.403 105.697 77.1981C105.318 76.9933 105.028 76.7271 104.827 76.3994C104.625 76.0635 104.525 75.7153 104.525 75.3548V75.2934H105.758V75.3425C105.758 75.6375 105.875 75.9038 106.108 76.1413C106.342 76.3707 106.668 76.4854 107.087 76.4854C107.434 76.4854 107.72 76.3994 107.946 76.2273C108.172 76.0553 108.284 75.8218 108.284 75.5269C108.284 75.2729 108.196 75.0762 108.018 74.937C107.841 74.7895 107.615 74.6912 107.341 74.6421L106.543 74.5192C106.028 74.4372 105.588 74.2529 105.226 73.9662C104.863 73.6713 104.682 73.2452 104.682 72.6882C104.682 72.082 104.895 71.6108 105.322 71.275C105.75 70.9391 106.302 70.7711 106.979 70.7711C107.47 70.7711 107.897 70.8654 108.26 71.0538C108.623 71.234 108.897 71.4756 109.082 71.7788C109.268 72.082 109.36 72.4096 109.36 72.7619V72.811H108.127V72.7865C108.127 72.5407 108.03 72.3032 107.837 72.0737C107.644 71.8443 107.345 71.7296 106.942 71.7296C106.604 71.7296 106.33 71.8157 106.12 71.9877C105.911 72.1597 105.806 72.385 105.806 72.6636C105.806 72.9011 105.895 73.0937 106.072 73.2412C106.249 73.3886 106.471 73.4829 106.737 73.5238L107.607 73.6836C108.139 73.7819 108.583 73.9744 108.937 74.2611C109.3 74.5478 109.481 74.9656 109.481 75.5146C109.481 75.9078 109.376 76.256 109.167 76.5591C108.957 76.8623 108.667 77.0958 108.296 77.2596C107.926 77.4234 107.511 77.5054 107.051 77.5054ZM112.735 71.9508V75.4163C112.735 75.7194 112.747 75.9406 112.771 76.0799C112.803 76.2191 112.88 76.3297 113 76.4117C113.129 76.4936 113.339 76.5345 113.629 76.5345C113.831 76.5345 114.028 76.51 114.221 76.4608V77.3579C114.165 77.3825 114.032 77.4071 113.823 77.4316C113.613 77.4562 113.403 77.4685 113.194 77.4685C112.686 77.4685 112.307 77.3948 112.058 77.2473C111.808 77.0916 111.647 76.895 111.574 76.6574C111.51 76.4117 111.477 76.0922 111.477 75.6989L111.489 71.9508H110.341V70.9432H111.489V68.8172H112.735V70.9432H114.221V71.9508H112.735ZM115.652 70.9432H116.897V71.9754H116.97C117.075 71.6887 117.26 71.447 117.526 71.2504C117.8 71.0455 118.151 70.9432 118.578 70.9432C118.691 70.9432 118.787 70.9472 118.868 70.9554C118.948 70.9637 119.029 70.9841 119.11 71.0169L119.061 72.2212C118.844 72.1557 118.618 72.1229 118.384 72.1229C117.909 72.1229 117.542 72.2621 117.284 72.5407C117.026 72.811 116.897 73.2617 116.897 73.8925V77.4193H115.652V70.9432ZM126.067 77.4193H124.81V76.2519H124.725C124.565 76.6123 124.314 76.9155 123.976 77.1613C123.637 77.4071 123.226 77.5299 122.743 77.5299C122.195 77.5299 121.748 77.3988 121.401 77.1367C121.062 76.8663 120.817 76.5263 120.664 76.1167C120.51 75.6989 120.434 75.2606 120.434 74.8018V70.9432H121.679V74.6175C121.679 75.191 121.82 75.6375 122.102 75.957C122.384 76.2765 122.759 76.4362 123.226 76.4362C123.718 76.4362 124.105 76.2683 124.387 75.9324C124.669 75.5883 124.81 75.15 124.81 74.6175V70.9432H126.067V77.4193ZM130.428 77.5177C129.758 77.5177 129.198 77.3579 128.747 77.0384C128.295 76.7189 127.957 76.3051 127.732 75.7972C127.514 75.2811 127.406 74.7281 127.406 74.1382C127.406 73.5566 127.514 73.0117 127.732 72.5038C127.957 71.9877 128.295 71.5699 128.747 71.2504C129.198 70.9309 129.758 70.7711 130.428 70.7711C131.257 70.7711 131.915 71.0169 132.398 71.5084C132.882 71.9918 133.172 72.5939 133.269 73.3149H132.048C131.975 72.8725 131.801 72.5161 131.528 72.2458C131.262 71.9672 130.899 71.8279 130.44 71.8279C129.843 71.8279 129.395 72.0491 129.098 72.4915C128.799 72.9339 128.651 73.4829 128.651 74.1382C128.651 74.7936 128.799 75.3425 129.098 75.7849C129.395 76.2273 129.843 76.4485 130.44 76.4485C130.899 76.4485 131.262 76.3134 131.528 76.043C131.801 75.7726 131.975 75.4163 132.048 74.9739H133.269C133.172 75.6949 132.882 76.3011 132.398 76.7926C131.915 77.2759 131.257 77.5177 130.428 77.5177ZM136.546 71.9508V75.4163C136.546 75.7194 136.558 75.9406 136.582 76.0799C136.615 76.2191 136.691 76.3297 136.812 76.4117C136.941 76.4936 137.151 76.5345 137.441 76.5345C137.643 76.5345 137.84 76.51 138.033 76.4608V77.3579C137.977 77.3825 137.844 77.4071 137.634 77.4316C137.425 77.4562 137.216 77.4685 137.005 77.4685C136.498 77.4685 136.119 77.3948 135.869 77.2473C135.62 77.0916 135.458 76.895 135.386 76.6574C135.321 76.4117 135.289 76.0922 135.289 75.6989L135.301 71.9508H134.152V70.9432H135.301V68.8172H136.546V70.9432H138.033V71.9508H136.546ZM139.597 70.9432H140.843V77.4193H139.597V70.9432ZM140.214 69.7634C139.996 69.7634 139.815 69.6897 139.67 69.5422C139.525 69.3948 139.452 69.2104 139.452 68.9892C139.452 68.768 139.525 68.5837 139.67 68.4362C139.815 68.2888 139.996 68.215 140.214 68.215C140.432 68.215 140.613 68.2928 140.758 68.4485C140.903 68.596 140.976 68.7763 140.976 68.9892C140.976 69.2022 140.903 69.3865 140.758 69.5422C140.613 69.6897 140.432 69.7634 140.214 69.7634ZM145.372 77.5054C144.72 77.5054 144.168 77.3497 143.716 77.0384C143.265 76.7271 142.927 76.3174 142.701 75.8095C142.483 75.2934 142.374 74.7404 142.374 74.1505C142.374 73.5524 142.483 72.9994 142.701 72.4915C142.927 71.9754 143.265 71.5616 143.716 71.2504C144.168 70.9309 144.72 70.7711 145.372 70.7711C146.025 70.7711 146.578 70.9309 147.029 71.2504C147.481 71.5616 147.819 71.9754 148.044 72.4915C148.27 72.9994 148.382 73.5484 148.382 74.1382C148.382 74.7281 148.27 75.2811 148.044 75.7972C147.819 76.3051 147.481 76.7189 147.029 77.0384C146.578 77.3497 146.025 77.5054 145.372 77.5054ZM145.372 76.4485C145.928 76.4485 146.36 76.2273 146.666 75.7849C146.98 75.3425 147.137 74.7895 147.137 74.1259C147.137 73.4624 146.98 72.9134 146.666 72.4793C146.36 72.0451 145.928 71.8279 145.372 71.8279C144.825 71.8279 144.393 72.0491 144.079 72.4915C143.764 72.9257 143.607 73.4706 143.607 74.1259C143.607 74.7895 143.761 75.3425 144.067 75.7849C144.381 76.2273 144.816 76.4485 145.372 76.4485ZM149.782 70.9432H151.04V72.0491H151.136C151.29 71.6887 151.54 71.3856 151.886 71.1398C152.233 70.894 152.66 70.7711 153.167 70.7711C153.716 70.7711 154.167 70.9063 154.521 71.1766C154.877 71.4388 155.134 71.7788 155.295 72.1966C155.457 72.6062 155.537 73.0445 155.537 73.5115V77.4193H154.292V73.6958C154.292 73.106 154.143 72.6553 153.844 72.3441C153.554 72.0328 153.167 71.8771 152.684 71.8771C152.176 71.8771 151.773 72.0451 151.475 72.3809C151.185 72.7168 151.04 73.1551 151.04 73.6958V77.4193H149.782V70.9432ZM159.972 68.8172H161.242V77.4193H159.972V68.8172ZM163.04 70.9432H164.298V72.0491H164.394C164.548 71.6887 164.797 71.3856 165.144 71.1398C165.491 70.894 165.918 70.7711 166.425 70.7711C166.973 70.7711 167.425 70.9063 167.779 71.1766C168.134 71.4388 168.392 71.7788 168.553 72.1966C168.714 72.6062 168.795 73.0445 168.795 73.5115V77.4193H167.55V73.6958C167.55 73.106 167.401 72.6553 167.102 72.3441C166.812 72.0328 166.425 71.8771 165.942 71.8771C165.434 71.8771 165.032 72.0451 164.733 72.3809C164.443 72.7168 164.298 73.1551 164.298 73.6958V77.4193H163.04V70.9432ZM172.776 77.5054C172.228 77.5054 171.757 77.362 171.361 77.0753C170.967 76.7886 170.665 76.3911 170.455 75.8832C170.254 75.3753 170.152 74.7978 170.152 74.1505C170.152 73.4952 170.254 72.9134 170.455 72.4055C170.665 71.8976 170.967 71.5002 171.361 71.2135C171.765 70.9186 172.244 70.7711 172.8 70.7711C173.356 70.7711 173.8 70.9022 174.13 71.1644C174.461 71.4265 174.71 71.7296 174.879 72.0737H174.964V68.2028H176.233V77.4193H174.964V76.1659H174.879C174.703 76.5263 174.444 76.8418 174.106 77.1121C173.767 77.3742 173.325 77.5054 172.776 77.5054ZM173.187 76.4485C173.76 76.4485 174.195 76.2273 174.492 75.7849C174.799 75.3425 174.952 74.7978 174.952 74.1505C174.952 73.5033 174.799 72.9585 174.492 72.5161C174.195 72.0737 173.76 71.8525 173.187 71.8525C172.599 71.8525 172.159 72.0737 171.869 72.5161C171.579 72.9503 171.434 73.491 171.434 74.1382C171.434 74.7936 171.579 75.3425 171.869 75.7849C172.168 76.2273 172.607 76.4485 173.187 76.4485ZM183.525 77.4193H182.268V76.2519H182.184C182.023 76.6123 181.772 76.9155 181.434 77.1613C181.095 77.4071 180.684 77.5299 180.201 77.5299C179.653 77.5299 179.206 77.3988 178.859 77.1367C178.521 76.8663 178.275 76.5263 178.122 76.1167C177.969 75.6989 177.892 75.2606 177.892 74.8018V70.9432H179.137V74.6175C179.137 75.191 179.279 75.6375 179.56 75.957C179.843 76.2765 180.218 76.4362 180.684 76.4362C181.176 76.4362 181.563 76.2683 181.845 75.9324C182.128 75.5883 182.268 75.15 182.268 74.6175V70.9432H183.525V77.4193ZM187.354 77.5054C186.829 77.5054 186.378 77.403 186 77.1981C185.62 76.9933 185.33 76.7271 185.13 76.3994C184.928 76.0635 184.827 75.7153 184.827 75.3548V75.2934H186.06V75.3425C186.06 75.6375 186.177 75.9038 186.411 76.1413C186.644 76.3707 186.971 76.4854 187.39 76.4854C187.736 76.4854 188.023 76.3994 188.249 76.2273C188.473 76.0553 188.587 75.8218 188.587 75.5269C188.587 75.2729 188.498 75.0762 188.321 74.937C188.143 74.7895 187.917 74.6912 187.644 74.6421L186.846 74.5192C186.33 74.4372 185.891 74.2529 185.529 73.9662C185.166 73.6713 184.985 73.2452 184.985 72.6882C184.985 72.082 185.197 71.6108 185.625 71.275C186.052 70.9391 186.604 70.7711 187.281 70.7711C187.772 70.7711 188.2 70.8654 188.563 71.0538C188.926 71.234 189.199 71.4756 189.385 71.7788C189.57 72.082 189.663 72.4096 189.663 72.7619V72.811H188.43V72.7865C188.43 72.5407 188.333 72.3032 188.14 72.0737C187.946 71.8443 187.648 71.7296 187.245 71.7296C186.907 71.7296 186.632 71.8157 186.423 71.9877C186.213 72.1597 186.109 72.385 186.109 72.6636C186.109 72.9011 186.197 73.0937 186.375 73.2412C186.551 73.3886 186.774 73.4829 187.04 73.5238L187.91 73.6836C188.442 73.7819 188.884 73.9744 189.24 74.2611C189.603 74.5478 189.784 74.9656 189.784 75.5146C189.784 75.9078 189.679 76.256 189.47 76.5591C189.259 76.8623 188.969 77.0958 188.599 77.2596C188.228 77.4234 187.813 77.5054 187.354 77.5054ZM193.037 71.9508V75.4163C193.037 75.7194 193.049 75.9406 193.073 76.0799C193.106 76.2191 193.182 76.3297 193.303 76.4117C193.432 76.4936 193.642 76.5345 193.932 76.5345C194.134 76.5345 194.331 76.51 194.524 76.4608V77.3579C194.467 77.3825 194.334 77.4071 194.125 77.4316C193.916 77.4562 193.706 77.4685 193.496 77.4685C192.989 77.4685 192.61 77.3948 192.36 77.2473C192.11 77.0916 191.949 76.895 191.877 76.6574C191.812 76.4117 191.78 76.0922 191.78 75.6989L191.792 71.9508H190.643V70.9432H191.792V68.8172H193.037V70.9432H194.524V71.9508H193.037ZM195.954 70.9432H197.199V71.9754H197.272C197.377 71.6887 197.562 71.447 197.828 71.2504C198.102 71.0455 198.453 70.9432 198.88 70.9432C198.993 70.9432 199.09 70.9472 199.17 70.9554C199.251 70.9637 199.332 70.9841 199.412 71.0169L199.363 72.2212C199.146 72.1557 198.921 72.1229 198.686 72.1229C198.211 72.1229 197.845 72.2621 197.586 72.5407C197.329 72.811 197.199 73.2617 197.199 73.8925V77.4193H195.954V70.9432ZM203.087 78.3287C202.959 78.64 202.833 78.8981 202.712 79.1029C202.591 79.3159 202.386 79.5167 202.095 79.7051C201.814 79.9017 201.443 80 200.983 80C200.741 80 200.484 79.9672 200.21 79.9017V78.98C200.403 79.0128 200.572 79.0292 200.717 79.0292C200.983 79.0292 201.197 78.98 201.358 78.8817C201.52 78.7834 201.644 78.6523 201.733 78.4885C201.829 78.3328 201.938 78.1075 202.059 77.8126L202.325 77.1613L199.98 70.9432H201.273L202.917 75.7481H202.99L204.719 70.9432H206L203.087 78.3287Z" fill="white"/>
</svg>
