<svg width="180" height="70" viewBox="0 0 180 70" fill="none" xmlns="http://www.w3.org/2000/svg">
<path d="M45.9421 62.2998C42.1525 62.2998 38.2889 62.0764 34.8313 60.4972C26.2322 56.5697 21.0599 48.5037 21.0599 39.4196C21.0599 28.5637 29.6478 19.7652 40.2412 19.7652C46.6202 19.7652 52.2697 22.958 55.7564 27.8662H61.9871C57.9081 19.8193 49.7015 14.3231 40.2412 14.3231C26.7148 14.3231 15.749 25.5594 15.749 39.4196C15.749 51.8463 22.1348 62.1638 35.3819 66.4899C38.5561 67.5265 41.9192 67.7419 45.2528 67.7419H68.587V62.2998H45.9421Z" fill="#F0A538"/>
<path d="M39.4114 40.8341H32.3687V33.6189H39.4114V40.8341Z" fill="#F0A538"/>
<path d="M48.1136 40.8341H41.0708V33.6189H48.1136V40.8341Z" fill="#F0A538"/>
<path d="M39.4114 49.7521H32.3687V42.5359H39.4114V49.7521Z" fill="#F0A538"/>
<path d="M48.1136 49.7521H41.0708V42.5359H48.1136V49.7521Z" fill="#F0A538"/>
<path d="M0 39.2513L36.8976 0V8.25479L7.65294 39.2513H0Z" fill="#F0A538"/>
<path d="M63.8532 27.8661L36.8975 0V8.25479L56.2002 27.8661H63.8532Z" fill="#F0A538"/>
<path d="M32.6723 7.52692H40.0665L44.2918 13.4409V19.3549H27.3906V13.4409L32.6723 7.52692Z" fill="#F0A538"/>
<path d="M57.1768 57.053V29.9533H62.9033V41.1594H66.6952L72.5766 29.9533H78.69L71.261 43.5764L78.9222 57.053H72.8087L66.6952 46.0666H62.9033V57.053H57.1768ZM92.615 57.2727C90.6545 57.2727 88.9392 57.1018 87.4688 56.76C85.9985 56.3938 84.7603 55.7346 83.7543 54.7825C82.7741 53.8059 82.0389 52.4143 81.5488 50.6076C81.0587 48.801 80.8136 46.445 80.8136 43.5398C80.8136 40.6345 81.0587 38.2785 81.5488 36.4719C82.0647 34.6408 82.8128 33.237 83.793 32.2604C84.7732 31.2839 85.9985 30.6125 87.4688 30.2463C88.9392 29.8801 90.6545 29.697 92.615 29.697C94.5754 29.697 96.2908 29.8801 97.7612 30.2463C99.2315 30.6125 100.457 31.2839 101.437 32.2604C102.417 33.237 103.152 34.6408 103.642 36.4719C104.133 38.2785 104.378 40.6345 104.378 43.5398C104.378 46.445 104.133 48.801 103.642 50.6076C103.152 52.4143 102.417 53.8059 101.437 54.7825C100.457 55.7346 99.2315 56.3938 97.7612 56.76C96.2908 57.1018 94.5754 57.2727 92.615 57.2727ZM92.615 52.4021C93.7758 52.4021 94.7431 52.28 95.517 52.0359C96.2908 51.7917 96.897 51.3645 97.3355 50.7541C97.7998 50.1194 98.1352 49.2282 98.3415 48.0808C98.5479 46.9089 98.6511 45.3952 98.6511 43.5398C98.6511 41.5866 98.5479 40.0241 98.3415 38.8523C98.1352 37.6804 97.7998 36.7893 97.3355 36.1789C96.897 35.5441 96.2908 35.1169 95.517 34.8972C94.7431 34.6774 93.7758 34.5676 92.615 34.5676C91.5058 34.5676 90.5643 34.6774 89.7904 34.8972C89.0165 35.1169 88.3846 35.5441 87.8944 36.1789C87.4301 36.7893 87.0819 37.6804 86.8497 38.8523C86.6434 40.0241 86.5402 41.5866 86.5402 43.5398C86.5402 45.3952 86.6305 46.9089 86.811 48.0808C87.0174 49.2282 87.3528 50.1194 87.8171 50.7541C88.2814 51.3645 88.9005 51.7917 89.6743 52.0359C90.474 52.28 91.4542 52.4021 92.615 52.4021ZM108.797 57.053V29.9533H113.402L125.396 47.8244V29.9533H131.123V57.053H126.518L114.562 39.1818V57.053H108.797ZM141.845 57.053V34.8239H133.99V29.9533H155.465V34.8239H147.572V57.053H141.845ZM154.811 57.053L163.788 29.9533H171.024L180 57.053H174.042L172.223 51.3767H162.472L160.692 57.053H154.811ZM163.827 46.5061H170.869L167.348 34.6042L163.827 46.5061Z" fill="white"/>
<path d="M74.5765 67.8172C73.8793 67.8172 73.2772 67.6487 72.7702 67.3118C72.2702 66.9677 71.89 66.5018 71.6294 65.914C71.3688 65.3261 71.2385 64.6667 71.2385 63.9355C71.2385 63.2043 71.3688 62.5448 71.6294 61.957C71.8969 61.3691 72.2808 60.9068 72.7808 60.5699C73.2878 60.2258 73.8864 60.0538 74.5765 60.0538C75.4216 60.0538 76.1153 60.2975 76.6575 60.785C77.1997 61.2724 77.5588 61.9212 77.7349 62.7312H76.668C76.5413 62.2294 76.2912 61.8244 75.918 61.5161C75.5518 61.2079 75.1082 61.0538 74.5871 61.0538C73.8759 61.0538 73.33 61.3154 72.9498 61.8387C72.5695 62.362 72.3794 63.061 72.3794 63.9355C72.3794 64.81 72.5695 65.5089 72.9498 66.0323C73.33 66.5556 73.8759 66.8172 74.5871 66.8172C75.087 66.8172 75.5132 66.6774 75.8652 66.3979C76.2173 66.1183 76.4673 65.7562 76.6152 65.3118H77.6821C77.492 66.0645 77.1293 66.6702 76.5941 67.129C76.0589 67.5879 75.3864 67.8172 74.5765 67.8172ZM81.3054 67.8172C80.735 67.8172 80.2526 67.681 79.8582 67.4086C79.4638 67.1362 79.168 66.7777 78.9709 66.3333C78.7808 65.8817 78.6857 65.3979 78.6857 64.8817C78.6857 64.3584 78.7808 63.8745 78.9709 63.4301C79.168 62.9785 79.4638 62.6165 79.8582 62.3441C80.2526 62.0645 80.735 61.9247 81.3054 61.9247C81.8758 61.9247 82.3581 62.0645 82.7526 62.3441C83.1469 62.6165 83.4427 62.9785 83.6399 63.4301C83.837 63.8745 83.9357 64.3548 83.9357 64.871C83.9357 65.3871 83.837 65.871 83.6399 66.3226C83.4427 66.767 83.1469 67.129 82.7526 67.4086C82.3581 67.681 81.8758 67.8172 81.3054 67.8172ZM81.3054 66.8925C81.7913 66.8925 82.168 66.6989 82.4357 66.3118C82.7103 65.9247 82.8476 65.4409 82.8476 64.8602C82.8476 64.2796 82.7103 63.7993 82.4357 63.4194C82.168 63.0395 81.7913 62.8495 81.3054 62.8495C80.8265 62.8495 80.4498 63.043 80.1751 63.4301C79.9005 63.81 79.7632 64.2868 79.7632 64.8602C79.7632 65.4409 79.8969 65.9247 80.1646 66.3118C80.4392 66.6989 80.8195 66.8925 81.3054 66.8925ZM85.1588 62.0753H86.2574V63.043H86.3419C86.4757 62.7276 86.694 62.4624 86.9968 62.2473C87.2996 62.0323 87.6728 61.9247 88.1165 61.9247C88.5954 61.9247 88.9898 62.043 89.2996 62.2796C89.6095 62.5089 89.8348 62.8065 89.9756 63.172C90.1165 63.5304 90.1869 63.914 90.1869 64.3226V67.7419H89.0989V64.4839C89.0989 63.9677 88.9686 63.5734 88.708 63.3011C88.4545 63.0287 88.1165 62.8925 87.694 62.8925C87.2503 62.8925 86.8982 63.0395 86.6376 63.3333C86.3841 63.6272 86.2574 64.0108 86.2574 64.4839V67.7419H85.1588V62.0753ZM93.5397 67.8172C93.082 67.8172 92.6876 67.7276 92.3566 67.5484C92.0256 67.3691 91.7721 67.1362 91.596 66.8495C91.42 66.5556 91.3319 66.2509 91.3319 65.9355V65.8817H92.4094V65.9247C92.4094 66.1828 92.5115 66.4158 92.7157 66.6237C92.92 66.8244 93.2052 66.9247 93.5714 66.9247C93.8742 66.9247 94.1242 66.8495 94.3213 66.6989C94.5186 66.5484 94.6171 66.3441 94.6171 66.086C94.6171 65.8638 94.5397 65.6917 94.3847 65.5699C94.2299 65.4409 94.0327 65.3548 93.7932 65.3118L93.096 65.2043C92.6454 65.1326 92.2615 64.9713 91.9446 64.7204C91.6277 64.4624 91.4693 64.0896 91.4693 63.6022C91.4693 63.0717 91.6559 62.6595 92.0291 62.3656C92.4024 62.0717 92.8847 61.9247 93.4763 61.9247C93.9059 61.9247 94.2791 62.0072 94.596 62.1721C94.9129 62.3298 95.1524 62.5412 95.3143 62.8065C95.4763 63.0717 95.5572 63.3584 95.5572 63.6667V63.7097H94.4798V63.6882C94.4798 63.4731 94.3953 63.2653 94.2263 63.0645C94.0573 62.8638 93.7968 62.7634 93.4446 62.7634C93.1488 62.7634 92.9095 62.8387 92.7263 62.9893C92.5432 63.1398 92.4517 63.3369 92.4517 63.5807C92.4517 63.7885 92.5292 63.957 92.684 64.086C92.839 64.2151 93.0326 64.2975 93.265 64.3333L94.0256 64.4731C94.4904 64.5591 94.8777 64.7276 95.1875 64.9785C95.5044 65.2294 95.6629 65.595 95.6629 66.0753C95.6629 66.4194 95.5714 66.724 95.3882 66.9893C95.2052 67.2545 94.9517 67.4588 94.6277 67.6022C94.3038 67.7455 93.9411 67.8172 93.5397 67.8172ZM98.5057 62.957V65.9893C98.5057 66.2545 98.5162 66.4481 98.5374 66.5699C98.5656 66.6917 98.6324 66.7885 98.7381 66.8602C98.8508 66.9319 99.0338 66.9677 99.2873 66.9677C99.4634 66.9677 99.6359 66.9462 99.8049 66.9032V67.6882C99.7556 67.7097 99.6394 67.7312 99.4564 67.7527C99.2733 67.7742 99.0901 67.785 98.9071 67.785C98.4634 67.785 98.1325 67.7204 97.9141 67.5914C97.6958 67.4552 97.555 67.2831 97.4916 67.0753C97.4353 66.8602 97.4071 66.5806 97.4071 66.2366L97.4176 62.957H96.4141V62.0753H97.4176V60.2151H98.5057V62.0753H99.8049V62.957H98.5057ZM101.055 62.0753H102.143V62.9785H102.206C102.298 62.7276 102.46 62.5161 102.692 62.3441C102.932 62.1648 103.238 62.0753 103.611 62.0753C103.71 62.0753 103.794 62.0788 103.865 62.086C103.935 62.0932 104.006 62.1111 104.076 62.1398L104.034 63.1936C103.844 63.1362 103.647 63.1075 103.442 63.1075C103.027 63.1075 102.706 63.2294 102.481 63.4731C102.256 63.7097 102.143 64.104 102.143 64.6559V67.7419H101.055V62.0753ZM110.156 67.7419H109.057V66.7204H108.983C108.843 67.0358 108.624 67.3011 108.328 67.5161C108.032 67.7312 107.673 67.8387 107.251 67.8387C106.772 67.8387 106.381 67.724 106.078 67.4946C105.782 67.2581 105.568 66.9605 105.434 66.6022C105.3 66.2366 105.233 65.853 105.233 65.4516V62.0753H106.321V65.2903C106.321 65.7922 106.445 66.1828 106.691 66.4624C106.937 66.7419 107.264 66.8817 107.673 66.8817C108.103 66.8817 108.441 66.7347 108.687 66.4409C108.933 66.1398 109.057 65.7562 109.057 65.2903V62.0753H110.156V67.7419ZM113.966 67.828C113.381 67.828 112.892 67.6882 112.498 67.4086C112.102 67.129 111.807 66.767 111.61 66.3226C111.42 65.871 111.325 65.3871 111.325 64.871C111.325 64.3621 111.42 63.8853 111.61 63.4409C111.807 62.9893 112.102 62.6237 112.498 62.3441C112.892 62.0645 113.381 61.9247 113.966 61.9247C114.69 61.9247 115.265 62.1398 115.688 62.5699C116.11 62.9928 116.364 63.5197 116.448 64.1505H115.381C115.318 63.7634 115.166 63.4516 114.927 63.2151C114.695 62.9713 114.378 62.8495 113.976 62.8495C113.455 62.8495 113.064 63.043 112.804 63.4301C112.543 63.8172 112.413 64.2975 112.413 64.871C112.413 65.4444 112.543 65.9247 112.804 66.3118C113.064 66.6989 113.455 66.8925 113.976 66.8925C114.378 66.8925 114.695 66.7742 114.927 66.5376C115.166 66.3011 115.318 65.9893 115.381 65.6022H116.448C116.364 66.233 116.11 66.7634 115.688 67.1936C115.265 67.6165 114.69 67.828 113.966 67.828ZM119.312 62.957V65.9893C119.312 66.2545 119.322 66.4481 119.344 66.5699C119.372 66.6917 119.439 66.7885 119.544 66.8602C119.657 66.9319 119.84 66.9677 120.094 66.9677C120.27 66.9677 120.442 66.9462 120.611 66.9032V67.6882C120.563 67.7097 120.446 67.7312 120.263 67.7527C120.08 67.7742 119.897 67.785 119.713 67.785C119.27 67.785 118.939 67.7204 118.72 67.5914C118.503 67.4552 118.361 67.2831 118.298 67.0753C118.242 66.8602 118.213 66.5806 118.213 66.2366L118.224 62.957H117.22V62.0753H118.224V60.2151H119.312V62.0753H120.611V62.957H119.312ZM121.978 62.0753H123.066V67.7419H121.978V62.0753ZM122.517 61.043C122.327 61.043 122.168 60.9785 122.041 60.8495C121.915 60.7204 121.851 60.5591 121.851 60.3656C121.851 60.1721 121.915 60.0108 122.041 59.8817C122.168 59.7527 122.327 59.6882 122.517 59.6882C122.707 59.6882 122.865 59.7562 122.992 59.8925C123.119 60.0215 123.182 60.1793 123.182 60.3656C123.182 60.5519 123.119 60.7132 122.992 60.8495C122.865 60.9785 122.707 61.043 122.517 61.043ZM127.024 67.8172C126.454 67.8172 125.972 67.681 125.577 67.4086C125.183 67.1362 124.887 66.7777 124.69 66.3333C124.5 65.8817 124.404 65.3979 124.404 64.8817C124.404 64.3584 124.5 63.8745 124.69 63.4301C124.887 62.9785 125.183 62.6165 125.577 62.3441C125.972 62.0645 126.454 61.9247 127.024 61.9247C127.595 61.9247 128.077 62.0645 128.471 62.3441C128.866 62.6165 129.162 62.9785 129.359 63.4301C129.556 63.8745 129.654 64.3548 129.654 64.871C129.654 65.3871 129.556 65.871 129.359 66.3226C129.162 66.767 128.866 67.129 128.471 67.4086C128.077 67.681 127.595 67.8172 127.024 67.8172ZM127.024 66.8925C127.51 66.8925 127.887 66.6989 128.154 66.3118C128.429 65.9247 128.566 65.4409 128.566 64.8602C128.566 64.2796 128.429 63.7993 128.154 63.4194C127.887 63.0395 127.51 62.8495 127.024 62.8495C126.546 62.8495 126.169 63.043 125.894 63.4301C125.619 63.81 125.482 64.2868 125.482 64.8602C125.482 65.4409 125.616 65.9247 125.883 66.3118C126.158 66.6989 126.538 66.8925 127.024 66.8925ZM130.878 62.0753H131.976V63.043H132.061C132.195 62.7276 132.413 62.4624 132.716 62.2473C133.019 62.0323 133.392 61.9247 133.835 61.9247C134.315 61.9247 134.709 62.043 135.018 62.2796C135.329 62.5089 135.554 62.8065 135.694 63.172C135.836 63.5304 135.906 63.914 135.906 64.3226V67.7419H134.818V64.4839C134.818 63.9677 134.688 63.5734 134.427 63.3011C134.173 63.0287 133.835 62.8925 133.413 62.8925C132.969 62.8925 132.617 63.0395 132.356 63.3333C132.103 63.6272 131.976 64.0108 131.976 64.4839V67.7419H130.878V62.0753ZM139.781 60.2151H140.891V67.7419H139.781V60.2151ZM142.462 62.0753H143.561V63.043H143.645C143.78 62.7276 143.997 62.4624 144.3 62.2473C144.603 62.0323 144.976 61.9247 145.42 61.9247C145.899 61.9247 146.294 62.043 146.603 62.2796C146.913 62.5089 147.139 62.8065 147.279 63.172C147.42 63.5304 147.49 63.914 147.49 64.3226V67.7419H146.402V64.4839C146.402 63.9677 146.272 63.5734 146.012 63.3011C145.758 63.0287 145.42 62.8925 144.998 62.8925C144.554 62.8925 144.202 63.0395 143.941 63.3333C143.688 63.6272 143.561 64.0108 143.561 64.4839V67.7419H142.462V62.0753ZM150.969 67.8172C150.49 67.8172 150.078 67.6917 149.733 67.4409C149.389 67.19 149.125 66.8423 148.941 66.3979C148.765 65.9534 148.677 65.4481 148.677 64.8817C148.677 64.3083 148.765 63.7993 148.941 63.3548C149.125 62.9104 149.389 62.5627 149.733 62.3118C150.086 62.0538 150.504 61.9247 150.99 61.9247C151.476 61.9247 151.864 62.0395 152.152 62.2688C152.441 62.4982 152.659 62.7634 152.807 63.0645H152.881V59.6774H153.99V67.7419H152.881V66.6452H152.807C152.653 66.9605 152.427 67.2366 152.131 67.4731C151.835 67.7025 151.448 67.8172 150.969 67.8172ZM151.328 66.8925C151.829 66.8925 152.209 66.6989 152.469 66.3118C152.737 65.9247 152.87 65.4481 152.87 64.8817C152.87 64.3154 152.737 63.8387 152.469 63.4516C152.209 63.0645 151.829 62.871 151.328 62.871C150.815 62.871 150.43 63.0645 150.177 63.4516C149.923 63.8315 149.796 64.3046 149.796 64.871C149.796 65.4444 149.923 65.9247 150.177 66.3118C150.438 66.6989 150.821 66.8925 151.328 66.8925ZM160.362 67.7419H159.263V66.7204H159.189C159.049 67.0358 158.83 67.3011 158.534 67.5161C158.239 67.7312 157.879 67.8387 157.457 67.8387C156.978 67.8387 156.588 67.724 156.284 67.4946C155.989 67.2581 155.774 66.9605 155.64 66.6022C155.507 66.2366 155.439 65.853 155.439 65.4516V62.0753H156.527V65.2903C156.527 65.7922 156.651 66.1828 156.897 66.4624C157.144 66.7419 157.472 66.8817 157.879 66.8817C158.309 66.8817 158.647 66.7347 158.893 66.4409C159.141 66.1398 159.263 65.7562 159.263 65.2903V62.0753H160.362V67.7419ZM163.707 67.8172C163.249 67.8172 162.855 67.7276 162.524 67.5484C162.192 67.3691 161.939 67.1362 161.763 66.8495C161.587 66.5556 161.499 66.2509 161.499 65.9355V65.8817H162.577V65.9247C162.577 66.1828 162.678 66.4158 162.883 66.6237C163.087 66.8244 163.372 66.9247 163.739 66.9247C164.041 66.9247 164.291 66.8495 164.489 66.6989C164.685 66.5484 164.785 66.3441 164.785 66.086C164.785 65.8638 164.706 65.6917 164.552 65.5699C164.397 65.4409 164.199 65.3548 163.961 65.3118L163.263 65.2043C162.812 65.1326 162.429 64.9713 162.112 64.7204C161.795 64.4624 161.637 64.0896 161.637 63.6022C161.637 63.0717 161.823 62.6595 162.197 62.3656C162.569 62.0717 163.052 61.9247 163.644 61.9247C164.073 61.9247 164.447 62.0072 164.763 62.1721C165.08 62.3298 165.319 62.5412 165.482 62.8065C165.643 63.0717 165.725 63.3584 165.725 63.6667V63.7097H164.647V63.6882C164.647 63.4731 164.563 63.2653 164.394 63.0645C164.225 62.8638 163.964 62.7634 163.612 62.7634C163.316 62.7634 163.077 62.8387 162.894 62.9893C162.71 63.1398 162.619 63.3369 162.619 63.5807C162.619 63.7885 162.696 63.957 162.852 64.086C163.006 64.2151 163.2 64.2975 163.432 64.3333L164.193 64.4731C164.658 64.5591 165.044 64.7276 165.355 64.9785C165.672 65.2294 165.83 65.595 165.83 66.0753C165.83 66.4194 165.738 66.724 165.556 66.9893C165.372 67.2545 165.118 67.4588 164.795 67.6022C164.471 67.7455 164.109 67.8172 163.707 67.8172ZM168.673 62.957V65.9893C168.673 66.2545 168.683 66.4481 168.705 66.5699C168.733 66.6917 168.8 66.7885 168.905 66.8602C169.018 66.9319 169.201 66.9677 169.455 66.9677C169.631 66.9677 169.803 66.9462 169.972 66.9032V67.6882C169.923 67.7097 169.806 67.7312 169.624 67.7527C169.441 67.7742 169.257 67.785 169.074 67.785C168.631 67.785 168.3 67.7204 168.081 67.5914C167.863 67.4552 167.722 67.2831 167.659 67.0753C167.603 66.8602 167.574 66.5806 167.574 66.2366L167.585 62.957H166.581V62.0753H167.585V60.2151H168.673V62.0753H169.972V62.957H168.673ZM171.222 62.0753H172.31V62.9785H172.373C172.465 62.7276 172.627 62.5161 172.859 62.3441C173.099 62.1648 173.405 62.0753 173.778 62.0753C173.877 62.0753 173.962 62.0788 174.032 62.086C174.102 62.0932 174.173 62.1111 174.243 62.1398L174.201 63.1936C174.011 63.1362 173.814 63.1075 173.609 63.1075C173.194 63.1075 172.874 63.2294 172.648 63.4731C172.423 63.7097 172.31 64.104 172.31 64.6559V67.7419H171.222V62.0753ZM177.454 68.5376C177.342 68.81 177.232 69.0358 177.127 69.2151C177.021 69.4014 176.841 69.5771 176.588 69.7419C176.342 69.914 176.018 70 175.616 70C175.405 70 175.18 69.9713 174.94 69.914V69.1075C175.109 69.1362 175.257 69.1505 175.384 69.1505C175.616 69.1505 175.803 69.1075 175.944 69.0215C176.085 68.9355 176.194 68.8208 176.271 68.6774C176.356 68.5412 176.451 68.3441 176.556 68.086L176.789 67.5161L174.739 62.0753H175.87L177.306 66.2796H177.37L178.88 62.0753H180L177.454 68.5376Z" fill="#F0A538"/>
</svg>
