<svg width="170" height="66" viewBox="0 0 170 66" fill="none" xmlns="http://www.w3.org/2000/svg">
<path d="M43.3897 58.7401C39.8106 58.7401 36.1617 58.5295 32.8962 57.0406C24.7748 53.3375 19.8899 45.7323 19.8899 37.1674C19.8899 26.9318 28.0007 18.6361 38.0055 18.6361C44.0302 18.6361 49.3658 21.6464 52.6588 26.2741H58.5433C54.691 18.687 46.9403 13.5049 38.0055 13.5049C25.2306 13.5049 14.874 24.0991 14.874 37.1674C14.874 48.8839 20.9051 58.6119 33.4162 62.6908C36.4141 63.6681 39.5903 63.8713 42.7387 63.8713H64.7766V58.7401H43.3897Z" fill="#52C306"/>
<path d="M37.2223 38.5011H30.5708V31.6982H37.2223V38.5011Z" fill="#52C306"/>
<path d="M45.4406 38.5011H38.7891V31.6982H45.4406V38.5011Z" fill="#52C306"/>
<path d="M37.2223 46.9094H30.5708V40.1055H37.2223V46.9094Z" fill="#52C306"/>
<path d="M45.4406 46.9094H38.7891V40.1055H45.4406V46.9094Z" fill="#52C306"/>
<path d="M0 37.0084L34.8477 0V7.78309L7.22777 37.0084H0Z" fill="#52C306"/>
<path d="M60.3059 26.2738L34.8477 0V7.78309L53.078 26.2738H60.3059Z" fill="#52C306"/>
<path d="M30.8569 7.09668H37.8403L41.8309 12.6727V18.2488H25.8687V12.6727L30.8569 7.09668Z" fill="#52C306"/>
<path d="M53.6392 28.1848H59.1701V38.2217H59.3497L67.7538 28.1848H74.1108L65.0961 38.9881L74.1108 53.7332H67.8256L61.6123 42.8934L59.1701 45.6307V53.7332H53.6392V28.1848ZM88.5876 54.0617C86.0736 54.0617 83.9426 53.4777 82.1947 52.3098C80.4469 51.1175 79.13 49.5359 78.2441 47.5651C77.3821 45.5699 76.9511 43.3678 76.9511 40.959C76.9511 38.5501 77.3941 36.3359 78.28 34.3164C79.1659 32.2969 80.4828 30.691 82.2306 29.4987C83.9785 28.2821 86.0975 27.6738 88.5876 27.6738C91.0298 27.6738 93.1129 28.27 94.8368 29.4622C96.5847 30.6545 97.8896 32.2725 98.7516 34.3164C99.6375 36.3359 100.08 38.5623 100.08 40.9955C100.08 43.4287 99.6375 45.6429 98.7516 47.6381C97.8896 49.6089 96.5847 51.1783 94.8368 52.3463C93.1129 53.4899 91.0298 54.0617 88.5876 54.0617ZM88.5517 48.9885C90.3235 48.9885 91.6883 48.222 92.646 46.6891C93.6277 45.1562 94.1185 43.234 94.1185 40.9225C94.1185 38.6353 93.6397 36.7009 92.6819 35.1194C91.7242 33.5378 90.3475 32.747 88.5517 32.747C87.3306 32.747 86.289 33.1242 85.4271 33.8784C84.5891 34.6327 83.9546 35.6303 83.5236 36.8712C83.1166 38.1122 82.913 39.4626 82.913 40.9225C82.913 43.1853 83.3919 45.0954 84.3496 46.6526C85.3313 48.2099 86.732 48.9885 88.5517 48.9885ZM103.409 28.1848H109.91L119.104 45.0102H119.212V28.1848H124.743V53.7697H118.171L109.048 37.5647H108.94V53.7697H103.409V28.1848ZM146.659 33.1485H140.051V53.7332H134.484V33.1485H127.876V28.1848H146.659V33.1485ZM161.79 47.8206H153.745L151.95 53.7332H146.275L155.218 28.1848H160.426L169.297 53.7332H163.622L161.79 47.8206ZM160.426 43.4773L157.84 35.2289H157.624L155.11 43.4773H160.426Z" fill="white"/>
<path d="M70.4333 63.9422C69.7749 63.9422 69.2062 63.7834 68.7273 63.4657C68.2552 63.1413 67.896 62.702 67.6499 62.1478C67.4038 61.5935 67.2808 60.9717 67.2808 60.2823C67.2808 59.5929 67.4038 58.9711 67.6499 58.4169C67.9026 57.8626 68.2651 57.4267 68.7373 57.1091C69.2162 56.7846 69.7815 56.6224 70.4333 56.6224C71.2314 56.6224 71.8866 56.8522 72.3987 57.3118C72.9107 57.7714 73.2499 58.3831 73.4163 59.1468H72.4086C72.2889 58.6737 72.0528 58.2919 71.7003 58.0012C71.3544 57.7106 70.9354 57.5653 70.4433 57.5653C69.7716 57.5653 69.2561 57.8119 68.8969 58.3054C68.5378 58.7988 68.3582 59.4578 68.3582 60.2823C68.3582 61.1069 68.5378 61.7659 68.8969 62.2593C69.2561 62.7527 69.7716 62.9994 70.4433 62.9994C70.9155 62.9994 71.3179 62.8676 71.6504 62.604C71.9829 62.3404 72.2191 61.999 72.3587 61.58H73.3664C73.1868 62.2897 72.8443 62.8608 72.3388 63.2934C71.8333 63.726 71.1982 63.9422 70.4333 63.9422ZM76.7884 63.9422C76.2496 63.9422 75.794 63.8138 75.4216 63.557C75.0491 63.3002 74.7697 62.9622 74.5836 62.5432C74.404 62.1173 74.3142 61.6611 74.3142 61.1745C74.3142 60.6811 74.404 60.2248 74.5836 59.8058C74.7697 59.38 75.0491 59.0387 75.4216 58.7819C75.794 58.5183 76.2496 58.3865 76.7884 58.3865C77.3271 58.3865 77.7826 58.5183 78.1551 58.7819C78.5276 59.0387 78.8069 59.38 78.9932 59.8058C79.1793 60.2248 79.2725 60.6777 79.2725 61.1644C79.2725 61.651 79.1793 62.1072 78.9932 62.533C78.8069 62.952 78.5276 63.2934 78.1551 63.557C77.7826 63.8138 77.3271 63.9422 76.7884 63.9422ZM76.7884 63.0703C77.2473 63.0703 77.603 62.8879 77.8559 62.5229C78.1152 62.1579 78.2449 61.7017 78.2449 61.1542C78.2449 60.6067 78.1152 60.1539 77.8559 59.7957C77.603 59.4375 77.2473 59.2584 76.7884 59.2584C76.336 59.2584 75.9803 59.4409 75.7209 59.8058C75.4615 60.164 75.3318 60.6135 75.3318 61.1542C75.3318 61.7017 75.4581 62.1579 75.7109 62.5229C75.9703 62.8879 76.3295 63.0703 76.7884 63.0703ZM80.4277 58.5284H81.4652V59.4409H81.545C81.6714 59.1435 81.8776 58.8934 82.1636 58.6906C82.4496 58.4879 82.8021 58.3865 83.2211 58.3865C83.6734 58.3865 84.0458 58.498 84.3384 58.721C84.6311 58.9373 84.8439 59.2178 84.9769 59.5625C85.11 59.9004 85.1764 60.262 85.1764 60.6473V63.8713H84.1489V60.7994C84.1489 60.3127 84.0259 59.941 83.7797 59.6842C83.5403 59.4274 83.2211 59.2989 82.822 59.2989C82.403 59.2989 82.0705 59.4375 81.8244 59.7146C81.5849 59.9917 81.4652 60.3533 81.4652 60.7994V63.8713H80.4277V58.5284ZM88.343 63.9422C87.9107 63.9422 87.5383 63.8578 87.2256 63.6888C86.913 63.5198 86.6736 63.3002 86.5073 63.0298C86.3411 62.7527 86.2579 62.4654 86.2579 62.168V62.1173H87.2755V62.1579C87.2755 62.4012 87.3719 62.6209 87.5648 62.8169C87.7577 63.0062 88.0271 63.1008 88.3729 63.1008C88.6589 63.1008 88.895 63.0298 89.0812 62.8879C89.2675 62.7459 89.3605 62.5533 89.3605 62.31C89.3605 62.1004 89.2874 61.9382 89.1411 61.8233C88.9948 61.7017 88.8085 61.6206 88.5824 61.58L87.9239 61.4786C87.4984 61.411 87.1358 61.2589 86.8365 61.0224C86.5372 60.7791 86.3876 60.4276 86.3876 59.968C86.3876 59.4679 86.5639 59.0792 86.9163 58.8021C87.2689 58.5251 87.7244 58.3865 88.2831 58.3865C88.6888 58.3865 89.0413 58.4642 89.3406 58.6197C89.6399 58.7684 89.866 58.9677 90.019 59.2178C90.172 59.4679 90.2484 59.7382 90.2484 60.0289V60.0694H89.2309V60.0491C89.2309 59.8464 89.151 59.6504 88.9914 59.4611C88.8318 59.2718 88.5858 59.1773 88.2532 59.1773C87.9738 59.1773 87.7478 59.2482 87.5748 59.3902C87.4019 59.5321 87.3154 59.7179 87.3154 59.9478C87.3154 60.1437 87.3886 60.3026 87.5349 60.4243C87.6812 60.5459 87.8641 60.6237 88.0836 60.6574L88.8019 60.7892C89.2408 60.8703 89.6067 61.0292 89.8993 61.2657C90.1986 61.5023 90.3482 61.847 90.3482 62.2998C90.3482 62.6243 90.2618 62.9115 90.0888 63.1616C89.9159 63.4117 89.6765 63.6043 89.3705 63.7395C89.0646 63.8746 88.7221 63.9422 88.343 63.9422ZM93.0331 59.3597V62.2187C93.0331 62.4688 93.043 62.6513 93.063 62.7662C93.0896 62.8811 93.1528 62.9723 93.2525 63.0399C93.359 63.1076 93.5319 63.1413 93.7713 63.1413C93.9376 63.1413 94.1005 63.121 94.2602 63.0805V63.8206C94.2136 63.8409 94.1038 63.8611 93.9309 63.8814C93.758 63.9017 93.5851 63.9118 93.4122 63.9118C92.9932 63.9118 92.6806 63.851 92.4744 63.7293C92.2682 63.6009 92.1352 63.4387 92.0753 63.2427C92.0221 63.0399 91.9955 62.7763 91.9955 62.4519L92.0055 59.3597H91.0577V58.5284H92.0055V56.7745H93.0331V58.5284H94.2602V59.3597H93.0331ZM95.4408 58.5284H96.4683V59.38H96.5282C96.6147 59.1435 96.7676 58.9441 96.9871 58.7819C97.2133 58.6129 97.5026 58.5284 97.8551 58.5284C97.9482 58.5284 98.028 58.5318 98.0945 58.5385C98.161 58.5453 98.2276 58.5622 98.294 58.5892L98.2541 59.5828C98.0745 59.5287 97.8884 59.5017 97.6954 59.5017C97.3031 59.5017 97.0005 59.6165 96.7876 59.8464C96.5748 60.0694 96.4683 60.4412 96.4683 60.9616V63.8713H95.4408V58.5284ZM104.036 63.8713H102.998V62.9081H102.928C102.796 63.2055 102.589 63.4556 102.31 63.6584C102.031 63.8611 101.691 63.9625 101.292 63.9625C100.84 63.9625 100.471 63.8543 100.185 63.6381C99.9056 63.415 99.7031 63.1345 99.5764 62.7966C99.45 62.4519 99.3868 62.0903 99.3868 61.7118V58.5284H100.414V61.5597C100.414 62.0329 100.531 62.4012 100.764 62.6648C100.996 62.9284 101.305 63.0602 101.691 63.0602C102.097 63.0602 102.417 62.9216 102.649 62.6445C102.882 62.3607 102.998 61.999 102.998 61.5597V58.5284H104.036V63.8713ZM107.634 63.9524C107.082 63.9524 106.62 63.8206 106.248 63.557C105.874 63.2934 105.595 62.952 105.41 62.533C105.23 62.1072 105.14 61.651 105.14 61.1644C105.14 60.6845 105.23 60.235 105.41 59.816C105.595 59.3902 105.874 59.0455 106.248 58.7819C106.62 58.5183 107.082 58.3865 107.634 58.3865C108.319 58.3865 108.861 58.5892 109.26 58.9948C109.66 59.3935 109.899 59.8903 109.979 60.4851H108.971C108.911 60.1201 108.768 59.8261 108.542 59.6031C108.323 59.3732 108.023 59.2584 107.644 59.2584C107.151 59.2584 106.782 59.4409 106.537 59.8058C106.291 60.1708 106.168 60.6237 106.168 61.1644C106.168 61.705 106.291 62.1579 106.537 62.5229C106.782 62.8879 107.151 63.0703 107.644 63.0703C108.023 63.0703 108.323 62.9588 108.542 62.7358C108.768 62.5127 108.911 62.2187 108.971 61.8538H109.979C109.899 62.4486 109.66 62.9487 109.26 63.3542C108.861 63.753 108.319 63.9524 107.634 63.9524ZM112.683 59.3597V62.2187C112.683 62.4688 112.693 62.6513 112.713 62.7662C112.74 62.8811 112.803 62.9723 112.903 63.0399C113.01 63.1076 113.182 63.1413 113.422 63.1413C113.588 63.1413 113.751 63.121 113.91 63.0805V63.8206C113.865 63.8409 113.755 63.8611 113.581 63.8814C113.409 63.9017 113.236 63.9118 113.062 63.9118C112.643 63.9118 112.331 63.851 112.125 63.7293C111.919 63.6009 111.786 63.4387 111.726 63.2427C111.673 63.0399 111.646 62.7763 111.646 62.4519L111.656 59.3597H110.708V58.5284H111.656V56.7745H112.683V58.5284H113.91V59.3597H112.683ZM115.201 58.5284H116.229V63.8713H115.201V58.5284ZM115.71 57.5551C115.531 57.5551 115.381 57.4943 115.261 57.3726C115.142 57.251 115.082 57.0989 115.082 56.9164C115.082 56.7339 115.142 56.5819 115.261 56.4602C115.381 56.3385 115.531 56.2777 115.71 56.2777C115.89 56.2777 116.039 56.3419 116.159 56.4703C116.279 56.592 116.339 56.7407 116.339 56.9164C116.339 57.0921 116.279 57.2442 116.159 57.3726C116.039 57.4943 115.89 57.5551 115.71 57.5551ZM119.967 63.9422C119.428 63.9422 118.974 63.8138 118.6 63.557C118.228 63.3002 117.949 62.9622 117.762 62.5432C117.583 62.1173 117.493 61.6611 117.493 61.1745C117.493 60.6811 117.583 60.2248 117.762 59.8058C117.949 59.38 118.228 59.0387 118.6 58.7819C118.974 58.5183 119.428 58.3865 119.967 58.3865C120.506 58.3865 120.962 58.5183 121.334 58.7819C121.707 59.0387 121.986 59.38 122.172 59.8058C122.359 60.2248 122.451 60.6777 122.451 61.1644C122.451 61.651 122.359 62.1072 122.172 62.533C121.986 62.952 121.707 63.2934 121.334 63.557C120.962 63.8138 120.506 63.9422 119.967 63.9422ZM119.967 63.0703C120.426 63.0703 120.782 62.8879 121.035 62.5229C121.294 62.1579 121.424 61.7017 121.424 61.1542C121.424 60.6067 121.294 60.1539 121.035 59.7957C120.782 59.4375 120.426 59.2584 119.967 59.2584C119.515 59.2584 119.159 59.4409 118.9 59.8058C118.64 60.164 118.511 60.6135 118.511 61.1542C118.511 61.7017 118.637 62.1579 118.89 62.5229C119.149 62.8879 119.508 63.0703 119.967 63.0703ZM123.607 58.5284H124.644V59.4409H124.724C124.851 59.1435 125.057 58.8934 125.342 58.6906C125.629 58.4879 125.981 58.3865 126.4 58.3865C126.853 58.3865 127.225 58.498 127.517 58.721C127.811 58.9373 128.023 59.2178 128.156 59.5625C128.289 59.9004 128.355 60.262 128.355 60.6473V63.8713H127.328V60.7994C127.328 60.3127 127.205 59.941 126.959 59.6842C126.719 59.4274 126.4 59.2989 126.001 59.2989C125.582 59.2989 125.25 59.4375 125.003 59.7146C124.764 59.9917 124.644 60.3533 124.644 60.7994V63.8713H123.607V58.5284ZM132.016 56.7745H133.063V63.8713H132.016V56.7745ZM134.548 58.5284H135.585V59.4409H135.665C135.792 59.1435 135.997 58.8934 136.284 58.6906C136.57 58.4879 136.922 58.3865 137.341 58.3865C137.793 58.3865 138.166 58.498 138.458 58.721C138.751 58.9373 138.964 59.2178 139.097 59.5625C139.23 59.9004 139.296 60.262 139.296 60.6473V63.8713H138.269V60.7994C138.269 60.3127 138.146 59.941 137.9 59.6842C137.66 59.4274 137.341 59.2989 136.942 59.2989C136.523 59.2989 136.191 59.4375 135.944 59.7146C135.705 59.9917 135.585 60.3533 135.585 60.7994V63.8713H134.548V58.5284ZM142.582 63.9422C142.13 63.9422 141.741 63.8239 141.414 63.5874C141.089 63.3509 140.84 63.023 140.666 62.604C140.501 62.185 140.417 61.7085 140.417 61.1745C140.417 60.6338 140.501 60.1539 140.666 59.7349C140.84 59.3158 141.089 58.988 141.414 58.7515C141.748 58.5081 142.143 58.3865 142.602 58.3865C143.061 58.3865 143.427 58.4946 143.699 58.7109C143.972 58.9271 144.178 59.1773 144.318 59.4611H144.387V56.2676H145.435V63.8713H144.387V62.8372H144.318C144.172 63.1345 143.958 63.3948 143.679 63.6178C143.4 63.8341 143.035 63.9422 142.582 63.9422ZM142.921 63.0703C143.394 63.0703 143.753 62.8879 143.998 62.5229C144.252 62.1579 144.377 61.7085 144.377 61.1745C144.377 60.6405 144.252 60.1911 143.998 59.8261C143.753 59.4611 143.394 59.2786 142.921 59.2786C142.436 59.2786 142.073 59.4611 141.833 59.8261C141.594 60.1843 141.474 60.6304 141.474 61.1644C141.474 61.705 141.594 62.1579 141.833 62.5229C142.08 62.8879 142.442 63.0703 142.921 63.0703ZM151.453 63.8713H150.415V62.9081H150.345C150.213 63.2055 150.006 63.4556 149.727 63.6584C149.447 63.8611 149.108 63.9625 148.709 63.9625C148.257 63.9625 147.888 63.8543 147.602 63.6381C147.322 63.415 147.12 63.1345 146.993 62.7966C146.868 62.4519 146.804 62.0903 146.804 61.7118V58.5284H147.831V61.5597C147.831 62.0329 147.948 62.4012 148.18 62.6648C148.414 62.9284 148.723 63.0602 149.108 63.0602C149.514 63.0602 149.834 62.9216 150.066 62.6445C150.299 62.3607 150.415 61.999 150.415 61.5597V58.5284H151.453V63.8713ZM154.612 63.9422C154.179 63.9422 153.807 63.8578 153.495 63.6888C153.182 63.5198 152.942 63.3002 152.777 63.0298C152.61 62.7527 152.527 62.4654 152.527 62.168V62.1173H153.545V62.1579C153.545 62.4012 153.641 62.6209 153.834 62.8169C154.027 63.0062 154.296 63.1008 154.642 63.1008C154.927 63.1008 155.164 63.0298 155.35 62.8879C155.536 62.7459 155.63 62.5533 155.63 62.31C155.63 62.1004 155.556 61.9382 155.41 61.8233C155.264 61.7017 155.077 61.6206 154.852 61.58L154.193 61.4786C153.767 61.411 153.405 61.2589 153.106 61.0224C152.806 60.7791 152.657 60.4276 152.657 59.968C152.657 59.4679 152.832 59.0792 153.186 58.8021C153.538 58.5251 153.994 58.3865 154.552 58.3865C154.957 58.3865 155.311 58.4642 155.61 58.6197C155.909 58.7684 156.135 58.9677 156.288 59.2178C156.441 59.4679 156.518 59.7382 156.518 60.0289V60.0694H155.5V60.0491C155.5 59.8464 155.42 59.6504 155.261 59.4611C155.101 59.2718 154.855 59.1773 154.522 59.1773C154.243 59.1773 154.017 59.2482 153.844 59.3902C153.67 59.5321 153.585 59.7179 153.585 59.9478C153.585 60.1437 153.657 60.3026 153.804 60.4243C153.95 60.5459 154.133 60.6237 154.353 60.6574L155.071 60.7892C155.51 60.8703 155.875 61.0292 156.169 61.2657C156.468 61.5023 156.617 61.847 156.617 62.2998C156.617 62.6243 156.531 62.9115 156.358 63.1616C156.185 63.4117 155.945 63.6043 155.64 63.7395C155.334 63.8746 154.991 63.9422 154.612 63.9422ZM159.302 59.3597V62.2187C159.302 62.4688 159.312 62.6513 159.332 62.7662C159.359 62.8811 159.422 62.9723 159.522 63.0399C159.628 63.1076 159.801 63.1413 160.04 63.1413C160.207 63.1413 160.37 63.121 160.529 63.0805V63.8206C160.482 63.8409 160.373 63.8611 160.2 63.8814C160.027 63.9017 159.854 63.9118 159.681 63.9118C159.262 63.9118 158.95 63.851 158.743 63.7293C158.537 63.6009 158.404 63.4387 158.344 63.2427C158.292 63.0399 158.265 62.7763 158.265 62.4519L158.275 59.3597H157.327V58.5284H158.275V56.7745H159.302V58.5284H160.529V59.3597H159.302ZM161.709 58.5284H162.737V59.38H162.797C162.884 59.1435 163.036 58.9441 163.256 58.7819C163.482 58.6129 163.772 58.5284 164.124 58.5284C164.218 58.5284 164.297 58.5318 164.363 58.5385C164.43 58.5453 164.497 58.5622 164.563 58.5892L164.523 59.5828C164.343 59.5287 164.158 59.5017 163.964 59.5017C163.572 59.5017 163.27 59.6165 163.056 59.8464C162.844 60.0694 162.737 60.4412 162.737 60.9616V63.8713H161.709V58.5284ZM167.596 64.6215C167.49 64.8783 167.386 65.0912 167.286 65.2602C167.186 65.4359 167.017 65.6016 166.777 65.757C166.545 65.9192 166.239 66.0003 165.86 66.0003C165.66 66.0003 165.448 65.9732 165.221 65.9192V65.1588C165.381 65.1859 165.52 65.1994 165.64 65.1994C165.86 65.1994 166.036 65.1588 166.169 65.0777C166.303 64.9966 166.405 64.8884 166.478 64.7533C166.558 64.6248 166.648 64.439 166.748 64.1957L166.967 63.6584L165.032 58.5284H166.099L167.456 62.4925H167.516L168.942 58.5284H170L167.596 64.6215Z" fill="#52C306"/>
</svg>
